<svg width="364" height="468" viewBox="0 0 364 468" fill="none" xmlns="http://www.w3.org/2000/svg">
<g filter="url(#filter0_d)">
<g clip-path="url(#clip0)">
<rect opacity="0.8" x="14" y="348.379" width="336" height="98.6207" fill="url(#paint0_linear)" fill-opacity="0.2"/>
<g filter="url(#filter1_d)">
<g clip-path="url(#clip1)">
<path d="M14 19C14 12.3726 19.3726 7 26 7H338C344.627 7 350 12.3726 350 19V447H14V19Z" fill="white"/>
<g filter="url(#filter2_d)">
<path d="M14 19C14 12.3726 19.3726 7 26 7H338C344.627 7 350 12.3726 350 19V83H14V19Z" fill="#F3F4F9"/>
<rect x="294.5" y="27.5" width="35" height="35" rx="7.5" fill="white" stroke="#F3F4F9"/>
<path d="M315.445 42.4336L316.5 43.4883L312 47.9883L307.5 43.4883L308.555 42.4336L312 45.8789L315.445 42.4336Z" fill="#828282"/>
<rect x="101" y="23" width="43" height="43" rx="7.5" fill="white" stroke="#F3F4F9"/>
<path d="M116.699 37.75L129.25 50.3008L128.301 51.25L125.172 48.1211C124.656 48.4492 124.012 48.6719 123.238 48.7891V51.25H121.762V48.7891C120.52 48.6016 119.453 48.0391 118.562 47.1016C117.695 46.1406 117.262 45.0273 117.262 43.7617H118.527C118.527 44.8633 118.914 45.7773 119.688 46.5039C120.484 47.207 121.422 47.5586 122.5 47.5586C123.086 47.5586 123.66 47.4297 124.223 47.1719L122.992 45.9414C122.805 45.9883 122.641 46.0117 122.5 46.0117C121.891 46.0117 121.363 45.7891 120.918 45.3438C120.473 44.8984 120.25 44.3711 120.25 43.7617V43.1992L115.75 38.6992L116.699 37.75ZM124.75 43.8672L120.25 39.4023V39.2617C120.25 38.6523 120.473 38.125 120.918 37.6797C121.363 37.2344 121.891 37.0117 122.5 37.0117C123.109 37.0117 123.637 37.2344 124.082 37.6797C124.527 38.125 124.75 38.6523 124.75 39.2617V43.8672ZM127.738 43.7617C127.738 44.6289 127.516 45.4492 127.07 46.2227L126.156 45.2734C126.367 44.8047 126.473 44.3008 126.473 43.7617H127.738Z" fill="#828282"/>
<rect x="160.5" y="22.5" width="44" height="44" rx="8" fill="#EF6954"/>
<path d="M182.5 42.25C181.281 42.25 180.133 42.4258 179.055 42.7773V45.0977C179.055 45.4492 178.914 45.6836 178.633 45.8008C177.883 46.1523 177.215 46.6094 176.629 47.1719C176.488 47.3125 176.312 47.3828 176.102 47.3828C175.891 47.3828 175.715 47.3125 175.574 47.1719L173.711 45.3086C173.57 45.168 173.5 44.9922 173.5 44.7812C173.5 44.5703 173.57 44.3945 173.711 44.2539C176.172 41.9102 179.102 40.7383 182.5 40.7383C185.898 40.7383 188.828 41.9102 191.289 44.2539C191.43 44.3945 191.5 44.5703 191.5 44.7812C191.5 44.9922 191.43 45.168 191.289 45.3086L189.426 47.1719C189.285 47.3125 189.109 47.3828 188.898 47.3828C188.688 47.3828 188.512 47.3125 188.371 47.1719C187.785 46.6094 187.117 46.1523 186.367 45.8008C186.086 45.6836 185.945 45.4609 185.945 45.1328V42.8125C184.773 42.4375 183.625 42.25 182.5 42.25Z" fill="white"/>
<rect x="221" y="23" width="43" height="43" rx="7.5" fill="white" stroke="#F3F4F9"/>
<path d="M235.961 37.0117L249.25 50.3008L248.301 51.25L245.91 48.8594C245.77 48.9531 245.629 49 245.488 49H236.488C236.277 49 236.102 48.9297 235.961 48.7891C235.82 48.6484 235.75 48.4727 235.75 48.2617V40.7383C235.75 40.5273 235.82 40.3516 235.961 40.2109C236.102 40.0703 236.277 40 236.488 40H237.051L235.012 37.9609L235.961 37.0117ZM249.25 40.3867V48.4023L240.848 40H245.488C245.699 40 245.875 40.0703 246.016 40.2109C246.18 40.3516 246.262 40.5273 246.262 40.7383V43.375L249.25 40.3867Z" fill="#828282"/>
</g>
<rect x="30" y="379" width="304" height="52" rx="12" fill="#F3F4F9"/>
<path d="M58.05 400.969V402.11H54.809V411H53.451V402.11H50.196V400.969H58.05ZM60.101 413.093C60.059 413.186 60.0053 413.261 59.94 413.317C59.8793 413.373 59.7837 413.401 59.653 413.401H58.729L60.024 410.587L57.098 403.909H58.176C58.2833 403.909 58.3673 403.937 58.428 403.993C58.4887 404.044 58.533 404.103 58.561 404.168L60.458 408.634C60.5 408.737 60.535 408.839 60.563 408.942C60.5957 409.045 60.6237 409.15 60.647 409.257C60.6797 409.15 60.7123 409.045 60.745 408.942C60.7777 408.839 60.815 408.734 60.857 408.627L62.698 404.168C62.726 404.093 62.7727 404.033 62.838 403.986C62.908 403.935 62.9827 403.909 63.062 403.909H64.056L60.101 413.093ZM65.1861 413.401V403.909H65.9281C66.1054 403.909 66.2174 403.995 66.2641 404.168L66.3691 405.008C66.6724 404.639 67.0177 404.343 67.4051 404.119C67.7971 403.895 68.2474 403.783 68.7561 403.783C69.1621 403.783 69.5307 403.862 69.8621 404.021C70.1934 404.175 70.4757 404.406 70.7091 404.714C70.9424 405.017 71.1221 405.395 71.2481 405.848C71.3741 406.301 71.4371 406.821 71.4371 407.409C71.4371 407.932 71.3671 408.419 71.2271 408.872C71.0871 409.32 70.8864 409.71 70.6251 410.041C70.3637 410.368 70.0417 410.627 69.6591 410.818C69.2811 411.005 68.8541 411.098 68.3781 411.098C67.9394 411.098 67.5637 411.026 67.2511 410.881C66.9431 410.736 66.6701 410.531 66.4321 410.265V413.401H65.1861ZM68.3431 404.791C67.9371 404.791 67.5801 404.884 67.2721 405.071C66.9687 405.258 66.6887 405.521 66.4321 405.862V409.292C66.6607 409.6 66.9104 409.817 67.1811 409.943C67.4564 410.069 67.7621 410.132 68.0981 410.132C68.7561 410.132 69.2624 409.896 69.6171 409.425C69.9717 408.954 70.1491 408.282 70.1491 407.409C70.1491 406.947 70.1071 406.55 70.0231 406.219C69.9437 405.888 69.8271 405.617 69.6731 405.407C69.5191 405.192 69.3301 405.036 69.1061 404.938C68.8821 404.84 68.6277 404.791 68.3431 404.791ZM75.7177 403.797C76.1423 403.797 76.5343 403.869 76.8937 404.014C77.253 404.154 77.5633 404.359 77.8247 404.63C78.086 404.896 78.289 405.227 78.4337 405.624C78.583 406.016 78.6577 406.464 78.6577 406.968C78.6577 407.164 78.6367 407.295 78.5947 407.36C78.5527 407.425 78.4733 407.458 78.3567 407.458H73.6387C73.648 407.906 73.7087 408.296 73.8207 408.627C73.9327 408.958 74.0867 409.236 74.2827 409.46C74.4787 409.679 74.712 409.845 74.9827 409.957C75.2533 410.064 75.5567 410.118 75.8927 410.118C76.2053 410.118 76.4737 410.083 76.6977 410.013C76.9263 409.938 77.1223 409.859 77.2857 409.775C77.449 409.691 77.5843 409.614 77.6917 409.544C77.8037 409.469 77.8993 409.432 77.9787 409.432C78.0813 409.432 78.1607 409.472 78.2167 409.551L78.5667 410.006C78.4127 410.193 78.2283 410.356 78.0137 410.496C77.799 410.631 77.568 410.743 77.3207 410.832C77.078 410.921 76.826 410.986 76.5647 411.028C76.3033 411.075 76.0443 411.098 75.7877 411.098C75.2977 411.098 74.845 411.016 74.4297 410.853C74.019 410.685 73.662 410.442 73.3587 410.125C73.06 409.803 72.8267 409.406 72.6587 408.935C72.4907 408.464 72.4067 407.922 72.4067 407.311C72.4067 406.816 72.4813 406.354 72.6307 405.925C72.7847 405.496 73.004 405.125 73.2887 404.812C73.5733 404.495 73.921 404.247 74.3317 404.07C74.7423 403.888 75.2043 403.797 75.7177 403.797ZM75.7457 404.714C75.1437 404.714 74.67 404.889 74.3247 405.239C73.9793 405.584 73.7647 406.065 73.6807 406.681H77.5377C77.5377 406.392 77.498 406.128 77.4187 405.89C77.3393 405.647 77.2227 405.44 77.0687 405.267C76.9147 405.09 76.7257 404.954 76.5017 404.861C76.2823 404.763 76.0303 404.714 75.7457 404.714ZM85.0385 413.093C84.9965 413.186 84.9428 413.261 84.8775 413.317C84.8168 413.373 84.7212 413.401 84.5905 413.401H83.6665L84.9615 410.587L82.0355 403.909H83.1135C83.2208 403.909 83.3048 403.937 83.3655 403.993C83.4262 404.044 83.4705 404.103 83.4985 404.168L85.3955 408.634C85.4375 408.737 85.4725 408.839 85.5005 408.942C85.5332 409.045 85.5612 409.15 85.5845 409.257C85.6172 409.15 85.6498 409.045 85.6825 408.942C85.7152 408.839 85.7525 408.734 85.7945 408.627L87.6355 404.168C87.6635 404.093 87.7102 404.033 87.7755 403.986C87.8455 403.935 87.9202 403.909 87.9995 403.909H88.9935L85.0385 413.093ZM92.8158 403.797C93.3338 403.797 93.8005 403.883 94.2158 404.056C94.6358 404.229 94.9905 404.474 95.2798 404.791C95.5738 405.108 95.7978 405.493 95.9518 405.946C96.1105 406.394 96.1898 406.896 96.1898 407.451C96.1898 408.011 96.1105 408.515 95.9518 408.963C95.7978 409.411 95.5738 409.794 95.2798 410.111C94.9905 410.428 94.6358 410.673 94.2158 410.846C93.8005 411.014 93.3338 411.098 92.8158 411.098C92.2978 411.098 91.8288 411.014 91.4088 410.846C90.9935 410.673 90.6388 410.428 90.3448 410.111C90.0508 409.794 89.8245 409.411 89.6658 408.963C89.5072 408.515 89.4278 408.011 89.4278 407.451C89.4278 406.896 89.5072 406.394 89.6658 405.946C89.8245 405.493 90.0508 405.108 90.3448 404.791C90.6388 404.474 90.9935 404.229 91.4088 404.056C91.8288 403.883 92.2978 403.797 92.8158 403.797ZM92.8158 410.125C93.5158 410.125 94.0385 409.892 94.3838 409.425C94.7292 408.954 94.9018 408.298 94.9018 407.458C94.9018 406.613 94.7292 405.955 94.3838 405.484C94.0385 405.013 93.5158 404.777 92.8158 404.777C92.4612 404.777 92.1532 404.838 91.8918 404.959C91.6305 405.08 91.4112 405.255 91.2338 405.484C91.0612 405.713 90.9305 405.995 90.8418 406.331C90.7578 406.662 90.7158 407.038 90.7158 407.458C90.7158 407.878 90.7578 408.254 90.8418 408.585C90.9305 408.916 91.0612 409.196 91.2338 409.425C91.4112 409.649 91.6305 409.822 91.8918 409.943C92.1532 410.064 92.4612 410.125 92.8158 410.125ZM98.8031 403.909V408.431C98.8031 408.968 98.9268 409.383 99.1741 409.677C99.4215 409.971 99.7948 410.118 100.294 410.118C100.658 410.118 101.001 410.032 101.323 409.859C101.645 409.686 101.941 409.446 102.212 409.138V403.909H103.458V411H102.716C102.539 411 102.427 410.914 102.38 410.741L102.282 409.978C101.974 410.319 101.629 410.594 101.246 410.804C100.863 411.009 100.425 411.112 99.9301 411.112C99.5428 411.112 99.1998 411.049 98.9011 410.923C98.6071 410.792 98.3598 410.61 98.1591 410.377C97.9585 410.144 97.8068 409.861 97.7041 409.53C97.6061 409.199 97.5571 408.832 97.5571 408.431V403.909H98.8031ZM105.504 411V403.909H106.218C106.354 403.909 106.447 403.935 106.498 403.986C106.55 404.037 106.585 404.126 106.603 404.252L106.687 405.358C106.93 404.863 107.229 404.478 107.583 404.203C107.943 403.923 108.363 403.783 108.843 403.783C109.039 403.783 109.217 403.806 109.375 403.853C109.534 403.895 109.681 403.956 109.816 404.035L109.655 404.966C109.623 405.083 109.55 405.141 109.438 405.141C109.373 405.141 109.273 405.12 109.137 405.078C109.002 405.031 108.813 405.008 108.57 405.008C108.136 405.008 107.772 405.134 107.478 405.386C107.189 405.638 106.946 406.004 106.75 406.485V411H105.504ZM113.858 411V403.909H114.6C114.777 403.909 114.889 403.995 114.936 404.168L115.027 404.896C115.288 404.574 115.58 404.31 115.902 404.105C116.229 403.9 116.607 403.797 117.036 403.797C117.517 403.797 117.904 403.93 118.198 404.196C118.497 404.462 118.711 404.821 118.842 405.274C118.94 405.017 119.068 404.796 119.227 404.609C119.39 404.422 119.572 404.268 119.773 404.147C119.974 404.026 120.186 403.937 120.41 403.881C120.639 403.825 120.87 403.797 121.103 403.797C121.476 403.797 121.808 403.858 122.097 403.979C122.391 404.096 122.638 404.268 122.839 404.497C123.044 404.726 123.201 405.008 123.308 405.344C123.415 405.675 123.469 406.056 123.469 406.485V411H122.223V406.485C122.223 405.93 122.102 405.51 121.859 405.225C121.616 404.936 121.264 404.791 120.802 404.791C120.597 404.791 120.401 404.828 120.214 404.903C120.032 404.973 119.871 405.078 119.731 405.218C119.591 405.358 119.479 405.535 119.395 405.75C119.316 405.96 119.276 406.205 119.276 406.485V411H118.03V406.485C118.03 405.916 117.916 405.491 117.687 405.211C117.458 404.931 117.125 404.791 116.686 404.791C116.378 404.791 116.091 404.875 115.825 405.043C115.564 405.206 115.323 405.43 115.104 405.715V411H113.858ZM128.163 403.797C128.588 403.797 128.98 403.869 129.339 404.014C129.698 404.154 130.009 404.359 130.27 404.63C130.531 404.896 130.734 405.227 130.879 405.624C131.028 406.016 131.103 406.464 131.103 406.968C131.103 407.164 131.082 407.295 131.04 407.36C130.998 407.425 130.919 407.458 130.802 407.458H126.084C126.093 407.906 126.154 408.296 126.266 408.627C126.378 408.958 126.532 409.236 126.728 409.46C126.924 409.679 127.157 409.845 127.428 409.957C127.699 410.064 128.002 410.118 128.338 410.118C128.651 410.118 128.919 410.083 129.143 410.013C129.372 409.938 129.568 409.859 129.731 409.775C129.894 409.691 130.03 409.614 130.137 409.544C130.249 409.469 130.345 409.432 130.424 409.432C130.527 409.432 130.606 409.472 130.662 409.551L131.012 410.006C130.858 410.193 130.674 410.356 130.459 410.496C130.244 410.631 130.013 410.743 129.766 410.832C129.523 410.921 129.271 410.986 129.01 411.028C128.749 411.075 128.49 411.098 128.233 411.098C127.743 411.098 127.29 411.016 126.875 410.853C126.464 410.685 126.107 410.442 125.804 410.125C125.505 409.803 125.272 409.406 125.104 408.935C124.936 408.464 124.852 407.922 124.852 407.311C124.852 406.816 124.927 406.354 125.076 405.925C125.23 405.496 125.449 405.125 125.734 404.812C126.019 404.495 126.366 404.247 126.777 404.07C127.188 403.888 127.65 403.797 128.163 403.797ZM128.191 404.714C127.589 404.714 127.115 404.889 126.77 405.239C126.425 405.584 126.21 406.065 126.126 406.681H129.983C129.983 406.392 129.943 406.128 129.864 405.89C129.785 405.647 129.668 405.44 129.514 405.267C129.36 405.09 129.171 404.954 128.947 404.861C128.728 404.763 128.476 404.714 128.191 404.714ZM136.758 405.078C136.702 405.181 136.615 405.232 136.499 405.232C136.429 405.232 136.349 405.206 136.261 405.155C136.172 405.104 136.062 405.048 135.932 404.987C135.806 404.922 135.654 404.863 135.477 404.812C135.299 404.756 135.089 404.728 134.847 404.728C134.637 404.728 134.448 404.756 134.28 404.812C134.112 404.863 133.967 404.936 133.846 405.029C133.729 405.122 133.638 405.232 133.573 405.358C133.512 405.479 133.482 405.612 133.482 405.757C133.482 405.939 133.533 406.091 133.636 406.212C133.743 406.333 133.883 406.438 134.056 406.527C134.228 406.616 134.424 406.695 134.644 406.765C134.863 406.83 135.087 406.903 135.316 406.982C135.549 407.057 135.775 407.141 135.995 407.234C136.214 407.327 136.41 407.444 136.583 407.584C136.755 407.724 136.893 407.897 136.996 408.102C137.103 408.303 137.157 408.545 137.157 408.83C137.157 409.157 137.098 409.46 136.982 409.74C136.865 410.015 136.692 410.256 136.464 410.461C136.235 410.662 135.955 410.82 135.624 410.937C135.292 411.054 134.91 411.112 134.476 411.112C133.981 411.112 133.533 411.033 133.132 410.874C132.73 410.711 132.39 410.503 132.11 410.251L132.404 409.775C132.441 409.714 132.485 409.668 132.537 409.635C132.588 409.602 132.656 409.586 132.74 409.586C132.824 409.586 132.912 409.619 133.006 409.684C133.099 409.749 133.211 409.822 133.342 409.901C133.477 409.98 133.638 410.053 133.825 410.118C134.016 410.183 134.254 410.216 134.539 410.216C134.781 410.216 134.994 410.186 135.176 410.125C135.358 410.06 135.509 409.973 135.631 409.866C135.752 409.759 135.841 409.635 135.897 409.495C135.957 409.355 135.988 409.206 135.988 409.047C135.988 408.851 135.934 408.69 135.827 408.564C135.724 408.433 135.586 408.324 135.414 408.235C135.241 408.142 135.043 408.062 134.819 407.997C134.599 407.927 134.373 407.855 134.14 407.78C133.911 407.705 133.685 407.621 133.461 407.528C133.241 407.43 133.045 407.309 132.873 407.164C132.7 407.019 132.56 406.842 132.453 406.632C132.35 406.417 132.299 406.158 132.299 405.855C132.299 405.584 132.355 405.325 132.467 405.078C132.579 404.826 132.742 404.607 132.957 404.42C133.171 404.229 133.435 404.077 133.748 403.965C134.06 403.853 134.417 403.797 134.819 403.797C135.285 403.797 135.703 403.872 136.072 404.021C136.445 404.166 136.767 404.366 137.038 404.623L136.758 405.078ZM142.828 405.078C142.772 405.181 142.686 405.232 142.569 405.232C142.499 405.232 142.42 405.206 142.331 405.155C142.242 405.104 142.133 405.048 142.002 404.987C141.876 404.922 141.724 404.863 141.547 404.812C141.37 404.756 141.16 404.728 140.917 404.728C140.707 404.728 140.518 404.756 140.35 404.812C140.182 404.863 140.037 404.936 139.916 405.029C139.799 405.122 139.708 405.232 139.643 405.358C139.582 405.479 139.552 405.612 139.552 405.757C139.552 405.939 139.603 406.091 139.706 406.212C139.813 406.333 139.953 406.438 140.126 406.527C140.299 406.616 140.495 406.695 140.714 406.765C140.933 406.83 141.157 406.903 141.386 406.982C141.619 407.057 141.846 407.141 142.065 407.234C142.284 407.327 142.48 407.444 142.653 407.584C142.826 407.724 142.963 407.897 143.066 408.102C143.173 408.303 143.227 408.545 143.227 408.83C143.227 409.157 143.169 409.46 143.052 409.74C142.935 410.015 142.763 410.256 142.534 410.461C142.305 410.662 142.025 410.82 141.694 410.937C141.363 411.054 140.98 411.112 140.546 411.112C140.051 411.112 139.603 411.033 139.202 410.874C138.801 410.711 138.46 410.503 138.18 410.251L138.474 409.775C138.511 409.714 138.556 409.668 138.607 409.635C138.658 409.602 138.726 409.586 138.81 409.586C138.894 409.586 138.983 409.619 139.076 409.684C139.169 409.749 139.281 409.822 139.412 409.901C139.547 409.98 139.708 410.053 139.895 410.118C140.086 410.183 140.324 410.216 140.609 410.216C140.852 410.216 141.064 410.186 141.246 410.125C141.428 410.06 141.58 409.973 141.701 409.866C141.822 409.759 141.911 409.635 141.967 409.495C142.028 409.355 142.058 409.206 142.058 409.047C142.058 408.851 142.004 408.69 141.897 408.564C141.794 408.433 141.657 408.324 141.484 408.235C141.311 408.142 141.113 408.062 140.889 407.997C140.67 407.927 140.443 407.855 140.21 407.78C139.981 407.705 139.755 407.621 139.531 407.528C139.312 407.43 139.116 407.309 138.943 407.164C138.77 407.019 138.63 406.842 138.523 406.632C138.42 406.417 138.369 406.158 138.369 405.855C138.369 405.584 138.425 405.325 138.537 405.078C138.649 404.826 138.812 404.607 139.027 404.42C139.242 404.229 139.505 404.077 139.818 403.965C140.131 403.853 140.488 403.797 140.889 403.797C141.356 403.797 141.773 403.872 142.142 404.021C142.515 404.166 142.837 404.366 143.108 404.623L142.828 405.078ZM150.046 411H149.493C149.372 411 149.274 410.981 149.199 410.944C149.125 410.907 149.076 410.827 149.052 410.706L148.912 410.048C148.726 410.216 148.544 410.368 148.366 410.503C148.189 410.634 148.002 410.746 147.806 410.839C147.61 410.928 147.4 410.995 147.176 411.042C146.957 411.089 146.712 411.112 146.441 411.112C146.166 411.112 145.907 411.075 145.664 411C145.426 410.921 145.219 410.804 145.041 410.65C144.864 410.496 144.722 410.302 144.614 410.069C144.512 409.831 144.46 409.551 144.46 409.229C144.46 408.949 144.537 408.681 144.691 408.424C144.845 408.163 145.093 407.932 145.433 407.731C145.779 407.53 146.229 407.367 146.784 407.241C147.34 407.11 148.019 407.036 148.821 407.017V406.464C148.821 405.913 148.702 405.498 148.464 405.218C148.231 404.933 147.883 404.791 147.421 404.791C147.118 404.791 146.861 404.831 146.651 404.91C146.446 404.985 146.266 405.071 146.112 405.169C145.963 405.262 145.832 405.349 145.72 405.428C145.613 405.503 145.506 405.54 145.398 405.54C145.314 405.54 145.24 405.519 145.174 405.477C145.114 405.43 145.065 405.374 145.027 405.309L144.803 404.91C145.195 404.532 145.618 404.25 146.07 404.063C146.523 403.876 147.025 403.783 147.575 403.783C147.972 403.783 148.324 403.848 148.632 403.979C148.94 404.11 149.199 404.292 149.409 404.525C149.619 404.758 149.778 405.041 149.885 405.372C149.993 405.703 150.046 406.067 150.046 406.464V411ZM146.812 410.237C147.032 410.237 147.232 410.216 147.414 410.174C147.596 410.127 147.767 410.064 147.925 409.985C148.089 409.901 148.243 409.801 148.387 409.684C148.537 409.567 148.681 409.434 148.821 409.285V407.808C148.247 407.827 147.76 407.873 147.358 407.948C146.957 408.018 146.63 408.111 146.378 408.228C146.126 408.345 145.942 408.482 145.825 408.641C145.713 408.8 145.657 408.977 145.657 409.173C145.657 409.36 145.688 409.521 145.748 409.656C145.809 409.791 145.891 409.903 145.993 409.992C146.096 410.076 146.217 410.139 146.357 410.181C146.497 410.218 146.649 410.237 146.812 410.237ZM154.321 403.79C154.629 403.79 154.916 403.825 155.182 403.895C155.453 403.96 155.698 404.058 155.917 404.189H157.842V404.651C157.842 404.805 157.744 404.903 157.548 404.945L156.743 405.057C156.902 405.36 156.981 405.699 156.981 406.072C156.981 406.417 156.913 406.732 156.778 407.017C156.647 407.297 156.463 407.537 156.225 407.738C155.992 407.939 155.712 408.093 155.385 408.2C155.063 408.307 154.708 408.361 154.321 408.361C153.99 408.361 153.677 408.321 153.383 408.242C153.234 408.335 153.119 408.436 153.04 408.543C152.965 408.65 152.928 408.755 152.928 408.858C152.928 409.026 152.996 409.154 153.131 409.243C153.266 409.327 153.446 409.388 153.67 409.425C153.894 409.462 154.148 409.486 154.433 409.495C154.718 409.504 155.007 409.521 155.301 409.544C155.6 409.563 155.891 409.598 156.176 409.649C156.461 409.7 156.715 409.784 156.939 409.901C157.163 410.018 157.343 410.179 157.478 410.384C157.613 410.589 157.681 410.855 157.681 411.182C157.681 411.485 157.604 411.779 157.45 412.064C157.301 412.349 157.084 412.601 156.799 412.82C156.514 413.044 156.167 413.221 155.756 413.352C155.345 413.487 154.881 413.555 154.363 413.555C153.845 413.555 153.39 413.504 152.998 413.401C152.611 413.298 152.289 413.161 152.032 412.988C151.775 412.815 151.582 412.615 151.451 412.386C151.325 412.162 151.262 411.926 151.262 411.679C151.262 411.329 151.372 411.033 151.591 410.79C151.815 410.543 152.121 410.347 152.508 410.202C152.307 410.109 152.146 409.985 152.025 409.831C151.908 409.672 151.85 409.462 151.85 409.201C151.85 409.098 151.869 408.993 151.906 408.886C151.943 408.774 151.999 408.664 152.074 408.557C152.153 408.45 152.249 408.347 152.361 408.249C152.473 408.151 152.604 408.065 152.753 407.99C152.403 407.794 152.128 407.535 151.927 407.213C151.731 406.886 151.633 406.506 151.633 406.072C151.633 405.727 151.698 405.414 151.829 405.134C151.964 404.849 152.151 404.609 152.389 404.413C152.627 404.212 152.909 404.058 153.236 403.951C153.567 403.844 153.929 403.79 154.321 403.79ZM156.533 411.385C156.533 411.208 156.484 411.065 156.386 410.958C156.288 410.851 156.155 410.769 155.987 410.713C155.819 410.652 155.625 410.608 155.406 410.58C155.187 410.552 154.956 410.533 154.713 410.524C154.47 410.51 154.223 410.496 153.971 410.482C153.719 410.468 153.479 410.442 153.25 410.405C152.984 410.531 152.767 410.685 152.599 410.867C152.436 411.049 152.354 411.266 152.354 411.518C152.354 411.677 152.394 411.824 152.473 411.959C152.557 412.099 152.683 412.218 152.851 412.316C153.019 412.419 153.229 412.498 153.481 412.554C153.738 412.615 154.039 412.645 154.384 412.645C154.72 412.645 155.021 412.615 155.287 412.554C155.553 412.493 155.777 412.407 155.959 412.295C156.146 412.183 156.288 412.05 156.386 411.896C156.484 411.742 156.533 411.572 156.533 411.385ZM154.321 407.535C154.573 407.535 154.795 407.5 154.986 407.43C155.182 407.36 155.345 407.262 155.476 407.136C155.607 407.01 155.705 406.861 155.77 406.688C155.835 406.511 155.868 406.317 155.868 406.107C155.868 405.673 155.735 405.328 155.469 405.071C155.208 404.814 154.825 404.686 154.321 404.686C153.822 404.686 153.439 404.814 153.173 405.071C152.912 405.328 152.781 405.673 152.781 406.107C152.781 406.317 152.814 406.511 152.879 406.688C152.949 406.861 153.049 407.01 153.18 407.136C153.311 407.262 153.472 407.36 153.663 407.43C153.854 407.5 154.074 407.535 154.321 407.535ZM161.892 403.797C162.316 403.797 162.708 403.869 163.068 404.014C163.427 404.154 163.737 404.359 163.999 404.63C164.26 404.896 164.463 405.227 164.608 405.624C164.757 406.016 164.832 406.464 164.832 406.968C164.832 407.164 164.811 407.295 164.769 407.36C164.727 407.425 164.647 407.458 164.531 407.458H159.812C159.822 407.906 159.883 408.296 159.995 408.627C160.107 408.958 160.261 409.236 160.457 409.46C160.653 409.679 160.886 409.845 161.157 409.957C161.427 410.064 161.731 410.118 162.067 410.118C162.379 410.118 162.648 410.083 162.872 410.013C163.1 409.938 163.296 409.859 163.46 409.775C163.623 409.691 163.758 409.614 163.866 409.544C163.978 409.469 164.073 409.432 164.153 409.432C164.255 409.432 164.335 409.472 164.391 409.551L164.741 410.006C164.587 410.193 164.402 410.356 164.188 410.496C163.973 410.631 163.742 410.743 163.495 410.832C163.252 410.921 163 410.986 162.739 411.028C162.477 411.075 162.218 411.098 161.962 411.098C161.472 411.098 161.019 411.016 160.604 410.853C160.193 410.685 159.836 410.442 159.533 410.125C159.234 409.803 159.001 409.406 158.833 408.935C158.665 408.464 158.581 407.922 158.581 407.311C158.581 406.816 158.655 406.354 158.805 405.925C158.959 405.496 159.178 405.125 159.463 404.812C159.747 404.495 160.095 404.247 160.506 404.07C160.916 403.888 161.378 403.797 161.892 403.797ZM161.919 404.714C161.318 404.714 160.844 404.889 160.499 405.239C160.153 405.584 159.939 406.065 159.855 406.681H163.712C163.712 406.392 163.672 406.128 163.593 405.89C163.513 405.647 163.397 405.44 163.243 405.267C163.089 405.09 162.9 404.954 162.676 404.861C162.456 404.763 162.204 404.714 161.919 404.714Z" fill="#828282"/>
<rect x="292" y="389" width="32" height="32" rx="8" fill="#0F80E9"/>
<path d="M300.512 411.75V406.512L311.762 405L300.512 403.488V398.25L316.262 405L300.512 411.75Z" fill="white"/>
</g>
</g>
</g>
</g>
<defs>
<filter id="filter0_d" x="0" y="0" width="364" height="468" filterUnits="userSpaceOnUse" color-interpolation-filters="sRGB">
<feFlood flood-opacity="0" result="BackgroundImageFix"/>
<feColorMatrix in="SourceAlpha" type="matrix" values="0 0 0 0 0 0 0 0 0 0 0 0 0 0 0 0 0 0 127 0"/>
<feOffset dy="7"/>
<feGaussianBlur stdDeviation="7"/>
<feColorMatrix type="matrix" values="0 0 0 0 0 0 0 0 0 0 0 0 0 0 0 0 0 0 0.1 0"/>
<feBlend mode="normal" in2="BackgroundImageFix" result="effect1_dropShadow"/>
<feBlend mode="normal" in="SourceGraphic" in2="effect1_dropShadow" result="shape"/>
</filter>
<filter id="filter1_d" x="0" y="0" width="364" height="468" filterUnits="userSpaceOnUse" color-interpolation-filters="sRGB">
<feFlood flood-opacity="0" result="BackgroundImageFix"/>
<feColorMatrix in="SourceAlpha" type="matrix" values="0 0 0 0 0 0 0 0 0 0 0 0 0 0 0 0 0 0 127 0"/>
<feOffset dy="7"/>
<feGaussianBlur stdDeviation="7"/>
<feColorMatrix type="matrix" values="0 0 0 0 0 0 0 0 0 0 0 0 0 0 0 0 0 0 0.1 0"/>
<feBlend mode="normal" in2="BackgroundImageFix" result="effect1_dropShadow"/>
<feBlend mode="normal" in="SourceGraphic" in2="effect1_dropShadow" result="shape"/>
</filter>
<filter id="filter2_d" x="0" y="0" width="364" height="104" filterUnits="userSpaceOnUse" color-interpolation-filters="sRGB">
<feFlood flood-opacity="0" result="BackgroundImageFix"/>
<feColorMatrix in="SourceAlpha" type="matrix" values="0 0 0 0 0 0 0 0 0 0 0 0 0 0 0 0 0 0 127 0"/>
<feOffset dy="7"/>
<feGaussianBlur stdDeviation="7"/>
<feColorMatrix type="matrix" values="0 0 0 0 0 0 0 0 0 0 0 0 0 0 0 0 0 0 0.1 0"/>
<feBlend mode="normal" in2="BackgroundImageFix" result="effect1_dropShadow"/>
<feBlend mode="normal" in="SourceGraphic" in2="effect1_dropShadow" result="shape"/>
</filter>
<linearGradient id="paint0_linear" x1="14" y1="348.379" x2="14" y2="447" gradientUnits="userSpaceOnUse">
<stop stop-opacity="0.01"/>
<stop offset="1"/>
</linearGradient>
<clipPath id="clip0">
<path d="M14 19C14 12.3726 19.3726 7 26 7H338C344.627 7 350 12.3726 350 19V435C350 441.627 344.627 447 338 447H26C19.3726 447 14 441.627 14 435V19Z" fill="white"/>
</clipPath>
<clipPath id="clip1">
<path d="M14 19C14 12.3726 19.3726 7 26 7H338C344.627 7 350 12.3726 350 19V447H14V19Z" fill="white"/>
</clipPath>
</defs>
</svg>
