<svg width="91" height="53" viewBox="0 0 91 53" fill="none" xmlns="http://www.w3.org/2000/svg">
<g filter="url(#filter0_d)">
<path d="M22.8537 7.77963C23.9203 7.77963 24.8963 7.93963 25.7817 8.25963C26.667 8.56896 27.4243 9.01163 28.0537 9.58763C28.683 10.1636 29.1737 10.857 29.5257 11.6676C29.8777 12.4783 30.0537 13.3796 30.0537 14.3716C30.0537 15.225 29.9257 16.0143 29.6697 16.7396C29.4243 17.465 29.0883 18.1583 28.6617 18.8196C28.2457 19.481 27.755 20.121 27.1897 20.7396C26.6243 21.3583 26.0323 21.9876 25.4137 22.6276L20.1977 27.9556C20.7097 27.8063 21.211 27.6943 21.7017 27.6196C22.1923 27.5343 22.6617 27.4916 23.1097 27.4916H29.0457C29.4723 27.4916 29.8083 27.6143 30.0537 27.8596C30.3097 28.0943 30.4377 28.409 30.4377 28.8036V31.1716H14.5657V29.8596C14.5657 29.593 14.619 29.3156 14.7257 29.0276C14.843 28.7396 15.0243 28.473 15.2697 28.2276L22.2937 21.1876C22.8803 20.5903 23.403 20.0196 23.8617 19.4756C24.331 18.9316 24.7203 18.393 25.0297 17.8596C25.3497 17.3263 25.5897 16.7876 25.7497 16.2436C25.9203 15.689 26.0057 15.1076 26.0057 14.4996C26.0057 13.945 25.9257 13.4596 25.7657 13.0436C25.6057 12.617 25.3763 12.2596 25.0777 11.9716C24.779 11.6836 24.4217 11.4703 24.0057 11.3316C23.6003 11.1823 23.1417 11.1076 22.6297 11.1076C21.6803 11.1076 20.8963 11.3476 20.2777 11.8276C19.6697 12.3076 19.243 12.953 18.9977 13.7636C18.8803 14.169 18.7043 14.4623 18.4697 14.6436C18.235 14.8143 17.9363 14.8996 17.5737 14.8996C17.4137 14.8996 17.2377 14.8836 17.0457 14.8516L14.9657 14.4836C15.1257 13.3743 15.435 12.4036 15.8937 11.5716C16.3523 10.729 16.923 10.0303 17.6057 9.47563C18.299 8.9103 19.0883 8.48896 19.9737 8.21163C20.8697 7.92363 21.8297 7.77963 22.8537 7.77963ZM33.5922 28.9956C33.5922 28.665 33.6508 28.3503 33.7682 28.0516C33.8962 27.753 34.0668 27.497 34.2802 27.2836C34.5042 27.0703 34.7655 26.8996 35.0642 26.7716C35.3628 26.6436 35.6828 26.5796 36.0242 26.5796C36.3548 26.5796 36.6695 26.6436 36.9682 26.7716C37.2668 26.8996 37.5228 27.0703 37.7362 27.2836C37.9495 27.497 38.1202 27.753 38.2482 28.0516C38.3762 28.3503 38.4402 28.665 38.4402 28.9956C38.4402 29.337 38.3762 29.657 38.2482 29.9556C38.1202 30.2436 37.9495 30.4943 37.7362 30.7076C37.5228 30.921 37.2668 31.0863 36.9682 31.2036C36.6695 31.3316 36.3548 31.3956 36.0242 31.3956C35.6828 31.3956 35.3628 31.3316 35.0642 31.2036C34.7655 31.0863 34.5042 30.921 34.2802 30.7076C34.0668 30.4943 33.8962 30.2436 33.7682 29.9556C33.6508 29.657 33.5922 29.337 33.5922 28.9956ZM33.5922 17.5876C33.5922 17.257 33.6508 16.9423 33.7682 16.6436C33.8962 16.345 34.0668 16.089 34.2802 15.8756C34.5042 15.6623 34.7655 15.4916 35.0642 15.3636C35.3628 15.2356 35.6828 15.1716 36.0242 15.1716C36.3548 15.1716 36.6695 15.2356 36.9682 15.3636C37.2668 15.4916 37.5228 15.6623 37.7362 15.8756C37.9495 16.089 38.1202 16.345 38.2482 16.6436C38.3762 16.9423 38.4402 17.257 38.4402 17.5876C38.4402 17.929 38.3762 18.249 38.2482 18.5476C38.1202 18.8356 37.9495 19.0863 37.7362 19.2996C37.5228 19.513 37.2668 19.6836 36.9682 19.8116C36.6695 19.929 36.3548 19.9876 36.0242 19.9876C35.6828 19.9876 35.3628 19.929 35.0642 19.8116C34.7655 19.6836 34.5042 19.513 34.2802 19.2996C34.0668 19.0863 33.8962 18.8356 33.7682 18.5476C33.6508 18.249 33.5922 17.929 33.5922 17.5876ZM56.0769 9.71563C56.0769 10.281 55.8956 10.7396 55.5329 11.0916C55.1809 11.4436 54.5889 11.6196 53.7569 11.6196H47.3889L46.5569 16.4516C47.6023 16.2383 48.5569 16.1316 49.4209 16.1316C50.6369 16.1316 51.7036 16.313 52.6209 16.6756C53.5489 17.0383 54.3276 17.5396 54.9569 18.1796C55.5863 18.8196 56.0609 19.5716 56.3809 20.4356C56.7009 21.289 56.8609 22.2116 56.8609 23.2036C56.8609 24.4303 56.6423 25.5503 56.2049 26.5636C55.7783 27.577 55.1809 28.4463 54.4129 29.1716C53.6449 29.8863 52.7329 30.441 51.6769 30.8356C50.6316 31.2303 49.4903 31.4276 48.2529 31.4276C47.5276 31.4276 46.8396 31.353 46.1889 31.2036C45.5383 31.0543 44.9249 30.857 44.3489 30.6116C43.7836 30.3556 43.2556 30.0676 42.7649 29.7476C42.2849 29.417 41.8529 29.0703 41.4689 28.7076L42.6849 27.0276C42.9409 26.665 43.2823 26.4836 43.7089 26.4836C43.9756 26.4836 44.2423 26.569 44.5089 26.7396C44.7863 26.9103 45.1063 27.097 45.4689 27.2996C45.8316 27.5023 46.2529 27.689 46.7329 27.8596C47.2129 28.0303 47.7943 28.1156 48.4769 28.1156C49.2023 28.1156 49.8423 27.9983 50.3969 27.7636C50.9516 27.529 51.4103 27.2036 51.7729 26.7876C52.1463 26.361 52.4236 25.8596 52.6049 25.2836C52.7969 24.697 52.8929 24.0623 52.8929 23.3796C52.8929 22.121 52.5249 21.1396 51.7889 20.4356C51.0636 19.721 49.9916 19.3636 48.5729 19.3636C47.4529 19.3636 46.3276 19.5663 45.1969 19.9716L42.7329 19.2676L44.6529 8.03563H56.0769V9.71563ZM67.2954 21.9396C66.4954 21.9396 65.7114 21.801 64.9434 21.5236C64.1754 21.2463 63.4874 20.8303 62.8794 20.2756C62.2821 19.7103 61.8021 19.017 61.4394 18.1956C61.0768 17.3636 60.8954 16.393 60.8954 15.2836C60.8954 14.249 61.0874 13.2783 61.4714 12.3716C61.8554 11.465 62.3941 10.6703 63.0874 9.98763C63.7808 9.30496 64.6128 8.7663 65.5834 8.37163C66.5541 7.97696 67.6261 7.77963 68.7994 7.77963C69.9834 7.77963 71.0448 7.9663 71.9834 8.33963C72.9328 8.71296 73.7381 9.23563 74.3994 9.90763C75.0714 10.5796 75.5834 11.385 75.9354 12.3236C76.2981 13.2623 76.4794 14.2916 76.4794 15.4116C76.4794 16.1263 76.4154 16.8036 76.2874 17.4436C76.1701 18.0836 75.9941 18.7023 75.7594 19.2996C75.5354 19.8863 75.2634 20.4623 74.9434 21.0276C74.6234 21.5823 74.2661 22.1423 73.8714 22.7076L68.5754 30.2596C68.3941 30.5156 68.1221 30.7343 67.7594 30.9156C67.4074 31.0863 67.0021 31.1716 66.5434 31.1716H62.9114L70.0954 22.1956C70.2768 21.9716 70.4474 21.753 70.6074 21.5396C70.7674 21.3263 70.9221 21.113 71.0714 20.8996C70.5381 21.241 69.9514 21.5023 69.3114 21.6836C68.6714 21.8543 67.9994 21.9396 67.2954 21.9396ZM72.6874 15.0116C72.6874 14.3823 72.5914 13.8223 72.3994 13.3316C72.2074 12.8303 71.9354 12.409 71.5834 12.0676C71.2314 11.7263 70.8101 11.465 70.3194 11.2836C69.8394 11.1023 69.3114 11.0116 68.7354 11.0116C68.1381 11.0116 67.5994 11.113 67.1194 11.3156C66.6394 11.5076 66.2288 11.7796 65.8874 12.1316C65.5568 12.4836 65.3008 12.905 65.1194 13.3956C64.9381 13.8756 64.8474 14.4036 64.8474 14.9796C64.8474 16.2703 65.1781 17.257 65.8394 17.9396C66.5114 18.6116 67.4608 18.9476 68.6874 18.9476C69.3274 18.9476 69.8928 18.8463 70.3834 18.6436C70.8848 18.441 71.3061 18.1636 71.6474 17.8116C71.9888 17.4596 72.2448 17.0436 72.4154 16.5636C72.5968 16.0836 72.6874 15.5663 72.6874 15.0116Z" fill="white"/>
</g>
<defs>
<filter id="filter0_d" x="0.565918" y="0.779663" width="89.9137" height="51.648" filterUnits="userSpaceOnUse" color-interpolation-filters="sRGB">
<feFlood flood-opacity="0" result="BackgroundImageFix"/>
<feColorMatrix in="SourceAlpha" type="matrix" values="0 0 0 0 0 0 0 0 0 0 0 0 0 0 0 0 0 0 127 0"/>
<feOffset dy="7"/>
<feGaussianBlur stdDeviation="7"/>
<feColorMatrix type="matrix" values="0 0 0 0 0 0 0 0 0 0 0 0 0 0 0 0 0 0 0.1 0"/>
<feBlend mode="normal" in2="BackgroundImageFix" result="effect1_dropShadow"/>
<feBlend mode="normal" in="SourceGraphic" in2="effect1_dropShadow" result="shape"/>
</filter>
</defs>
</svg>
