<svg width="91" height="53" viewBox="0 0 91 53" fill="none" xmlns="http://www.w3.org/2000/svg">
<g filter="url(#filter0_d)">
<path d="M23.0539 7.608C24.1205 7.608 25.0965 7.768 25.9819 8.088C26.8672 8.39733 27.6245 8.84 28.2539 9.416C28.8832 9.992 29.3739 10.6853 29.7259 11.496C30.0779 12.3067 30.2539 13.208 30.2539 14.2C30.2539 15.0533 30.1259 15.8427 29.8699 16.568C29.6245 17.2933 29.2885 17.9867 28.8619 18.648C28.4459 19.3093 27.9552 19.9493 27.3899 20.568C26.8245 21.1867 26.2325 21.816 25.6139 22.456L20.3979 27.784C20.9099 27.6347 21.4112 27.5227 21.9019 27.448C22.3925 27.3627 22.8619 27.32 23.3099 27.32H29.2459C29.6725 27.32 30.0085 27.4427 30.2539 27.688C30.5099 27.9227 30.6379 28.2373 30.6379 28.632V31H14.7659V29.688C14.7659 29.4213 14.8192 29.144 14.9259 28.856C15.0432 28.568 15.2245 28.3013 15.4699 28.056L22.4939 21.016C23.0805 20.4187 23.6032 19.848 24.0619 19.304C24.5312 18.76 24.9205 18.2213 25.2299 17.688C25.5499 17.1547 25.7899 16.616 25.9499 16.072C26.1205 15.5173 26.2059 14.936 26.2059 14.328C26.2059 13.7733 26.1259 13.288 25.9659 12.872C25.8059 12.4453 25.5765 12.088 25.2779 11.8C24.9792 11.512 24.6219 11.2987 24.2059 11.16C23.8005 11.0107 23.3419 10.936 22.8299 10.936C21.8805 10.936 21.0965 11.176 20.4779 11.656C19.8699 12.136 19.4432 12.7813 19.1979 13.592C19.0805 13.9973 18.9045 14.2907 18.6699 14.472C18.4352 14.6427 18.1365 14.728 17.7739 14.728C17.6139 14.728 17.4379 14.712 17.2459 14.68L15.1659 14.312C15.3259 13.2027 15.6352 12.232 16.0939 11.4C16.5525 10.5573 17.1232 9.85867 17.8059 9.304C18.4992 8.73867 19.2885 8.31733 20.1739 8.04C21.0699 7.752 22.0299 7.608 23.0539 7.608ZM33.7924 28.824C33.7924 28.4933 33.851 28.1787 33.9684 27.88C34.0964 27.5813 34.267 27.3253 34.4804 27.112C34.7044 26.8987 34.9657 26.728 35.2644 26.6C35.563 26.472 35.883 26.408 36.2244 26.408C36.555 26.408 36.8697 26.472 37.1684 26.6C37.467 26.728 37.723 26.8987 37.9364 27.112C38.1497 27.3253 38.3204 27.5813 38.4484 27.88C38.5764 28.1787 38.6404 28.4933 38.6404 28.824C38.6404 29.1653 38.5764 29.4853 38.4484 29.784C38.3204 30.072 38.1497 30.3227 37.9364 30.536C37.723 30.7493 37.467 30.9147 37.1684 31.032C36.8697 31.16 36.555 31.224 36.2244 31.224C35.883 31.224 35.563 31.16 35.2644 31.032C34.9657 30.9147 34.7044 30.7493 34.4804 30.536C34.267 30.3227 34.0964 30.072 33.9684 29.784C33.851 29.4853 33.7924 29.1653 33.7924 28.824ZM33.7924 17.416C33.7924 17.0853 33.851 16.7707 33.9684 16.472C34.0964 16.1733 34.267 15.9173 34.4804 15.704C34.7044 15.4907 34.9657 15.32 35.2644 15.192C35.563 15.064 35.883 15 36.2244 15C36.555 15 36.8697 15.064 37.1684 15.192C37.467 15.32 37.723 15.4907 37.9364 15.704C38.1497 15.9173 38.3204 16.1733 38.4484 16.472C38.5764 16.7707 38.6404 17.0853 38.6404 17.416C38.6404 17.7573 38.5764 18.0773 38.4484 18.376C38.3204 18.664 38.1497 18.9147 37.9364 19.128C37.723 19.3413 37.467 19.512 37.1684 19.64C36.8697 19.7573 36.555 19.816 36.2244 19.816C35.883 19.816 35.563 19.7573 35.2644 19.64C34.9657 19.512 34.7044 19.3413 34.4804 19.128C34.267 18.9147 34.0964 18.664 33.9684 18.376C33.851 18.0773 33.7924 17.7573 33.7924 17.416ZM56.2771 9.544C56.2771 10.1093 56.0958 10.568 55.7331 10.92C55.3811 11.272 54.7891 11.448 53.9571 11.448H47.5891L46.7571 16.28C47.8025 16.0667 48.7571 15.96 49.6211 15.96C50.8371 15.96 51.9038 16.1413 52.8211 16.504C53.7491 16.8667 54.5278 17.368 55.1571 18.008C55.7865 18.648 56.2611 19.4 56.5811 20.264C56.9011 21.1173 57.0611 22.04 57.0611 23.032C57.0611 24.2587 56.8425 25.3787 56.4051 26.392C55.9785 27.4053 55.3811 28.2747 54.6131 29C53.8451 29.7147 52.9331 30.2693 51.8771 30.664C50.8318 31.0587 49.6905 31.256 48.4531 31.256C47.7278 31.256 47.0398 31.1813 46.3891 31.032C45.7385 30.8827 45.1251 30.6853 44.5491 30.44C43.9838 30.184 43.4558 29.896 42.9651 29.576C42.4851 29.2453 42.0531 28.8987 41.6691 28.536L42.8851 26.856C43.1411 26.4933 43.4825 26.312 43.9091 26.312C44.1758 26.312 44.4425 26.3973 44.7091 26.568C44.9865 26.7387 45.3065 26.9253 45.6691 27.128C46.0318 27.3307 46.4531 27.5173 46.9331 27.688C47.4131 27.8587 47.9945 27.944 48.6771 27.944C49.4025 27.944 50.0425 27.8267 50.5971 27.592C51.1518 27.3573 51.6105 27.032 51.9731 26.616C52.3465 26.1893 52.6238 25.688 52.8051 25.112C52.9971 24.5253 53.0931 23.8907 53.0931 23.208C53.0931 21.9493 52.7251 20.968 51.9891 20.264C51.2638 19.5493 50.1918 19.192 48.7731 19.192C47.6531 19.192 46.5278 19.3947 45.3971 19.8L42.9331 19.096L44.8531 7.864H56.2771V9.544ZM69.7356 16.552C70.6103 16.552 71.4583 16.696 72.2796 16.984C73.1116 17.272 73.8423 17.7093 74.4716 18.296C75.101 18.872 75.6076 19.592 75.9916 20.456C76.3756 21.32 76.5676 22.328 76.5676 23.48C76.5676 24.5573 76.3703 25.5707 75.9756 26.52C75.581 27.4587 75.0263 28.28 74.3116 28.984C73.597 29.688 72.733 30.2427 71.7196 30.648C70.717 31.0533 69.6076 31.256 68.3916 31.256C67.1543 31.256 66.045 31.0587 65.0636 30.664C64.0823 30.2693 63.245 29.72 62.5516 29.016C61.8583 28.3013 61.325 27.448 60.9516 26.456C60.589 25.4533 60.4076 24.344 60.4076 23.128C60.4076 22.04 60.6263 20.9253 61.0636 19.784C61.5116 18.632 62.1996 17.4373 63.1276 16.2L68.6476 8.792C68.8396 8.536 69.117 8.31733 69.4796 8.136C69.853 7.95467 70.2796 7.864 70.7596 7.864H74.2796L67.4156 16.264C67.2663 16.4453 67.1223 16.616 66.9836 16.776C66.8556 16.936 66.7276 17.1013 66.5996 17.272C67.0476 17.048 67.5276 16.872 68.0396 16.744C68.5623 16.616 69.1276 16.552 69.7356 16.552ZM64.1996 23.736C64.1996 24.376 64.285 24.9627 64.4556 25.496C64.637 26.0187 64.8983 26.4667 65.2396 26.84C65.5916 27.2133 66.0236 27.5067 66.5356 27.72C67.0476 27.9227 67.6396 28.024 68.3116 28.024C68.941 28.024 69.517 27.9173 70.0396 27.704C70.573 27.4907 71.0263 27.192 71.3996 26.808C71.7836 26.424 72.0823 25.976 72.2956 25.464C72.509 24.9413 72.6156 24.376 72.6156 23.768C72.6156 23.1067 72.5143 22.5147 72.3116 21.992C72.109 21.4587 71.821 21.0107 71.4476 20.648C71.0743 20.2747 70.6263 19.992 70.1036 19.8C69.581 19.608 69.005 19.512 68.3756 19.512C67.7463 19.512 67.1756 19.6187 66.6636 19.832C66.1516 20.0453 65.709 20.344 65.3356 20.728C64.973 21.1013 64.6903 21.5493 64.4876 22.072C64.2956 22.584 64.1996 23.1387 64.1996 23.736Z" fill="white"/>
</g>
<defs>
<filter id="filter0_d" x="0.766113" y="0.608032" width="89.8018" height="51.648" filterUnits="userSpaceOnUse" color-interpolation-filters="sRGB">
<feFlood flood-opacity="0" result="BackgroundImageFix"/>
<feColorMatrix in="SourceAlpha" type="matrix" values="0 0 0 0 0 0 0 0 0 0 0 0 0 0 0 0 0 0 127 0"/>
<feOffset dy="7"/>
<feGaussianBlur stdDeviation="7"/>
<feColorMatrix type="matrix" values="0 0 0 0 0 0 0 0 0 0 0 0 0 0 0 0 0 0 0.1 0"/>
<feBlend mode="normal" in2="BackgroundImageFix" result="effect1_dropShadow"/>
<feBlend mode="normal" in="SourceGraphic" in2="effect1_dropShadow" result="shape"/>
</filter>
</defs>
</svg>
