<svg width="142" height="41" viewBox="0 0 142 41" fill="none" xmlns="http://www.w3.org/2000/svg">
<g filter="url(#filter0_d)">
<path d="M23.0282 16.272C23.1455 16.272 23.2469 16.3173 23.3322 16.408L24.1802 17.328C23.7109 17.9093 23.1322 18.3547 22.4442 18.664C21.7615 18.9733 20.9402 19.128 19.9802 19.128C19.1215 19.128 18.3482 18.9813 17.6602 18.688C16.9775 18.3947 16.3935 17.9867 15.9082 17.464C15.4229 16.9413 15.0495 16.3173 14.7882 15.592C14.5322 14.8667 14.4042 14.0747 14.4042 13.216C14.4042 12.3467 14.5482 11.552 14.8362 10.832C15.1242 10.1067 15.5295 9.48267 16.0522 8.96C16.5749 8.43733 17.1989 8.032 17.9242 7.744C18.6549 7.45067 19.4602 7.304 20.3402 7.304C21.1989 7.304 21.9482 7.44267 22.5882 7.72C23.2335 7.992 23.7855 8.35467 24.2442 8.808L23.5242 9.808C23.4815 9.872 23.4255 9.928 23.3562 9.976C23.2922 10.024 23.2015 10.048 23.0842 10.048C22.9615 10.048 22.8362 10 22.7082 9.904C22.5802 9.808 22.4175 9.704 22.2202 9.592C22.0229 9.48 21.7722 9.376 21.4682 9.28C21.1695 9.184 20.7882 9.136 20.3242 9.136C19.7802 9.136 19.2789 9.232 18.8202 9.424C18.3669 9.61067 17.9749 9.88 17.6442 10.232C17.3189 10.584 17.0629 11.0133 16.8762 11.52C16.6949 12.0213 16.6042 12.5867 16.6042 13.216C16.6042 13.8667 16.6949 14.4453 16.8762 14.952C17.0629 15.4587 17.3135 15.8853 17.6282 16.232C17.9429 16.5787 18.3135 16.8453 18.7402 17.032C19.1669 17.2133 19.6255 17.304 20.1162 17.304C20.4095 17.304 20.6735 17.288 20.9082 17.256C21.1482 17.224 21.3669 17.1733 21.5642 17.104C21.7669 17.0347 21.9562 16.9467 22.1322 16.84C22.3135 16.728 22.4922 16.592 22.6682 16.432C22.7215 16.384 22.7775 16.3467 22.8362 16.32C22.8949 16.288 22.9589 16.272 23.0282 16.272ZM32.1306 19H31.2426C31.0559 19 30.9092 18.9733 30.8026 18.92C30.6959 18.8613 30.6159 18.7467 30.5626 18.576L30.3866 17.992C30.1786 18.1787 29.9732 18.344 29.7706 18.488C29.5732 18.6267 29.3679 18.744 29.1546 18.84C28.9412 18.936 28.7146 19.008 28.4746 19.056C28.2346 19.104 27.9679 19.128 27.6746 19.128C27.3279 19.128 27.0079 19.0827 26.7146 18.992C26.4212 18.896 26.1679 18.7547 25.9546 18.568C25.7466 18.3813 25.5839 18.1493 25.4666 17.872C25.3492 17.5947 25.2906 17.272 25.2906 16.904C25.2906 16.5947 25.3706 16.2907 25.5306 15.992C25.6959 15.688 25.9679 15.416 26.3466 15.176C26.7252 14.9307 27.2292 14.728 27.8586 14.568C28.4879 14.408 29.2692 14.3173 30.2026 14.296V13.816C30.2026 13.2667 30.0852 12.8613 29.8506 12.6C29.6212 12.3333 29.2852 12.2 28.8426 12.2C28.5226 12.2 28.2559 12.2373 28.0426 12.312C27.8292 12.3867 27.6426 12.472 27.4826 12.568C27.3279 12.6587 27.1839 12.7413 27.0506 12.816C26.9172 12.8907 26.7706 12.928 26.6106 12.928C26.4772 12.928 26.3626 12.8933 26.2666 12.824C26.1706 12.7547 26.0932 12.6693 26.0346 12.568L25.6746 11.936C26.6186 11.072 27.7572 10.64 29.0906 10.64C29.5706 10.64 29.9972 10.72 30.3706 10.88C30.7492 11.0347 31.0692 11.2533 31.3306 11.536C31.5919 11.8133 31.7892 12.1467 31.9226 12.536C32.0612 12.9253 32.1306 13.352 32.1306 13.816V19ZM28.2906 17.768C28.4932 17.768 28.6799 17.7493 28.8506 17.712C29.0212 17.6747 29.1812 17.6187 29.3306 17.544C29.4852 17.4693 29.6319 17.3787 29.7706 17.272C29.9146 17.16 30.0586 17.0293 30.2026 16.88V15.496C29.6266 15.5227 29.1439 15.5733 28.7546 15.648C28.3706 15.7173 28.0612 15.808 27.8266 15.92C27.5919 16.032 27.4239 16.1627 27.3226 16.312C27.2266 16.4613 27.1786 16.624 27.1786 16.8C27.1786 17.1467 27.2799 17.3947 27.4826 17.544C27.6906 17.6933 27.9599 17.768 28.2906 17.768ZM36.1776 7.112V19H34.2016V7.112H36.1776ZM40.5213 7.112V19H38.5453V7.112H40.5213ZM44.8548 10.792H46.4228C46.5722 10.792 46.6975 10.8267 46.7988 10.896C46.9002 10.9653 46.9642 11.0533 46.9908 11.16L48.1668 15.544C48.2308 15.784 48.2815 16.0187 48.3188 16.248C48.3615 16.4773 48.4015 16.7067 48.4388 16.936C48.4975 16.7067 48.5588 16.4773 48.6228 16.248C48.6922 16.0187 48.7642 15.784 48.8388 15.544L50.1988 11.144C50.2308 11.0373 50.2948 10.9493 50.3908 10.88C50.4868 10.8107 50.5988 10.776 50.7268 10.776H51.5988C51.7428 10.776 51.8628 10.8107 51.9588 10.88C52.0548 10.9493 52.1188 11.0373 52.1508 11.144L53.4948 15.624C53.5642 15.8533 53.6255 16.0773 53.6788 16.296C53.7375 16.5093 53.7935 16.7253 53.8468 16.944C53.8842 16.7147 53.9242 16.4853 53.9668 16.256C54.0148 16.0267 54.0735 15.7893 54.1428 15.544L55.3588 11.16C55.3855 11.0533 55.4495 10.9653 55.5508 10.896C55.6522 10.8267 55.7695 10.792 55.9028 10.792H57.3988L54.7988 19H53.2068C53.0362 19 52.9135 18.8827 52.8388 18.648L51.3588 13.904C51.3108 13.7493 51.2655 13.5947 51.2228 13.44C51.1855 13.28 51.1535 13.1227 51.1268 12.968C51.0948 13.128 51.0602 13.288 51.0228 13.448C50.9855 13.6027 50.9428 13.76 50.8948 13.92L49.3988 18.648C49.3242 18.8827 49.1802 19 48.9668 19H47.4548L44.8548 10.792ZM60.6151 10.792V19H58.6391V10.792H60.6151ZM60.9111 8.4C60.9111 8.57067 60.8764 8.73067 60.8071 8.88C60.7377 9.02933 60.6444 9.16 60.5271 9.272C60.4151 9.384 60.2817 9.47467 60.1271 9.544C59.9724 9.608 59.8071 9.64 59.6311 9.64C59.4604 9.64 59.2977 9.608 59.1431 9.544C58.9937 9.47467 58.8631 9.384 58.7511 9.272C58.6391 9.16 58.5484 9.02933 58.4791 8.88C58.4151 8.73067 58.3831 8.57067 58.3831 8.4C58.3831 8.224 58.4151 8.05867 58.4791 7.904C58.5484 7.74933 58.6391 7.616 58.7511 7.504C58.8631 7.392 58.9937 7.304 59.1431 7.24C59.2977 7.17067 59.4604 7.136 59.6311 7.136C59.8071 7.136 59.9724 7.17067 60.1271 7.24C60.2817 7.304 60.4151 7.392 60.5271 7.504C60.6444 7.616 60.7377 7.74933 60.8071 7.904C60.8764 8.05867 60.9111 8.224 60.9111 8.4ZM64.9588 7.112V19H62.9828V7.112H64.9588ZM69.3026 7.112V19H67.3266V7.112H69.3026ZM79.5081 12.392C79.4547 12.4773 79.3987 12.5387 79.3401 12.576C79.2814 12.608 79.2067 12.624 79.1161 12.624C79.0201 12.624 78.9161 12.5973 78.8041 12.544C78.6974 12.4907 78.5721 12.432 78.4281 12.368C78.2841 12.2987 78.1187 12.2373 77.9321 12.184C77.7507 12.1307 77.5347 12.104 77.2841 12.104C76.8947 12.104 76.5881 12.1867 76.3641 12.352C76.1401 12.5173 76.0281 12.7333 76.0281 13C76.0281 13.176 76.0841 13.3253 76.1961 13.448C76.3134 13.5653 76.4654 13.6693 76.6521 13.76C76.8441 13.8507 77.0601 13.9333 77.3001 14.008C77.5401 14.0773 77.7854 14.1547 78.0361 14.24C78.2867 14.3253 78.5321 14.424 78.7721 14.536C79.0121 14.6427 79.2254 14.7813 79.4121 14.952C79.6041 15.1173 79.7561 15.3173 79.8681 15.552C79.9854 15.7867 80.0441 16.0693 80.0441 16.4C80.0441 16.7947 79.9721 17.16 79.8281 17.496C79.6841 17.8267 79.4734 18.1147 79.1961 18.36C78.9187 18.6 78.5747 18.7893 78.1641 18.928C77.7587 19.0613 77.2921 19.128 76.7641 19.128C76.4814 19.128 76.2041 19.1013 75.9321 19.048C75.6654 19 75.4067 18.9307 75.1561 18.84C74.9107 18.7493 74.6814 18.6427 74.4681 18.52C74.2601 18.3973 74.0761 18.264 73.9161 18.12L74.3721 17.368C74.4307 17.2773 74.5001 17.208 74.5801 17.16C74.6601 17.112 74.7614 17.088 74.8841 17.088C75.0067 17.088 75.1214 17.1227 75.2281 17.192C75.3401 17.2613 75.4681 17.336 75.6121 17.416C75.7561 17.496 75.9241 17.5707 76.1161 17.64C76.3134 17.7093 76.5614 17.744 76.8601 17.744C77.0947 17.744 77.2947 17.7173 77.4601 17.664C77.6307 17.6053 77.7694 17.5307 77.8761 17.44C77.9881 17.3493 78.0681 17.2453 78.1161 17.128C78.1694 17.0053 78.1961 16.88 78.1961 16.752C78.1961 16.56 78.1374 16.4027 78.0201 16.28C77.9081 16.1573 77.7561 16.0507 77.5641 15.96C77.3774 15.8693 77.1614 15.7893 76.9161 15.72C76.6761 15.6453 76.4281 15.5653 76.1721 15.48C75.9214 15.3947 75.6734 15.296 75.4281 15.184C75.1881 15.0667 74.9721 14.92 74.7801 14.744C74.5934 14.568 74.4414 14.352 74.3241 14.096C74.2121 13.84 74.1561 13.5307 74.1561 13.168C74.1561 12.832 74.2227 12.512 74.3561 12.208C74.4894 11.904 74.6841 11.64 74.9401 11.416C75.2014 11.1867 75.5241 11.0053 75.9081 10.872C76.2974 10.7333 76.7454 10.664 77.2521 10.664C77.8174 10.664 78.3321 10.7573 78.7961 10.944C79.2601 11.1307 79.6467 11.376 79.9561 11.68L79.5081 12.392ZM84.3165 19.128C83.6071 19.128 83.0605 18.928 82.6765 18.528C82.2925 18.1227 82.1005 17.5653 82.1005 16.856V12.272H81.2685C81.1618 12.272 81.0685 12.2373 80.9885 12.168C80.9138 12.0987 80.8765 11.9947 80.8765 11.856V11.072L82.1965 10.856L82.6125 8.616C82.6338 8.50933 82.6818 8.42667 82.7565 8.368C82.8365 8.30933 82.9351 8.28 83.0525 8.28H84.0765V10.864H86.2365V12.272H84.0765V16.72C84.0765 16.976 84.1405 17.176 84.2685 17.32C84.3965 17.464 84.5671 17.536 84.7805 17.536C84.9031 17.536 85.0045 17.5227 85.0845 17.496C85.1698 17.464 85.2418 17.432 85.3005 17.4C85.3645 17.368 85.4205 17.3387 85.4685 17.312C85.5165 17.28 85.5645 17.264 85.6125 17.264C85.6711 17.264 85.7191 17.28 85.7565 17.312C85.7938 17.3387 85.8338 17.3813 85.8765 17.44L86.4685 18.4C86.1805 18.64 85.8498 18.8213 85.4765 18.944C85.1031 19.0667 84.7165 19.128 84.3165 19.128ZM94.24 19H93.352C93.1653 19 93.0186 18.9733 92.912 18.92C92.8053 18.8613 92.7253 18.7467 92.672 18.576L92.496 17.992C92.288 18.1787 92.0826 18.344 91.88 18.488C91.6826 18.6267 91.4773 18.744 91.264 18.84C91.0506 18.936 90.824 19.008 90.584 19.056C90.344 19.104 90.0773 19.128 89.784 19.128C89.4373 19.128 89.1173 19.0827 88.824 18.992C88.5306 18.896 88.2773 18.7547 88.064 18.568C87.856 18.3813 87.6933 18.1493 87.576 17.872C87.4586 17.5947 87.4 17.272 87.4 16.904C87.4 16.5947 87.48 16.2907 87.64 15.992C87.8053 15.688 88.0773 15.416 88.456 15.176C88.8346 14.9307 89.3386 14.728 89.968 14.568C90.5973 14.408 91.3786 14.3173 92.312 14.296V13.816C92.312 13.2667 92.1946 12.8613 91.96 12.6C91.7306 12.3333 91.3946 12.2 90.952 12.2C90.632 12.2 90.3653 12.2373 90.152 12.312C89.9386 12.3867 89.752 12.472 89.592 12.568C89.4373 12.6587 89.2933 12.7413 89.16 12.816C89.0266 12.8907 88.88 12.928 88.72 12.928C88.5866 12.928 88.472 12.8933 88.376 12.824C88.28 12.7547 88.2026 12.6693 88.144 12.568L87.784 11.936C88.728 11.072 89.8666 10.64 91.2 10.64C91.68 10.64 92.1066 10.72 92.48 10.88C92.8586 11.0347 93.1786 11.2533 93.44 11.536C93.7013 11.8133 93.8986 12.1467 94.032 12.536C94.1706 12.9253 94.24 13.352 94.24 13.816V19ZM90.4 17.768C90.6026 17.768 90.7893 17.7493 90.96 17.712C91.1306 17.6747 91.2906 17.6187 91.44 17.544C91.5946 17.4693 91.7413 17.3787 91.88 17.272C92.024 17.16 92.168 17.0293 92.312 16.88V15.496C91.736 15.5227 91.2533 15.5733 90.864 15.648C90.48 15.7173 90.1706 15.808 89.936 15.92C89.7013 16.032 89.5333 16.1627 89.432 16.312C89.336 16.4613 89.288 16.624 89.288 16.8C89.288 17.1467 89.3893 17.3947 89.592 17.544C89.8 17.6933 90.0693 17.768 90.4 17.768ZM96.183 19V10.792H97.343C97.5456 10.792 97.687 10.8293 97.767 10.904C97.847 10.9787 97.9003 11.1067 97.927 11.288L98.047 12.28C98.3403 11.7733 98.6843 11.3733 99.079 11.08C99.4736 10.7867 99.9163 10.64 100.407 10.64C100.812 10.64 101.148 10.7333 101.415 10.92L101.159 12.4C101.143 12.496 101.108 12.5653 101.055 12.608C101.002 12.6453 100.93 12.664 100.839 12.664C100.759 12.664 100.65 12.6453 100.511 12.608C100.372 12.5707 100.188 12.552 99.959 12.552C99.5483 12.552 99.1963 12.6667 98.903 12.896C98.6096 13.12 98.3616 13.4507 98.159 13.888V19H96.183ZM105.41 19.128C104.701 19.128 104.154 18.928 103.77 18.528C103.386 18.1227 103.194 17.5653 103.194 16.856V12.272H102.362C102.256 12.272 102.162 12.2373 102.082 12.168C102.008 12.0987 101.97 11.9947 101.97 11.856V11.072L103.29 10.856L103.706 8.616C103.728 8.50933 103.776 8.42667 103.85 8.368C103.93 8.30933 104.029 8.28 104.146 8.28H105.17V10.864H107.33V12.272H105.17V16.72C105.17 16.976 105.234 17.176 105.362 17.32C105.49 17.464 105.661 17.536 105.874 17.536C105.997 17.536 106.098 17.5227 106.178 17.496C106.264 17.464 106.336 17.432 106.394 17.4C106.458 17.368 106.514 17.3387 106.562 17.312C106.61 17.28 106.658 17.264 106.706 17.264C106.765 17.264 106.813 17.28 106.85 17.312C106.888 17.3387 106.928 17.3813 106.97 17.44L107.562 18.4C107.274 18.64 106.944 18.8213 106.57 18.944C106.197 19.0667 105.81 19.128 105.41 19.128ZM114.099 10.792V19H112.123V10.792H114.099ZM114.395 8.4C114.395 8.57067 114.361 8.73067 114.291 8.88C114.222 9.02933 114.129 9.16 114.011 9.272C113.899 9.384 113.766 9.47467 113.611 9.544C113.457 9.608 113.291 9.64 113.115 9.64C112.945 9.64 112.782 9.608 112.627 9.544C112.478 9.47467 112.347 9.384 112.235 9.272C112.123 9.16 112.033 9.02933 111.963 8.88C111.899 8.73067 111.867 8.57067 111.867 8.4C111.867 8.224 111.899 8.05867 111.963 7.904C112.033 7.74933 112.123 7.616 112.235 7.504C112.347 7.392 112.478 7.304 112.627 7.24C112.782 7.17067 112.945 7.136 113.115 7.136C113.291 7.136 113.457 7.17067 113.611 7.24C113.766 7.304 113.899 7.392 114.011 7.504C114.129 7.616 114.222 7.74933 114.291 7.904C114.361 8.05867 114.395 8.224 114.395 8.4ZM116.339 19V10.792H117.547C117.803 10.792 117.971 10.912 118.051 11.152L118.187 11.8C118.353 11.6293 118.526 11.4747 118.707 11.336C118.894 11.1973 119.089 11.0773 119.291 10.976C119.499 10.8747 119.721 10.7973 119.955 10.744C120.19 10.6907 120.446 10.664 120.723 10.664C121.171 10.664 121.569 10.7413 121.915 10.896C122.262 11.0453 122.55 11.2587 122.779 11.536C123.014 11.808 123.19 12.136 123.307 12.52C123.43 12.8987 123.491 13.3173 123.491 13.776V19H121.515V13.776C121.515 13.2747 121.398 12.888 121.163 12.616C120.934 12.3387 120.587 12.2 120.123 12.2C119.782 12.2 119.462 12.2773 119.163 12.432C118.865 12.5867 118.582 12.7973 118.315 13.064V19H116.339ZM125.281 17.912C125.281 17.7467 125.31 17.5893 125.369 17.44C125.433 17.2907 125.518 17.1627 125.625 17.056C125.737 16.9493 125.868 16.864 126.017 16.8C126.166 16.736 126.326 16.704 126.497 16.704C126.662 16.704 126.82 16.736 126.969 16.8C127.118 16.864 127.246 16.9493 127.353 17.056C127.46 17.1627 127.545 17.2907 127.609 17.44C127.673 17.5893 127.705 17.7467 127.705 17.912C127.705 18.0827 127.673 18.2427 127.609 18.392C127.545 18.536 127.46 18.6613 127.353 18.768C127.246 18.8747 127.118 18.9573 126.969 19.016C126.82 19.08 126.662 19.112 126.497 19.112C126.326 19.112 126.166 19.08 126.017 19.016C125.868 18.9573 125.737 18.8747 125.625 18.768C125.518 18.6613 125.433 18.536 125.369 18.392C125.31 18.2427 125.281 18.0827 125.281 17.912ZM125.281 12.208C125.281 12.0427 125.31 11.8853 125.369 11.736C125.433 11.5867 125.518 11.4587 125.625 11.352C125.737 11.2453 125.868 11.16 126.017 11.096C126.166 11.032 126.326 11 126.497 11C126.662 11 126.82 11.032 126.969 11.096C127.118 11.16 127.246 11.2453 127.353 11.352C127.46 11.4587 127.545 11.5867 127.609 11.736C127.673 11.8853 127.705 12.0427 127.705 12.208C127.705 12.3787 127.673 12.5387 127.609 12.688C127.545 12.832 127.46 12.9573 127.353 13.064C127.246 13.1707 127.118 13.256 126.969 13.32C126.82 13.3787 126.662 13.408 126.497 13.408C126.326 13.408 126.166 13.3787 126.017 13.32C125.868 13.256 125.737 13.1707 125.625 13.064C125.518 12.9573 125.433 12.832 125.369 12.688C125.31 12.5387 125.281 12.3787 125.281 12.208Z" fill="white"/>
</g>
<defs>
<filter id="filter0_d" x="0.404297" y="0.112" width="141.301" height="40.016" filterUnits="userSpaceOnUse" color-interpolation-filters="sRGB">
<feFlood flood-opacity="0" result="BackgroundImageFix"/>
<feColorMatrix in="SourceAlpha" type="matrix" values="0 0 0 0 0 0 0 0 0 0 0 0 0 0 0 0 0 0 127 0"/>
<feOffset dy="7"/>
<feGaussianBlur stdDeviation="7"/>
<feColorMatrix type="matrix" values="0 0 0 0 0 0 0 0 0 0 0 0 0 0 0 0 0 0 0.1 0"/>
<feBlend mode="normal" in2="BackgroundImageFix" result="effect1_dropShadow"/>
<feBlend mode="normal" in="SourceGraphic" in2="effect1_dropShadow" result="shape"/>
</filter>
</defs>
</svg>
