<svg width="44" height="44" viewBox="0 0 44 44" fill="none" xmlns="http://www.w3.org/2000/svg">
<rect width="44" height="44" rx="8" fill="#0F80E9"/>
<path d="M26.5 19.0117V17.5H17.5V19.0117H26.5ZM26.5 21.2617V19.75H17.5V21.2617H26.5ZM26.5 23.5117V22H17.5V23.5117H26.5ZM28.0117 14.5117C28.4102 14.5117 28.75 14.6641 29.0312 14.9688C29.3359 15.25 29.4883 15.5898 29.4883 15.9883V24.9883C29.4883 25.3867 29.3359 25.7383 29.0312 26.043C28.75 26.3477 28.4102 26.5 28.0117 26.5H17.5L14.5117 29.4883V15.9883C14.5117 15.5898 14.6523 15.25 14.9336 14.9688C15.2383 14.6641 15.5898 14.5117 15.9883 14.5117H28.0117Z" fill="white"/>
</svg>
