<svg width="336" height="97" viewBox="0 0 336 97" fill="none" xmlns="http://www.w3.org/2000/svg">
<g opacity="0.5">
<path d="M65 17C65 7.61116 72.6112 0 82 0H299C308.389 0 316 7.61116 316 17V55H82C72.6112 55 65 47.3888 65 38V17Z" fill="#E0E0E0"/>
<path d="M82.709 18.248V22H81.358V11.969H84.319C84.9537 11.969 85.5043 12.0437 85.971 12.193C86.4423 12.3377 86.832 12.5453 87.14 12.816C87.448 13.0867 87.6767 13.4133 87.826 13.796C87.98 14.1787 88.057 14.6057 88.057 15.077C88.057 15.5437 87.9753 15.9707 87.812 16.358C87.6487 16.7453 87.4083 17.079 87.091 17.359C86.7783 17.639 86.3887 17.8583 85.922 18.017C85.4553 18.171 84.921 18.248 84.319 18.248H82.709ZM82.709 17.17H84.319C84.7063 17.17 85.047 17.1187 85.341 17.016C85.6397 16.9133 85.8893 16.771 86.09 16.589C86.2907 16.4023 86.4423 16.1807 86.545 15.924C86.6477 15.6673 86.699 15.385 86.699 15.077C86.699 14.4377 86.5007 13.9383 86.104 13.579C85.712 13.2197 85.117 13.04 84.319 13.04H82.709V17.17ZM90.9666 11.689V22H89.7206V11.689H90.9666ZM95.9696 14.797C96.3943 14.797 96.7863 14.8693 97.1456 15.014C97.505 15.154 97.8153 15.3593 98.0766 15.63C98.338 15.896 98.541 16.2273 98.6856 16.624C98.835 17.016 98.9096 17.464 98.9096 17.968C98.9096 18.164 98.8886 18.2947 98.8466 18.36C98.8046 18.4253 98.7253 18.458 98.6086 18.458H93.8906C93.9 18.906 93.9606 19.2957 94.0726 19.627C94.1846 19.9583 94.3386 20.236 94.5346 20.46C94.7306 20.6793 94.964 20.845 95.2346 20.957C95.5053 21.0643 95.8086 21.118 96.1446 21.118C96.4573 21.118 96.7256 21.083 96.9496 21.013C97.1783 20.9383 97.3743 20.859 97.5376 20.775C97.701 20.691 97.8363 20.614 97.9436 20.544C98.0556 20.4693 98.1513 20.432 98.2306 20.432C98.3333 20.432 98.4126 20.4717 98.4686 20.551L98.8186 21.006C98.6646 21.1927 98.4803 21.356 98.2656 21.496C98.051 21.6313 97.82 21.7433 97.5726 21.832C97.33 21.9207 97.078 21.986 96.8166 22.028C96.5553 22.0747 96.2963 22.098 96.0396 22.098C95.5496 22.098 95.097 22.0163 94.6816 21.853C94.271 21.685 93.914 21.4423 93.6106 21.125C93.312 20.803 93.0786 20.4063 92.9106 19.935C92.7426 19.4637 92.6586 18.9223 92.6586 18.311C92.6586 17.8163 92.7333 17.3543 92.8826 16.925C93.0366 16.4957 93.256 16.1247 93.5406 15.812C93.8253 15.4947 94.173 15.2473 94.5836 15.07C94.9943 14.888 95.4563 14.797 95.9696 14.797ZM95.9976 15.714C95.3956 15.714 94.922 15.889 94.5766 16.239C94.2313 16.5843 94.0166 17.065 93.9326 17.681H97.7896C97.7896 17.3917 97.75 17.128 97.6706 16.89C97.5913 16.6473 97.4746 16.4397 97.3206 16.267C97.1666 16.0897 96.9776 15.9543 96.7536 15.861C96.5343 15.763 96.2823 15.714 95.9976 15.714ZM105.712 22H105.159C105.038 22 104.94 21.9813 104.865 21.944C104.791 21.9067 104.742 21.8273 104.718 21.706L104.578 21.048C104.392 21.216 104.21 21.3677 104.032 21.503C103.855 21.6337 103.668 21.7457 103.472 21.839C103.276 21.9277 103.066 21.9953 102.842 22.042C102.623 22.0887 102.378 22.112 102.107 22.112C101.832 22.112 101.573 22.0747 101.33 22C101.092 21.9207 100.885 21.804 100.707 21.65C100.53 21.496 100.388 21.3023 100.28 21.069C100.178 20.831 100.126 20.551 100.126 20.229C100.126 19.949 100.203 19.6807 100.357 19.424C100.511 19.1627 100.759 18.9317 101.099 18.731C101.445 18.5303 101.895 18.367 102.45 18.241C103.006 18.1103 103.685 18.0357 104.487 18.017V17.464C104.487 16.9133 104.368 16.498 104.13 16.218C103.897 15.9333 103.549 15.791 103.087 15.791C102.784 15.791 102.527 15.8307 102.317 15.91C102.112 15.9847 101.932 16.071 101.778 16.169C101.629 16.2623 101.498 16.3487 101.386 16.428C101.279 16.5027 101.172 16.54 101.064 16.54C100.98 16.54 100.906 16.519 100.84 16.477C100.78 16.4303 100.731 16.3743 100.693 16.309L100.469 15.91C100.861 15.532 101.284 15.2497 101.736 15.063C102.189 14.8763 102.691 14.783 103.241 14.783C103.638 14.783 103.99 14.8483 104.298 14.979C104.606 15.1097 104.865 15.2917 105.075 15.525C105.285 15.7583 105.444 16.0407 105.551 16.372C105.659 16.7033 105.712 17.0673 105.712 17.464V22ZM102.478 21.237C102.698 21.237 102.898 21.216 103.08 21.174C103.262 21.1273 103.433 21.0643 103.591 20.985C103.755 20.901 103.909 20.8007 104.053 20.684C104.203 20.5673 104.347 20.4343 104.487 20.285V18.808C103.913 18.8267 103.426 18.8733 103.024 18.948C102.623 19.018 102.296 19.1113 102.044 19.228C101.792 19.3447 101.608 19.4823 101.491 19.641C101.379 19.7997 101.323 19.977 101.323 20.173C101.323 20.3597 101.354 20.5207 101.414 20.656C101.475 20.7913 101.557 20.9033 101.659 20.992C101.762 21.076 101.883 21.139 102.023 21.181C102.163 21.2183 102.315 21.237 102.478 21.237ZM111.66 16.078C111.604 16.1807 111.518 16.232 111.401 16.232C111.331 16.232 111.252 16.2063 111.163 16.155C111.074 16.1037 110.965 16.0477 110.834 15.987C110.708 15.9217 110.556 15.8633 110.379 15.812C110.202 15.756 109.992 15.728 109.749 15.728C109.539 15.728 109.35 15.756 109.182 15.812C109.014 15.8633 108.869 15.9357 108.748 16.029C108.631 16.1223 108.54 16.232 108.475 16.358C108.414 16.4793 108.384 16.6123 108.384 16.757C108.384 16.939 108.435 17.0907 108.538 17.212C108.645 17.3333 108.785 17.4383 108.958 17.527C109.131 17.6157 109.327 17.695 109.546 17.765C109.765 17.8303 109.989 17.9027 110.218 17.982C110.451 18.0567 110.678 18.1407 110.897 18.234C111.116 18.3273 111.312 18.444 111.485 18.584C111.658 18.724 111.795 18.8967 111.898 19.102C112.005 19.3027 112.059 19.5453 112.059 19.83C112.059 20.1567 112.001 20.46 111.884 20.74C111.767 21.0153 111.595 21.2557 111.366 21.461C111.137 21.6617 110.857 21.8203 110.526 21.937C110.195 22.0537 109.812 22.112 109.378 22.112C108.883 22.112 108.435 22.0327 108.034 21.874C107.633 21.7107 107.292 21.503 107.012 21.251L107.306 20.775C107.343 20.7143 107.388 20.6677 107.439 20.635C107.49 20.6023 107.558 20.586 107.642 20.586C107.726 20.586 107.815 20.6187 107.908 20.684C108.001 20.7493 108.113 20.8217 108.244 20.901C108.379 20.9803 108.54 21.0527 108.727 21.118C108.918 21.1833 109.156 21.216 109.441 21.216C109.684 21.216 109.896 21.1857 110.078 21.125C110.26 21.0597 110.412 20.9733 110.533 20.866C110.654 20.7587 110.743 20.635 110.799 20.495C110.86 20.355 110.89 20.2057 110.89 20.047C110.89 19.851 110.836 19.69 110.729 19.564C110.626 19.4333 110.489 19.3237 110.316 19.235C110.143 19.1417 109.945 19.0623 109.721 18.997C109.502 18.927 109.275 18.8547 109.042 18.78C108.813 18.7053 108.587 18.6213 108.363 18.528C108.144 18.43 107.948 18.3087 107.775 18.164C107.602 18.0193 107.462 17.842 107.355 17.632C107.252 17.4173 107.201 17.1583 107.201 16.855C107.201 16.5843 107.257 16.3253 107.369 16.078C107.481 15.826 107.644 15.6067 107.859 15.42C108.074 15.2287 108.337 15.077 108.65 14.965C108.963 14.853 109.32 14.797 109.721 14.797C110.188 14.797 110.605 14.8717 110.974 15.021C111.347 15.1657 111.669 15.3663 111.94 15.623L111.66 16.078ZM116.477 14.797C116.902 14.797 117.294 14.8693 117.653 15.014C118.013 15.154 118.323 15.3593 118.584 15.63C118.846 15.896 119.049 16.2273 119.193 16.624C119.343 17.016 119.417 17.464 119.417 17.968C119.417 18.164 119.396 18.2947 119.354 18.36C119.312 18.4253 119.233 18.458 119.116 18.458H114.398C114.408 18.906 114.468 19.2957 114.58 19.627C114.692 19.9583 114.846 20.236 115.042 20.46C115.238 20.6793 115.472 20.845 115.742 20.957C116.013 21.0643 116.316 21.118 116.652 21.118C116.965 21.118 117.233 21.083 117.457 21.013C117.686 20.9383 117.882 20.859 118.045 20.775C118.209 20.691 118.344 20.614 118.451 20.544C118.563 20.4693 118.659 20.432 118.738 20.432C118.841 20.432 118.92 20.4717 118.976 20.551L119.326 21.006C119.172 21.1927 118.988 21.356 118.773 21.496C118.559 21.6313 118.328 21.7433 118.08 21.832C117.838 21.9207 117.586 21.986 117.324 22.028C117.063 22.0747 116.804 22.098 116.547 22.098C116.057 22.098 115.605 22.0163 115.189 21.853C114.779 21.685 114.422 21.4423 114.118 21.125C113.82 20.803 113.586 20.4063 113.418 19.935C113.25 19.4637 113.166 18.9223 113.166 18.311C113.166 17.8163 113.241 17.3543 113.39 16.925C113.544 16.4957 113.764 16.1247 114.048 15.812C114.333 15.4947 114.681 15.2473 115.091 15.07C115.502 14.888 115.964 14.797 116.477 14.797ZM116.505 15.714C115.903 15.714 115.43 15.889 115.084 16.239C114.739 16.5843 114.524 17.065 114.44 17.681H118.297C118.297 17.3917 118.258 17.128 118.178 16.89C118.099 16.6473 117.982 16.4397 117.828 16.267C117.674 16.0897 117.485 15.9543 117.261 15.861C117.042 15.763 116.79 15.714 116.505 15.714ZM120.648 21.139C120.648 21.0317 120.667 20.9313 120.704 20.838C120.746 20.74 120.802 20.656 120.872 20.586C120.947 20.5113 121.036 20.453 121.138 20.411C121.241 20.369 121.353 20.348 121.474 20.348C121.614 20.348 121.738 20.3737 121.845 20.425C121.957 20.4763 122.048 20.5487 122.118 20.642C122.193 20.7307 122.249 20.8357 122.286 20.957C122.324 21.0737 122.342 21.202 122.342 21.342C122.342 21.552 122.312 21.7713 122.251 22C122.191 22.224 122.104 22.4457 121.992 22.665C121.88 22.889 121.74 23.106 121.572 23.316C121.409 23.526 121.222 23.7197 121.012 23.897L120.802 23.694C120.742 23.638 120.711 23.5727 120.711 23.498C120.711 23.4373 120.744 23.3743 120.809 23.309C120.856 23.2577 120.914 23.1877 120.984 23.099C121.059 23.015 121.134 22.917 121.208 22.805C121.283 22.693 121.351 22.5693 121.411 22.434C121.477 22.2987 121.523 22.154 121.551 22H121.46C121.339 22 121.229 21.979 121.131 21.937C121.033 21.895 120.947 21.8367 120.872 21.762C120.802 21.6827 120.746 21.5917 120.704 21.489C120.667 21.3817 120.648 21.265 120.648 21.139ZM131.677 22C131.5 22 131.388 21.9137 131.341 21.741L131.229 20.88C130.926 21.2487 130.578 21.545 130.186 21.769C129.799 21.9883 129.353 22.098 128.849 22.098C128.443 22.098 128.074 22.021 127.743 21.867C127.412 21.7083 127.129 21.4773 126.896 21.174C126.663 20.8707 126.483 20.4927 126.357 20.04C126.231 19.5873 126.168 19.067 126.168 18.479C126.168 17.9563 126.238 17.471 126.378 17.023C126.518 16.5703 126.719 16.1783 126.98 15.847C127.246 15.5157 127.568 15.2567 127.946 15.07C128.324 14.8787 128.753 14.783 129.234 14.783C129.668 14.783 130.039 14.8577 130.347 15.007C130.655 15.1517 130.93 15.357 131.173 15.623V11.689H132.419V22H131.677ZM129.262 21.09C129.668 21.09 130.023 20.9967 130.326 20.81C130.634 20.6233 130.916 20.3597 131.173 20.019V16.589C130.944 16.281 130.692 16.0663 130.417 15.945C130.146 15.819 129.845 15.756 129.514 15.756C128.851 15.756 128.343 15.9917 127.988 16.463C127.633 16.9343 127.456 17.6063 127.456 18.479C127.456 18.941 127.496 19.3377 127.575 19.669C127.654 19.9957 127.771 20.2663 127.925 20.481C128.079 20.691 128.268 20.845 128.492 20.943C128.716 21.041 128.973 21.09 129.262 21.09ZM137.376 14.797C137.894 14.797 138.361 14.8833 138.776 15.056C139.196 15.2287 139.551 15.4737 139.84 15.791C140.134 16.1083 140.358 16.4933 140.512 16.946C140.671 17.394 140.75 17.8957 140.75 18.451C140.75 19.011 140.671 19.515 140.512 19.963C140.358 20.411 140.134 20.7937 139.84 21.111C139.551 21.4283 139.196 21.6733 138.776 21.846C138.361 22.014 137.894 22.098 137.376 22.098C136.858 22.098 136.389 22.014 135.969 21.846C135.554 21.6733 135.199 21.4283 134.905 21.111C134.611 20.7937 134.385 20.411 134.226 19.963C134.068 19.515 133.988 19.011 133.988 18.451C133.988 17.8957 134.068 17.394 134.226 16.946C134.385 16.4933 134.611 16.1083 134.905 15.791C135.199 15.4737 135.554 15.2287 135.969 15.056C136.389 14.8833 136.858 14.797 137.376 14.797ZM137.376 21.125C138.076 21.125 138.599 20.8917 138.944 20.425C139.29 19.9537 139.462 19.298 139.462 18.458C139.462 17.6133 139.29 16.9553 138.944 16.484C138.599 16.0127 138.076 15.777 137.376 15.777C137.022 15.777 136.714 15.8377 136.452 15.959C136.191 16.0803 135.972 16.2553 135.794 16.484C135.622 16.7127 135.491 16.995 135.402 17.331C135.318 17.6623 135.276 18.038 135.276 18.458C135.276 18.878 135.318 19.2537 135.402 19.585C135.491 19.9163 135.622 20.1963 135.794 20.425C135.972 20.649 136.191 20.8217 136.452 20.943C136.714 21.0643 137.022 21.125 137.376 21.125ZM147.072 24.093C147.03 24.1863 146.976 24.261 146.911 24.317C146.85 24.373 146.754 24.401 146.624 24.401H145.7L146.995 21.587L144.069 14.909H145.147C145.254 14.909 145.338 14.937 145.399 14.993C145.459 15.0443 145.504 15.1027 145.532 15.168L147.429 19.634C147.471 19.7367 147.506 19.8393 147.534 19.942C147.566 20.0447 147.594 20.1497 147.618 20.257C147.65 20.1497 147.683 20.0447 147.716 19.942C147.748 19.8393 147.786 19.7343 147.828 19.627L149.669 15.168C149.697 15.0933 149.743 15.0327 149.809 14.986C149.879 14.9347 149.953 14.909 150.033 14.909H151.027L147.072 24.093ZM154.849 14.797C155.367 14.797 155.834 14.8833 156.249 15.056C156.669 15.2287 157.024 15.4737 157.313 15.791C157.607 16.1083 157.831 16.4933 157.985 16.946C158.144 17.394 158.223 17.8957 158.223 18.451C158.223 19.011 158.144 19.515 157.985 19.963C157.831 20.411 157.607 20.7937 157.313 21.111C157.024 21.4283 156.669 21.6733 156.249 21.846C155.834 22.014 155.367 22.098 154.849 22.098C154.331 22.098 153.862 22.014 153.442 21.846C153.027 21.6733 152.672 21.4283 152.378 21.111C152.084 20.7937 151.858 20.411 151.699 19.963C151.54 19.515 151.461 19.011 151.461 18.451C151.461 17.8957 151.54 17.394 151.699 16.946C151.858 16.4933 152.084 16.1083 152.378 15.791C152.672 15.4737 153.027 15.2287 153.442 15.056C153.862 14.8833 154.331 14.797 154.849 14.797ZM154.849 21.125C155.549 21.125 156.072 20.8917 156.417 20.425C156.762 19.9537 156.935 19.298 156.935 18.458C156.935 17.6133 156.762 16.9553 156.417 16.484C156.072 16.0127 155.549 15.777 154.849 15.777C154.494 15.777 154.186 15.8377 153.925 15.959C153.664 16.0803 153.444 16.2553 153.267 16.484C153.094 16.7127 152.964 16.995 152.875 17.331C152.791 17.6623 152.749 18.038 152.749 18.458C152.749 18.878 152.791 19.2537 152.875 19.585C152.964 19.9163 153.094 20.1963 153.267 20.425C153.444 20.649 153.664 20.8217 153.925 20.943C154.186 21.0643 154.494 21.125 154.849 21.125ZM160.836 14.909V19.431C160.836 19.9677 160.96 20.383 161.207 20.677C161.455 20.971 161.828 21.118 162.327 21.118C162.691 21.118 163.034 21.0317 163.356 20.859C163.678 20.6863 163.975 20.446 164.245 20.138V14.909H165.491V22H164.749C164.572 22 164.46 21.9137 164.413 21.741L164.315 20.978C164.007 21.3187 163.662 21.594 163.279 21.804C162.897 22.0093 162.458 22.112 161.963 22.112C161.576 22.112 161.233 22.049 160.934 21.923C160.64 21.7923 160.393 21.6103 160.192 21.377C159.992 21.1437 159.84 20.8613 159.737 20.53C159.639 20.1987 159.59 19.8323 159.59 19.431V14.909H160.836ZM170.245 22V11.689H171.491V15.861C171.794 15.539 172.13 15.2823 172.499 15.091C172.867 14.895 173.292 14.797 173.773 14.797C174.16 14.797 174.501 14.8623 174.795 14.993C175.093 15.119 175.341 15.301 175.537 15.539C175.737 15.7723 175.889 16.0547 175.992 16.386C176.094 16.7173 176.146 17.0837 176.146 17.485V22H174.9V17.485C174.9 16.9483 174.776 16.533 174.529 16.239C174.286 15.9403 173.913 15.791 173.409 15.791C173.04 15.791 172.695 15.8797 172.373 16.057C172.055 16.2343 171.761 16.4747 171.491 16.778V22H170.245ZM183.232 22H182.679C182.558 22 182.46 21.9813 182.385 21.944C182.31 21.9067 182.261 21.8273 182.238 21.706L182.098 21.048C181.911 21.216 181.729 21.3677 181.552 21.503C181.375 21.6337 181.188 21.7457 180.992 21.839C180.796 21.9277 180.586 21.9953 180.362 22.042C180.143 22.0887 179.898 22.112 179.627 22.112C179.352 22.112 179.093 22.0747 178.85 22C178.612 21.9207 178.404 21.804 178.227 21.65C178.05 21.496 177.907 21.3023 177.8 21.069C177.697 20.831 177.646 20.551 177.646 20.229C177.646 19.949 177.723 19.6807 177.877 19.424C178.031 19.1627 178.278 18.9317 178.619 18.731C178.964 18.5303 179.415 18.367 179.97 18.241C180.525 18.1103 181.204 18.0357 182.007 18.017V17.464C182.007 16.9133 181.888 16.498 181.65 16.218C181.417 15.9333 181.069 15.791 180.607 15.791C180.304 15.791 180.047 15.8307 179.837 15.91C179.632 15.9847 179.452 16.071 179.298 16.169C179.149 16.2623 179.018 16.3487 178.906 16.428C178.799 16.5027 178.691 16.54 178.584 16.54C178.5 16.54 178.425 16.519 178.36 16.477C178.299 16.4303 178.25 16.3743 178.213 16.309L177.989 15.91C178.381 15.532 178.803 15.2497 179.256 15.063C179.709 14.8763 180.21 14.783 180.761 14.783C181.158 14.783 181.51 14.8483 181.818 14.979C182.126 15.1097 182.385 15.2917 182.595 15.525C182.805 15.7583 182.964 16.0407 183.071 16.372C183.178 16.7033 183.232 17.0673 183.232 17.464V22ZM179.998 21.237C180.217 21.237 180.418 21.216 180.6 21.174C180.782 21.1273 180.952 21.0643 181.111 20.985C181.274 20.901 181.428 20.8007 181.573 20.684C181.722 20.5673 181.867 20.4343 182.007 20.285V18.808C181.433 18.8267 180.945 18.8733 180.544 18.948C180.143 19.018 179.816 19.1113 179.564 19.228C179.312 19.3447 179.128 19.4823 179.011 19.641C178.899 19.7997 178.843 19.977 178.843 20.173C178.843 20.3597 178.873 20.5207 178.934 20.656C178.995 20.7913 179.076 20.9033 179.179 20.992C179.282 21.076 179.403 21.139 179.543 21.181C179.683 21.2183 179.835 21.237 179.998 21.237ZM184.005 14.909H185.027C185.125 14.909 185.207 14.9347 185.272 14.986C185.337 15.0373 185.384 15.098 185.412 15.168L187.211 19.732C187.276 19.9 187.328 20.068 187.365 20.236C187.402 20.404 187.437 20.5697 187.47 20.733C187.507 20.5697 187.547 20.404 187.589 20.236C187.631 20.068 187.685 19.9 187.75 19.732L189.57 15.168C189.598 15.0933 189.642 15.0327 189.703 14.986C189.768 14.9347 189.848 14.909 189.941 14.909H190.914L188.023 22H186.896L184.005 14.909ZM194.694 14.797C195.119 14.797 195.511 14.8693 195.87 15.014C196.23 15.154 196.54 15.3593 196.801 15.63C197.063 15.896 197.266 16.2273 197.41 16.624C197.56 17.016 197.634 17.464 197.634 17.968C197.634 18.164 197.613 18.2947 197.571 18.36C197.529 18.4253 197.45 18.458 197.333 18.458H192.615C192.625 18.906 192.685 19.2957 192.797 19.627C192.909 19.9583 193.063 20.236 193.259 20.46C193.455 20.6793 193.689 20.845 193.959 20.957C194.23 21.0643 194.533 21.118 194.869 21.118C195.182 21.118 195.45 21.083 195.674 21.013C195.903 20.9383 196.099 20.859 196.262 20.775C196.426 20.691 196.561 20.614 196.668 20.544C196.78 20.4693 196.876 20.432 196.955 20.432C197.058 20.432 197.137 20.4717 197.193 20.551L197.543 21.006C197.389 21.1927 197.205 21.356 196.99 21.496C196.776 21.6313 196.545 21.7433 196.297 21.832C196.055 21.9207 195.803 21.986 195.541 22.028C195.28 22.0747 195.021 22.098 194.764 22.098C194.274 22.098 193.822 22.0163 193.406 21.853C192.996 21.685 192.639 21.4423 192.335 21.125C192.037 20.803 191.803 20.4063 191.635 19.935C191.467 19.4637 191.383 18.9223 191.383 18.311C191.383 17.8163 191.458 17.3543 191.607 16.925C191.761 16.4957 191.981 16.1247 192.265 15.812C192.55 15.4947 192.898 15.2473 193.308 15.07C193.719 14.888 194.181 14.797 194.694 14.797ZM194.722 15.714C194.12 15.714 193.647 15.889 193.301 16.239C192.956 16.5843 192.741 17.065 192.657 17.681H196.514C196.514 17.3917 196.475 17.128 196.395 16.89C196.316 16.6473 196.199 16.4397 196.045 16.267C195.891 16.0897 195.702 15.9543 195.478 15.861C195.259 15.763 195.007 15.714 194.722 15.714ZM207.144 22H206.591C206.47 22 206.372 21.9813 206.297 21.944C206.222 21.9067 206.173 21.8273 206.15 21.706L206.01 21.048C205.823 21.216 205.641 21.3677 205.464 21.503C205.287 21.6337 205.1 21.7457 204.904 21.839C204.708 21.9277 204.498 21.9953 204.274 22.042C204.055 22.0887 203.81 22.112 203.539 22.112C203.264 22.112 203.005 22.0747 202.762 22C202.524 21.9207 202.316 21.804 202.139 21.65C201.962 21.496 201.819 21.3023 201.712 21.069C201.609 20.831 201.558 20.551 201.558 20.229C201.558 19.949 201.635 19.6807 201.789 19.424C201.943 19.1627 202.19 18.9317 202.531 18.731C202.876 18.5303 203.327 18.367 203.882 18.241C204.437 18.1103 205.116 18.0357 205.919 18.017V17.464C205.919 16.9133 205.8 16.498 205.562 16.218C205.329 15.9333 204.981 15.791 204.519 15.791C204.216 15.791 203.959 15.8307 203.749 15.91C203.544 15.9847 203.364 16.071 203.21 16.169C203.061 16.2623 202.93 16.3487 202.818 16.428C202.711 16.5027 202.603 16.54 202.496 16.54C202.412 16.54 202.337 16.519 202.272 16.477C202.211 16.4303 202.162 16.3743 202.125 16.309L201.901 15.91C202.293 15.532 202.715 15.2497 203.168 15.063C203.621 14.8763 204.122 14.783 204.673 14.783C205.07 14.783 205.422 14.8483 205.73 14.979C206.038 15.1097 206.297 15.2917 206.507 15.525C206.717 15.7583 206.876 16.0407 206.983 16.372C207.09 16.7033 207.144 17.0673 207.144 17.464V22ZM203.91 21.237C204.129 21.237 204.33 21.216 204.512 21.174C204.694 21.1273 204.864 21.0643 205.023 20.985C205.186 20.901 205.34 20.8007 205.485 20.684C205.634 20.5673 205.779 20.4343 205.919 20.285V18.808C205.345 18.8267 204.857 18.8733 204.456 18.948C204.055 19.018 203.728 19.1113 203.476 19.228C203.224 19.3447 203.04 19.4823 202.923 19.641C202.811 19.7997 202.755 19.977 202.755 20.173C202.755 20.3597 202.785 20.5207 202.846 20.656C202.907 20.7913 202.988 20.9033 203.091 20.992C203.194 21.076 203.315 21.139 203.455 21.181C203.595 21.2183 203.747 21.237 203.91 21.237ZM209.032 22V14.909H209.774C209.951 14.909 210.063 14.9953 210.11 15.168L210.208 15.938C210.516 15.5973 210.859 15.322 211.237 15.112C211.619 14.902 212.06 14.797 212.56 14.797C212.947 14.797 213.288 14.8623 213.582 14.993C213.88 15.119 214.128 15.301 214.324 15.539C214.524 15.7723 214.676 16.0547 214.779 16.386C214.881 16.7173 214.933 17.0837 214.933 17.485V22H213.687V17.485C213.687 16.9483 213.563 16.533 213.316 16.239C213.073 15.9403 212.7 15.791 212.196 15.791C211.827 15.791 211.482 15.8797 211.16 16.057C210.842 16.2343 210.548 16.4747 210.278 16.778V22H209.032ZM218.671 24.093C218.629 24.1863 218.576 24.261 218.51 24.317C218.45 24.373 218.354 24.401 218.223 24.401H217.299L218.594 21.587L215.668 14.909H216.746C216.854 14.909 216.938 14.937 216.998 14.993C217.059 15.0443 217.103 15.1027 217.131 15.168L219.028 19.634C219.07 19.7367 219.105 19.8393 219.133 19.942C219.166 20.0447 219.194 20.1497 219.217 20.257C219.25 20.1497 219.283 20.0447 219.315 19.942C219.348 19.8393 219.385 19.7343 219.427 19.627L221.268 15.168C221.296 15.0933 221.343 15.0327 221.408 14.986C221.478 14.9347 221.553 14.909 221.632 14.909H222.626L218.671 24.093ZM230.523 16.078C230.467 16.1807 230.381 16.232 230.264 16.232C230.194 16.232 230.115 16.2063 230.026 16.155C229.938 16.1037 229.828 16.0477 229.697 15.987C229.571 15.9217 229.42 15.8633 229.242 15.812C229.065 15.756 228.855 15.728 228.612 15.728C228.402 15.728 228.213 15.756 228.045 15.812C227.877 15.8633 227.733 15.9357 227.611 16.029C227.495 16.1223 227.404 16.232 227.338 16.358C227.278 16.4793 227.247 16.6123 227.247 16.757C227.247 16.939 227.299 17.0907 227.401 17.212C227.509 17.3333 227.649 17.4383 227.821 17.527C227.994 17.6157 228.19 17.695 228.409 17.765C228.629 17.8303 228.853 17.9027 229.081 17.982C229.315 18.0567 229.541 18.1407 229.76 18.234C229.98 18.3273 230.176 18.444 230.348 18.584C230.521 18.724 230.659 18.8967 230.761 19.102C230.869 19.3027 230.922 19.5453 230.922 19.83C230.922 20.1567 230.864 20.46 230.747 20.74C230.631 21.0153 230.458 21.2557 230.229 21.461C230.001 21.6617 229.721 21.8203 229.389 21.937C229.058 22.0537 228.675 22.112 228.241 22.112C227.747 22.112 227.299 22.0327 226.897 21.874C226.496 21.7107 226.155 21.503 225.875 21.251L226.169 20.775C226.207 20.7143 226.251 20.6677 226.302 20.635C226.354 20.6023 226.421 20.586 226.505 20.586C226.589 20.586 226.678 20.6187 226.771 20.684C226.865 20.7493 226.977 20.8217 227.107 20.901C227.243 20.9803 227.404 21.0527 227.59 21.118C227.782 21.1833 228.02 21.216 228.304 21.216C228.547 21.216 228.759 21.1857 228.941 21.125C229.123 21.0597 229.275 20.9733 229.396 20.866C229.518 20.7587 229.606 20.635 229.662 20.495C229.723 20.355 229.753 20.2057 229.753 20.047C229.753 19.851 229.7 19.69 229.592 19.564C229.49 19.4333 229.352 19.3237 229.179 19.235C229.007 19.1417 228.808 19.0623 228.584 18.997C228.365 18.927 228.139 18.8547 227.905 18.78C227.677 18.7053 227.45 18.6213 227.226 18.528C227.007 18.43 226.811 18.3087 226.638 18.164C226.466 18.0193 226.326 17.842 226.218 17.632C226.116 17.4173 226.064 17.1583 226.064 16.855C226.064 16.5843 226.12 16.3253 226.232 16.078C226.344 15.826 226.508 15.6067 226.722 15.42C226.937 15.2287 227.201 15.077 227.513 14.965C227.826 14.853 228.183 14.797 228.584 14.797C229.051 14.797 229.469 14.8717 229.837 15.021C230.211 15.1657 230.533 15.3663 230.803 15.623L230.523 16.078ZM235.404 14.797C235.922 14.797 236.388 14.8833 236.804 15.056C237.224 15.2287 237.578 15.4737 237.868 15.791C238.162 16.1083 238.386 16.4933 238.54 16.946C238.698 17.394 238.778 17.8957 238.778 18.451C238.778 19.011 238.698 19.515 238.54 19.963C238.386 20.411 238.162 20.7937 237.868 21.111C237.578 21.4283 237.224 21.6733 236.804 21.846C236.388 22.014 235.922 22.098 235.404 22.098C234.886 22.098 234.417 22.014 233.997 21.846C233.581 21.6733 233.227 21.4283 232.933 21.111C232.639 20.7937 232.412 20.411 232.254 19.963C232.095 19.515 232.016 19.011 232.016 18.451C232.016 17.8957 232.095 17.394 232.254 16.946C232.412 16.4933 232.639 16.1083 232.933 15.791C233.227 15.4737 233.581 15.2287 233.997 15.056C234.417 14.8833 234.886 14.797 235.404 14.797ZM235.404 21.125C236.104 21.125 236.626 20.8917 236.972 20.425C237.317 19.9537 237.49 19.298 237.49 18.458C237.49 17.6133 237.317 16.9553 236.972 16.484C236.626 16.0127 236.104 15.777 235.404 15.777C235.049 15.777 234.741 15.8377 234.48 15.959C234.218 16.0803 233.999 16.2553 233.822 16.484C233.649 16.7127 233.518 16.995 233.43 17.331C233.346 17.6623 233.304 18.038 233.304 18.458C233.304 18.878 233.346 19.2537 233.43 19.585C233.518 19.9163 233.649 20.1963 233.822 20.425C233.999 20.649 234.218 20.8217 234.48 20.943C234.741 21.0643 235.049 21.125 235.404 21.125ZM240.593 22V15.973L239.809 15.882C239.711 15.8587 239.629 15.8237 239.564 15.777C239.503 15.7257 239.473 15.6533 239.473 15.56V15.049H240.593V14.363C240.593 13.957 240.649 13.5977 240.761 13.285C240.878 12.9677 241.041 12.7017 241.251 12.487C241.466 12.2677 241.722 12.102 242.021 11.99C242.32 11.878 242.656 11.822 243.029 11.822C243.346 11.822 243.64 11.8687 243.911 11.962L243.883 12.585C243.878 12.6783 243.839 12.7343 243.764 12.753C243.689 12.7717 243.584 12.781 243.449 12.781H243.232C243.017 12.781 242.821 12.809 242.644 12.865C242.471 12.921 242.322 13.012 242.196 13.138C242.07 13.264 241.972 13.4297 241.902 13.635C241.837 13.8403 241.804 14.0947 241.804 14.398V15.049H243.855V15.952H241.846V22H240.593ZM250.238 22H249.685C249.563 22 249.465 21.9813 249.391 21.944C249.316 21.9067 249.267 21.8273 249.244 21.706L249.104 21.048C248.917 21.216 248.735 21.3677 248.558 21.503C248.38 21.6337 248.194 21.7457 247.998 21.839C247.802 21.9277 247.592 21.9953 247.368 22.042C247.148 22.0887 246.903 22.112 246.633 22.112C246.357 22.112 246.098 22.0747 245.856 22C245.618 21.9207 245.41 21.804 245.233 21.65C245.055 21.496 244.913 21.3023 244.806 21.069C244.703 20.831 244.652 20.551 244.652 20.229C244.652 19.949 244.729 19.6807 244.883 19.424C245.037 19.1627 245.284 18.9317 245.625 18.731C245.97 18.5303 246.42 18.367 246.976 18.241C247.531 18.1103 248.21 18.0357 249.013 18.017V17.464C249.013 16.9133 248.894 16.498 248.656 16.218C248.422 15.9333 248.075 15.791 247.613 15.791C247.309 15.791 247.053 15.8307 246.843 15.91C246.637 15.9847 246.458 16.071 246.304 16.169C246.154 16.2623 246.024 16.3487 245.912 16.428C245.804 16.5027 245.697 16.54 245.59 16.54C245.506 16.54 245.431 16.519 245.366 16.477C245.305 16.4303 245.256 16.3743 245.219 16.309L244.995 15.91C245.387 15.532 245.809 15.2497 246.262 15.063C246.714 14.8763 247.216 14.783 247.767 14.783C248.163 14.783 248.516 14.8483 248.824 14.979C249.132 15.1097 249.391 15.2917 249.601 15.525C249.811 15.7583 249.969 16.0407 250.077 16.372C250.184 16.7033 250.238 17.0673 250.238 17.464V22ZM247.004 21.237C247.223 21.237 247.424 21.216 247.606 21.174C247.788 21.1273 247.958 21.0643 248.117 20.985C248.28 20.901 248.434 20.8007 248.579 20.684C248.728 20.5673 248.873 20.4343 249.013 20.285V18.808C248.439 18.8267 247.951 18.8733 247.55 18.948C247.148 19.018 246.822 19.1113 246.57 19.228C246.318 19.3447 246.133 19.4823 246.017 19.641C245.905 19.7997 245.849 19.977 245.849 20.173C245.849 20.3597 245.879 20.5207 245.94 20.656C246 20.7913 246.082 20.9033 246.185 20.992C246.287 21.076 246.409 21.139 246.549 21.181C246.689 21.2183 246.84 21.237 247.004 21.237ZM256.186 16.078C256.13 16.1807 256.043 16.232 255.927 16.232C255.857 16.232 255.777 16.2063 255.689 16.155C255.6 16.1037 255.49 16.0477 255.36 15.987C255.234 15.9217 255.082 15.8633 254.905 15.812C254.727 15.756 254.517 15.728 254.275 15.728C254.065 15.728 253.876 15.756 253.708 15.812C253.54 15.8633 253.395 15.9357 253.274 16.029C253.157 16.1223 253.066 16.232 253.001 16.358C252.94 16.4793 252.91 16.6123 252.91 16.757C252.91 16.939 252.961 17.0907 253.064 17.212C253.171 17.3333 253.311 17.4383 253.484 17.527C253.656 17.6157 253.852 17.695 254.072 17.765C254.291 17.8303 254.515 17.9027 254.744 17.982C254.977 18.0567 255.203 18.1407 255.423 18.234C255.642 18.3273 255.838 18.444 256.011 18.584C256.183 18.724 256.321 18.8967 256.424 19.102C256.531 19.3027 256.585 19.5453 256.585 19.83C256.585 20.1567 256.526 20.46 256.41 20.74C256.293 21.0153 256.12 21.2557 255.892 21.461C255.663 21.6617 255.383 21.8203 255.052 21.937C254.72 22.0537 254.338 22.112 253.904 22.112C253.409 22.112 252.961 22.0327 252.56 21.874C252.158 21.7107 251.818 21.503 251.538 21.251L251.832 20.775C251.869 20.7143 251.913 20.6677 251.965 20.635C252.016 20.6023 252.084 20.586 252.168 20.586C252.252 20.586 252.34 20.6187 252.434 20.684C252.527 20.7493 252.639 20.8217 252.77 20.901C252.905 20.9803 253.066 21.0527 253.253 21.118C253.444 21.1833 253.682 21.216 253.967 21.216C254.209 21.216 254.422 21.1857 254.604 21.125C254.786 21.0597 254.937 20.9733 255.059 20.866C255.18 20.7587 255.269 20.635 255.325 20.495C255.385 20.355 255.416 20.2057 255.416 20.047C255.416 19.851 255.362 19.69 255.255 19.564C255.152 19.4333 255.014 19.3237 254.842 19.235C254.669 19.1417 254.471 19.0623 254.247 18.997C254.027 18.927 253.801 18.8547 253.568 18.78C253.339 18.7053 253.113 18.6213 252.889 18.528C252.669 18.43 252.473 18.3087 252.301 18.164C252.128 18.0193 251.988 17.842 251.881 17.632C251.778 17.4173 251.727 17.1583 251.727 16.855C251.727 16.5843 251.783 16.3253 251.895 16.078C252.007 15.826 252.17 15.6067 252.385 15.42C252.599 15.2287 252.863 15.077 253.176 14.965C253.488 14.853 253.845 14.797 254.247 14.797C254.713 14.797 255.131 14.8717 255.5 15.021C255.873 15.1657 256.195 15.3663 256.466 15.623L256.186 16.078ZM262.289 14.909V22H261.043V14.909H262.289ZM262.569 12.683C262.569 12.8043 262.543 12.9187 262.492 13.026C262.445 13.1287 262.38 13.222 262.296 13.306C262.217 13.3853 262.123 13.4483 262.016 13.495C261.909 13.5417 261.794 13.565 261.673 13.565C261.552 13.565 261.437 13.5417 261.33 13.495C261.227 13.4483 261.134 13.3853 261.05 13.306C260.971 13.222 260.908 13.1287 260.861 13.026C260.814 12.9187 260.791 12.8043 260.791 12.683C260.791 12.5617 260.814 12.4473 260.861 12.34C260.908 12.228 260.971 12.1323 261.05 12.053C261.134 11.969 261.227 11.9037 261.33 11.857C261.437 11.8103 261.552 11.787 261.673 11.787C261.794 11.787 261.909 11.8103 262.016 11.857C262.123 11.9037 262.217 11.969 262.296 12.053C262.38 12.1323 262.445 12.228 262.492 12.34C262.543 12.4473 262.569 12.5617 262.569 12.683ZM264.485 22V14.909H265.227C265.404 14.909 265.516 14.9953 265.563 15.168L265.661 15.938C265.969 15.5973 266.312 15.322 266.69 15.112C267.073 14.902 267.514 14.797 268.013 14.797C268.4 14.797 268.741 14.8623 269.035 14.993C269.334 15.119 269.581 15.301 269.777 15.539C269.978 15.7723 270.129 16.0547 270.232 16.386C270.335 16.7173 270.386 17.0837 270.386 17.485V22H269.14V17.485C269.14 16.9483 269.016 16.533 268.769 16.239C268.526 15.9403 268.153 15.791 267.649 15.791C267.28 15.791 266.935 15.8797 266.613 16.057C266.296 16.2343 266.002 16.4747 265.731 16.778V22H264.485ZM275.013 22V11.689H276.266V15.931C276.56 15.5903 276.896 15.3173 277.274 15.112C277.657 14.902 278.093 14.797 278.583 14.797C278.994 14.797 279.365 14.874 279.696 15.028C280.028 15.182 280.31 15.413 280.543 15.721C280.777 16.0243 280.956 16.4023 281.082 16.855C281.208 17.303 281.271 17.821 281.271 18.409C281.271 18.9317 281.201 19.4193 281.061 19.872C280.921 20.32 280.718 20.7097 280.452 21.041C280.191 21.3677 279.869 21.6267 279.486 21.818C279.108 22.0047 278.681 22.098 278.205 22.098C277.748 22.098 277.358 22.0093 277.036 21.832C276.719 21.6547 276.441 21.4073 276.203 21.09L276.14 21.734C276.103 21.9113 275.996 22 275.818 22H275.013ZM278.177 15.791C277.771 15.791 277.414 15.8843 277.106 16.071C276.803 16.2577 276.523 16.5213 276.266 16.862V20.292C276.49 20.6 276.738 20.817 277.008 20.943C277.284 21.069 277.589 21.132 277.925 21.132C278.588 21.132 279.097 20.8963 279.451 20.425C279.806 19.9537 279.983 19.2817 279.983 18.409C279.983 17.947 279.941 17.5503 279.857 17.219C279.778 16.8877 279.661 16.617 279.507 16.407C279.353 16.1923 279.164 16.036 278.94 15.938C278.716 15.84 278.462 15.791 278.177 15.791ZM284.178 11.689V22H282.932V11.689H284.178ZM287.452 14.909V19.431C287.452 19.9677 287.575 20.383 287.823 20.677C288.07 20.971 288.443 21.118 288.943 21.118C289.307 21.118 289.65 21.0317 289.972 20.859C290.294 20.6863 290.59 20.446 290.861 20.138V14.909H292.107V22H291.365C291.187 22 291.075 21.9137 291.029 21.741L290.931 20.978C290.623 21.3187 290.277 21.594 289.895 21.804C289.512 22.0093 289.073 22.112 288.579 22.112C288.191 22.112 287.848 22.049 287.55 21.923C287.256 21.7923 287.008 21.6103 286.808 21.377C286.607 21.1437 286.455 20.8613 286.353 20.53C286.255 20.1987 286.206 19.8323 286.206 19.431V14.909H287.452ZM296.96 14.797C297.385 14.797 297.777 14.8693 298.136 15.014C298.495 15.154 298.806 15.3593 299.067 15.63C299.328 15.896 299.531 16.2273 299.676 16.624C299.825 17.016 299.9 17.464 299.9 17.968C299.9 18.164 299.879 18.2947 299.837 18.36C299.795 18.4253 299.716 18.458 299.599 18.458H294.881C294.89 18.906 294.951 19.2957 295.063 19.627C295.175 19.9583 295.329 20.236 295.525 20.46C295.721 20.6793 295.954 20.845 296.225 20.957C296.496 21.0643 296.799 21.118 297.135 21.118C297.448 21.118 297.716 21.083 297.94 21.013C298.169 20.9383 298.365 20.859 298.528 20.775C298.691 20.691 298.827 20.614 298.934 20.544C299.046 20.4693 299.142 20.432 299.221 20.432C299.324 20.432 299.403 20.4717 299.459 20.551L299.809 21.006C299.655 21.1927 299.471 21.356 299.256 21.496C299.041 21.6313 298.81 21.7433 298.563 21.832C298.32 21.9207 298.068 21.986 297.807 22.028C297.546 22.0747 297.287 22.098 297.03 22.098C296.54 22.098 296.087 22.0163 295.672 21.853C295.261 21.685 294.904 21.4423 294.601 21.125C294.302 20.803 294.069 20.4063 293.901 19.935C293.733 19.4637 293.649 18.9223 293.649 18.311C293.649 17.8163 293.724 17.3543 293.873 16.925C294.027 16.4957 294.246 16.1247 294.531 15.812C294.816 15.4947 295.163 15.2473 295.574 15.07C295.985 14.888 296.447 14.797 296.96 14.797ZM296.988 15.714C296.386 15.714 295.912 15.889 295.567 16.239C295.222 16.5843 295.007 17.065 294.923 17.681H298.78C298.78 17.3917 298.74 17.128 298.661 16.89C298.582 16.6473 298.465 16.4397 298.311 16.267C298.157 16.0897 297.968 15.9543 297.744 15.861C297.525 15.763 297.273 15.714 296.988 15.714ZM85.859 37.169C85.8217 37.2203 85.7843 37.26 85.747 37.288C85.7097 37.316 85.656 37.33 85.586 37.33C85.516 37.33 85.439 37.302 85.355 37.246C85.2757 37.1853 85.173 37.12 85.047 37.05C84.921 36.98 84.767 36.917 84.585 36.861C84.4077 36.8003 84.1883 36.77 83.927 36.77C83.5817 36.77 83.276 36.833 83.01 36.959C82.744 37.0803 82.52 37.2577 82.338 37.491C82.1607 37.7243 82.0253 38.0067 81.932 38.338C81.8433 38.6693 81.799 39.0403 81.799 39.451C81.799 39.8803 81.848 40.263 81.946 40.599C82.044 40.9303 82.1817 41.2103 82.359 41.439C82.5363 41.663 82.751 41.8357 83.003 41.957C83.2597 42.0737 83.5467 42.132 83.864 42.132C84.1673 42.132 84.417 42.097 84.613 42.027C84.809 41.9523 84.9723 41.8707 85.103 41.782C85.2337 41.6933 85.341 41.614 85.425 41.544C85.509 41.4693 85.593 41.432 85.677 41.432C85.7843 41.432 85.8637 41.4717 85.915 41.551L86.265 42.006C85.957 42.384 85.572 42.6617 85.11 42.839C84.648 43.0117 84.1603 43.098 83.647 43.098C83.2037 43.098 82.7907 43.0163 82.408 42.853C82.03 42.6897 81.701 42.454 81.421 42.146C81.141 41.8333 80.9193 41.4507 80.756 40.998C80.5973 40.5453 80.518 40.0297 80.518 39.451C80.518 38.9237 80.5903 38.436 80.735 37.988C80.8843 37.54 81.099 37.155 81.379 36.833C81.6637 36.5063 82.0137 36.252 82.429 36.07C82.8443 35.888 83.3203 35.797 83.857 35.797C84.3517 35.797 84.7903 35.8787 85.173 36.042C85.5557 36.2007 85.894 36.427 86.188 36.721L85.859 37.169ZM90.4272 35.797C90.9452 35.797 91.4118 35.8833 91.8272 36.056C92.2472 36.2287 92.6018 36.4737 92.8912 36.791C93.1852 37.1083 93.4092 37.4933 93.5632 37.946C93.7218 38.394 93.8012 38.8957 93.8012 39.451C93.8012 40.011 93.7218 40.515 93.5632 40.963C93.4092 41.411 93.1852 41.7937 92.8912 42.111C92.6018 42.4283 92.2472 42.6733 91.8272 42.846C91.4118 43.014 90.9452 43.098 90.4272 43.098C89.9092 43.098 89.4402 43.014 89.0202 42.846C88.6048 42.6733 88.2502 42.4283 87.9562 42.111C87.6622 41.7937 87.4358 41.411 87.2772 40.963C87.1185 40.515 87.0392 40.011 87.0392 39.451C87.0392 38.8957 87.1185 38.394 87.2772 37.946C87.4358 37.4933 87.6622 37.1083 87.9562 36.791C88.2502 36.4737 88.6048 36.2287 89.0202 36.056C89.4402 35.8833 89.9092 35.797 90.4272 35.797ZM90.4272 42.125C91.1272 42.125 91.6498 41.8917 91.9952 41.425C92.3405 40.9537 92.5132 40.298 92.5132 39.458C92.5132 38.6133 92.3405 37.9553 91.9952 37.484C91.6498 37.0127 91.1272 36.777 90.4272 36.777C90.0725 36.777 89.7645 36.8377 89.5032 36.959C89.2418 37.0803 89.0225 37.2553 88.8452 37.484C88.6725 37.7127 88.5418 37.995 88.4532 38.331C88.3692 38.6623 88.3272 39.038 88.3272 39.458C88.3272 39.878 88.3692 40.2537 88.4532 40.585C88.5418 40.9163 88.6725 41.1963 88.8452 41.425C89.0225 41.649 89.2418 41.8217 89.5032 41.943C89.7645 42.0643 90.0725 42.125 90.4272 42.125ZM96.7225 32.689V43H95.4765V32.689H96.7225ZM101.788 35.797C102.306 35.797 102.773 35.8833 103.188 36.056C103.608 36.2287 103.963 36.4737 104.252 36.791C104.546 37.1083 104.77 37.4933 104.924 37.946C105.083 38.394 105.162 38.8957 105.162 39.451C105.162 40.011 105.083 40.515 104.924 40.963C104.77 41.411 104.546 41.7937 104.252 42.111C103.963 42.4283 103.608 42.6733 103.188 42.846C102.773 43.014 102.306 43.098 101.788 43.098C101.27 43.098 100.801 43.014 100.381 42.846C99.9662 42.6733 99.6115 42.4283 99.3175 42.111C99.0235 41.7937 98.7972 41.411 98.6385 40.963C98.4798 40.515 98.4005 40.011 98.4005 39.451C98.4005 38.8957 98.4798 38.394 98.6385 37.946C98.7972 37.4933 99.0235 37.1083 99.3175 36.791C99.6115 36.4737 99.9662 36.2287 100.381 36.056C100.801 35.8833 101.27 35.797 101.788 35.797ZM101.788 42.125C102.488 42.125 103.011 41.8917 103.356 41.425C103.702 40.9537 103.874 40.298 103.874 39.458C103.874 38.6133 103.702 37.9553 103.356 37.484C103.011 37.0127 102.488 36.777 101.788 36.777C101.434 36.777 101.126 36.8377 100.864 36.959C100.603 37.0803 100.384 37.2553 100.206 37.484C100.034 37.7127 99.9032 37.995 99.8145 38.331C99.7305 38.6623 99.6885 39.038 99.6885 39.458C99.6885 39.878 99.7305 40.2537 99.8145 40.585C99.9032 40.9163 100.034 41.1963 100.206 41.425C100.384 41.649 100.603 41.8217 100.864 41.943C101.126 42.0643 101.434 42.125 101.788 42.125ZM107.776 35.909V40.431C107.776 40.9677 107.899 41.383 108.147 41.677C108.394 41.971 108.767 42.118 109.267 42.118C109.631 42.118 109.974 42.0317 110.296 41.859C110.618 41.6863 110.914 41.446 111.185 41.138V35.909H112.431V43H111.689C111.511 43 111.399 42.9137 111.353 42.741L111.255 41.978C110.947 42.3187 110.601 42.594 110.219 42.804C109.836 43.0093 109.397 43.112 108.903 43.112C108.515 43.112 108.172 43.049 107.874 42.923C107.58 42.7923 107.332 42.6103 107.132 42.377C106.931 42.1437 106.779 41.8613 106.677 41.53C106.579 41.1987 106.53 40.8323 106.53 40.431V35.909H107.776ZM114.477 43V35.909H115.191C115.326 35.909 115.42 35.9347 115.471 35.986C115.522 36.0373 115.557 36.126 115.576 36.252L115.66 37.358C115.903 36.8633 116.201 36.4783 116.556 36.203C116.915 35.923 117.335 35.783 117.816 35.783C118.012 35.783 118.189 35.8063 118.348 35.853C118.507 35.895 118.654 35.9557 118.789 36.035L118.628 36.966C118.595 37.0827 118.523 37.141 118.411 37.141C118.346 37.141 118.245 37.12 118.11 37.078C117.975 37.0313 117.786 37.008 117.543 37.008C117.109 37.008 116.745 37.134 116.451 37.386C116.162 37.638 115.919 38.0043 115.723 38.485V43H114.477ZM119.34 33.865C119.484 33.7297 119.643 33.6013 119.816 33.48C119.993 33.3587 120.184 33.2513 120.39 33.158C120.6 33.0647 120.824 32.9923 121.062 32.941C121.304 32.885 121.566 32.857 121.846 32.857C122.214 32.857 122.555 32.9107 122.868 33.018C123.185 33.1253 123.458 33.277 123.687 33.473C123.915 33.669 124.095 33.907 124.226 34.187C124.356 34.467 124.422 34.782 124.422 35.132C124.422 35.4867 124.368 35.7923 124.261 36.049C124.158 36.3057 124.025 36.532 123.862 36.728C123.703 36.9193 123.528 37.0873 123.337 37.232C123.145 37.372 122.966 37.505 122.798 37.631C122.634 37.757 122.492 37.883 122.371 38.009C122.254 38.135 122.186 38.275 122.168 38.429L122.042 39.5H121.188L121.104 38.338V38.261C121.104 38.065 121.155 37.8923 121.258 37.743C121.365 37.589 121.498 37.4467 121.657 37.316C121.82 37.1807 121.993 37.0477 122.175 36.917C122.361 36.7817 122.534 36.6347 122.693 36.476C122.856 36.3127 122.989 36.1283 123.092 35.923C123.199 35.7177 123.253 35.475 123.253 35.195C123.253 34.9943 123.213 34.8123 123.134 34.649C123.054 34.4857 122.947 34.348 122.812 34.236C122.676 34.1193 122.515 34.0307 122.329 33.97C122.147 33.9093 121.951 33.879 121.741 33.879C121.456 33.879 121.211 33.914 121.006 33.984C120.805 34.054 120.635 34.131 120.495 34.215C120.355 34.299 120.24 34.376 120.152 34.446C120.068 34.516 119.998 34.551 119.942 34.551C119.825 34.551 119.734 34.4973 119.669 34.39L119.34 33.865ZM120.712 42.23C120.712 42.1087 120.733 41.9943 120.775 41.887C120.821 41.7797 120.882 41.6863 120.957 41.607C121.036 41.5277 121.129 41.4647 121.237 41.418C121.344 41.3713 121.458 41.348 121.58 41.348C121.701 41.348 121.815 41.3713 121.923 41.418C122.03 41.4647 122.123 41.5277 122.203 41.607C122.282 41.6863 122.343 41.7797 122.385 41.887C122.431 41.9943 122.455 42.1087 122.455 42.23C122.455 42.356 122.431 42.4727 122.385 42.58C122.343 42.6827 122.282 42.7737 122.203 42.853C122.123 42.9323 122.03 42.993 121.923 43.035C121.815 43.0817 121.701 43.105 121.58 43.105C121.458 43.105 121.344 43.0817 121.237 43.035C121.129 42.993 121.036 42.9323 120.957 42.853C120.882 42.7737 120.821 42.6827 120.775 42.58C120.733 42.4727 120.712 42.356 120.712 42.23Z" fill="#1A1C1D"/>
</g>
<g opacity="0.5">
<path d="M82 80C82 70.6112 89.6112 63 99 63H299C308.389 63 316 70.6112 316 80V97H99C89.6112 97 82 89.3888 82 80V80Z" fill="#E0E0E0"/>
<path d="M99.828 85H98.47V74.969H99.828V85ZM104.098 77.909H105.078C105.181 77.909 105.265 77.9347 105.33 77.986C105.395 78.0373 105.44 78.098 105.463 78.168L106.821 82.732C106.858 82.9 106.893 83.0633 106.926 83.222C106.959 83.376 106.987 83.5323 107.01 83.691C107.047 83.5323 107.089 83.376 107.136 83.222C107.183 83.0633 107.232 82.9 107.283 82.732L108.781 78.14C108.804 78.07 108.844 78.0117 108.9 77.965C108.961 77.9183 109.035 77.895 109.124 77.895H109.663C109.756 77.895 109.833 77.9183 109.894 77.965C109.955 78.0117 109.997 78.07 110.02 78.14L111.483 82.732C111.534 82.8953 111.579 83.0563 111.616 83.215C111.658 83.3737 111.698 83.53 111.735 83.684C111.758 83.53 111.789 83.369 111.826 83.201C111.863 83.033 111.903 82.8767 111.945 82.732L113.331 78.168C113.354 78.0933 113.399 78.0327 113.464 77.986C113.529 77.9347 113.606 77.909 113.695 77.909H114.633L112.337 85H111.35C111.229 85 111.145 84.9207 111.098 84.762L109.53 79.953C109.493 79.8457 109.462 79.7383 109.439 79.631C109.416 79.519 109.392 79.4093 109.369 79.302C109.346 79.4093 109.322 79.519 109.299 79.631C109.276 79.743 109.245 79.8527 109.208 79.96L107.619 84.762C107.568 84.9207 107.472 85 107.332 85H106.394L104.098 77.909ZM120.949 85H120.396C120.274 85 120.176 84.9813 120.102 84.944C120.027 84.9067 119.978 84.8273 119.955 84.706L119.815 84.048C119.628 84.216 119.446 84.3677 119.269 84.503C119.091 84.6337 118.905 84.7457 118.709 84.839C118.513 84.9277 118.303 84.9953 118.079 85.042C117.859 85.0887 117.614 85.112 117.344 85.112C117.068 85.112 116.809 85.0747 116.567 85C116.329 84.9207 116.121 84.804 115.944 84.65C115.766 84.496 115.624 84.3023 115.517 84.069C115.414 83.831 115.363 83.551 115.363 83.229C115.363 82.949 115.44 82.6807 115.594 82.424C115.748 82.1627 115.995 81.9317 116.336 81.731C116.681 81.5303 117.131 81.367 117.687 81.241C118.242 81.1103 118.921 81.0357 119.724 81.017V80.464C119.724 79.9133 119.605 79.498 119.367 79.218C119.133 78.9333 118.786 78.791 118.324 78.791C118.02 78.791 117.764 78.8307 117.554 78.91C117.348 78.9847 117.169 79.071 117.015 79.169C116.865 79.2623 116.735 79.3487 116.623 79.428C116.515 79.5027 116.408 79.54 116.301 79.54C116.217 79.54 116.142 79.519 116.077 79.477C116.016 79.4303 115.967 79.3743 115.93 79.309L115.706 78.91C116.098 78.532 116.52 78.2497 116.973 78.063C117.425 77.8763 117.927 77.783 118.478 77.783C118.874 77.783 119.227 77.8483 119.535 77.979C119.843 78.1097 120.102 78.2917 120.312 78.525C120.522 78.7583 120.68 79.0407 120.788 79.372C120.895 79.7033 120.949 80.0673 120.949 80.464V85ZM117.715 84.237C117.934 84.237 118.135 84.216 118.317 84.174C118.499 84.1273 118.669 84.0643 118.828 83.985C118.991 83.901 119.145 83.8007 119.29 83.684C119.439 83.5673 119.584 83.4343 119.724 83.285V81.808C119.15 81.8267 118.662 81.8733 118.261 81.948C117.859 82.018 117.533 82.1113 117.281 82.228C117.029 82.3447 116.844 82.4823 116.728 82.641C116.616 82.7997 116.56 82.977 116.56 83.173C116.56 83.3597 116.59 83.5207 116.651 83.656C116.711 83.7913 116.793 83.9033 116.896 83.992C116.998 84.076 117.12 84.139 117.26 84.181C117.4 84.2183 117.551 84.237 117.715 84.237ZM122.836 85V77.909H123.578C123.756 77.909 123.868 77.9953 123.914 78.168L124.012 78.938C124.32 78.5973 124.663 78.322 125.041 78.112C125.424 77.902 125.865 77.797 126.364 77.797C126.752 77.797 127.092 77.8623 127.386 77.993C127.685 78.119 127.932 78.301 128.128 78.539C128.329 78.7723 128.481 79.0547 128.583 79.386C128.686 79.7173 128.737 80.0837 128.737 80.485V85H127.491V80.485C127.491 79.9483 127.368 79.533 127.12 79.239C126.878 78.9403 126.504 78.791 126 78.791C125.632 78.791 125.286 78.8797 124.964 79.057C124.647 79.2343 124.353 79.4747 124.082 79.778V85H122.836ZM132.765 85.112C132.205 85.112 131.773 84.9557 131.47 84.643C131.171 84.3303 131.022 83.88 131.022 83.292V78.952H130.168C130.093 78.952 130.03 78.931 129.979 78.889C129.927 78.8423 129.902 78.7723 129.902 78.679V78.182L131.064 78.035L131.351 75.844C131.36 75.774 131.39 75.718 131.442 75.676C131.493 75.6293 131.558 75.606 131.638 75.606H132.268V78.049H134.298V78.952H132.268V83.208C132.268 83.5067 132.34 83.7283 132.485 83.873C132.629 84.0177 132.816 84.09 133.045 84.09C133.175 84.09 133.287 84.0737 133.381 84.041C133.479 84.0037 133.563 83.964 133.633 83.922C133.703 83.88 133.761 83.8427 133.808 83.81C133.859 83.7727 133.903 83.754 133.941 83.754C134.006 83.754 134.064 83.7937 134.116 83.873L134.48 84.468C134.265 84.6687 134.006 84.8273 133.703 84.944C133.399 85.056 133.087 85.112 132.765 85.112ZM143.753 85H143.2C143.079 85 142.981 84.9813 142.906 84.944C142.832 84.9067 142.783 84.8273 142.759 84.706L142.619 84.048C142.433 84.216 142.251 84.3677 142.073 84.503C141.896 84.6337 141.709 84.7457 141.513 84.839C141.317 84.9277 141.107 84.9953 140.883 85.042C140.664 85.0887 140.419 85.112 140.148 85.112C139.873 85.112 139.614 85.0747 139.371 85C139.133 84.9207 138.926 84.804 138.748 84.65C138.571 84.496 138.429 84.3023 138.321 84.069C138.219 83.831 138.167 83.551 138.167 83.229C138.167 82.949 138.244 82.6807 138.398 82.424C138.552 82.1627 138.8 81.9317 139.14 81.731C139.486 81.5303 139.936 81.367 140.491 81.241C141.047 81.1103 141.726 81.0357 142.528 81.017V80.464C142.528 79.9133 142.409 79.498 142.171 79.218C141.938 78.9333 141.59 78.791 141.128 78.791C140.825 78.791 140.568 78.8307 140.358 78.91C140.153 78.9847 139.973 79.071 139.819 79.169C139.67 79.2623 139.539 79.3487 139.427 79.428C139.32 79.5027 139.213 79.54 139.105 79.54C139.021 79.54 138.947 79.519 138.881 79.477C138.821 79.4303 138.772 79.3743 138.734 79.309L138.51 78.91C138.902 78.532 139.325 78.2497 139.777 78.063C140.23 77.8763 140.732 77.783 141.282 77.783C141.679 77.783 142.031 77.8483 142.339 77.979C142.647 78.1097 142.906 78.2917 143.116 78.525C143.326 78.7583 143.485 79.0407 143.592 79.372C143.7 79.7033 143.753 80.0673 143.753 80.464V85ZM140.519 84.237C140.739 84.237 140.939 84.216 141.121 84.174C141.303 84.1273 141.474 84.0643 141.632 83.985C141.796 83.901 141.95 83.8007 142.094 83.684C142.244 83.5673 142.388 83.4343 142.528 83.285V81.808C141.954 81.8267 141.467 81.8733 141.065 81.948C140.664 82.018 140.337 82.1113 140.085 82.228C139.833 82.3447 139.649 82.4823 139.532 82.641C139.42 82.7997 139.364 82.977 139.364 83.173C139.364 83.3597 139.395 83.5207 139.455 83.656C139.516 83.7913 139.598 83.9033 139.7 83.992C139.803 84.076 139.924 84.139 140.064 84.181C140.204 84.2183 140.356 84.237 140.519 84.237ZM147.027 74.689V85H145.781V74.689H147.027ZM153.283 79.078C153.227 79.1807 153.141 79.232 153.024 79.232C152.954 79.232 152.875 79.2063 152.786 79.155C152.698 79.1037 152.588 79.0477 152.457 78.987C152.331 78.9217 152.18 78.8633 152.002 78.812C151.825 78.756 151.615 78.728 151.372 78.728C151.162 78.728 150.973 78.756 150.805 78.812C150.637 78.8633 150.493 78.9357 150.371 79.029C150.255 79.1223 150.164 79.232 150.098 79.358C150.038 79.4793 150.007 79.6123 150.007 79.757C150.007 79.939 150.059 80.0907 150.161 80.212C150.269 80.3333 150.409 80.4383 150.581 80.527C150.754 80.6157 150.95 80.695 151.169 80.765C151.389 80.8303 151.613 80.9027 151.841 80.982C152.075 81.0567 152.301 81.1407 152.52 81.234C152.74 81.3273 152.936 81.444 153.108 81.584C153.281 81.724 153.419 81.8967 153.521 82.102C153.629 82.3027 153.682 82.5453 153.682 82.83C153.682 83.1567 153.624 83.46 153.507 83.74C153.391 84.0153 153.218 84.2557 152.989 84.461C152.761 84.6617 152.481 84.8203 152.149 84.937C151.818 85.0537 151.435 85.112 151.001 85.112C150.507 85.112 150.059 85.0327 149.657 84.874C149.256 84.7107 148.915 84.503 148.635 84.251L148.929 83.775C148.967 83.7143 149.011 83.6677 149.062 83.635C149.114 83.6023 149.181 83.586 149.265 83.586C149.349 83.586 149.438 83.6187 149.531 83.684C149.625 83.7493 149.737 83.8217 149.867 83.901C150.003 83.9803 150.164 84.0527 150.35 84.118C150.542 84.1833 150.78 84.216 151.064 84.216C151.307 84.216 151.519 84.1857 151.701 84.125C151.883 84.0597 152.035 83.9733 152.156 83.866C152.278 83.7587 152.366 83.635 152.422 83.495C152.483 83.355 152.513 83.2057 152.513 83.047C152.513 82.851 152.46 82.69 152.352 82.564C152.25 82.4333 152.112 82.3237 151.939 82.235C151.767 82.1417 151.568 82.0623 151.344 81.997C151.125 81.927 150.899 81.8547 150.665 81.78C150.437 81.7053 150.21 81.6213 149.986 81.528C149.767 81.43 149.571 81.3087 149.398 81.164C149.226 81.0193 149.086 80.842 148.978 80.632C148.876 80.4173 148.824 80.1583 148.824 79.855C148.824 79.5843 148.88 79.3253 148.992 79.078C149.104 78.826 149.268 78.6067 149.482 78.42C149.697 78.2287 149.961 78.077 150.273 77.965C150.586 77.853 150.943 77.797 151.344 77.797C151.811 77.797 152.229 77.8717 152.597 78.021C152.971 78.1657 153.293 78.3663 153.563 78.623L153.283 79.078ZM158.163 77.797C158.681 77.797 159.148 77.8833 159.563 78.056C159.983 78.2287 160.338 78.4737 160.627 78.791C160.921 79.1083 161.145 79.4933 161.299 79.946C161.458 80.394 161.537 80.8957 161.537 81.451C161.537 82.011 161.458 82.515 161.299 82.963C161.145 83.411 160.921 83.7937 160.627 84.111C160.338 84.4283 159.983 84.6733 159.563 84.846C159.148 85.014 158.681 85.098 158.163 85.098C157.645 85.098 157.176 85.014 156.756 84.846C156.341 84.6733 155.986 84.4283 155.692 84.111C155.398 83.7937 155.172 83.411 155.013 82.963C154.855 82.515 154.775 82.011 154.775 81.451C154.775 80.8957 154.855 80.394 155.013 79.946C155.172 79.4933 155.398 79.1083 155.692 78.791C155.986 78.4737 156.341 78.2287 156.756 78.056C157.176 77.8833 157.645 77.797 158.163 77.797ZM158.163 84.125C158.863 84.125 159.386 83.8917 159.731 83.425C160.077 82.9537 160.249 82.298 160.249 81.458C160.249 80.6133 160.077 79.9553 159.731 79.484C159.386 79.0127 158.863 78.777 158.163 78.777C157.809 78.777 157.501 78.8377 157.239 78.959C156.978 79.0803 156.759 79.2553 156.581 79.484C156.409 79.7127 156.278 79.995 156.189 80.331C156.105 80.6623 156.063 81.038 156.063 81.458C156.063 81.878 156.105 82.2537 156.189 82.585C156.278 82.9163 156.409 83.1963 156.581 83.425C156.759 83.649 156.978 83.8217 157.239 83.943C157.501 84.0643 157.809 84.125 158.163 84.125ZM170.988 85H170.435C170.313 85 170.215 84.9813 170.141 84.944C170.066 84.9067 170.017 84.8273 169.994 84.706L169.854 84.048C169.667 84.216 169.485 84.3677 169.308 84.503C169.13 84.6337 168.944 84.7457 168.748 84.839C168.552 84.9277 168.342 84.9953 168.118 85.042C167.898 85.0887 167.653 85.112 167.383 85.112C167.107 85.112 166.848 85.0747 166.606 85C166.368 84.9207 166.16 84.804 165.983 84.65C165.805 84.496 165.663 84.3023 165.556 84.069C165.453 83.831 165.402 83.551 165.402 83.229C165.402 82.949 165.479 82.6807 165.633 82.424C165.787 82.1627 166.034 81.9317 166.375 81.731C166.72 81.5303 167.17 81.367 167.726 81.241C168.281 81.1103 168.96 81.0357 169.763 81.017V80.464C169.763 79.9133 169.644 79.498 169.406 79.218C169.172 78.9333 168.825 78.791 168.363 78.791C168.059 78.791 167.803 78.8307 167.593 78.91C167.387 78.9847 167.208 79.071 167.054 79.169C166.904 79.2623 166.774 79.3487 166.662 79.428C166.554 79.5027 166.447 79.54 166.34 79.54C166.256 79.54 166.181 79.519 166.116 79.477C166.055 79.4303 166.006 79.3743 165.969 79.309L165.745 78.91C166.137 78.532 166.559 78.2497 167.012 78.063C167.464 77.8763 167.966 77.783 168.517 77.783C168.913 77.783 169.266 77.8483 169.574 77.979C169.882 78.1097 170.141 78.2917 170.351 78.525C170.561 78.7583 170.719 79.0407 170.827 79.372C170.934 79.7033 170.988 80.0673 170.988 80.464V85ZM167.754 84.237C167.973 84.237 168.174 84.216 168.356 84.174C168.538 84.1273 168.708 84.0643 168.867 83.985C169.03 83.901 169.184 83.8007 169.329 83.684C169.478 83.5673 169.623 83.4343 169.763 83.285V81.808C169.189 81.8267 168.701 81.8733 168.3 81.948C167.898 82.018 167.572 82.1113 167.32 82.228C167.068 82.3447 166.883 82.4823 166.767 82.641C166.655 82.7997 166.599 82.977 166.599 83.173C166.599 83.3597 166.629 83.5207 166.69 83.656C166.75 83.7913 166.832 83.9033 166.935 83.992C167.037 84.076 167.159 84.139 167.299 84.181C167.439 84.2183 167.59 84.237 167.754 84.237ZM172.876 85V77.909H173.618C173.795 77.909 173.907 77.9953 173.954 78.168L174.052 78.938C174.36 78.5973 174.703 78.322 175.081 78.112C175.463 77.902 175.904 77.797 176.404 77.797C176.791 77.797 177.132 77.8623 177.426 77.993C177.724 78.119 177.972 78.301 178.168 78.539C178.368 78.7723 178.52 79.0547 178.623 79.386C178.725 79.7173 178.777 80.0837 178.777 80.485V85H177.531V80.485C177.531 79.9483 177.407 79.533 177.16 79.239C176.917 78.9403 176.544 78.791 176.04 78.791C175.671 78.791 175.326 78.8797 175.004 79.057C174.686 79.2343 174.392 79.4747 174.122 79.778V85H172.876ZM188.57 85H188.017C187.896 85 187.798 84.9813 187.723 84.944C187.648 84.9067 187.599 84.8273 187.576 84.706L187.436 84.048C187.249 84.216 187.067 84.3677 186.89 84.503C186.713 84.6337 186.526 84.7457 186.33 84.839C186.134 84.9277 185.924 84.9953 185.7 85.042C185.481 85.0887 185.236 85.112 184.965 85.112C184.69 85.112 184.431 85.0747 184.188 85C183.95 84.9207 183.742 84.804 183.565 84.65C183.388 84.496 183.245 84.3023 183.138 84.069C183.035 83.831 182.984 83.551 182.984 83.229C182.984 82.949 183.061 82.6807 183.215 82.424C183.369 82.1627 183.616 81.9317 183.957 81.731C184.302 81.5303 184.753 81.367 185.308 81.241C185.863 81.1103 186.542 81.0357 187.345 81.017V80.464C187.345 79.9133 187.226 79.498 186.988 79.218C186.755 78.9333 186.407 78.791 185.945 78.791C185.642 78.791 185.385 78.8307 185.175 78.91C184.97 78.9847 184.79 79.071 184.636 79.169C184.487 79.2623 184.356 79.3487 184.244 79.428C184.137 79.5027 184.029 79.54 183.922 79.54C183.838 79.54 183.763 79.519 183.698 79.477C183.637 79.4303 183.588 79.3743 183.551 79.309L183.327 78.91C183.719 78.532 184.141 78.2497 184.594 78.063C185.047 77.8763 185.548 77.783 186.099 77.783C186.496 77.783 186.848 77.8483 187.156 77.979C187.464 78.1097 187.723 78.2917 187.933 78.525C188.143 78.7583 188.302 79.0407 188.409 79.372C188.516 79.7033 188.57 80.0673 188.57 80.464V85ZM185.336 84.237C185.555 84.237 185.756 84.216 185.938 84.174C186.12 84.1273 186.29 84.0643 186.449 83.985C186.612 83.901 186.766 83.8007 186.911 83.684C187.06 83.5673 187.205 83.4343 187.345 83.285V81.808C186.771 81.8267 186.283 81.8733 185.882 81.948C185.481 82.018 185.154 82.1113 184.902 82.228C184.65 82.3447 184.466 82.4823 184.349 82.641C184.237 82.7997 184.181 82.977 184.181 83.173C184.181 83.3597 184.211 83.5207 184.272 83.656C184.333 83.7913 184.414 83.9033 184.517 83.992C184.62 84.076 184.741 84.139 184.881 84.181C185.021 84.2183 185.173 84.237 185.336 84.237ZM191.844 74.689V85H190.598V74.689H191.844ZM198.877 79.169C198.839 79.2203 198.802 79.26 198.765 79.288C198.727 79.316 198.674 79.33 198.604 79.33C198.534 79.33 198.457 79.302 198.373 79.246C198.293 79.1853 198.191 79.12 198.065 79.05C197.939 78.98 197.785 78.917 197.603 78.861C197.425 78.8003 197.206 78.77 196.945 78.77C196.599 78.77 196.294 78.833 196.028 78.959C195.762 79.0803 195.538 79.2577 195.356 79.491C195.178 79.7243 195.043 80.0067 194.95 80.338C194.861 80.6693 194.817 81.0403 194.817 81.451C194.817 81.8803 194.866 82.263 194.964 82.599C195.062 82.9303 195.199 83.2103 195.377 83.439C195.554 83.663 195.769 83.8357 196.021 83.957C196.277 84.0737 196.564 84.132 196.882 84.132C197.185 84.132 197.435 84.097 197.631 84.027C197.827 83.9523 197.99 83.8707 198.121 83.782C198.251 83.6933 198.359 83.614 198.443 83.544C198.527 83.4693 198.611 83.432 198.695 83.432C198.802 83.432 198.881 83.4717 198.933 83.551L199.283 84.006C198.975 84.384 198.59 84.6617 198.128 84.839C197.666 85.0117 197.178 85.098 196.665 85.098C196.221 85.098 195.808 85.0163 195.426 84.853C195.048 84.6897 194.719 84.454 194.439 84.146C194.159 83.8333 193.937 83.4507 193.774 82.998C193.615 82.5453 193.536 82.0297 193.536 81.451C193.536 80.9237 193.608 80.436 193.753 79.988C193.902 79.54 194.117 79.155 194.397 78.833C194.681 78.5063 195.031 78.252 195.447 78.07C195.862 77.888 196.338 77.797 196.875 77.797C197.369 77.797 197.808 77.8787 198.191 78.042C198.573 78.2007 198.912 78.427 199.206 78.721L198.877 79.169ZM205.783 85H205.23C205.108 85 205.01 84.9813 204.936 84.944C204.861 84.9067 204.812 84.8273 204.789 84.706L204.649 84.048C204.462 84.216 204.28 84.3677 204.103 84.503C203.925 84.6337 203.739 84.7457 203.543 84.839C203.347 84.9277 203.137 84.9953 202.913 85.042C202.693 85.0887 202.448 85.112 202.178 85.112C201.902 85.112 201.643 85.0747 201.401 85C201.163 84.9207 200.955 84.804 200.778 84.65C200.6 84.496 200.458 84.3023 200.351 84.069C200.248 83.831 200.197 83.551 200.197 83.229C200.197 82.949 200.274 82.6807 200.428 82.424C200.582 82.1627 200.829 81.9317 201.17 81.731C201.515 81.5303 201.965 81.367 202.521 81.241C203.076 81.1103 203.755 81.0357 204.558 81.017V80.464C204.558 79.9133 204.439 79.498 204.201 79.218C203.967 78.9333 203.62 78.791 203.158 78.791C202.854 78.791 202.598 78.8307 202.388 78.91C202.182 78.9847 202.003 79.071 201.849 79.169C201.699 79.2623 201.569 79.3487 201.457 79.428C201.349 79.5027 201.242 79.54 201.135 79.54C201.051 79.54 200.976 79.519 200.911 79.477C200.85 79.4303 200.801 79.3743 200.764 79.309L200.54 78.91C200.932 78.532 201.354 78.2497 201.807 78.063C202.259 77.8763 202.761 77.783 203.312 77.783C203.708 77.783 204.061 77.8483 204.369 77.979C204.677 78.1097 204.936 78.2917 205.146 78.525C205.356 78.7583 205.514 79.0407 205.622 79.372C205.729 79.7033 205.783 80.0673 205.783 80.464V85ZM202.549 84.237C202.768 84.237 202.969 84.216 203.151 84.174C203.333 84.1273 203.503 84.0643 203.662 83.985C203.825 83.901 203.979 83.8007 204.124 83.684C204.273 83.5673 204.418 83.4343 204.558 83.285V81.808C203.984 81.8267 203.496 81.8733 203.095 81.948C202.693 82.018 202.367 82.1113 202.115 82.228C201.863 82.3447 201.678 82.4823 201.562 82.641C201.45 82.7997 201.394 82.977 201.394 83.173C201.394 83.3597 201.424 83.5207 201.485 83.656C201.545 83.7913 201.627 83.9033 201.73 83.992C201.832 84.076 201.954 84.139 202.094 84.181C202.234 84.2183 202.385 84.237 202.549 84.237ZM207.67 85V77.909H208.412C208.59 77.909 208.702 77.9953 208.748 78.168L208.846 78.938C209.154 78.5973 209.497 78.322 209.875 78.112C210.258 77.902 210.699 77.797 211.198 77.797C211.586 77.797 211.926 77.8623 212.22 77.993C212.519 78.119 212.766 78.301 212.962 78.539C213.163 78.7723 213.315 79.0547 213.417 79.386C213.52 79.7173 213.571 80.0837 213.571 80.485V85H212.325V80.485C212.325 79.9483 212.202 79.533 211.954 79.239C211.712 78.9403 211.338 78.791 210.834 78.791C210.466 78.791 210.12 78.8797 209.798 79.057C209.481 79.2343 209.187 79.4747 208.916 79.778V85H207.67ZM217.599 85.112C217.039 85.112 216.607 84.9557 216.304 84.643C216.005 84.3303 215.856 83.88 215.856 83.292V78.952H215.002C214.927 78.952 214.864 78.931 214.813 78.889C214.761 78.8423 214.736 78.7723 214.736 78.679V78.182L215.898 78.035L216.185 75.844C216.194 75.774 216.224 75.718 216.276 75.676C216.327 75.6293 216.392 75.606 216.472 75.606H217.102V78.049H219.132V78.952H217.102V83.208C217.102 83.5067 217.174 83.7283 217.319 83.873C217.463 84.0177 217.65 84.09 217.879 84.09C218.009 84.09 218.121 84.0737 218.215 84.041C218.313 84.0037 218.397 83.964 218.467 83.922C218.537 83.88 218.595 83.8427 218.642 83.81C218.693 83.7727 218.737 83.754 218.775 83.754C218.84 83.754 218.898 83.7937 218.95 83.873L219.314 84.468C219.099 84.6687 218.84 84.8273 218.537 84.944C218.233 85.056 217.921 85.112 217.599 85.112ZM225.88 85H225.327C225.206 85 225.108 84.9813 225.033 84.944C224.959 84.9067 224.91 84.8273 224.886 84.706L224.746 84.048C224.56 84.216 224.378 84.3677 224.2 84.503C224.023 84.6337 223.836 84.7457 223.64 84.839C223.444 84.9277 223.234 84.9953 223.01 85.042C222.791 85.0887 222.546 85.112 222.275 85.112C222 85.112 221.741 85.0747 221.498 85C221.26 84.9207 221.053 84.804 220.875 84.65C220.698 84.496 220.556 84.3023 220.448 84.069C220.346 83.831 220.294 83.551 220.294 83.229C220.294 82.949 220.371 82.6807 220.525 82.424C220.679 82.1627 220.927 81.9317 221.267 81.731C221.613 81.5303 222.063 81.367 222.618 81.241C223.174 81.1103 223.853 81.0357 224.655 81.017V80.464C224.655 79.9133 224.536 79.498 224.298 79.218C224.065 78.9333 223.717 78.791 223.255 78.791C222.952 78.791 222.695 78.8307 222.485 78.91C222.28 78.9847 222.1 79.071 221.946 79.169C221.797 79.2623 221.666 79.3487 221.554 79.428C221.447 79.5027 221.34 79.54 221.232 79.54C221.148 79.54 221.074 79.519 221.008 79.477C220.948 79.4303 220.899 79.3743 220.861 79.309L220.637 78.91C221.029 78.532 221.452 78.2497 221.904 78.063C222.357 77.8763 222.859 77.783 223.409 77.783C223.806 77.783 224.158 77.8483 224.466 77.979C224.774 78.1097 225.033 78.2917 225.243 78.525C225.453 78.7583 225.612 79.0407 225.719 79.372C225.827 79.7033 225.88 80.0673 225.88 80.464V85ZM222.646 84.237C222.866 84.237 223.066 84.216 223.248 84.174C223.43 84.1273 223.601 84.0643 223.759 83.985C223.923 83.901 224.077 83.8007 224.221 83.684C224.371 83.5673 224.515 83.4343 224.655 83.285V81.808C224.081 81.8267 223.594 81.8733 223.192 81.948C222.791 82.018 222.464 82.1113 222.212 82.228C221.96 82.3447 221.776 82.4823 221.659 82.641C221.547 82.7997 221.491 82.977 221.491 83.173C221.491 83.3597 221.522 83.5207 221.582 83.656C221.643 83.7913 221.725 83.9033 221.827 83.992C221.93 84.076 222.051 84.139 222.191 84.181C222.331 84.2183 222.483 84.237 222.646 84.237ZM227.768 85V77.909H228.482C228.617 77.909 228.711 77.9347 228.762 77.986C228.813 78.0373 228.848 78.126 228.867 78.252L228.951 79.358C229.194 78.8633 229.492 78.4783 229.847 78.203C230.206 77.923 230.626 77.783 231.107 77.783C231.303 77.783 231.48 77.8063 231.639 77.853C231.798 77.895 231.945 77.9557 232.08 78.035L231.919 78.966C231.886 79.0827 231.814 79.141 231.702 79.141C231.637 79.141 231.536 79.12 231.401 79.078C231.266 79.0313 231.077 79.008 230.834 79.008C230.4 79.008 230.036 79.134 229.742 79.386C229.453 79.638 229.21 80.0043 229.014 80.485V85H227.768ZM238.363 85H237.81C237.688 85 237.59 84.9813 237.516 84.944C237.441 84.9067 237.392 84.8273 237.369 84.706L237.229 84.048C237.042 84.216 236.86 84.3677 236.683 84.503C236.505 84.6337 236.319 84.7457 236.123 84.839C235.927 84.9277 235.717 84.9953 235.493 85.042C235.273 85.0887 235.028 85.112 234.758 85.112C234.482 85.112 234.223 85.0747 233.981 85C233.743 84.9207 233.535 84.804 233.358 84.65C233.18 84.496 233.038 84.3023 232.931 84.069C232.828 83.831 232.777 83.551 232.777 83.229C232.777 82.949 232.854 82.6807 233.008 82.424C233.162 82.1627 233.409 81.9317 233.75 81.731C234.095 81.5303 234.545 81.367 235.101 81.241C235.656 81.1103 236.335 81.0357 237.138 81.017V80.464C237.138 79.9133 237.019 79.498 236.781 79.218C236.547 78.9333 236.2 78.791 235.738 78.791C235.434 78.791 235.178 78.8307 234.968 78.91C234.762 78.9847 234.583 79.071 234.429 79.169C234.279 79.2623 234.149 79.3487 234.037 79.428C233.929 79.5027 233.822 79.54 233.715 79.54C233.631 79.54 233.556 79.519 233.491 79.477C233.43 79.4303 233.381 79.3743 233.344 79.309L233.12 78.91C233.512 78.532 233.934 78.2497 234.387 78.063C234.839 77.8763 235.341 77.783 235.892 77.783C236.288 77.783 236.641 77.8483 236.949 77.979C237.257 78.1097 237.516 78.2917 237.726 78.525C237.936 78.7583 238.094 79.0407 238.202 79.372C238.309 79.7033 238.363 80.0673 238.363 80.464V85ZM235.129 84.237C235.348 84.237 235.549 84.216 235.731 84.174C235.913 84.1273 236.083 84.0643 236.242 83.985C236.405 83.901 236.559 83.8007 236.704 83.684C236.853 83.5673 236.998 83.4343 237.138 83.285V81.808C236.564 81.8267 236.076 81.8733 235.675 81.948C235.273 82.018 234.947 82.1113 234.695 82.228C234.443 82.3447 234.258 82.4823 234.142 82.641C234.03 82.7997 233.974 82.977 233.974 83.173C233.974 83.3597 234.004 83.5207 234.065 83.656C234.125 83.7913 234.207 83.9033 234.31 83.992C234.412 84.076 234.534 84.139 234.674 84.181C234.814 84.2183 234.965 84.237 235.129 84.237ZM247.795 79.169C247.757 79.2203 247.72 79.26 247.683 79.288C247.645 79.316 247.592 79.33 247.522 79.33C247.452 79.33 247.375 79.302 247.291 79.246C247.211 79.1853 247.109 79.12 246.983 79.05C246.857 78.98 246.703 78.917 246.521 78.861C246.343 78.8003 246.124 78.77 245.863 78.77C245.517 78.77 245.212 78.833 244.946 78.959C244.68 79.0803 244.456 79.2577 244.274 79.491C244.096 79.7243 243.961 80.0067 243.868 80.338C243.779 80.6693 243.735 81.0403 243.735 81.451C243.735 81.8803 243.784 82.263 243.882 82.599C243.98 82.9303 244.117 83.2103 244.295 83.439C244.472 83.663 244.687 83.8357 244.939 83.957C245.195 84.0737 245.482 84.132 245.8 84.132C246.103 84.132 246.353 84.097 246.549 84.027C246.745 83.9523 246.908 83.8707 247.039 83.782C247.169 83.6933 247.277 83.614 247.361 83.544C247.445 83.4693 247.529 83.432 247.613 83.432C247.72 83.432 247.799 83.4717 247.851 83.551L248.201 84.006C247.893 84.384 247.508 84.6617 247.046 84.839C246.584 85.0117 246.096 85.098 245.583 85.098C245.139 85.098 244.726 85.0163 244.344 84.853C243.966 84.6897 243.637 84.454 243.357 84.146C243.077 83.8333 242.855 83.4507 242.692 82.998C242.533 82.5453 242.454 82.0297 242.454 81.451C242.454 80.9237 242.526 80.436 242.671 79.988C242.82 79.54 243.035 79.155 243.315 78.833C243.599 78.5063 243.949 78.252 244.365 78.07C244.78 77.888 245.256 77.797 245.793 77.797C246.287 77.797 246.726 77.8787 247.109 78.042C247.491 78.2007 247.83 78.427 248.124 78.721L247.795 79.169ZM252.363 77.797C252.881 77.797 253.347 77.8833 253.763 78.056C254.183 78.2287 254.537 78.4737 254.827 78.791C255.121 79.1083 255.345 79.4933 255.499 79.946C255.657 80.394 255.737 80.8957 255.737 81.451C255.737 82.011 255.657 82.515 255.499 82.963C255.345 83.411 255.121 83.7937 254.827 84.111C254.537 84.4283 254.183 84.6733 253.763 84.846C253.347 85.014 252.881 85.098 252.363 85.098C251.845 85.098 251.376 85.014 250.956 84.846C250.54 84.6733 250.186 84.4283 249.892 84.111C249.598 83.7937 249.371 83.411 249.213 82.963C249.054 82.515 248.975 82.011 248.975 81.451C248.975 80.8957 249.054 80.394 249.213 79.946C249.371 79.4933 249.598 79.1083 249.892 78.791C250.186 78.4737 250.54 78.2287 250.956 78.056C251.376 77.8833 251.845 77.797 252.363 77.797ZM252.363 84.125C253.063 84.125 253.585 83.8917 253.931 83.425C254.276 82.9537 254.449 82.298 254.449 81.458C254.449 80.6133 254.276 79.9553 253.931 79.484C253.585 79.0127 253.063 78.777 252.363 78.777C252.008 78.777 251.7 78.8377 251.439 78.959C251.177 79.0803 250.958 79.2553 250.781 79.484C250.608 79.7127 250.477 79.995 250.389 80.331C250.305 80.6623 250.263 81.038 250.263 81.458C250.263 81.878 250.305 82.2537 250.389 82.585C250.477 82.9163 250.608 83.1963 250.781 83.425C250.958 83.649 251.177 83.8217 251.439 83.943C251.7 84.0643 252.008 84.125 252.363 84.125ZM256.198 77.909H257.22C257.318 77.909 257.4 77.9347 257.465 77.986C257.531 78.0373 257.577 78.098 257.605 78.168L259.404 82.732C259.47 82.9 259.521 83.068 259.558 83.236C259.596 83.404 259.631 83.5697 259.663 83.733C259.701 83.5697 259.74 83.404 259.782 83.236C259.824 83.068 259.878 82.9 259.943 82.732L261.763 78.168C261.791 78.0933 261.836 78.0327 261.896 77.986C261.962 77.9347 262.041 77.909 262.134 77.909H263.107L260.216 85H259.089L256.198 77.909ZM266.888 77.797C267.312 77.797 267.704 77.8693 268.064 78.014C268.423 78.154 268.733 78.3593 268.995 78.63C269.256 78.896 269.459 79.2273 269.604 79.624C269.753 80.016 269.828 80.464 269.828 80.968C269.828 81.164 269.807 81.2947 269.765 81.36C269.723 81.4253 269.643 81.458 269.527 81.458H264.809C264.818 81.906 264.879 82.2957 264.991 82.627C265.103 82.9583 265.257 83.236 265.453 83.46C265.649 83.6793 265.882 83.845 266.153 83.957C266.423 84.0643 266.727 84.118 267.063 84.118C267.375 84.118 267.644 84.083 267.868 84.013C268.096 83.9383 268.292 83.859 268.456 83.775C268.619 83.691 268.754 83.614 268.862 83.544C268.974 83.4693 269.069 83.432 269.149 83.432C269.251 83.432 269.331 83.4717 269.387 83.551L269.737 84.006C269.583 84.1927 269.398 84.356 269.184 84.496C268.969 84.6313 268.738 84.7433 268.491 84.832C268.248 84.9207 267.996 84.986 267.735 85.028C267.473 85.0747 267.214 85.098 266.958 85.098C266.468 85.098 266.015 85.0163 265.6 84.853C265.189 84.685 264.832 84.4423 264.529 84.125C264.23 83.803 263.997 83.4063 263.829 82.935C263.661 82.4637 263.577 81.9223 263.577 81.311C263.577 80.8163 263.651 80.3543 263.801 79.925C263.955 79.4957 264.174 79.1247 264.459 78.812C264.743 78.4947 265.091 78.2473 265.502 78.07C265.912 77.888 266.374 77.797 266.888 77.797ZM266.916 78.714C266.314 78.714 265.84 78.889 265.495 79.239C265.149 79.5843 264.935 80.065 264.851 80.681H268.708C268.708 80.3917 268.668 80.128 268.589 79.89C268.509 79.6473 268.393 79.4397 268.239 79.267C268.085 79.0897 267.896 78.9543 267.672 78.861C267.452 78.763 267.2 78.714 266.916 78.714ZM271.422 85V77.909H272.136C272.272 77.909 272.365 77.9347 272.416 77.986C272.468 78.0373 272.503 78.126 272.521 78.252L272.605 79.358C272.848 78.8633 273.147 78.4783 273.501 78.203C273.861 77.923 274.281 77.783 274.761 77.783C274.957 77.783 275.135 77.8063 275.293 77.853C275.452 77.895 275.599 77.9557 275.734 78.035L275.573 78.966C275.541 79.0827 275.468 79.141 275.356 79.141C275.291 79.141 275.191 79.12 275.055 79.078C274.92 79.0313 274.731 79.008 274.488 79.008C274.054 79.008 273.69 79.134 273.396 79.386C273.107 79.638 272.864 80.0043 272.668 80.485V85H271.422ZM282.017 85H281.464C281.343 85 281.245 84.9813 281.17 84.944C281.095 84.9067 281.046 84.8273 281.023 84.706L280.883 84.048C280.696 84.216 280.514 84.3677 280.337 84.503C280.16 84.6337 279.973 84.7457 279.777 84.839C279.581 84.9277 279.371 84.9953 279.147 85.042C278.928 85.0887 278.683 85.112 278.412 85.112C278.137 85.112 277.878 85.0747 277.635 85C277.397 84.9207 277.189 84.804 277.012 84.65C276.835 84.496 276.692 84.3023 276.585 84.069C276.482 83.831 276.431 83.551 276.431 83.229C276.431 82.949 276.508 82.6807 276.662 82.424C276.816 82.1627 277.063 81.9317 277.404 81.731C277.749 81.5303 278.2 81.367 278.755 81.241C279.31 81.1103 279.989 81.0357 280.792 81.017V80.464C280.792 79.9133 280.673 79.498 280.435 79.218C280.202 78.9333 279.854 78.791 279.392 78.791C279.089 78.791 278.832 78.8307 278.622 78.91C278.417 78.9847 278.237 79.071 278.083 79.169C277.934 79.2623 277.803 79.3487 277.691 79.428C277.584 79.5027 277.476 79.54 277.369 79.54C277.285 79.54 277.21 79.519 277.145 79.477C277.084 79.4303 277.035 79.3743 276.998 79.309L276.774 78.91C277.166 78.532 277.588 78.2497 278.041 78.063C278.494 77.8763 278.995 77.783 279.546 77.783C279.943 77.783 280.295 77.8483 280.603 77.979C280.911 78.1097 281.17 78.2917 281.38 78.525C281.59 78.7583 281.749 79.0407 281.856 79.372C281.963 79.7033 282.017 80.0673 282.017 80.464V85ZM278.783 84.237C279.002 84.237 279.203 84.216 279.385 84.174C279.567 84.1273 279.737 84.0643 279.896 83.985C280.059 83.901 280.213 83.8007 280.358 83.684C280.507 83.5673 280.652 83.4343 280.792 83.285V81.808C280.218 81.8267 279.73 81.8733 279.329 81.948C278.928 82.018 278.601 82.1113 278.349 82.228C278.097 82.3447 277.913 82.4823 277.796 82.641C277.684 82.7997 277.628 82.977 277.628 83.173C277.628 83.3597 277.658 83.5207 277.719 83.656C277.78 83.7913 277.861 83.9033 277.964 83.992C278.067 84.076 278.188 84.139 278.328 84.181C278.468 84.2183 278.62 84.237 278.783 84.237ZM286.292 77.79C286.6 77.79 286.887 77.825 287.153 77.895C287.423 77.9603 287.668 78.0583 287.888 78.189H289.813V78.651C289.813 78.805 289.715 78.903 289.519 78.945L288.714 79.057C288.872 79.3603 288.952 79.6987 288.952 80.072C288.952 80.4173 288.884 80.7323 288.749 81.017C288.618 81.297 288.434 81.5373 288.196 81.738C287.962 81.9387 287.682 82.0927 287.356 82.2C287.034 82.3073 286.679 82.361 286.292 82.361C285.96 82.361 285.648 82.3213 285.354 82.242C285.204 82.3353 285.09 82.4357 285.011 82.543C284.936 82.6503 284.899 82.7553 284.899 82.858C284.899 83.026 284.966 83.1543 285.102 83.243C285.237 83.327 285.417 83.3877 285.641 83.425C285.865 83.4623 286.119 83.4857 286.404 83.495C286.688 83.5043 286.978 83.5207 287.272 83.544C287.57 83.5627 287.862 83.5977 288.147 83.649C288.431 83.7003 288.686 83.7843 288.91 83.901C289.134 84.0177 289.313 84.1787 289.449 84.384C289.584 84.5893 289.652 84.8553 289.652 85.182C289.652 85.4853 289.575 85.7793 289.421 86.064C289.271 86.3487 289.054 86.6007 288.77 86.82C288.485 87.044 288.137 87.2213 287.727 87.352C287.316 87.4873 286.852 87.555 286.334 87.555C285.816 87.555 285.361 87.5037 284.969 87.401C284.581 87.2983 284.259 87.1607 284.003 86.988C283.746 86.8153 283.552 86.6147 283.422 86.386C283.296 86.162 283.233 85.9263 283.233 85.679C283.233 85.329 283.342 85.0327 283.562 84.79C283.786 84.5427 284.091 84.3467 284.479 84.202C284.278 84.1087 284.117 83.985 283.996 83.831C283.879 83.6723 283.821 83.4623 283.821 83.201C283.821 83.0983 283.839 82.9933 283.877 82.886C283.914 82.774 283.97 82.6643 284.045 82.557C284.124 82.4497 284.22 82.347 284.332 82.249C284.444 82.151 284.574 82.0647 284.724 81.99C284.374 81.794 284.098 81.535 283.898 81.213C283.702 80.8863 283.604 80.506 283.604 80.072C283.604 79.7267 283.669 79.414 283.8 79.134C283.935 78.8493 284.122 78.609 284.36 78.413C284.598 78.2123 284.88 78.0583 285.207 77.951C285.538 77.8437 285.9 77.79 286.292 77.79ZM288.504 85.385C288.504 85.2077 288.455 85.0653 288.357 84.958C288.259 84.8507 288.126 84.769 287.958 84.713C287.79 84.6523 287.596 84.608 287.377 84.58C287.157 84.552 286.926 84.5333 286.684 84.524C286.441 84.51 286.194 84.496 285.942 84.482C285.69 84.468 285.449 84.4423 285.221 84.405C284.955 84.531 284.738 84.685 284.57 84.867C284.406 85.049 284.325 85.266 284.325 85.518C284.325 85.6767 284.364 85.8237 284.444 85.959C284.528 86.099 284.654 86.218 284.822 86.316C284.99 86.4187 285.2 86.498 285.452 86.554C285.708 86.6147 286.009 86.645 286.355 86.645C286.691 86.645 286.992 86.6147 287.258 86.554C287.524 86.4933 287.748 86.407 287.93 86.295C288.116 86.183 288.259 86.05 288.357 85.896C288.455 85.742 288.504 85.5717 288.504 85.385ZM286.292 81.535C286.544 81.535 286.765 81.5 286.957 81.43C287.153 81.36 287.316 81.262 287.447 81.136C287.577 81.01 287.675 80.8607 287.741 80.688C287.806 80.5107 287.839 80.317 287.839 80.107C287.839 79.673 287.706 79.3277 287.44 79.071C287.178 78.8143 286.796 78.686 286.292 78.686C285.792 78.686 285.41 78.8143 285.144 79.071C284.882 79.3277 284.752 79.673 284.752 80.107C284.752 80.317 284.784 80.5107 284.85 80.688C284.92 80.8607 285.02 81.01 285.151 81.136C285.281 81.262 285.442 81.36 285.634 81.43C285.825 81.5 286.044 81.535 286.292 81.535ZM293.862 77.797C294.287 77.797 294.679 77.8693 295.038 78.014C295.398 78.154 295.708 78.3593 295.969 78.63C296.231 78.896 296.434 79.2273 296.578 79.624C296.728 80.016 296.802 80.464 296.802 80.968C296.802 81.164 296.781 81.2947 296.739 81.36C296.697 81.4253 296.618 81.458 296.501 81.458H291.783C291.793 81.906 291.853 82.2957 291.965 82.627C292.077 82.9583 292.231 83.236 292.427 83.46C292.623 83.6793 292.857 83.845 293.127 83.957C293.398 84.0643 293.701 84.118 294.037 84.118C294.35 84.118 294.618 84.083 294.842 84.013C295.071 83.9383 295.267 83.859 295.43 83.775C295.594 83.691 295.729 83.614 295.836 83.544C295.948 83.4693 296.044 83.432 296.123 83.432C296.226 83.432 296.305 83.4717 296.361 83.551L296.711 84.006C296.557 84.1927 296.373 84.356 296.158 84.496C295.944 84.6313 295.713 84.7433 295.465 84.832C295.223 84.9207 294.971 84.986 294.709 85.028C294.448 85.0747 294.189 85.098 293.932 85.098C293.442 85.098 292.99 85.0163 292.574 84.853C292.164 84.685 291.807 84.4423 291.503 84.125C291.205 83.803 290.971 83.4063 290.803 82.935C290.635 82.4637 290.551 81.9223 290.551 81.311C290.551 80.8163 290.626 80.3543 290.775 79.925C290.929 79.4957 291.149 79.1247 291.433 78.812C291.718 78.4947 292.066 78.2473 292.476 78.07C292.887 77.888 293.349 77.797 293.862 77.797ZM293.89 78.714C293.288 78.714 292.815 78.889 292.469 79.239C292.124 79.5843 291.909 80.065 291.825 80.681H295.682C295.682 80.3917 295.643 80.128 295.563 79.89C295.484 79.6473 295.367 79.4397 295.213 79.267C295.059 79.0897 294.87 78.9543 294.646 78.861C294.427 78.763 294.175 78.714 293.89 78.714ZM297.991 84.23C297.991 84.1087 298.012 83.9943 298.054 83.887C298.101 83.7797 298.161 83.6863 298.236 83.607C298.315 83.5277 298.409 83.4647 298.516 83.418C298.623 83.3713 298.738 83.348 298.859 83.348C298.98 83.348 299.095 83.3713 299.202 83.418C299.309 83.4647 299.403 83.5277 299.482 83.607C299.561 83.6863 299.622 83.7797 299.664 83.887C299.711 83.9943 299.734 84.1087 299.734 84.23C299.734 84.356 299.711 84.4727 299.664 84.58C299.622 84.6827 299.561 84.7737 299.482 84.853C299.403 84.9323 299.309 84.993 299.202 85.035C299.095 85.0817 298.98 85.105 298.859 85.105C298.738 85.105 298.623 85.0817 298.516 85.035C298.409 84.993 298.315 84.9323 298.236 84.853C298.161 84.7737 298.101 84.6827 298.054 84.58C298.012 84.4727 297.991 84.356 297.991 84.23Z" fill="#1A1C1D"/>
</g>
</svg>
