<svg width="300" height="81" viewBox="0 0 300 81" fill="none" xmlns="http://www.w3.org/2000/svg">
<path d="M62.8009 17.3985C56.8332 11.449 48.7899 8.08622 40.2276 8C22.4976 8 8.14063 22.3133 8.14063 39.8169C8.14063 47.0597 10.5623 54.0439 14.8867 59.5623L15.1461 59.9072L2 71.72L40.2276 71.8062C57.8711 71.8062 72.1416 57.4929 72.1416 39.9893C72.1416 31.4531 68.855 23.4342 62.8009 17.3985Z" fill="url(#paint0_linear)"/>
<path d="M62.8009 17.3985C56.8332 11.449 48.7899 8.08622 40.2276 8C22.4976 8 8.14063 22.3133 8.14063 39.8169C8.14063 47.0597 10.5623 54.0439 14.8867 59.5623L15.1461 59.9072L2 71.72L40.2276 71.8062C57.8711 71.8062 72.1416 57.4929 72.1416 39.9893C72.1416 31.4531 68.855 23.4342 62.8009 17.3985Z" fill="url(#paint1_linear)"/>
<path d="M49.2823 37.3981L55.8505 30.8299V48.9117L49.2823 42.3436V48.139C49.2823 48.6027 49.1021 48.989 48.7414 49.2981C48.4323 49.6072 48.0459 49.7618 47.5823 49.7618H27.8005C27.3368 49.7618 26.9505 49.6072 26.6414 49.2981C26.3323 48.989 26.1777 48.6027 26.1777 48.139V31.6026C26.1777 31.139 26.3323 30.7526 26.6414 30.4435C26.9505 30.1344 27.3368 29.9799 27.8005 29.9799H47.5823C48.0459 29.9799 48.4323 30.1344 48.7414 30.4435C49.1021 30.7526 49.2823 31.139 49.2823 31.6026V37.3981Z" fill="white"/>
<path d="M96.3239 28.3462C93.6089 28.3462 91.1362 29.6158 89.6333 31.4713L82.8457 23.1214V41.9209C82.8457 49.4407 88.906 55.4956 96.3239 55.4956C103.742 55.4956 109.802 49.4407 109.802 41.9209C109.802 34.4499 103.742 28.3462 96.3239 28.3462ZM96.3239 48.6594C92.6392 48.6594 89.6333 45.6808 89.6333 41.9209C89.6333 38.2098 92.6392 35.1824 96.3239 35.1824C100.009 35.1824 103.014 38.2098 103.014 41.9209C103.014 45.6808 100.009 48.6594 96.3239 48.6594Z" fill="#0F80E9"/>
<path d="M124.577 55.1538C129.328 55.1538 133.546 53.9819 136.164 51.0032L131.025 47.048C130.152 48.2688 127.049 49.0989 125.256 49.0501C121.959 49.0501 119.195 46.8039 118.856 44.4601H136.164C138.588 34.6941 132.576 27.8579 123.946 27.8091C116.044 27.7602 111.438 34.4011 111.438 41.4326C111.438 48.1711 116.723 55.1538 124.577 55.1538ZM118.807 38.5516C118.807 36.452 120.601 33.8151 124.189 33.8151C128.358 33.8151 129.764 36.7938 129.522 38.5516H118.807Z" fill="#0F80E9"/>
<path d="M154.972 55.2026V48.6594C151.53 49.0989 147.748 48.8547 147.748 43.8741V34.7917H156.281V45.9249C156.281 54.519 164.136 56.4722 170.244 55.2026V48.6594C166.802 49.0989 163.02 48.8547 163.02 43.8741V34.7917H169.323V28.5415H163.02V23.1214H156.281V28.5415H147.748V23.1214H141.009V28.5415H138.634V34.7917H141.009V45.9249C141.009 54.519 148.864 56.4722 154.972 55.2026Z" fill="#0F80E9"/>
<path d="M184.613 55.1538C189.365 55.1538 193.583 53.9819 196.201 51.0032L191.062 47.048C190.189 48.2688 187.086 49.0989 185.292 49.0501C181.995 49.0501 179.232 46.8039 178.892 44.4601H196.201C198.625 34.6941 192.613 27.8579 183.983 27.8091C176.08 27.7602 171.475 34.4011 171.475 41.4326C171.475 48.1711 176.759 55.1538 184.613 55.1538ZM178.844 38.5516C178.844 36.452 180.638 33.8151 184.226 33.8151C188.395 33.8151 189.801 36.7938 189.559 38.5516H178.844Z" fill="#0F80E9"/>
<path d="M200.367 54.6655H207.155V41.2861C207.155 37.1844 210.936 34.6941 214.864 35.3777V28.5415C211.761 28.395 208.028 29.2251 206.815 31.569V28.5415H200.367V54.6655Z" fill="#0F80E9"/>
<path d="M231.779 55.6909C236.094 55.6909 240.118 53.5424 242.252 50.3196L237.403 45.5343C236.482 47.4387 234.252 48.8547 231.828 48.8547C228.046 48.8547 225.04 45.7296 225.04 41.8721C225.04 37.6239 228.434 34.9871 231.828 34.9871C233.719 34.9871 236.191 35.9637 237.355 38.2587L242.252 33.4733C240.07 30.2994 236.094 28.1509 231.779 28.1509C224.652 28.1509 218.253 33.864 218.253 41.8721C218.253 49.4895 224.313 55.6909 231.779 55.6909Z" fill="#0F80E9"/>
<path d="M256.7 54.9585C259.415 54.9585 262.396 54.3491 263.899 52.5424L270.081 57.3192V41.4326C270.081 34.0105 264.069 27.9556 256.7 27.9556C249.282 27.9556 243.27 34.0105 243.27 41.4326C243.27 48.9036 249.282 54.9585 256.7 54.9585ZM256.7 48.1223C253.015 48.1223 250.058 45.1437 250.058 41.4326C250.058 37.7704 253.015 34.7917 256.7 34.7917C260.336 34.7917 263.294 37.7704 263.294 41.4326C263.294 45.1437 260.336 48.1223 256.7 48.1223Z" fill="#0F80E9"/>
<path d="M284.721 55.6655V48.6828C282.151 48.6828 280.697 46.632 280.697 43.7998V27.8091L273.909 23.1214V43.9463C273.909 50.6848 278.273 55.6655 284.721 55.6655Z" fill="#0F80E9"/>
<path d="M297.846 55.5441V48.5614C295.276 48.5614 293.822 46.5106 293.822 43.6784V27.6877L287.034 23V43.8249C287.034 50.5634 291.398 55.5441 297.846 55.5441Z" fill="#0F80E9"/>
<defs>
<linearGradient id="paint0_linear" x1="27.0689" y1="13.5029" x2="48.9727" y2="67.8417" gradientUnits="userSpaceOnUse">
<stop stop-color="#1BA2F1"/>
<stop offset="1" stop-color="#0F80E9"/>
</linearGradient>
<linearGradient id="paint1_linear" x1="27.0689" y1="13.5029" x2="48.9727" y2="67.8417" gradientUnits="userSpaceOnUse">
<stop stop-color="#1BA2F1"/>
<stop offset="1" stop-color="#0F80E9"/>
</linearGradient>
</defs>
</svg>
