<svg width="71" height="64" viewBox="0 0 71 64" fill="none" xmlns="http://www.w3.org/2000/svg">
<path d="M60.8009 9.39848C54.8332 3.44898 46.7899 0.0862246 38.2276 0C20.4976 0 6.14063 14.3133 6.14063 31.8169C6.14063 39.0597 8.56229 46.0439 12.8867 51.5623L13.1461 51.9072L0 63.72L38.2276 63.8062C55.8711 63.8062 70.1416 49.4929 70.1416 31.9893C70.1416 23.4531 66.855 15.4342 60.8009 9.39848Z" fill="url(#paint0_linear)"/>
<path d="M60.8009 9.39848C54.8332 3.44898 46.7899 0.0862246 38.2276 0C20.4976 0 6.14063 14.3133 6.14063 31.8169C6.14063 39.0597 8.56229 46.0439 12.8867 51.5623L13.1461 51.9072L0 63.72L38.2276 63.8062C55.8711 63.8062 70.1416 49.4929 70.1416 31.9893C70.1416 23.4531 66.855 15.4342 60.8009 9.39848Z" fill="url(#paint1_linear)"/>
<path d="M47.2823 29.3981L53.8505 22.8299V40.9117L47.2823 34.3436V40.139C47.2823 40.6027 47.1021 40.989 46.7414 41.2981C46.4323 41.6072 46.0459 41.7618 45.5823 41.7618H25.8005C25.3368 41.7618 24.9505 41.6072 24.6414 41.2981C24.3323 40.989 24.1777 40.6027 24.1777 40.139V23.6026C24.1777 23.139 24.3323 22.7526 24.6414 22.4435C24.9505 22.1344 25.3368 21.9799 25.8005 21.9799H45.5823C46.0459 21.9799 46.4323 22.1344 46.7414 22.4435C47.1021 22.7526 47.2823 23.139 47.2823 23.6026V29.3981Z" fill="#EF6954"/>
<defs>
<linearGradient id="paint0_linear" x1="25.0689" y1="5.50287" x2="46.9727" y2="59.8417" gradientUnits="userSpaceOnUse">
<stop stop-color="#38B6FF"/>
<stop offset="1" stop-color="#0F80E9"/>
</linearGradient>
<linearGradient id="paint1_linear" x1="25.0689" y1="5.50287" x2="46.9727" y2="59.8417" gradientUnits="userSpaceOnUse">
<stop stop-color="#38B6FF"/>
<stop offset="1" stop-color="#0F80E9"/>
</linearGradient>
</defs>
</svg>
