<svg width="71" height="64" viewBox="0 0 71 64" fill="none" xmlns="http://www.w3.org/2000/svg">
<path d="M60.8009 9.39848C54.8332 3.44898 46.7899 0.0862246 38.2276 0C20.4976 0 6.14063 14.3133 6.14063 31.8169C6.14063 39.0597 8.56229 46.0439 12.8867 51.5623L13.1461 51.9072L0 63.72L38.2276 63.8062C55.8711 63.8062 70.1416 49.4929 70.1416 31.9893C70.1416 23.4531 66.855 15.4342 60.8009 9.39848Z" fill="url(#paint0_linear)"/>
<path d="M60.8009 9.39848C54.8332 3.44898 46.7899 0.0862246 38.2276 0C20.4976 0 6.14063 14.3133 6.14063 31.8169C6.14063 39.0597 8.56229 46.0439 12.8867 51.5623L13.1461 51.9072L0 63.72L38.2276 63.8062C55.8711 63.8062 70.1416 49.4929 70.1416 31.9893C70.1416 23.4531 66.855 15.4342 60.8009 9.39848Z" fill="url(#paint1_linear)"/>
<path d="M47.2828 29.3981L53.851 22.8299V40.9117L47.2828 34.3435V40.139C47.2828 40.6026 47.1025 40.989 46.7419 41.2981C46.4328 41.6072 46.0464 41.7617 45.5828 41.7617H25.801C25.3373 41.7617 24.951 41.6072 24.6419 41.2981C24.3328 40.989 24.1782 40.6026 24.1782 40.139V23.6026C24.1782 23.1389 24.3328 22.7526 24.6419 22.4435C24.951 22.1344 25.3373 21.9799 25.801 21.9799H45.5828C46.0464 21.9799 46.4328 22.1344 46.7419 22.4435C47.1025 22.7526 47.2828 23.1389 47.2828 23.6026V29.3981Z" fill="white"/>
<defs>
<linearGradient id="paint0_linear" x1="25.0689" y1="5.50287" x2="46.9727" y2="59.8417" gradientUnits="userSpaceOnUse">
<stop stop-color="#1BA2F1"/>
<stop offset="1" stop-color="#0F80E9"/>
</linearGradient>
<linearGradient id="paint1_linear" x1="25.0689" y1="5.50287" x2="46.9727" y2="59.8417" gradientUnits="userSpaceOnUse">
<stop stop-color="#1BA2F1"/>
<stop offset="1" stop-color="#0F80E9"/>
</linearGradient>
</defs>
</svg>
