<svg width="300" height="34" viewBox="0 0 300 34" fill="none" xmlns="http://www.w3.org/2000/svg">
<g opacity="0.8">
<path d="M20 17C20 7.61116 27.6112 0 37 0H263C272.389 0 280 7.61116 280 17V34H37C27.6112 34 20 26.3888 20 17V17Z" fill="#E0E0E0"/>
<path d="M36.918 11.969C37.0393 11.969 37.128 11.9853 37.184 12.018C37.2447 12.046 37.3123 12.1067 37.387 12.2L43.197 19.76C43.183 19.6387 43.1737 19.522 43.169 19.41C43.1643 19.2933 43.162 19.1813 43.162 19.074V11.969H44.352V22H43.666C43.5587 22 43.4677 21.9813 43.393 21.944C43.323 21.9067 43.253 21.8437 43.183 21.755L37.38 14.202C37.3893 14.3187 37.3963 14.433 37.401 14.545C37.4057 14.657 37.408 14.7597 37.408 14.853V22H36.218V11.969H36.918ZM49.474 14.797C49.992 14.797 50.4587 14.8833 50.874 15.056C51.294 15.2287 51.6487 15.4737 51.938 15.791C52.232 16.1083 52.456 16.4933 52.61 16.946C52.7687 17.394 52.848 17.8957 52.848 18.451C52.848 19.011 52.7687 19.515 52.61 19.963C52.456 20.411 52.232 20.7937 51.938 21.111C51.6487 21.4283 51.294 21.6733 50.874 21.846C50.4587 22.014 49.992 22.098 49.474 22.098C48.956 22.098 48.487 22.014 48.067 21.846C47.6517 21.6733 47.297 21.4283 47.003 21.111C46.709 20.7937 46.4827 20.411 46.324 19.963C46.1654 19.515 46.086 19.011 46.086 18.451C46.086 17.8957 46.1654 17.394 46.324 16.946C46.4827 16.4933 46.709 16.1083 47.003 15.791C47.297 15.4737 47.6517 15.2287 48.067 15.056C48.487 14.8833 48.956 14.797 49.474 14.797ZM49.474 21.125C50.174 21.125 50.6967 20.8917 51.042 20.425C51.3874 19.9537 51.56 19.298 51.56 18.458C51.56 17.6133 51.3874 16.9553 51.042 16.484C50.6967 16.0127 50.174 15.777 49.474 15.777C49.1194 15.777 48.8114 15.8377 48.55 15.959C48.2887 16.0803 48.0694 16.2553 47.892 16.484C47.7194 16.7127 47.5887 16.995 47.5 17.331C47.416 17.6623 47.374 18.038 47.374 18.458C47.374 18.878 47.416 19.2537 47.5 19.585C47.5887 19.9163 47.7194 20.1963 47.892 20.425C48.0694 20.649 48.2887 20.8217 48.55 20.943C48.8114 21.0643 49.1194 21.125 49.474 21.125ZM57.0904 22V14.909H57.8324C58.0097 14.909 58.1217 14.9953 58.1684 15.168L58.2594 15.896C58.5207 15.574 58.8124 15.3103 59.1344 15.105C59.461 14.8997 59.839 14.797 60.2684 14.797C60.749 14.797 61.1364 14.93 61.4304 15.196C61.729 15.462 61.9437 15.8213 62.0744 16.274C62.1724 16.0173 62.3007 15.7957 62.4594 15.609C62.6227 15.4223 62.8047 15.2683 63.0054 15.147C63.206 15.0257 63.4184 14.937 63.6424 14.881C63.871 14.825 64.102 14.797 64.3354 14.797C64.7087 14.797 65.04 14.8577 65.3294 14.979C65.6234 15.0957 65.8707 15.2683 66.0714 15.497C66.2767 15.7257 66.433 16.008 66.5404 16.344C66.6477 16.6753 66.7014 17.0557 66.7014 17.485V22H65.4554V17.485C65.4554 16.9297 65.334 16.5097 65.0914 16.225C64.8487 15.9357 64.4964 15.791 64.0344 15.791C63.829 15.791 63.633 15.8283 63.4464 15.903C63.2644 15.973 63.1034 16.078 62.9634 16.218C62.8234 16.358 62.7114 16.5353 62.6274 16.75C62.548 16.96 62.5084 17.205 62.5084 17.485V22H61.2624V17.485C61.2624 16.9157 61.148 16.491 60.9194 16.211C60.6907 15.931 60.357 15.791 59.9184 15.791C59.6104 15.791 59.3234 15.875 59.0574 16.043C58.796 16.2063 58.5557 16.4303 58.3364 16.715V22H57.0904ZM69.9744 14.909V22H68.7284V14.909H69.9744ZM70.2544 12.683C70.2544 12.8043 70.2287 12.9187 70.1774 13.026C70.1307 13.1287 70.0654 13.222 69.9814 13.306C69.9021 13.3853 69.8087 13.4483 69.7014 13.495C69.5941 13.5417 69.4797 13.565 69.3584 13.565C69.2371 13.565 69.1227 13.5417 69.0154 13.495C68.9127 13.4483 68.8194 13.3853 68.7354 13.306C68.6561 13.222 68.5931 13.1287 68.5464 13.026C68.4997 12.9187 68.4764 12.8043 68.4764 12.683C68.4764 12.5617 68.4997 12.4473 68.5464 12.34C68.5931 12.228 68.6561 12.1323 68.7354 12.053C68.8194 11.969 68.9127 11.9037 69.0154 11.857C69.1227 11.8103 69.2371 11.787 69.3584 11.787C69.4797 11.787 69.5941 11.8103 69.7014 11.857C69.8087 11.9037 69.9021 11.969 69.9814 12.053C70.0654 12.1323 70.1307 12.228 70.1774 12.34C70.2287 12.4473 70.2544 12.5617 70.2544 12.683ZM77.0074 16.169C76.9701 16.2203 76.9328 16.26 76.8954 16.288C76.8581 16.316 76.8044 16.33 76.7344 16.33C76.6644 16.33 76.5874 16.302 76.5034 16.246C76.4241 16.1853 76.3214 16.12 76.1954 16.05C76.0694 15.98 75.9154 15.917 75.7334 15.861C75.5561 15.8003 75.3368 15.77 75.0754 15.77C74.7301 15.77 74.4244 15.833 74.1584 15.959C73.8924 16.0803 73.6684 16.2577 73.4864 16.491C73.3091 16.7243 73.1738 17.0067 73.0804 17.338C72.9918 17.6693 72.9474 18.0403 72.9474 18.451C72.9474 18.8803 72.9964 19.263 73.0944 19.599C73.1924 19.9303 73.3301 20.2103 73.5074 20.439C73.6848 20.663 73.8994 20.8357 74.1514 20.957C74.4081 21.0737 74.6951 21.132 75.0124 21.132C75.3158 21.132 75.5654 21.097 75.7614 21.027C75.9574 20.9523 76.1208 20.8707 76.2514 20.782C76.3821 20.6933 76.4894 20.614 76.5734 20.544C76.6574 20.4693 76.7414 20.432 76.8254 20.432C76.9328 20.432 77.0121 20.4717 77.0634 20.551L77.4134 21.006C77.1054 21.384 76.7204 21.6617 76.2584 21.839C75.7964 22.0117 75.3088 22.098 74.7954 22.098C74.3521 22.098 73.9391 22.0163 73.5564 21.853C73.1784 21.6897 72.8494 21.454 72.5694 21.146C72.2894 20.8333 72.0678 20.4507 71.9044 19.998C71.7458 19.5453 71.6664 19.0297 71.6664 18.451C71.6664 17.9237 71.7388 17.436 71.8834 16.988C72.0328 16.54 72.2474 16.155 72.5274 15.833C72.8121 15.5063 73.1621 15.252 73.5774 15.07C73.9928 14.888 74.4688 14.797 75.0054 14.797C75.5001 14.797 75.9388 14.8787 76.3214 15.042C76.7041 15.2007 77.0424 15.427 77.3364 15.721L77.0074 16.169ZM84.2826 14.797C84.8006 14.797 85.2673 14.8833 85.6826 15.056C86.1026 15.2287 86.4573 15.4737 86.7466 15.791C87.0406 16.1083 87.2646 16.4933 87.4186 16.946C87.5773 17.394 87.6566 17.8957 87.6566 18.451C87.6566 19.011 87.5773 19.515 87.4186 19.963C87.2646 20.411 87.0406 20.7937 86.7466 21.111C86.4573 21.4283 86.1026 21.6733 85.6826 21.846C85.2673 22.014 84.8006 22.098 84.2826 22.098C83.7646 22.098 83.2956 22.014 82.8756 21.846C82.4603 21.6733 82.1056 21.4283 81.8116 21.111C81.5176 20.7937 81.2913 20.411 81.1326 19.963C80.974 19.515 80.8946 19.011 80.8946 18.451C80.8946 17.8957 80.974 17.394 81.1326 16.946C81.2913 16.4933 81.5176 16.1083 81.8116 15.791C82.1056 15.4737 82.4603 15.2287 82.8756 15.056C83.2956 14.8833 83.7646 14.797 84.2826 14.797ZM84.2826 21.125C84.9826 21.125 85.5053 20.8917 85.8506 20.425C86.196 19.9537 86.3686 19.298 86.3686 18.458C86.3686 17.6133 86.196 16.9553 85.8506 16.484C85.5053 16.0127 84.9826 15.777 84.2826 15.777C83.928 15.777 83.62 15.8377 83.3586 15.959C83.0973 16.0803 82.878 16.2553 82.7006 16.484C82.528 16.7127 82.3973 16.995 82.3086 17.331C82.2246 17.6623 82.1826 18.038 82.1826 18.458C82.1826 18.878 82.2246 19.2537 82.3086 19.585C82.3973 19.9163 82.528 20.1963 82.7006 20.425C82.878 20.649 83.0973 20.8217 83.3586 20.943C83.62 21.0643 83.928 21.125 84.2826 21.125ZM89.1919 22V14.909H89.9059C90.0413 14.909 90.1346 14.9347 90.1859 14.986C90.2373 15.0373 90.2723 15.126 90.2909 15.252L90.3749 16.358C90.6176 15.8633 90.9163 15.4783 91.2709 15.203C91.6303 14.923 92.0503 14.783 92.5309 14.783C92.7269 14.783 92.9043 14.8063 93.0629 14.853C93.2216 14.895 93.3686 14.9557 93.5039 15.035L93.3429 15.966C93.3103 16.0827 93.2379 16.141 93.1259 16.141C93.0606 16.141 92.9603 16.12 92.8249 16.078C92.6896 16.0313 92.5006 16.008 92.2579 16.008C91.8239 16.008 91.4599 16.134 91.1659 16.386C90.8766 16.638 90.6339 17.0043 90.4379 17.485V22H89.1919ZM102.382 16.169C102.345 16.2203 102.308 16.26 102.27 16.288C102.233 16.316 102.179 16.33 102.109 16.33C102.039 16.33 101.962 16.302 101.878 16.246C101.799 16.1853 101.696 16.12 101.57 16.05C101.444 15.98 101.29 15.917 101.108 15.861C100.931 15.8003 100.712 15.77 100.45 15.77C100.105 15.77 99.7994 15.833 99.5334 15.959C99.2674 16.0803 99.0434 16.2577 98.8614 16.491C98.6841 16.7243 98.5488 17.0067 98.4554 17.338C98.3668 17.6693 98.3224 18.0403 98.3224 18.451C98.3224 18.8803 98.3714 19.263 98.4694 19.599C98.5674 19.9303 98.7051 20.2103 98.8824 20.439C99.0598 20.663 99.2744 20.8357 99.5264 20.957C99.7831 21.0737 100.07 21.132 100.387 21.132C100.691 21.132 100.94 21.097 101.136 21.027C101.332 20.9523 101.496 20.8707 101.626 20.782C101.757 20.6933 101.864 20.614 101.948 20.544C102.032 20.4693 102.116 20.432 102.2 20.432C102.308 20.432 102.387 20.4717 102.438 20.551L102.788 21.006C102.48 21.384 102.095 21.6617 101.633 21.839C101.171 22.0117 100.684 22.098 100.17 22.098C99.7271 22.098 99.3141 22.0163 98.9314 21.853C98.5534 21.6897 98.2244 21.454 97.9444 21.146C97.6644 20.8333 97.4428 20.4507 97.2794 19.998C97.1208 19.5453 97.0414 19.0297 97.0414 18.451C97.0414 17.9237 97.1138 17.436 97.2584 16.988C97.4078 16.54 97.6224 16.155 97.9024 15.833C98.1871 15.5063 98.5371 15.252 98.9524 15.07C99.3678 14.888 99.8438 14.797 100.38 14.797C100.875 14.797 101.314 14.8787 101.696 15.042C102.079 15.2007 102.417 15.427 102.711 15.721L102.382 16.169ZM109.289 22H108.736C108.614 22 108.516 21.9813 108.442 21.944C108.367 21.9067 108.318 21.8273 108.295 21.706L108.155 21.048C107.968 21.216 107.786 21.3677 107.609 21.503C107.431 21.6337 107.245 21.7457 107.049 21.839C106.853 21.9277 106.643 21.9953 106.419 22.042C106.199 22.0887 105.954 22.112 105.684 22.112C105.408 22.112 105.149 22.0747 104.907 22C104.669 21.9207 104.461 21.804 104.284 21.65C104.106 21.496 103.964 21.3023 103.857 21.069C103.754 20.831 103.703 20.551 103.703 20.229C103.703 19.949 103.78 19.6807 103.934 19.424C104.088 19.1627 104.335 18.9317 104.676 18.731C105.021 18.5303 105.471 18.367 106.027 18.241C106.582 18.1103 107.261 18.0357 108.064 18.017V17.464C108.064 16.9133 107.945 16.498 107.707 16.218C107.473 15.9333 107.126 15.791 106.664 15.791C106.36 15.791 106.104 15.8307 105.894 15.91C105.688 15.9847 105.509 16.071 105.355 16.169C105.205 16.2623 105.075 16.3487 104.963 16.428C104.855 16.5027 104.748 16.54 104.641 16.54C104.557 16.54 104.482 16.519 104.417 16.477C104.356 16.4303 104.307 16.3743 104.27 16.309L104.046 15.91C104.438 15.532 104.86 15.2497 105.313 15.063C105.765 14.8763 106.267 14.783 106.818 14.783C107.214 14.783 107.567 14.8483 107.875 14.979C108.183 15.1097 108.442 15.2917 108.652 15.525C108.862 15.7583 109.02 16.0407 109.128 16.372C109.235 16.7033 109.289 17.0673 109.289 17.464V22ZM106.055 21.237C106.274 21.237 106.475 21.216 106.657 21.174C106.839 21.1273 107.009 21.0643 107.168 20.985C107.331 20.901 107.485 20.8007 107.63 20.684C107.779 20.5673 107.924 20.4343 108.064 20.285V18.808C107.49 18.8267 107.002 18.8733 106.601 18.948C106.199 19.018 105.873 19.1113 105.621 19.228C105.369 19.3447 105.184 19.4823 105.068 19.641C104.956 19.7997 104.9 19.977 104.9 20.173C104.9 20.3597 104.93 20.5207 104.991 20.656C105.051 20.7913 105.133 20.9033 105.236 20.992C105.338 21.076 105.46 21.139 105.6 21.181C105.74 21.2183 105.891 21.237 106.055 21.237ZM111.176 22V14.909H111.918C112.096 14.909 112.208 14.9953 112.254 15.168L112.345 15.896C112.607 15.574 112.898 15.3103 113.22 15.105C113.547 14.8997 113.925 14.797 114.354 14.797C114.835 14.797 115.222 14.93 115.516 15.196C115.815 15.462 116.03 15.8213 116.16 16.274C116.258 16.0173 116.387 15.7957 116.545 15.609C116.709 15.4223 116.891 15.2683 117.091 15.147C117.292 15.0257 117.504 14.937 117.728 14.881C117.957 14.825 118.188 14.797 118.421 14.797C118.795 14.797 119.126 14.8577 119.415 14.979C119.709 15.0957 119.957 15.2683 120.157 15.497C120.363 15.7257 120.519 16.008 120.626 16.344C120.734 16.6753 120.787 17.0557 120.787 17.485V22H119.541V17.485C119.541 16.9297 119.42 16.5097 119.177 16.225C118.935 15.9357 118.582 15.791 118.12 15.791C117.915 15.791 117.719 15.8283 117.532 15.903C117.35 15.973 117.189 16.078 117.049 16.218C116.909 16.358 116.797 16.5353 116.713 16.75C116.634 16.96 116.594 17.205 116.594 17.485V22H115.348V17.485C115.348 16.9157 115.234 16.491 115.005 16.211C114.777 15.931 114.443 15.791 114.004 15.791C113.696 15.791 113.409 15.875 113.143 16.043C112.882 16.2063 112.642 16.4303 112.422 16.715V22H111.176ZM125.481 14.797C125.906 14.797 126.298 14.8693 126.657 15.014C127.017 15.154 127.327 15.3593 127.588 15.63C127.85 15.896 128.053 16.2273 128.197 16.624C128.347 17.016 128.421 17.464 128.421 17.968C128.421 18.164 128.4 18.2947 128.358 18.36C128.316 18.4253 128.237 18.458 128.12 18.458H123.402C123.412 18.906 123.472 19.2957 123.584 19.627C123.696 19.9583 123.85 20.236 124.046 20.46C124.242 20.6793 124.476 20.845 124.746 20.957C125.017 21.0643 125.32 21.118 125.656 21.118C125.969 21.118 126.237 21.083 126.461 21.013C126.69 20.9383 126.886 20.859 127.049 20.775C127.213 20.691 127.348 20.614 127.455 20.544C127.567 20.4693 127.663 20.432 127.742 20.432C127.845 20.432 127.924 20.4717 127.98 20.551L128.33 21.006C128.176 21.1927 127.992 21.356 127.777 21.496C127.563 21.6313 127.332 21.7433 127.084 21.832C126.842 21.9207 126.59 21.986 126.328 22.028C126.067 22.0747 125.808 22.098 125.551 22.098C125.061 22.098 124.609 22.0163 124.193 21.853C123.783 21.685 123.426 21.4423 123.122 21.125C122.824 20.803 122.59 20.4063 122.422 19.935C122.254 19.4637 122.17 18.9223 122.17 18.311C122.17 17.8163 122.245 17.3543 122.394 16.925C122.548 16.4957 122.768 16.1247 123.052 15.812C123.337 15.4947 123.685 15.2473 124.095 15.07C124.506 14.888 124.968 14.797 125.481 14.797ZM125.509 15.714C124.907 15.714 124.434 15.889 124.088 16.239C123.743 16.5843 123.528 17.065 123.444 17.681H127.301C127.301 17.3917 127.262 17.128 127.182 16.89C127.103 16.6473 126.986 16.4397 126.832 16.267C126.678 16.0897 126.489 15.9543 126.265 15.861C126.046 15.763 125.794 15.714 125.509 15.714ZM130.016 22V14.909H130.73C130.865 14.909 130.959 14.9347 131.01 14.986C131.061 15.0373 131.096 15.126 131.115 15.252L131.199 16.358C131.442 15.8633 131.74 15.4783 132.095 15.203C132.454 14.923 132.874 14.783 133.355 14.783C133.551 14.783 133.728 14.8063 133.887 14.853C134.046 14.895 134.193 14.9557 134.328 15.035L134.167 15.966C134.134 16.0827 134.062 16.141 133.95 16.141C133.885 16.141 133.784 16.12 133.649 16.078C133.514 16.0313 133.325 16.008 133.082 16.008C132.648 16.008 132.284 16.134 131.99 16.386C131.701 16.638 131.458 17.0043 131.262 17.485V22H130.016ZM140.611 22H140.058C139.937 22 139.839 21.9813 139.764 21.944C139.689 21.9067 139.64 21.8273 139.617 21.706L139.477 21.048C139.29 21.216 139.108 21.3677 138.931 21.503C138.754 21.6337 138.567 21.7457 138.371 21.839C138.175 21.9277 137.965 21.9953 137.741 22.042C137.522 22.0887 137.277 22.112 137.006 22.112C136.731 22.112 136.472 22.0747 136.229 22C135.991 21.9207 135.783 21.804 135.606 21.65C135.429 21.496 135.286 21.3023 135.179 21.069C135.076 20.831 135.025 20.551 135.025 20.229C135.025 19.949 135.102 19.6807 135.256 19.424C135.41 19.1627 135.657 18.9317 135.998 18.731C136.343 18.5303 136.794 18.367 137.349 18.241C137.904 18.1103 138.583 18.0357 139.386 18.017V17.464C139.386 16.9133 139.267 16.498 139.029 16.218C138.796 15.9333 138.448 15.791 137.986 15.791C137.683 15.791 137.426 15.8307 137.216 15.91C137.011 15.9847 136.831 16.071 136.677 16.169C136.528 16.2623 136.397 16.3487 136.285 16.428C136.178 16.5027 136.07 16.54 135.963 16.54C135.879 16.54 135.804 16.519 135.739 16.477C135.678 16.4303 135.629 16.3743 135.592 16.309L135.368 15.91C135.76 15.532 136.182 15.2497 136.635 15.063C137.088 14.8763 137.589 14.783 138.14 14.783C138.537 14.783 138.889 14.8483 139.197 14.979C139.505 15.1097 139.764 15.2917 139.974 15.525C140.184 15.7583 140.343 16.0407 140.45 16.372C140.557 16.7033 140.611 17.0673 140.611 17.464V22ZM137.377 21.237C137.596 21.237 137.797 21.216 137.979 21.174C138.161 21.1273 138.331 21.0643 138.49 20.985C138.653 20.901 138.807 20.8007 138.952 20.684C139.101 20.5673 139.246 20.4343 139.386 20.285V18.808C138.812 18.8267 138.324 18.8733 137.923 18.948C137.522 19.018 137.195 19.1113 136.943 19.228C136.691 19.3447 136.507 19.4823 136.39 19.641C136.278 19.7997 136.222 19.977 136.222 20.173C136.222 20.3597 136.252 20.5207 136.313 20.656C136.374 20.7913 136.455 20.9033 136.558 20.992C136.661 21.076 136.782 21.139 136.922 21.181C137.062 21.2183 137.214 21.237 137.377 21.237ZM149.266 16.078C149.21 16.1807 149.123 16.232 149.007 16.232C148.937 16.232 148.857 16.2063 148.769 16.155C148.68 16.1037 148.57 16.0477 148.44 15.987C148.314 15.9217 148.162 15.8633 147.985 15.812C147.807 15.756 147.597 15.728 147.355 15.728C147.145 15.728 146.956 15.756 146.788 15.812C146.62 15.8633 146.475 15.9357 146.354 16.029C146.237 16.1223 146.146 16.232 146.081 16.358C146.02 16.4793 145.99 16.6123 145.99 16.757C145.99 16.939 146.041 17.0907 146.144 17.212C146.251 17.3333 146.391 17.4383 146.564 17.527C146.736 17.6157 146.932 17.695 147.152 17.765C147.371 17.8303 147.595 17.9027 147.824 17.982C148.057 18.0567 148.283 18.1407 148.503 18.234C148.722 18.3273 148.918 18.444 149.091 18.584C149.263 18.724 149.401 18.8967 149.504 19.102C149.611 19.3027 149.665 19.5453 149.665 19.83C149.665 20.1567 149.606 20.46 149.49 20.74C149.373 21.0153 149.2 21.2557 148.972 21.461C148.743 21.6617 148.463 21.8203 148.132 21.937C147.8 22.0537 147.418 22.112 146.984 22.112C146.489 22.112 146.041 22.0327 145.64 21.874C145.238 21.7107 144.898 21.503 144.618 21.251L144.912 20.775C144.949 20.7143 144.993 20.6677 145.045 20.635C145.096 20.6023 145.164 20.586 145.248 20.586C145.332 20.586 145.42 20.6187 145.514 20.684C145.607 20.7493 145.719 20.8217 145.85 20.901C145.985 20.9803 146.146 21.0527 146.333 21.118C146.524 21.1833 146.762 21.216 147.047 21.216C147.289 21.216 147.502 21.1857 147.684 21.125C147.866 21.0597 148.017 20.9733 148.139 20.866C148.26 20.7587 148.349 20.635 148.405 20.495C148.465 20.355 148.496 20.2057 148.496 20.047C148.496 19.851 148.442 19.69 148.335 19.564C148.232 19.4333 148.094 19.3237 147.922 19.235C147.749 19.1417 147.551 19.0623 147.327 18.997C147.107 18.927 146.881 18.8547 146.648 18.78C146.419 18.7053 146.193 18.6213 145.969 18.528C145.749 18.43 145.553 18.3087 145.381 18.164C145.208 18.0193 145.068 17.842 144.961 17.632C144.858 17.4173 144.807 17.1583 144.807 16.855C144.807 16.5843 144.863 16.3253 144.975 16.078C145.087 15.826 145.25 15.6067 145.465 15.42C145.679 15.2287 145.943 15.077 146.256 14.965C146.568 14.853 146.925 14.797 147.327 14.797C147.793 14.797 148.211 14.8717 148.58 15.021C148.953 15.1657 149.275 15.3663 149.546 15.623L149.266 16.078ZM151.276 22V11.689H152.522V15.861C152.825 15.539 153.161 15.2823 153.53 15.091C153.899 14.895 154.323 14.797 154.804 14.797C155.191 14.797 155.532 14.8623 155.826 14.993C156.125 15.119 156.372 15.301 156.568 15.539C156.769 15.7723 156.92 16.0547 157.023 16.386C157.126 16.7173 157.177 17.0837 157.177 17.485V22H155.931V17.485C155.931 16.9483 155.807 16.533 155.56 16.239C155.317 15.9403 154.944 15.791 154.44 15.791C154.071 15.791 153.726 15.8797 153.404 16.057C153.087 16.2343 152.793 16.4747 152.522 16.778V22H151.276ZM161.925 14.797C162.443 14.797 162.91 14.8833 163.325 15.056C163.745 15.2287 164.1 15.4737 164.389 15.791C164.683 16.1083 164.907 16.4933 165.061 16.946C165.22 17.394 165.299 17.8957 165.299 18.451C165.299 19.011 165.22 19.515 165.061 19.963C164.907 20.411 164.683 20.7937 164.389 21.111C164.1 21.4283 163.745 21.6733 163.325 21.846C162.91 22.014 162.443 22.098 161.925 22.098C161.407 22.098 160.938 22.014 160.518 21.846C160.103 21.6733 159.748 21.4283 159.454 21.111C159.16 20.7937 158.934 20.411 158.775 19.963C158.617 19.515 158.537 19.011 158.537 18.451C158.537 17.8957 158.617 17.394 158.775 16.946C158.934 16.4933 159.16 16.1083 159.454 15.791C159.748 15.4737 160.103 15.2287 160.518 15.056C160.938 14.8833 161.407 14.797 161.925 14.797ZM161.925 21.125C162.625 21.125 163.148 20.8917 163.493 20.425C163.839 19.9537 164.011 19.298 164.011 18.458C164.011 17.6133 163.839 16.9553 163.493 16.484C163.148 16.0127 162.625 15.777 161.925 15.777C161.571 15.777 161.263 15.8377 161.001 15.959C160.74 16.0803 160.521 16.2553 160.343 16.484C160.171 16.7127 160.04 16.995 159.951 17.331C159.867 17.6623 159.825 18.038 159.825 18.458C159.825 18.878 159.867 19.2537 159.951 19.585C160.04 19.9163 160.171 20.1963 160.343 20.425C160.521 20.649 160.74 20.8217 161.001 20.943C161.263 21.0643 161.571 21.125 161.925 21.125ZM167.913 14.909V19.431C167.913 19.9677 168.036 20.383 168.284 20.677C168.531 20.971 168.904 21.118 169.404 21.118C169.768 21.118 170.111 21.0317 170.433 20.859C170.755 20.6863 171.051 20.446 171.322 20.138V14.909H172.568V22H171.826C171.648 22 171.536 21.9137 171.49 21.741L171.392 20.978C171.084 21.3187 170.738 21.594 170.356 21.804C169.973 22.0093 169.534 22.112 169.04 22.112C168.652 22.112 168.309 22.049 168.011 21.923C167.717 21.7923 167.469 21.6103 167.269 21.377C167.068 21.1437 166.916 20.8613 166.814 20.53C166.716 20.1987 166.667 19.8323 166.667 19.431V14.909H167.913ZM179.605 22C179.427 22 179.315 21.9137 179.269 21.741L179.157 20.88C178.853 21.2487 178.506 21.545 178.114 21.769C177.726 21.9883 177.281 22.098 176.777 22.098C176.371 22.098 176.002 22.021 175.671 21.867C175.339 21.7083 175.057 21.4773 174.824 21.174C174.59 20.8707 174.411 20.4927 174.285 20.04C174.159 19.5873 174.096 19.067 174.096 18.479C174.096 17.9563 174.166 17.471 174.306 17.023C174.446 16.5703 174.646 16.1783 174.908 15.847C175.174 15.5157 175.496 15.2567 175.874 15.07C176.252 14.8787 176.681 14.783 177.162 14.783C177.596 14.783 177.967 14.8577 178.275 15.007C178.583 15.1517 178.858 15.357 179.101 15.623V11.689H180.347V22H179.605ZM177.19 21.09C177.596 21.09 177.95 20.9967 178.254 20.81C178.562 20.6233 178.844 20.3597 179.101 20.019V16.589C178.872 16.281 178.62 16.0663 178.345 15.945C178.074 15.819 177.773 15.756 177.442 15.756C176.779 15.756 176.27 15.9917 175.916 16.463C175.561 16.9343 175.384 17.6063 175.384 18.479C175.384 18.941 175.423 19.3377 175.503 19.669C175.582 19.9957 175.699 20.2663 175.853 20.481C176.007 20.691 176.196 20.845 176.42 20.943C176.644 21.041 176.9 21.09 177.19 21.09ZM185.183 22V11.689H186.436V15.931C186.73 15.5903 187.066 15.3173 187.444 15.112C187.827 14.902 188.263 14.797 188.753 14.797C189.164 14.797 189.535 14.874 189.866 15.028C190.197 15.182 190.48 15.413 190.713 15.721C190.946 16.0243 191.126 16.4023 191.252 16.855C191.378 17.303 191.441 17.821 191.441 18.409C191.441 18.9317 191.371 19.4193 191.231 19.872C191.091 20.32 190.888 20.7097 190.622 21.041C190.361 21.3677 190.039 21.6267 189.656 21.818C189.278 22.0047 188.851 22.098 188.375 22.098C187.918 22.098 187.528 22.0093 187.206 21.832C186.889 21.6547 186.611 21.4073 186.373 21.09L186.31 21.734C186.273 21.9113 186.165 22 185.988 22H185.183ZM188.347 15.791C187.941 15.791 187.584 15.8843 187.276 16.071C186.973 16.2577 186.693 16.5213 186.436 16.862V20.292C186.66 20.6 186.907 20.817 187.178 20.943C187.453 21.069 187.759 21.132 188.095 21.132C188.758 21.132 189.266 20.8963 189.621 20.425C189.976 19.9537 190.153 19.2817 190.153 18.409C190.153 17.947 190.111 17.5503 190.027 17.219C189.948 16.8877 189.831 16.617 189.677 16.407C189.523 16.1923 189.334 16.036 189.11 15.938C188.886 15.84 188.632 15.791 188.347 15.791ZM195.768 14.797C196.193 14.797 196.585 14.8693 196.944 15.014C197.304 15.154 197.614 15.3593 197.875 15.63C198.137 15.896 198.34 16.2273 198.484 16.624C198.634 17.016 198.708 17.464 198.708 17.968C198.708 18.164 198.687 18.2947 198.645 18.36C198.603 18.4253 198.524 18.458 198.407 18.458H193.689C193.699 18.906 193.759 19.2957 193.871 19.627C193.983 19.9583 194.137 20.236 194.333 20.46C194.529 20.6793 194.763 20.845 195.033 20.957C195.304 21.0643 195.607 21.118 195.943 21.118C196.256 21.118 196.524 21.083 196.748 21.013C196.977 20.9383 197.173 20.859 197.336 20.775C197.5 20.691 197.635 20.614 197.742 20.544C197.854 20.4693 197.95 20.432 198.029 20.432C198.132 20.432 198.211 20.4717 198.267 20.551L198.617 21.006C198.463 21.1927 198.279 21.356 198.064 21.496C197.85 21.6313 197.619 21.7433 197.371 21.832C197.129 21.9207 196.877 21.986 196.615 22.028C196.354 22.0747 196.095 22.098 195.838 22.098C195.348 22.098 194.896 22.0163 194.48 21.853C194.07 21.685 193.713 21.4423 193.409 21.125C193.111 20.803 192.877 20.4063 192.709 19.935C192.541 19.4637 192.457 18.9223 192.457 18.311C192.457 17.8163 192.532 17.3543 192.681 16.925C192.835 16.4957 193.055 16.1247 193.339 15.812C193.624 15.4947 193.972 15.2473 194.382 15.07C194.793 14.888 195.255 14.797 195.768 14.797ZM195.796 15.714C195.194 15.714 194.721 15.889 194.375 16.239C194.03 16.5843 193.815 17.065 193.731 17.681H197.588C197.588 17.3917 197.549 17.128 197.469 16.89C197.39 16.6473 197.273 16.4397 197.119 16.267C196.965 16.0897 196.776 15.9543 196.552 15.861C196.333 15.763 196.081 15.714 195.796 15.714ZM205.159 22.112C204.599 22.112 204.168 21.9557 203.864 21.643C203.566 21.3303 203.416 20.88 203.416 20.292V15.952H202.562C202.488 15.952 202.425 15.931 202.373 15.889C202.322 15.8423 202.296 15.7723 202.296 15.679V15.182L203.458 15.035L203.745 12.844C203.755 12.774 203.785 12.718 203.836 12.676C203.888 12.6293 203.953 12.606 204.032 12.606H204.662V15.049H206.692V15.952H204.662V20.208C204.662 20.5067 204.735 20.7283 204.879 20.873C205.024 21.0177 205.211 21.09 205.439 21.09C205.57 21.09 205.682 21.0737 205.775 21.041C205.873 21.0037 205.957 20.964 206.027 20.922C206.097 20.88 206.156 20.8427 206.202 20.81C206.254 20.7727 206.298 20.754 206.335 20.754C206.401 20.754 206.459 20.7937 206.51 20.873L206.874 21.468C206.66 21.6687 206.401 21.8273 206.097 21.944C205.794 22.056 205.481 22.112 205.159 22.112ZM209.311 14.909V19.431C209.311 19.9677 209.435 20.383 209.682 20.677C209.929 20.971 210.303 21.118 210.802 21.118C211.166 21.118 211.509 21.0317 211.831 20.859C212.153 20.6863 212.449 20.446 212.72 20.138V14.909H213.966V22H213.224C213.047 22 212.935 21.9137 212.888 21.741L212.79 20.978C212.482 21.3187 212.137 21.594 211.754 21.804C211.371 22.0093 210.933 22.112 210.438 22.112C210.051 22.112 209.708 22.049 209.409 21.923C209.115 21.7923 208.868 21.6103 208.667 21.377C208.466 21.1437 208.315 20.8613 208.212 20.53C208.114 20.1987 208.065 19.8323 208.065 19.431V14.909H209.311ZM216.012 22V14.909H216.726C216.862 14.909 216.955 14.9347 217.006 14.986C217.058 15.0373 217.093 15.126 217.111 15.252L217.195 16.358C217.438 15.8633 217.737 15.4783 218.091 15.203C218.451 14.923 218.871 14.783 219.351 14.783C219.547 14.783 219.725 14.8063 219.883 14.853C220.042 14.895 220.189 14.9557 220.324 15.035L220.163 15.966C220.131 16.0827 220.058 16.141 219.946 16.141C219.881 16.141 219.781 16.12 219.645 16.078C219.51 16.0313 219.321 16.008 219.078 16.008C218.644 16.008 218.28 16.134 217.986 16.386C217.697 16.638 217.454 17.0043 217.258 17.485V22H216.012ZM221.659 22V14.909H222.401C222.578 14.909 222.69 14.9953 222.737 15.168L222.835 15.938C223.143 15.5973 223.486 15.322 223.864 15.112C224.246 14.902 224.687 14.797 225.187 14.797C225.574 14.797 225.915 14.8623 226.209 14.993C226.507 15.119 226.755 15.301 226.951 15.539C227.151 15.7723 227.303 16.0547 227.406 16.386C227.508 16.7173 227.56 17.0837 227.56 17.485V22H226.314V17.485C226.314 16.9483 226.19 16.533 225.943 16.239C225.7 15.9403 225.327 15.791 224.823 15.791C224.454 15.791 224.109 15.8797 223.787 16.057C223.469 16.2343 223.175 16.4747 222.905 16.778V22H221.659ZM232.245 14.797C232.67 14.797 233.062 14.8693 233.421 15.014C233.78 15.154 234.091 15.3593 234.352 15.63C234.613 15.896 234.816 16.2273 234.961 16.624C235.11 17.016 235.185 17.464 235.185 17.968C235.185 18.164 235.164 18.2947 235.122 18.36C235.08 18.4253 235.001 18.458 234.884 18.458H230.166C230.175 18.906 230.236 19.2957 230.348 19.627C230.46 19.9583 230.614 20.236 230.81 20.46C231.006 20.6793 231.239 20.845 231.51 20.957C231.781 21.0643 232.084 21.118 232.42 21.118C232.733 21.118 233.001 21.083 233.225 21.013C233.454 20.9383 233.65 20.859 233.813 20.775C233.976 20.691 234.112 20.614 234.219 20.544C234.331 20.4693 234.427 20.432 234.506 20.432C234.609 20.432 234.688 20.4717 234.744 20.551L235.094 21.006C234.94 21.1927 234.756 21.356 234.541 21.496C234.326 21.6313 234.095 21.7433 233.848 21.832C233.605 21.9207 233.353 21.986 233.092 22.028C232.831 22.0747 232.572 22.098 232.315 22.098C231.825 22.098 231.372 22.0163 230.957 21.853C230.546 21.685 230.189 21.4423 229.886 21.125C229.587 20.803 229.354 20.4063 229.186 19.935C229.018 19.4637 228.934 18.9223 228.934 18.311C228.934 17.8163 229.009 17.3543 229.158 16.925C229.312 16.4957 229.531 16.1247 229.816 15.812C230.101 15.4947 230.448 15.2473 230.859 15.07C231.27 14.888 231.732 14.797 232.245 14.797ZM232.273 15.714C231.671 15.714 231.197 15.889 230.852 16.239C230.507 16.5843 230.292 17.065 230.208 17.681H234.065C234.065 17.3917 234.025 17.128 233.946 16.89C233.867 16.6473 233.75 16.4397 233.596 16.267C233.442 16.0897 233.253 15.9543 233.029 15.861C232.81 15.763 232.558 15.714 232.273 15.714ZM241.771 22C241.593 22 241.481 21.9137 241.435 21.741L241.323 20.88C241.019 21.2487 240.672 21.545 240.28 21.769C239.892 21.9883 239.447 22.098 238.943 22.098C238.537 22.098 238.168 22.021 237.837 21.867C237.505 21.7083 237.223 21.4773 236.99 21.174C236.756 20.8707 236.577 20.4927 236.451 20.04C236.325 19.5873 236.262 19.067 236.262 18.479C236.262 17.9563 236.332 17.471 236.472 17.023C236.612 16.5703 236.812 16.1783 237.074 15.847C237.34 15.5157 237.662 15.2567 238.04 15.07C238.418 14.8787 238.847 14.783 239.328 14.783C239.762 14.783 240.133 14.8577 240.441 15.007C240.749 15.1517 241.024 15.357 241.267 15.623V11.689H242.513V22H241.771ZM239.356 21.09C239.762 21.09 240.116 20.9967 240.42 20.81C240.728 20.6233 241.01 20.3597 241.267 20.019V16.589C241.038 16.281 240.786 16.0663 240.511 15.945C240.24 15.819 239.939 15.756 239.608 15.756C238.945 15.756 238.436 15.9917 238.082 16.463C237.727 16.9343 237.55 17.6063 237.55 18.479C237.55 18.941 237.589 19.3377 237.669 19.669C237.748 19.9957 237.865 20.2663 238.019 20.481C238.173 20.691 238.362 20.845 238.586 20.943C238.81 21.041 239.066 21.09 239.356 21.09ZM250.177 14.797C250.695 14.797 251.162 14.8833 251.577 15.056C251.997 15.2287 252.352 15.4737 252.641 15.791C252.935 16.1083 253.159 16.4933 253.313 16.946C253.472 17.394 253.551 17.8957 253.551 18.451C253.551 19.011 253.472 19.515 253.313 19.963C253.159 20.411 252.935 20.7937 252.641 21.111C252.352 21.4283 251.997 21.6733 251.577 21.846C251.162 22.014 250.695 22.098 250.177 22.098C249.659 22.098 249.19 22.014 248.77 21.846C248.355 21.6733 248 21.4283 247.706 21.111C247.412 20.7937 247.186 20.411 247.027 19.963C246.868 19.515 246.789 19.011 246.789 18.451C246.789 17.8957 246.868 17.394 247.027 16.946C247.186 16.4933 247.412 16.1083 247.706 15.791C248 15.4737 248.355 15.2287 248.77 15.056C249.19 14.8833 249.659 14.797 250.177 14.797ZM250.177 21.125C250.877 21.125 251.4 20.8917 251.745 20.425C252.09 19.9537 252.263 19.298 252.263 18.458C252.263 17.6133 252.09 16.9553 251.745 16.484C251.4 16.0127 250.877 15.777 250.177 15.777C249.822 15.777 249.514 15.8377 249.253 15.959C248.992 16.0803 248.772 16.2553 248.595 16.484C248.422 16.7127 248.292 16.995 248.203 17.331C248.119 17.6623 248.077 18.038 248.077 18.458C248.077 18.878 248.119 19.2537 248.203 19.585C248.292 19.9163 248.422 20.1963 248.595 20.425C248.772 20.649 248.992 20.8217 249.253 20.943C249.514 21.0643 249.822 21.125 250.177 21.125ZM255.086 22V14.909H255.828C256.006 14.909 256.118 14.9953 256.164 15.168L256.262 15.938C256.57 15.5973 256.913 15.322 257.291 15.112C257.674 14.902 258.115 14.797 258.614 14.797C259.002 14.797 259.342 14.8623 259.636 14.993C259.935 15.119 260.182 15.301 260.378 15.539C260.579 15.7723 260.731 16.0547 260.833 16.386C260.936 16.7173 260.987 17.0837 260.987 17.485V22H259.741V17.485C259.741 16.9483 259.618 16.533 259.37 16.239C259.128 15.9403 258.754 15.791 258.25 15.791C257.882 15.791 257.536 15.8797 257.214 16.057C256.897 16.2343 256.603 16.4747 256.332 16.778V22H255.086ZM262.46 21.23C262.46 21.1087 262.481 20.9943 262.523 20.887C262.569 20.7797 262.63 20.6863 262.705 20.607C262.784 20.5277 262.877 20.4647 262.985 20.418C263.092 20.3713 263.206 20.348 263.328 20.348C263.449 20.348 263.563 20.3713 263.671 20.418C263.778 20.4647 263.871 20.5277 263.951 20.607C264.03 20.6863 264.091 20.7797 264.133 20.887C264.179 20.9943 264.203 21.1087 264.203 21.23C264.203 21.356 264.179 21.4727 264.133 21.58C264.091 21.6827 264.03 21.7737 263.951 21.853C263.871 21.9323 263.778 21.993 263.671 22.035C263.563 22.0817 263.449 22.105 263.328 22.105C263.206 22.105 263.092 22.0817 262.985 22.035C262.877 21.993 262.784 21.9323 262.705 21.853C262.63 21.7737 262.569 21.6827 262.523 21.58C262.481 21.4727 262.46 21.356 262.46 21.23Z" fill="#1A1C1D"/>
</g>
</svg>
