<svg width="364" height="104" viewBox="0 0 364 104" fill="none" xmlns="http://www.w3.org/2000/svg">
<g filter="url(#filter0_d)">
<path d="M14 19C14 12.3726 19.3726 7 26 7H338C344.627 7 350 12.3726 350 19V83H14V19Z" fill="#F3F4F9"/>
<rect x="36.5" y="29.5" width="31" height="31" rx="7.5" fill="white" stroke="#F3F4F9"/>
<path d="M57.2383 51.0117V42.75H46.7617V51.0117H57.2383ZM57.2383 38.9883C57.6367 38.9883 57.9883 39.1406 58.293 39.4453C58.5977 39.75 58.75 40.1016 58.75 40.5V51.0117C58.75 51.4102 58.5977 51.7617 58.293 52.0664C57.9883 52.3477 57.6367 52.4883 57.2383 52.4883H46.7617C46.3398 52.4883 45.9766 52.3477 45.6719 52.0664C45.3906 51.7617 45.25 51.4102 45.25 51.0117V40.5C45.25 40.1016 45.3906 39.75 45.6719 39.4453C45.9766 39.1406 46.3398 38.9883 46.7617 38.9883H47.5V37.5117H49.0117V38.9883H54.9883V37.5117H56.5V38.9883H57.2383ZM55.7617 44.2617V45.7383H54.25V44.2617H55.7617ZM52.7383 44.2617V45.7383H51.2617V44.2617H52.7383ZM49.75 44.2617V45.7383H48.2383V44.2617H49.75Z" fill="#828282"/>
<path d="M96 31C96 26.5817 99.5817 23 104 23H261C265.418 23 269 26.5817 269 31V59C269 63.4183 265.418 67 261 67H104C99.5817 67 96 63.4183 96 59V31Z" fill="#00CE7D"/>
<path d="M125.5 46.5117V40.5L122.512 42.8906V40.5H116.5V46.5117H122.512V44.0859L125.5 46.5117ZM127.012 37.5117C127.41 37.5117 127.75 37.6641 128.031 37.9688C128.336 38.25 128.488 38.5898 128.488 38.9883V47.9883C128.488 48.3867 128.336 48.7383 128.031 49.043C127.75 49.3477 127.41 49.5 127.012 49.5H116.5L113.512 52.4883V38.9883C113.512 38.5898 113.652 38.25 113.934 37.9688C114.238 37.6641 114.59 37.5117 114.988 37.5117H127.012Z" fill="white"/>
<path d="M145.368 41.536C145.309 41.6533 145.24 41.736 145.16 41.784C145.085 41.832 144.995 41.856 144.888 41.856C144.781 41.856 144.661 41.816 144.528 41.736C144.395 41.6507 144.237 41.5573 144.056 41.456C143.875 41.3547 143.661 41.264 143.416 41.184C143.176 41.0987 142.891 41.056 142.56 41.056C142.261 41.056 142 41.0933 141.776 41.168C141.557 41.2373 141.371 41.336 141.216 41.464C141.067 41.592 140.955 41.7467 140.88 41.928C140.805 42.104 140.768 42.2987 140.768 42.512C140.768 42.784 140.843 43.0107 140.992 43.192C141.147 43.3733 141.349 43.528 141.6 43.656C141.851 43.784 142.136 43.8987 142.456 44C142.776 44.1013 143.101 44.2107 143.432 44.328C143.768 44.44 144.096 44.5733 144.416 44.728C144.736 44.8773 145.021 45.0693 145.272 45.304C145.523 45.5333 145.723 45.816 145.872 46.152C146.027 46.488 146.104 46.896 146.104 47.376C146.104 47.8987 146.013 48.3893 145.832 48.848C145.656 49.3013 145.395 49.6987 145.048 50.04C144.707 50.376 144.288 50.6427 143.792 50.84C143.296 51.032 142.728 51.128 142.088 51.128C141.72 51.128 141.357 51.0907 141 51.016C140.643 50.9467 140.299 50.8453 139.968 50.712C139.643 50.5787 139.336 50.4187 139.048 50.232C138.765 50.0453 138.512 49.8373 138.288 49.608L138.912 48.576C138.971 48.5013 139.04 48.44 139.12 48.392C139.205 48.3387 139.299 48.312 139.4 48.312C139.533 48.312 139.677 48.368 139.832 48.48C139.987 48.5867 140.168 48.7067 140.376 48.84C140.589 48.9733 140.837 49.096 141.12 49.208C141.408 49.3147 141.752 49.368 142.152 49.368C142.765 49.368 143.24 49.224 143.576 48.936C143.912 48.6427 144.08 48.224 144.08 47.68C144.08 47.376 144.003 47.128 143.848 46.936C143.699 46.744 143.499 46.584 143.248 46.456C142.997 46.3227 142.712 46.2107 142.392 46.12C142.072 46.0293 141.747 45.9307 141.416 45.824C141.085 45.7173 140.76 45.5893 140.44 45.44C140.12 45.2907 139.835 45.096 139.584 44.856C139.333 44.616 139.131 44.3173 138.976 43.96C138.827 43.5973 138.752 43.152 138.752 42.624C138.752 42.2027 138.835 41.792 139 41.392C139.171 40.992 139.416 40.6373 139.736 40.328C140.061 40.0187 140.459 39.7707 140.928 39.584C141.397 39.3973 141.933 39.304 142.536 39.304C143.219 39.304 143.848 39.4107 144.424 39.624C145 39.8373 145.491 40.136 145.896 40.52L145.368 41.536ZM150.33 51.128C149.621 51.128 149.074 50.928 148.69 50.528C148.306 50.1227 148.114 49.5653 148.114 48.856V44.272H147.282C147.175 44.272 147.082 44.2373 147.002 44.168C146.927 44.0987 146.89 43.9947 146.89 43.856V43.072L148.21 42.856L148.626 40.616C148.647 40.5093 148.695 40.4267 148.77 40.368C148.85 40.3093 148.949 40.28 149.066 40.28H150.09V42.864H152.25V44.272H150.09V48.72C150.09 48.976 150.154 49.176 150.282 49.32C150.41 49.464 150.581 49.536 150.794 49.536C150.917 49.536 151.018 49.5227 151.098 49.496C151.183 49.464 151.255 49.432 151.314 49.4C151.378 49.368 151.434 49.3387 151.482 49.312C151.53 49.28 151.578 49.264 151.626 49.264C151.685 49.264 151.733 49.28 151.77 49.312C151.807 49.3387 151.847 49.3813 151.89 49.44L152.482 50.4C152.194 50.64 151.863 50.8213 151.49 50.944C151.117 51.0667 150.73 51.128 150.33 51.128ZM160.254 51H159.366C159.179 51 159.032 50.9733 158.926 50.92C158.819 50.8613 158.739 50.7467 158.686 50.576L158.51 49.992C158.302 50.1787 158.096 50.344 157.894 50.488C157.696 50.6267 157.491 50.744 157.278 50.84C157.064 50.936 156.838 51.008 156.598 51.056C156.358 51.104 156.091 51.128 155.798 51.128C155.451 51.128 155.131 51.0827 154.838 50.992C154.544 50.896 154.291 50.7547 154.078 50.568C153.87 50.3813 153.707 50.1493 153.59 49.872C153.472 49.5947 153.414 49.272 153.414 48.904C153.414 48.5947 153.494 48.2907 153.654 47.992C153.819 47.688 154.091 47.416 154.47 47.176C154.848 46.9307 155.352 46.728 155.982 46.568C156.611 46.408 157.392 46.3173 158.326 46.296V45.816C158.326 45.2667 158.208 44.8613 157.974 44.6C157.744 44.3333 157.408 44.2 156.966 44.2C156.646 44.2 156.379 44.2373 156.166 44.312C155.952 44.3867 155.766 44.472 155.606 44.568C155.451 44.6587 155.307 44.7413 155.174 44.816C155.04 44.8907 154.894 44.928 154.734 44.928C154.6 44.928 154.486 44.8933 154.39 44.824C154.294 44.7547 154.216 44.6693 154.158 44.568L153.798 43.936C154.742 43.072 155.88 42.64 157.214 42.64C157.694 42.64 158.12 42.72 158.494 42.88C158.872 43.0347 159.192 43.2533 159.454 43.536C159.715 43.8133 159.912 44.1467 160.046 44.536C160.184 44.9253 160.254 45.352 160.254 45.816V51ZM156.414 49.768C156.616 49.768 156.803 49.7493 156.974 49.712C157.144 49.6747 157.304 49.6187 157.454 49.544C157.608 49.4693 157.755 49.3787 157.894 49.272C158.038 49.16 158.182 49.0293 158.326 48.88V47.496C157.75 47.5227 157.267 47.5733 156.878 47.648C156.494 47.7173 156.184 47.808 155.95 47.92C155.715 48.032 155.547 48.1627 155.446 48.312C155.35 48.4613 155.302 48.624 155.302 48.8C155.302 49.1467 155.403 49.3947 155.606 49.544C155.814 49.6933 156.083 49.768 156.414 49.768ZM162.197 51V42.792H163.357C163.559 42.792 163.701 42.8293 163.781 42.904C163.861 42.9787 163.914 43.1067 163.941 43.288L164.061 44.28C164.354 43.7733 164.698 43.3733 165.093 43.08C165.487 42.7867 165.93 42.64 166.421 42.64C166.826 42.64 167.162 42.7333 167.429 42.92L167.173 44.4C167.157 44.496 167.122 44.5653 167.069 44.608C167.015 44.6453 166.943 44.664 166.853 44.664C166.773 44.664 166.663 44.6453 166.525 44.608C166.386 44.5707 166.202 44.552 165.973 44.552C165.562 44.552 165.21 44.6667 164.917 44.896C164.623 45.12 164.375 45.4507 164.173 45.888V51H162.197ZM171.424 51.128C170.715 51.128 170.168 50.928 169.784 50.528C169.4 50.1227 169.208 49.5653 169.208 48.856V44.272H168.376C168.269 44.272 168.176 44.2373 168.096 44.168C168.021 44.0987 167.984 43.9947 167.984 43.856V43.072L169.304 42.856L169.72 40.616C169.741 40.5093 169.789 40.4267 169.864 40.368C169.944 40.3093 170.043 40.28 170.16 40.28H171.184V42.864H173.344V44.272H171.184V48.72C171.184 48.976 171.248 49.176 171.376 49.32C171.504 49.464 171.675 49.536 171.888 49.536C172.011 49.536 172.112 49.5227 172.192 49.496C172.277 49.464 172.349 49.432 172.408 49.4C172.472 49.368 172.528 49.3387 172.576 49.312C172.624 49.28 172.672 49.264 172.72 49.264C172.779 49.264 172.827 49.28 172.864 49.312C172.901 49.3387 172.941 49.3813 172.984 49.44L173.576 50.4C173.288 50.64 172.957 50.8213 172.584 50.944C172.211 51.0667 171.824 51.128 171.424 51.128ZM182.121 51H180.329L177.065 42.792H178.705C178.849 42.792 178.969 42.8267 179.065 42.896C179.166 42.9653 179.236 43.0533 179.273 43.16L180.857 47.544C180.948 47.8 181.022 48.0507 181.081 48.296C181.145 48.5413 181.201 48.7867 181.249 49.032C181.297 48.7867 181.35 48.5413 181.409 48.296C181.473 48.0507 181.553 47.8 181.649 47.544L183.273 43.16C183.31 43.0533 183.377 42.9653 183.473 42.896C183.569 42.8267 183.684 42.792 183.817 42.792H185.377L182.121 51ZM188.644 42.792V51H186.668V42.792H188.644ZM188.94 40.4C188.94 40.5707 188.906 40.7307 188.836 40.88C188.767 41.0293 188.674 41.16 188.556 41.272C188.444 41.384 188.311 41.4747 188.156 41.544C188.002 41.608 187.836 41.64 187.66 41.64C187.49 41.64 187.327 41.608 187.172 41.544C187.023 41.4747 186.892 41.384 186.78 41.272C186.668 41.16 186.578 41.0293 186.508 40.88C186.444 40.7307 186.412 40.5707 186.412 40.4C186.412 40.224 186.444 40.0587 186.508 39.904C186.578 39.7493 186.668 39.616 186.78 39.504C186.892 39.392 187.023 39.304 187.172 39.24C187.327 39.1707 187.49 39.136 187.66 39.136C187.836 39.136 188.002 39.1707 188.156 39.24C188.311 39.304 188.444 39.392 188.556 39.504C188.674 39.616 188.767 39.7493 188.836 39.904C188.906 40.0587 188.94 40.224 188.94 40.4ZM196.66 51C196.404 51 196.236 50.88 196.156 50.64L195.996 49.848C195.825 50.04 195.647 50.2133 195.46 50.368C195.273 50.5227 195.071 50.656 194.852 50.768C194.639 50.88 194.407 50.9653 194.156 51.024C193.911 51.088 193.644 51.12 193.356 51.12C192.908 51.12 192.497 51.0267 192.124 50.84C191.751 50.6533 191.428 50.384 191.156 50.032C190.889 49.6747 190.681 49.2347 190.532 48.712C190.388 48.1893 190.316 47.592 190.316 46.92C190.316 46.312 190.399 45.7467 190.564 45.224C190.729 44.7013 190.967 44.248 191.276 43.864C191.585 43.48 191.956 43.1813 192.388 42.968C192.82 42.7493 193.305 42.64 193.844 42.64C194.303 42.64 194.695 42.7147 195.02 42.864C195.345 43.008 195.636 43.2027 195.892 43.448V39.112H197.868V51H196.66ZM194.028 49.552C194.439 49.552 194.788 49.4667 195.076 49.296C195.364 49.1253 195.636 48.8827 195.892 48.568V44.888C195.668 44.616 195.423 44.424 195.156 44.312C194.895 44.2 194.612 44.144 194.308 44.144C194.009 44.144 193.737 44.2 193.492 44.312C193.252 44.424 193.047 44.5947 192.876 44.824C192.711 45.048 192.583 45.336 192.492 45.688C192.401 46.0347 192.356 46.4453 192.356 46.92C192.356 47.4 192.393 47.808 192.468 48.144C192.548 48.4747 192.66 48.7467 192.804 48.96C192.948 49.168 193.124 49.32 193.332 49.416C193.54 49.5067 193.772 49.552 194.028 49.552ZM203.401 42.664C203.918 42.664 204.393 42.7467 204.825 42.912C205.262 43.0773 205.638 43.32 205.953 43.64C206.268 43.9547 206.513 44.344 206.689 44.808C206.865 45.2667 206.953 45.792 206.953 46.384C206.953 46.5333 206.945 46.6587 206.929 46.76C206.918 46.856 206.894 46.9333 206.857 46.992C206.825 47.0453 206.78 47.0853 206.721 47.112C206.662 47.1333 206.588 47.144 206.497 47.144H201.425C201.484 47.9867 201.71 48.6053 202.105 49C202.5 49.3947 203.022 49.592 203.673 49.592C203.993 49.592 204.268 49.5547 204.497 49.48C204.732 49.4053 204.934 49.3227 205.105 49.232C205.281 49.1413 205.433 49.0587 205.561 48.984C205.694 48.9093 205.822 48.872 205.945 48.872C206.025 48.872 206.094 48.888 206.153 48.92C206.212 48.952 206.262 48.9973 206.305 49.056L206.881 49.776C206.662 50.032 206.417 50.248 206.145 50.424C205.873 50.5947 205.588 50.7333 205.289 50.84C204.996 50.9413 204.694 51.0133 204.385 51.056C204.081 51.0987 203.785 51.12 203.497 51.12C202.926 51.12 202.396 51.0267 201.905 50.84C201.414 50.648 200.988 50.368 200.625 50C200.262 49.6267 199.977 49.168 199.769 48.624C199.561 48.0747 199.457 47.44 199.457 46.72C199.457 46.16 199.548 45.6347 199.729 45.144C199.91 44.648 200.169 44.2187 200.505 43.856C200.846 43.488 201.26 43.1973 201.745 42.984C202.236 42.7707 202.788 42.664 203.401 42.664ZM203.441 44.08C202.865 44.08 202.414 44.2427 202.089 44.568C201.764 44.8933 201.556 45.3547 201.465 45.952H205.177C205.177 45.696 205.142 45.456 205.073 45.232C205.004 45.0027 204.897 44.8027 204.753 44.632C204.609 44.4613 204.428 44.328 204.209 44.232C203.99 44.1307 203.734 44.08 203.441 44.08ZM212.06 42.664C212.673 42.664 213.228 42.7627 213.724 42.96C214.225 43.1573 214.652 43.4373 215.004 43.8C215.356 44.1627 215.628 44.6053 215.82 45.128C216.012 45.6507 216.108 46.2347 216.108 46.88C216.108 47.5307 216.012 48.1173 215.82 48.64C215.628 49.1627 215.356 49.608 215.004 49.976C214.652 50.344 214.225 50.6267 213.724 50.824C213.228 51.0213 212.673 51.12 212.06 51.12C211.447 51.12 210.889 51.0213 210.388 50.824C209.887 50.6267 209.457 50.344 209.1 49.976C208.748 49.608 208.473 49.1627 208.276 48.64C208.084 48.1173 207.988 47.5307 207.988 46.88C207.988 46.2347 208.084 45.6507 208.276 45.128C208.473 44.6053 208.748 44.1627 209.1 43.8C209.457 43.4373 209.887 43.1573 210.388 42.96C210.889 42.7627 211.447 42.664 212.06 42.664ZM212.06 49.6C212.743 49.6 213.247 49.3707 213.572 48.912C213.903 48.4533 214.068 47.7813 214.068 46.896C214.068 46.0107 213.903 45.336 213.572 44.872C213.247 44.408 212.743 44.176 212.06 44.176C211.367 44.176 210.855 44.4107 210.524 44.88C210.193 45.344 210.028 46.016 210.028 46.896C210.028 47.776 210.193 48.448 210.524 48.912C210.855 49.3707 211.367 49.6 212.06 49.6ZM226.512 44.528C226.453 44.6027 226.394 44.6613 226.336 44.704C226.282 44.7467 226.202 44.768 226.096 44.768C225.994 44.768 225.896 44.7387 225.8 44.68C225.704 44.616 225.589 44.5467 225.456 44.472C225.322 44.392 225.162 44.3227 224.976 44.264C224.794 44.2 224.568 44.168 224.296 44.168C223.949 44.168 223.645 44.232 223.384 44.36C223.122 44.4827 222.904 44.6613 222.728 44.896C222.557 45.1307 222.429 45.416 222.344 45.752C222.258 46.0827 222.216 46.4587 222.216 46.88C222.216 47.3173 222.261 47.7067 222.352 48.048C222.448 48.3893 222.584 48.6773 222.76 48.912C222.936 49.1413 223.149 49.3173 223.4 49.44C223.65 49.5573 223.933 49.616 224.248 49.616C224.562 49.616 224.816 49.5787 225.008 49.504C225.205 49.424 225.37 49.3387 225.504 49.248C225.637 49.152 225.752 49.0667 225.848 48.992C225.949 48.912 226.061 48.872 226.184 48.872C226.344 48.872 226.464 48.9333 226.544 49.056L227.112 49.776C226.893 50.032 226.656 50.248 226.4 50.424C226.144 50.5947 225.877 50.7333 225.6 50.84C225.328 50.9413 225.045 51.0133 224.752 51.056C224.458 51.0987 224.168 51.12 223.88 51.12C223.373 51.12 222.896 51.0267 222.448 50.84C222 50.648 221.608 50.3707 221.272 50.008C220.941 49.6453 220.677 49.2027 220.48 48.68C220.288 48.152 220.192 47.552 220.192 46.88C220.192 46.2773 220.277 45.72 220.448 45.208C220.624 44.6907 220.88 44.2453 221.216 43.872C221.552 43.4933 221.968 43.1973 222.464 42.984C222.96 42.7707 223.53 42.664 224.176 42.664C224.789 42.664 225.325 42.7627 225.784 42.96C226.248 43.1573 226.664 43.44 227.032 43.808L226.512 44.528ZM234.801 51H233.913C233.726 51 233.579 50.9733 233.473 50.92C233.366 50.8613 233.286 50.7467 233.233 50.576L233.057 49.992C232.849 50.1787 232.643 50.344 232.441 50.488C232.243 50.6267 232.038 50.744 231.825 50.84C231.611 50.936 231.385 51.008 231.145 51.056C230.905 51.104 230.638 51.128 230.345 51.128C229.998 51.128 229.678 51.0827 229.385 50.992C229.091 50.896 228.838 50.7547 228.625 50.568C228.417 50.3813 228.254 50.1493 228.137 49.872C228.019 49.5947 227.961 49.272 227.961 48.904C227.961 48.5947 228.041 48.2907 228.201 47.992C228.366 47.688 228.638 47.416 229.017 47.176C229.395 46.9307 229.899 46.728 230.529 46.568C231.158 46.408 231.939 46.3173 232.873 46.296V45.816C232.873 45.2667 232.755 44.8613 232.521 44.6C232.291 44.3333 231.955 44.2 231.513 44.2C231.193 44.2 230.926 44.2373 230.713 44.312C230.499 44.3867 230.313 44.472 230.153 44.568C229.998 44.6587 229.854 44.7413 229.721 44.816C229.587 44.8907 229.441 44.928 229.281 44.928C229.147 44.928 229.033 44.8933 228.937 44.824C228.841 44.7547 228.763 44.6693 228.705 44.568L228.345 43.936C229.289 43.072 230.427 42.64 231.761 42.64C232.241 42.64 232.667 42.72 233.041 42.88C233.419 43.0347 233.739 43.2533 234.001 43.536C234.262 43.8133 234.459 44.1467 234.593 44.536C234.731 44.9253 234.801 45.352 234.801 45.816V51ZM230.961 49.768C231.163 49.768 231.35 49.7493 231.521 49.712C231.691 49.6747 231.851 49.6187 232.001 49.544C232.155 49.4693 232.302 49.3787 232.441 49.272C232.585 49.16 232.729 49.0293 232.873 48.88V47.496C232.297 47.5227 231.814 47.5733 231.424 47.648C231.041 47.7173 230.731 47.808 230.497 47.92C230.262 48.032 230.094 48.1627 229.993 48.312C229.897 48.4613 229.849 48.624 229.849 48.8C229.849 49.1467 229.95 49.3947 230.153 49.544C230.361 49.6933 230.63 49.768 230.961 49.768ZM238.848 39.112V51H236.872V39.112H238.848ZM243.191 39.112V51H241.215V39.112H243.191Z" fill="white"/>
<rect x="296.5" y="29.5" width="31" height="31" rx="7.5" fill="white" stroke="#F3F4F9"/>
<path d="M315.445 42.4336L316.5 43.4883L312 47.9883L307.5 43.4883L308.555 42.4336L312 45.8789L315.445 42.4336Z" fill="#828282"/>
</g>
<defs>
<filter id="filter0_d" x="0" y="0" width="364" height="104" filterUnits="userSpaceOnUse" color-interpolation-filters="sRGB">
<feFlood flood-opacity="0" result="BackgroundImageFix"/>
<feColorMatrix in="SourceAlpha" type="matrix" values="0 0 0 0 0 0 0 0 0 0 0 0 0 0 0 0 0 0 127 0"/>
<feOffset dy="7"/>
<feGaussianBlur stdDeviation="7"/>
<feColorMatrix type="matrix" values="0 0 0 0 0 0 0 0 0 0 0 0 0 0 0 0 0 0 0.1 0"/>
<feBlend mode="normal" in2="BackgroundImageFix" result="effect1_dropShadow"/>
<feBlend mode="normal" in="SourceGraphic" in2="effect1_dropShadow" result="shape"/>
</filter>
</defs>
</svg>
