<svg width="316" height="67" viewBox="0 0 316 67" fill="none" xmlns="http://www.w3.org/2000/svg">
<g filter="url(#filter0_d)">
<path d="M16.5951 15.2425V19.3145H14.4431V7.74645H18.2111C18.9845 7.74645 19.6538 7.83712 20.2191 8.01845C20.7845 8.19979 21.2511 8.45312 21.6191 8.77845C21.9871 9.10379 22.2591 9.49312 22.4351 9.94645C22.6111 10.3998 22.6991 10.8958 22.6991 11.4345C22.6991 11.9945 22.6058 12.5091 22.4191 12.9785C22.2325 13.4425 21.9525 13.8425 21.5791 14.1785C21.2058 14.5145 20.7391 14.7758 20.1791 14.9625C19.6191 15.1491 18.9631 15.2425 18.2111 15.2425H16.5951ZM16.5951 13.5625H18.2111C18.6058 13.5625 18.9498 13.5145 19.2431 13.4185C19.5365 13.3171 19.7791 13.1758 19.9711 12.9945C20.1631 12.8078 20.3071 12.5838 20.4031 12.3225C20.4991 12.0558 20.5471 11.7598 20.5471 11.4345C20.5471 11.1251 20.4991 10.8451 20.4031 10.5945C20.3071 10.3438 20.1631 10.1305 19.9711 9.95445C19.7791 9.77845 19.5365 9.64512 19.2431 9.55445C18.9498 9.45845 18.6058 9.41045 18.2111 9.41045H16.5951V13.5625ZM26.3631 7.42645V19.3145H24.3871V7.42645H26.3631ZM31.9949 10.9785C32.5122 10.9785 32.9869 11.0611 33.4189 11.2265C33.8562 11.3918 34.2322 11.6345 34.5469 11.9545C34.8615 12.2691 35.1069 12.6585 35.2829 13.1225C35.4589 13.5811 35.5469 14.1065 35.5469 14.6985C35.5469 14.8478 35.5389 14.9731 35.5229 15.0745C35.5122 15.1705 35.4882 15.2478 35.4509 15.3065C35.4189 15.3598 35.3735 15.3998 35.3149 15.4265C35.2562 15.4478 35.1815 15.4585 35.0909 15.4585H30.0189C30.0775 16.3011 30.3042 16.9198 30.6989 17.3145C31.0935 17.7091 31.6162 17.9065 32.2669 17.9065C32.5869 17.9065 32.8615 17.8691 33.0909 17.7945C33.3255 17.7198 33.5282 17.6371 33.6989 17.5465C33.8749 17.4558 34.0269 17.3731 34.1549 17.2985C34.2882 17.2238 34.4162 17.1865 34.5389 17.1865C34.6189 17.1865 34.6882 17.2025 34.7469 17.2345C34.8055 17.2665 34.8562 17.3118 34.8989 17.3705L35.4749 18.0905C35.2562 18.3465 35.0109 18.5625 34.7389 18.7385C34.4669 18.9091 34.1815 19.0478 33.8829 19.1545C33.5895 19.2558 33.2882 19.3278 32.9789 19.3705C32.6749 19.4131 32.3789 19.4345 32.0909 19.4345C31.5202 19.4345 30.9895 19.3411 30.4989 19.1545C30.0082 18.9625 29.5815 18.6825 29.2189 18.3145C28.8562 17.9411 28.5709 17.4825 28.3629 16.9385C28.1549 16.3891 28.0509 15.7545 28.0509 15.0345C28.0509 14.4745 28.1415 13.9491 28.3229 13.4585C28.5042 12.9625 28.7629 12.5331 29.0989 12.1705C29.4402 11.8025 29.8535 11.5118 30.3389 11.2985C30.8295 11.0851 31.3815 10.9785 31.9949 10.9785ZM32.0349 12.3945C31.4589 12.3945 31.0082 12.5571 30.6829 12.8825C30.3575 13.2078 30.1495 13.6691 30.0589 14.2665H33.7709C33.7709 14.0105 33.7362 13.7705 33.6669 13.5465C33.5975 13.3171 33.4909 13.1171 33.3469 12.9465C33.2029 12.7758 33.0215 12.6425 32.8029 12.5465C32.5842 12.4451 32.3282 12.3945 32.0349 12.3945ZM43.5818 19.3145H42.6938C42.5071 19.3145 42.3604 19.2878 42.2538 19.2345C42.1471 19.1758 42.0671 19.0611 42.0138 18.8905L41.8378 18.3065C41.6298 18.4931 41.4244 18.6585 41.2218 18.8025C41.0244 18.9411 40.8191 19.0585 40.6058 19.1545C40.3924 19.2505 40.1658 19.3225 39.9258 19.3705C39.6858 19.4185 39.4191 19.4425 39.1258 19.4425C38.7791 19.4425 38.4591 19.3971 38.1658 19.3065C37.8724 19.2105 37.6191 19.0691 37.4058 18.8825C37.1978 18.6958 37.0351 18.4638 36.9178 18.1865C36.8004 17.9091 36.7418 17.5865 36.7418 17.2185C36.7418 16.9091 36.8218 16.6051 36.9818 16.3065C37.1471 16.0025 37.4191 15.7305 37.7978 15.4905C38.1764 15.2451 38.6804 15.0425 39.3098 14.8825C39.9391 14.7225 40.7204 14.6318 41.6538 14.6105V14.1305C41.6538 13.5811 41.5364 13.1758 41.3018 12.9145C41.0724 12.6478 40.7364 12.5145 40.2938 12.5145C39.9738 12.5145 39.7071 12.5518 39.4938 12.6265C39.2804 12.7011 39.0938 12.7865 38.9338 12.8825C38.7791 12.9731 38.6351 13.0558 38.5018 13.1305C38.3684 13.2051 38.2218 13.2425 38.0618 13.2425C37.9284 13.2425 37.8138 13.2078 37.7178 13.1385C37.6218 13.0691 37.5444 12.9838 37.4858 12.8825L37.1258 12.2505C38.0698 11.3865 39.2084 10.9545 40.5418 10.9545C41.0218 10.9545 41.4484 11.0345 41.8218 11.1945C42.2004 11.3491 42.5204 11.5678 42.7818 11.8505C43.0431 12.1278 43.2404 12.4611 43.3738 12.8505C43.5124 13.2398 43.5818 13.6665 43.5818 14.1305V19.3145ZM39.7418 18.0825C39.9444 18.0825 40.1311 18.0638 40.3018 18.0265C40.4724 17.9891 40.6324 17.9331 40.7818 17.8585C40.9364 17.7838 41.0831 17.6931 41.2218 17.5865C41.3658 17.4745 41.5098 17.3438 41.6538 17.1945V15.8105C41.0778 15.8371 40.5951 15.8878 40.2057 15.9625C39.8218 16.0318 39.5124 16.1225 39.2778 16.2345C39.0431 16.3465 38.8751 16.4771 38.7738 16.6265C38.6778 16.7758 38.6298 16.9385 38.6298 17.1145C38.6298 17.4611 38.7311 17.7091 38.9338 17.8585C39.1418 18.0078 39.4111 18.0825 39.7418 18.0825ZM50.3968 12.7065C50.3434 12.7918 50.2874 12.8531 50.2288 12.8905C50.1701 12.9225 50.0954 12.9385 50.0048 12.9385C49.9088 12.9385 49.8048 12.9118 49.6928 12.8585C49.5861 12.8051 49.4608 12.7465 49.3168 12.6825C49.1728 12.6131 49.0074 12.5518 48.8208 12.4985C48.6394 12.4451 48.4234 12.4185 48.1728 12.4185C47.7834 12.4185 47.4768 12.5011 47.2528 12.6665C47.0288 12.8318 46.9168 13.0478 46.9168 13.3145C46.9168 13.4905 46.9728 13.6398 47.0848 13.7625C47.2021 13.8798 47.3541 13.9838 47.5408 14.0745C47.7328 14.1651 47.9488 14.2478 48.1888 14.3225C48.4288 14.3918 48.6741 14.4691 48.9248 14.5545C49.1754 14.6398 49.4208 14.7385 49.6608 14.8505C49.9008 14.9571 50.1141 15.0958 50.3008 15.2665C50.4928 15.4318 50.6448 15.6318 50.7568 15.8665C50.8741 16.1011 50.9328 16.3838 50.9328 16.7145C50.9328 17.1091 50.8608 17.4745 50.7168 17.8105C50.5728 18.1411 50.3621 18.4291 50.0848 18.6745C49.8074 18.9145 49.4634 19.1038 49.0528 19.2425C48.6474 19.3758 48.1808 19.4425 47.6528 19.4425C47.3701 19.4425 47.0928 19.4158 46.8207 19.3625C46.5541 19.3145 46.2954 19.2451 46.0448 19.1545C45.7994 19.0638 45.5701 18.9571 45.3568 18.8345C45.1488 18.7118 44.9648 18.5785 44.8048 18.4345L45.2608 17.6825C45.3194 17.5918 45.3888 17.5225 45.4688 17.4745C45.5488 17.4265 45.6501 17.4025 45.7728 17.4025C45.8954 17.4025 46.0101 17.4371 46.1168 17.5065C46.2288 17.5758 46.3568 17.6505 46.5008 17.7305C46.6448 17.8105 46.8128 17.8851 47.0048 17.9545C47.2021 18.0238 47.4501 18.0585 47.7488 18.0585C47.9834 18.0585 48.1834 18.0318 48.3488 17.9785C48.5194 17.9198 48.6581 17.8451 48.7648 17.7545C48.8768 17.6638 48.9568 17.5598 49.0048 17.4425C49.0581 17.3198 49.0848 17.1945 49.0848 17.0665C49.0848 16.8745 49.0261 16.7171 48.9088 16.5945C48.7968 16.4718 48.6448 16.3651 48.4528 16.2745C48.2661 16.1838 48.0501 16.1038 47.8048 16.0345C47.5648 15.9598 47.3168 15.8798 47.0608 15.7945C46.8101 15.7091 46.5621 15.6105 46.3168 15.4985C46.0768 15.3811 45.8608 15.2345 45.6688 15.0585C45.4821 14.8825 45.3301 14.6665 45.2128 14.4105C45.1008 14.1545 45.0448 13.8451 45.0448 13.4825C45.0448 13.1465 45.1114 12.8265 45.2448 12.5225C45.3781 12.2185 45.5728 11.9545 45.8288 11.7305C46.0901 11.5011 46.4128 11.3198 46.7968 11.1865C47.1861 11.0478 47.6341 10.9785 48.1408 10.9785C48.7061 10.9785 49.2208 11.0718 49.6848 11.2585C50.1488 11.4451 50.5354 11.6905 50.8448 11.9945L50.3968 12.7065ZM55.9011 10.9785C56.4185 10.9785 56.8931 11.0611 57.3251 11.2265C57.7625 11.3918 58.1385 11.6345 58.4531 11.9545C58.7678 12.2691 59.0131 12.6585 59.1891 13.1225C59.3651 13.5811 59.4531 14.1065 59.4531 14.6985C59.4531 14.8478 59.4451 14.9731 59.4291 15.0745C59.4185 15.1705 59.3945 15.2478 59.3571 15.3065C59.3251 15.3598 59.2798 15.3998 59.2211 15.4265C59.1625 15.4478 59.0878 15.4585 58.9971 15.4585H53.9251C53.9838 16.3011 54.2105 16.9198 54.6051 17.3145C54.9998 17.7091 55.5225 17.9065 56.1731 17.9065C56.4931 17.9065 56.7678 17.8691 56.9971 17.7945C57.2318 17.7198 57.4345 17.6371 57.6051 17.5465C57.7811 17.4558 57.9331 17.3731 58.0611 17.2985C58.1945 17.2238 58.3225 17.1865 58.4451 17.1865C58.5251 17.1865 58.5945 17.2025 58.6531 17.2345C58.7118 17.2665 58.7625 17.3118 58.8051 17.3705L59.3811 18.0905C59.1625 18.3465 58.9171 18.5625 58.6451 18.7385C58.3731 18.9091 58.0878 19.0478 57.7891 19.1545C57.4958 19.2558 57.1945 19.3278 56.8851 19.3705C56.5811 19.4131 56.2851 19.4345 55.9971 19.4345C55.4265 19.4345 54.8958 19.3411 54.4051 19.1545C53.9145 18.9625 53.4878 18.6825 53.1251 18.3145C52.7625 17.9411 52.4771 17.4825 52.2691 16.9385C52.0611 16.3891 51.9571 15.7545 51.9571 15.0345C51.9571 14.4745 52.0478 13.9491 52.2291 13.4585C52.4105 12.9625 52.6691 12.5331 53.0051 12.1705C53.3465 11.8025 53.7598 11.5118 54.2451 11.2985C54.7358 11.0851 55.2878 10.9785 55.9011 10.9785ZM55.9411 12.3945C55.3651 12.3945 54.9145 12.5571 54.5891 12.8825C54.2638 13.2078 54.0558 13.6691 53.9651 14.2665H57.6771C57.6771 14.0105 57.6425 13.7705 57.5731 13.5465C57.5038 13.3171 57.3971 13.1171 57.2531 12.9465C57.1091 12.7758 56.9278 12.6425 56.7091 12.5465C56.4905 12.4451 56.2345 12.3945 55.9411 12.3945ZM66.9898 10.9625C67.3418 10.9625 67.6724 10.9998 67.9818 11.0745C68.2911 11.1438 68.5738 11.2478 68.8298 11.3865H71.1898V12.1225C71.1898 12.2451 71.1578 12.3411 71.0938 12.4105C71.0298 12.4798 70.9204 12.5278 70.7658 12.5545L70.0298 12.6905C70.0831 12.8291 70.1231 12.9758 70.1498 13.1305C70.1818 13.2851 70.1978 13.4478 70.1978 13.6185C70.1978 14.0238 70.1151 14.3918 69.9498 14.7225C69.7898 15.0478 69.5658 15.3251 69.2778 15.5545C68.9951 15.7838 68.6564 15.9625 68.2618 16.0905C67.8724 16.2131 67.4484 16.2745 66.9898 16.2745C66.6804 16.2745 66.3791 16.2451 66.0858 16.1865C65.8298 16.3411 65.7018 16.5145 65.7018 16.7065C65.7018 16.8718 65.7764 16.9945 65.9258 17.0745C66.0804 17.1491 66.2804 17.2025 66.5258 17.2345C66.7764 17.2665 67.0591 17.2878 67.3738 17.2985C67.6884 17.3038 68.0111 17.3198 68.3418 17.3465C68.6724 17.3731 68.9951 17.4211 69.3098 17.4905C69.6244 17.5545 69.9044 17.6585 70.1498 17.8025C70.4004 17.9465 70.6004 18.1438 70.7498 18.3945C70.9044 18.6398 70.9818 18.9571 70.9818 19.3465C70.9818 19.7091 70.8911 20.0611 70.7098 20.4025C70.5338 20.7438 70.2751 21.0478 69.9338 21.3145C69.5978 21.5811 69.1844 21.7945 68.6938 21.9545C68.2031 22.1198 67.6431 22.2025 67.0138 22.2025C66.3898 22.2025 65.8484 22.1411 65.3898 22.0185C64.9311 21.9011 64.5498 21.7411 64.2458 21.5385C63.9471 21.3411 63.7231 21.1118 63.5738 20.8505C63.4244 20.5891 63.3498 20.3171 63.3498 20.0345C63.3498 19.6505 63.4671 19.3278 63.7018 19.0665C63.9364 18.8051 64.2618 18.5971 64.6778 18.4425C64.4751 18.3305 64.3124 18.1811 64.1898 17.9945C64.0671 17.8078 64.0058 17.5651 64.0058 17.2665C64.0058 17.1438 64.0271 17.0185 64.0698 16.8905C64.1124 16.7571 64.1764 16.6265 64.2618 16.4985C64.3524 16.3705 64.4644 16.2505 64.5978 16.1385C64.7311 16.0211 64.8884 15.9171 65.0698 15.8265C64.6538 15.6025 64.3258 15.3038 64.0858 14.9305C63.8511 14.5571 63.7338 14.1198 63.7338 13.6185C63.7338 13.2131 63.8138 12.8478 63.9738 12.5225C64.1391 12.1918 64.3658 11.9118 64.6538 11.6825C64.9471 11.4478 65.2911 11.2691 65.6858 11.1465C66.0858 11.0238 66.5204 10.9625 66.9898 10.9625ZM69.1578 19.6825C69.1578 19.5225 69.1098 19.3918 69.0138 19.2905C68.9178 19.1891 68.7871 19.1118 68.6218 19.0585C68.4564 18.9998 68.2618 18.9571 68.0378 18.9305C67.8191 18.9038 67.5844 18.8851 67.3338 18.8745C67.0884 18.8585 66.8324 18.8451 66.5658 18.8345C66.3044 18.8185 66.0511 18.7945 65.8058 18.7625C65.5818 18.8851 65.4004 19.0318 65.2618 19.2025C65.1284 19.3678 65.0618 19.5598 65.0618 19.7785C65.0618 19.9225 65.0964 20.0558 65.1658 20.1785C65.2404 20.3065 65.3551 20.4158 65.5098 20.5065C65.6698 20.5971 65.8751 20.6665 66.1258 20.7145C66.3764 20.7678 66.6831 20.7945 67.0458 20.7945C67.4138 20.7945 67.7311 20.7651 67.9978 20.7065C68.2644 20.6531 68.4831 20.5758 68.6538 20.4745C68.8298 20.3785 68.9578 20.2611 69.0378 20.1225C69.1178 19.9891 69.1578 19.8425 69.1578 19.6825ZM66.9898 15.0105C67.2351 15.0105 67.4484 14.9785 67.6298 14.9145C67.8111 14.8451 67.9604 14.7518 68.0778 14.6345C68.2004 14.5171 68.2911 14.3758 68.3498 14.2105C68.4138 14.0451 68.4458 13.8638 68.4458 13.6665C68.4458 13.2611 68.3231 12.9411 68.0778 12.7065C67.8378 12.4665 67.4751 12.3465 66.9898 12.3465C66.5044 12.3465 66.1391 12.4665 65.8938 12.7065C65.6538 12.9411 65.5338 13.2611 65.5338 13.6665C65.5338 13.8585 65.5631 14.0371 65.6218 14.2025C65.6858 14.3678 65.7764 14.5118 65.8938 14.6345C66.0164 14.7518 66.1684 14.8451 66.3498 14.9145C66.5364 14.9785 66.7498 15.0105 66.9898 15.0105ZM74.535 11.1065V19.3145H72.559V11.1065H74.535ZM74.831 8.71445C74.831 8.88512 74.7963 9.04512 74.727 9.19445C74.6577 9.34379 74.5643 9.47445 74.447 9.58645C74.335 9.69845 74.2017 9.78912 74.047 9.85845C73.8923 9.92245 73.727 9.95445 73.551 9.95445C73.3803 9.95445 73.2177 9.92245 73.063 9.85845C72.9137 9.78912 72.783 9.69845 72.671 9.58645C72.559 9.47445 72.4683 9.34379 72.399 9.19445C72.335 9.04512 72.303 8.88512 72.303 8.71445C72.303 8.53845 72.335 8.37312 72.399 8.21845C72.4683 8.06379 72.559 7.93045 72.671 7.81845C72.783 7.70645 72.9137 7.61845 73.063 7.55445C73.2177 7.48512 73.3803 7.45045 73.551 7.45045C73.727 7.45045 73.8923 7.48512 74.047 7.55445C74.2017 7.61845 74.335 7.70645 74.447 7.81845C74.5643 7.93045 74.6577 8.06379 74.727 8.21845C74.7963 8.37312 74.831 8.53845 74.831 8.71445ZM80.8868 19.3145H79.0948L75.8308 11.1065H77.4708C77.6148 11.1065 77.7348 11.1411 77.8307 11.2105C77.9321 11.2798 78.0014 11.3678 78.0388 11.4745L79.6228 15.8585C79.7134 16.1145 79.7881 16.3651 79.8468 16.6105C79.9108 16.8558 79.9667 17.1011 80.0148 17.3465C80.0628 17.1011 80.1161 16.8558 80.1748 16.6105C80.2388 16.3651 80.3188 16.1145 80.4148 15.8585L82.0388 11.4745C82.0761 11.3678 82.1428 11.2798 82.2388 11.2105C82.3348 11.1411 82.4494 11.1065 82.5828 11.1065H84.1428L80.8868 19.3145ZM88.4324 10.9785C88.9497 10.9785 89.4244 11.0611 89.8564 11.2265C90.2937 11.3918 90.6697 11.6345 90.9844 11.9545C91.299 12.2691 91.5444 12.6585 91.7204 13.1225C91.8964 13.5811 91.9844 14.1065 91.9844 14.6985C91.9844 14.8478 91.9764 14.9731 91.9604 15.0745C91.9497 15.1705 91.9257 15.2478 91.8884 15.3065C91.8564 15.3598 91.811 15.3998 91.7524 15.4265C91.6937 15.4478 91.619 15.4585 91.5284 15.4585H86.4564C86.515 16.3011 86.7417 16.9198 87.1364 17.3145C87.531 17.7091 88.0537 17.9065 88.7044 17.9065C89.0244 17.9065 89.299 17.8691 89.5284 17.7945C89.763 17.7198 89.9657 17.6371 90.1364 17.5465C90.3124 17.4558 90.4644 17.3731 90.5924 17.2985C90.7257 17.2238 90.8537 17.1865 90.9764 17.1865C91.0564 17.1865 91.1257 17.2025 91.1844 17.2345C91.243 17.2665 91.2937 17.3118 91.3364 17.3705L91.9124 18.0905C91.6937 18.3465 91.4484 18.5625 91.1764 18.7385C90.9044 18.9091 90.619 19.0478 90.3204 19.1545C90.027 19.2558 89.7257 19.3278 89.4164 19.3705C89.1124 19.4131 88.8164 19.4345 88.5284 19.4345C87.9577 19.4345 87.427 19.3411 86.9364 19.1545C86.4457 18.9625 86.019 18.6825 85.6564 18.3145C85.2937 17.9411 85.0084 17.4825 84.8004 16.9385C84.5924 16.3891 84.4884 15.7545 84.4884 15.0345C84.4884 14.4745 84.579 13.9491 84.7604 13.4585C84.9417 12.9625 85.2004 12.5331 85.5364 12.1705C85.8777 11.8025 86.291 11.5118 86.7764 11.2985C87.267 11.0851 87.819 10.9785 88.4324 10.9785ZM88.4724 12.3945C87.8964 12.3945 87.4457 12.5571 87.1204 12.8825C86.795 13.2078 86.587 13.6691 86.4964 14.2665H90.2084C90.2084 14.0105 90.1737 13.7705 90.1044 13.5465C90.035 13.3171 89.9284 13.1171 89.7844 12.9465C89.6404 12.7758 89.459 12.6425 89.2404 12.5465C89.0217 12.4451 88.7657 12.3945 88.4724 12.3945ZM101.553 12.7065C101.5 12.7918 101.444 12.8531 101.385 12.8905C101.326 12.9225 101.252 12.9385 101.161 12.9385C101.065 12.9385 100.961 12.9118 100.849 12.8585C100.742 12.8051 100.617 12.7465 100.473 12.6825C100.329 12.6131 100.164 12.5518 99.977 12.4985C99.7957 12.4451 99.5797 12.4185 99.329 12.4185C98.9397 12.4185 98.633 12.5011 98.409 12.6665C98.185 12.8318 98.073 13.0478 98.073 13.3145C98.073 13.4905 98.129 13.6398 98.241 13.7625C98.3583 13.8798 98.5103 13.9838 98.697 14.0745C98.889 14.1651 99.105 14.2478 99.345 14.3225C99.585 14.3918 99.8303 14.4691 100.081 14.5545C100.332 14.6398 100.577 14.7385 100.817 14.8505C101.057 14.9571 101.27 15.0958 101.457 15.2665C101.649 15.4318 101.801 15.6318 101.913 15.8665C102.03 16.1011 102.089 16.3838 102.089 16.7145C102.089 17.1091 102.017 17.4745 101.873 17.8105C101.729 18.1411 101.518 18.4291 101.241 18.6745C100.964 18.9145 100.62 19.1038 100.209 19.2425C99.8037 19.3758 99.337 19.4425 98.809 19.4425C98.5263 19.4425 98.249 19.4158 97.977 19.3625C97.7103 19.3145 97.4517 19.2451 97.201 19.1545C96.9557 19.0638 96.7263 18.9571 96.513 18.8345C96.305 18.7118 96.121 18.5785 95.961 18.4345L96.417 17.6825C96.4757 17.5918 96.545 17.5225 96.625 17.4745C96.705 17.4265 96.8063 17.4025 96.929 17.4025C97.0517 17.4025 97.1663 17.4371 97.273 17.5065C97.385 17.5758 97.513 17.6505 97.657 17.7305C97.801 17.8105 97.969 17.8851 98.161 17.9545C98.3583 18.0238 98.6063 18.0585 98.905 18.0585C99.1397 18.0585 99.3397 18.0318 99.505 17.9785C99.6757 17.9198 99.8143 17.8451 99.921 17.7545C100.033 17.6638 100.113 17.5598 100.161 17.4425C100.214 17.3198 100.241 17.1945 100.241 17.0665C100.241 16.8745 100.182 16.7171 100.065 16.5945C99.953 16.4718 99.801 16.3651 99.609 16.2745C99.4223 16.1838 99.2063 16.1038 98.961 16.0345C98.721 15.9598 98.473 15.8798 98.217 15.7945C97.9663 15.7091 97.7183 15.6105 97.473 15.4985C97.233 15.3811 97.017 15.2345 96.825 15.0585C96.6383 14.8825 96.4863 14.6665 96.369 14.4105C96.257 14.1545 96.201 13.8451 96.201 13.4825C96.201 13.1465 96.2677 12.8265 96.401 12.5225C96.5343 12.2185 96.729 11.9545 96.985 11.7305C97.2463 11.5011 97.569 11.3198 97.953 11.1865C98.3423 11.0478 98.7903 10.9785 99.297 10.9785C99.8623 10.9785 100.377 11.0718 100.841 11.2585C101.305 11.4451 101.692 11.6905 102.001 11.9945L101.553 12.7065ZM107.169 10.9785C107.783 10.9785 108.337 11.0771 108.833 11.2745C109.335 11.4718 109.761 11.7518 110.113 12.1145C110.465 12.4771 110.737 12.9198 110.929 13.4425C111.121 13.9651 111.217 14.5491 111.217 15.1945C111.217 15.8451 111.121 16.4318 110.929 16.9545C110.737 17.4771 110.465 17.9225 110.113 18.2905C109.761 18.6585 109.335 18.9411 108.833 19.1385C108.337 19.3358 107.783 19.4345 107.169 19.4345C106.556 19.4345 105.999 19.3358 105.497 19.1385C104.996 18.9411 104.567 18.6585 104.209 18.2905C103.857 17.9225 103.583 17.4771 103.385 16.9545C103.193 16.4318 103.097 15.8451 103.097 15.1945C103.097 14.5491 103.193 13.9651 103.385 13.4425C103.583 12.9198 103.857 12.4771 104.209 12.1145C104.567 11.7518 104.996 11.4718 105.497 11.2745C105.999 11.0771 106.556 10.9785 107.169 10.9785ZM107.169 17.9145C107.852 17.9145 108.356 17.6851 108.681 17.2265C109.012 16.7678 109.177 16.0958 109.177 15.2105C109.177 14.3251 109.012 13.6505 108.681 13.1865C108.356 12.7225 107.852 12.4905 107.169 12.4905C106.476 12.4905 105.964 12.7251 105.633 13.1945C105.303 13.6585 105.137 14.3305 105.137 15.2105C105.137 16.0905 105.303 16.7625 105.633 17.2265C105.964 17.6851 106.476 17.9145 107.169 17.9145ZM112.759 19.3145V11.1065H113.967C114.223 11.1065 114.391 11.2265 114.471 11.4665L114.599 12.0745C114.743 11.9145 114.892 11.7678 115.047 11.6345C115.207 11.5011 115.375 11.3865 115.551 11.2905C115.732 11.1945 115.924 11.1198 116.127 11.0665C116.335 11.0078 116.562 10.9785 116.807 10.9785C117.324 10.9785 117.748 11.1198 118.079 11.4025C118.415 11.6798 118.666 12.0505 118.831 12.5145C118.959 12.2425 119.119 12.0105 119.311 11.8185C119.503 11.6211 119.714 11.4611 119.943 11.3385C120.172 11.2158 120.415 11.1251 120.671 11.0665C120.932 11.0078 121.194 10.9785 121.455 10.9785C121.908 10.9785 122.311 11.0478 122.663 11.1865C123.015 11.3251 123.311 11.5278 123.551 11.7945C123.791 12.0611 123.972 12.3865 124.095 12.7705C124.223 13.1545 124.287 13.5945 124.287 14.0905V19.3145H122.311V14.0905C122.311 13.5678 122.196 13.1758 121.967 12.9145C121.738 12.6478 121.402 12.5145 120.959 12.5145C120.756 12.5145 120.567 12.5491 120.391 12.6185C120.22 12.6878 120.068 12.7891 119.935 12.9225C119.807 13.0505 119.706 13.2131 119.631 13.4105C119.556 13.6078 119.519 13.8345 119.519 14.0905V19.3145H117.535V14.0905C117.535 13.5411 117.423 13.1411 117.199 12.8905C116.98 12.6398 116.655 12.5145 116.223 12.5145C115.94 12.5145 115.674 12.5865 115.423 12.7305C115.178 12.8691 114.948 13.0611 114.735 13.3065V19.3145H112.759ZM129.62 10.9785C130.137 10.9785 130.612 11.0611 131.044 11.2265C131.481 11.3918 131.857 11.6345 132.172 11.9545C132.487 12.2691 132.732 12.6585 132.908 13.1225C133.084 13.5811 133.172 14.1065 133.172 14.6985C133.172 14.8478 133.164 14.9731 133.148 15.0745C133.137 15.1705 133.113 15.2478 133.076 15.3065C133.044 15.3598 132.999 15.3998 132.94 15.4265C132.881 15.4478 132.807 15.4585 132.716 15.4585H127.644C127.703 16.3011 127.929 16.9198 128.324 17.3145C128.719 17.7091 129.241 17.9065 129.892 17.9065C130.212 17.9065 130.487 17.8691 130.716 17.7945C130.951 17.7198 131.153 17.6371 131.324 17.5465C131.5 17.4558 131.652 17.3731 131.78 17.2985C131.913 17.2238 132.041 17.1865 132.164 17.1865C132.244 17.1865 132.313 17.2025 132.372 17.2345C132.431 17.2665 132.481 17.3118 132.524 17.3705L133.1 18.0905C132.881 18.3465 132.636 18.5625 132.364 18.7385C132.092 18.9091 131.807 19.0478 131.508 19.1545C131.215 19.2558 130.913 19.3278 130.604 19.3705C130.3 19.4131 130.004 19.4345 129.716 19.4345C129.145 19.4345 128.615 19.3411 128.124 19.1545C127.633 18.9625 127.207 18.6825 126.844 18.3145C126.481 17.9411 126.196 17.4825 125.988 16.9385C125.78 16.3891 125.676 15.7545 125.676 15.0345C125.676 14.4745 125.767 13.9491 125.948 13.4585C126.129 12.9625 126.388 12.5331 126.724 12.1705C127.065 11.8025 127.479 11.5118 127.964 11.2985C128.455 11.0851 129.007 10.9785 129.62 10.9785ZM129.66 12.3945C129.084 12.3945 128.633 12.5571 128.308 12.8825C127.983 13.2078 127.775 13.6691 127.684 14.2665H131.396C131.396 14.0105 131.361 13.7705 131.292 13.5465C131.223 13.3171 131.116 13.1171 130.972 12.9465C130.828 12.7758 130.647 12.6425 130.428 12.5465C130.209 12.4451 129.953 12.3945 129.66 12.3945ZM140.565 19.4425C139.855 19.4425 139.309 19.2425 138.924 18.8425C138.541 18.4371 138.349 17.8798 138.349 17.1705V12.5865H137.517C137.41 12.5865 137.317 12.5518 137.237 12.4825C137.162 12.4131 137.125 12.3091 137.125 12.1705V11.3865L138.445 11.1705L138.861 8.93045C138.882 8.82379 138.93 8.74112 139.005 8.68245C139.085 8.62379 139.183 8.59445 139.301 8.59445H140.325V11.1785H142.485V12.5865H140.325V17.0345C140.325 17.2905 140.389 17.4905 140.517 17.6345C140.645 17.7785 140.815 17.8505 141.029 17.8505C141.151 17.8505 141.253 17.8371 141.332 17.8105C141.418 17.7785 141.49 17.7465 141.549 17.7145C141.613 17.6825 141.669 17.6531 141.717 17.6265C141.765 17.5945 141.813 17.5785 141.861 17.5785C141.919 17.5785 141.967 17.5945 142.005 17.6265C142.042 17.6531 142.082 17.6958 142.125 17.7545L142.717 18.7145C142.429 18.9545 142.098 19.1358 141.725 19.2585C141.351 19.3811 140.965 19.4425 140.565 19.4425ZM146.16 11.1065V19.3145H144.184V11.1065H146.16ZM146.456 8.71445C146.456 8.88512 146.421 9.04512 146.352 9.19445C146.283 9.34379 146.189 9.47445 146.072 9.58645C145.96 9.69845 145.827 9.78912 145.672 9.85845C145.517 9.92245 145.352 9.95445 145.176 9.95445C145.005 9.95445 144.843 9.92245 144.688 9.85845C144.539 9.78912 144.408 9.69845 144.296 9.58645C144.184 9.47445 144.093 9.34379 144.024 9.19445C143.96 9.04512 143.928 8.88512 143.928 8.71445C143.928 8.53845 143.96 8.37312 144.024 8.21845C144.093 8.06379 144.184 7.93045 144.296 7.81845C144.408 7.70645 144.539 7.61845 144.688 7.55445C144.843 7.48512 145.005 7.45045 145.176 7.45045C145.352 7.45045 145.517 7.48512 145.672 7.55445C145.827 7.61845 145.96 7.70645 146.072 7.81845C146.189 7.93045 146.283 8.06379 146.352 8.21845C146.421 8.37312 146.456 8.53845 146.456 8.71445ZM148.4 19.3145V11.1065H149.608C149.864 11.1065 150.032 11.2265 150.112 11.4665L150.24 12.0745C150.384 11.9145 150.533 11.7678 150.688 11.6345C150.848 11.5011 151.016 11.3865 151.192 11.2905C151.373 11.1945 151.565 11.1198 151.768 11.0665C151.976 11.0078 152.202 10.9785 152.448 10.9785C152.965 10.9785 153.389 11.1198 153.72 11.4025C154.056 11.6798 154.306 12.0505 154.472 12.5145C154.6 12.2425 154.76 12.0105 154.952 11.8185C155.144 11.6211 155.354 11.4611 155.584 11.3385C155.813 11.2158 156.056 11.1251 156.312 11.0665C156.573 11.0078 156.834 10.9785 157.096 10.9785C157.549 10.9785 157.952 11.0478 158.304 11.1865C158.656 11.3251 158.952 11.5278 159.192 11.7945C159.432 12.0611 159.613 12.3865 159.736 12.7705C159.864 13.1545 159.928 13.5945 159.928 14.0905V19.3145H157.952V14.0905C157.952 13.5678 157.837 13.1758 157.608 12.9145C157.378 12.6478 157.042 12.5145 156.6 12.5145C156.397 12.5145 156.208 12.5491 156.032 12.6185C155.861 12.6878 155.709 12.7891 155.576 12.9225C155.448 13.0505 155.346 13.2131 155.272 13.4105C155.197 13.6078 155.16 13.8345 155.16 14.0905V19.3145H153.176V14.0905C153.176 13.5411 153.064 13.1411 152.84 12.8905C152.621 12.6398 152.296 12.5145 151.864 12.5145C151.581 12.5145 151.314 12.5865 151.064 12.7305C150.818 12.8691 150.589 13.0611 150.376 13.3065V19.3145H148.4ZM165.261 10.9785C165.778 10.9785 166.253 11.0611 166.685 11.2265C167.122 11.3918 167.498 11.6345 167.813 11.9545C168.127 12.2691 168.373 12.6585 168.549 13.1225C168.725 13.5811 168.812 14.1065 168.812 14.6985C168.812 14.8478 168.805 14.9731 168.789 15.0745C168.778 15.1705 168.754 15.2478 168.717 15.3065C168.685 15.3598 168.639 15.3998 168.581 15.4265C168.522 15.4478 168.447 15.4585 168.357 15.4585H163.285C163.343 16.3011 163.57 16.9198 163.965 17.3145C164.359 17.7091 164.882 17.9065 165.533 17.9065C165.853 17.9065 166.127 17.8691 166.357 17.7945C166.591 17.7198 166.794 17.6371 166.965 17.5465C167.141 17.4558 167.293 17.3731 167.421 17.2985C167.554 17.2238 167.682 17.1865 167.805 17.1865C167.885 17.1865 167.954 17.2025 168.013 17.2345C168.071 17.2665 168.122 17.3118 168.165 17.3705L168.741 18.0905C168.522 18.3465 168.277 18.5625 168.005 18.7385C167.733 18.9091 167.447 19.0478 167.149 19.1545C166.855 19.2558 166.554 19.3278 166.245 19.3705C165.941 19.4131 165.645 19.4345 165.357 19.4345C164.786 19.4345 164.255 19.3411 163.765 19.1545C163.274 18.9625 162.847 18.6825 162.485 18.3145C162.122 17.9411 161.837 17.4825 161.629 16.9385C161.421 16.3891 161.317 15.7545 161.317 15.0345C161.317 14.4745 161.407 13.9491 161.589 13.4585C161.77 12.9625 162.029 12.5331 162.365 12.1705C162.706 11.8025 163.119 11.5118 163.605 11.2985C164.095 11.0851 164.647 10.9785 165.261 10.9785ZM165.301 12.3945C164.725 12.3945 164.274 12.5571 163.949 12.8825C163.623 13.2078 163.415 13.6691 163.325 14.2665H167.037C167.037 14.0105 167.002 13.7705 166.933 13.5465C166.863 13.3171 166.757 13.1171 166.613 12.9465C166.469 12.7758 166.287 12.6425 166.069 12.5465C165.85 12.4451 165.594 12.3945 165.301 12.3945ZM176.205 19.4425C175.496 19.4425 174.949 19.2425 174.565 18.8425C174.181 18.4371 173.989 17.8798 173.989 17.1705V12.5865H173.157C173.05 12.5865 172.957 12.5518 172.877 12.4825C172.802 12.4131 172.765 12.3091 172.765 12.1705V11.3865L174.085 11.1705L174.501 8.93045C174.522 8.82379 174.57 8.74112 174.645 8.68245C174.725 8.62379 174.824 8.59445 174.941 8.59445H175.965V11.1785H178.125V12.5865H175.965V17.0345C175.965 17.2905 176.029 17.4905 176.157 17.6345C176.285 17.7785 176.456 17.8505 176.669 17.8505C176.792 17.8505 176.893 17.8371 176.973 17.8105C177.058 17.7785 177.13 17.7465 177.189 17.7145C177.253 17.6825 177.309 17.6531 177.357 17.6265C177.405 17.5945 177.453 17.5785 177.501 17.5785C177.56 17.5785 177.608 17.5945 177.645 17.6265C177.682 17.6531 177.722 17.6958 177.765 17.7545L178.357 18.7145C178.069 18.9545 177.738 19.1358 177.365 19.2585C176.992 19.3811 176.605 19.4425 176.205 19.4425ZM183.201 10.9785C183.814 10.9785 184.369 11.0771 184.865 11.2745C185.366 11.4718 185.793 11.7518 186.145 12.1145C186.497 12.4771 186.769 12.9198 186.961 13.4425C187.153 13.9651 187.249 14.5491 187.249 15.1945C187.249 15.8451 187.153 16.4318 186.961 16.9545C186.769 17.4771 186.497 17.9225 186.145 18.2905C185.793 18.6585 185.366 18.9411 184.865 19.1385C184.369 19.3358 183.814 19.4345 183.201 19.4345C182.587 19.4345 182.03 19.3358 181.529 19.1385C181.027 18.9411 180.598 18.6585 180.241 18.2905C179.889 17.9225 179.614 17.4771 179.417 16.9545C179.225 16.4318 179.129 15.8451 179.129 15.1945C179.129 14.5491 179.225 13.9651 179.417 13.4425C179.614 12.9198 179.889 12.4771 180.241 12.1145C180.598 11.7518 181.027 11.4718 181.529 11.2745C182.03 11.0771 182.587 10.9785 183.201 10.9785ZM183.201 17.9145C183.883 17.9145 184.387 17.6851 184.713 17.2265C185.043 16.7678 185.209 16.0958 185.209 15.2105C185.209 14.3251 185.043 13.6505 184.713 13.1865C184.387 12.7225 183.883 12.4905 183.201 12.4905C182.507 12.4905 181.995 12.7251 181.665 13.1945C181.334 13.6585 181.169 14.3305 181.169 15.2105C181.169 16.0905 181.334 16.7625 181.665 17.2265C181.995 17.6851 182.507 17.9145 183.201 17.9145ZM195.388 10.9785C196.001 10.9785 196.556 11.0771 197.052 11.2745C197.553 11.4718 197.98 11.7518 198.332 12.1145C198.684 12.4771 198.956 12.9198 199.148 13.4425C199.34 13.9651 199.436 14.5491 199.436 15.1945C199.436 15.8451 199.34 16.4318 199.148 16.9545C198.956 17.4771 198.684 17.9225 198.332 18.2905C197.98 18.6585 197.553 18.9411 197.052 19.1385C196.556 19.3358 196.001 19.4345 195.388 19.4345C194.775 19.4345 194.217 19.3358 193.716 19.1385C193.215 18.9411 192.785 18.6585 192.428 18.2905C192.076 17.9225 191.801 17.4771 191.604 16.9545C191.412 16.4318 191.316 15.8451 191.316 15.1945C191.316 14.5491 191.412 13.9651 191.604 13.4425C191.801 12.9198 192.076 12.4771 192.428 12.1145C192.785 11.7518 193.215 11.4718 193.716 11.2745C194.217 11.0771 194.775 10.9785 195.388 10.9785ZM195.388 17.9145C196.071 17.9145 196.575 17.6851 196.9 17.2265C197.231 16.7678 197.396 16.0958 197.396 15.2105C197.396 14.3251 197.231 13.6505 196.9 13.1865C196.575 12.7225 196.071 12.4905 195.388 12.4905C194.695 12.4905 194.183 12.7251 193.852 13.1945C193.521 13.6585 193.356 14.3305 193.356 15.2105C193.356 16.0905 193.521 16.7625 193.852 17.2265C194.183 17.6851 194.695 17.9145 195.388 17.9145ZM202.786 11.1065V16.3225C202.786 16.8238 202.901 17.2131 203.13 17.4905C203.365 17.7625 203.714 17.8985 204.178 17.8985C204.519 17.8985 204.839 17.8238 205.138 17.6745C205.437 17.5198 205.719 17.3091 205.986 17.0425V11.1065H207.962V19.3145H206.754C206.498 19.3145 206.33 19.1945 206.25 18.9545L206.114 18.2985C205.943 18.4691 205.767 18.6265 205.586 18.7705C205.405 18.9091 205.21 19.0291 205.002 19.1305C204.799 19.2265 204.578 19.3011 204.338 19.3545C204.103 19.4131 203.85 19.4425 203.578 19.4425C203.13 19.4425 202.733 19.3678 202.386 19.2185C202.045 19.0638 201.757 18.8478 201.522 18.5705C201.287 18.2931 201.109 17.9651 200.986 17.5865C200.869 17.2025 200.81 16.7811 200.81 16.3225V11.1065H202.786ZM210.072 19.3145V11.1065H211.232C211.434 11.1065 211.576 11.1438 211.656 11.2185C211.736 11.2931 211.789 11.4211 211.816 11.6025L211.936 12.5945C212.229 12.0878 212.573 11.6878 212.968 11.3945C213.362 11.1011 213.805 10.9545 214.296 10.9545C214.701 10.9545 215.037 11.0478 215.304 11.2345L215.048 12.7145C215.032 12.8105 214.997 12.8798 214.944 12.9225C214.89 12.9598 214.818 12.9785 214.728 12.9785C214.648 12.9785 214.538 12.9598 214.4 12.9225C214.261 12.8851 214.077 12.8665 213.848 12.8665C213.437 12.8665 213.085 12.9811 212.792 13.2105C212.498 13.4345 212.25 13.7651 212.048 14.2025V19.3145H210.072ZM225.465 12.8425C225.406 12.9171 225.347 12.9758 225.289 13.0185C225.235 13.0611 225.155 13.0825 225.049 13.0825C224.947 13.0825 224.849 13.0531 224.753 12.9945C224.657 12.9305 224.542 12.8611 224.409 12.7865C224.275 12.7065 224.115 12.6371 223.929 12.5785C223.747 12.5145 223.521 12.4825 223.249 12.4825C222.902 12.4825 222.598 12.5465 222.337 12.6745C222.075 12.7971 221.857 12.9758 221.681 13.2105C221.51 13.4451 221.382 13.7305 221.297 14.0665C221.211 14.3971 221.169 14.7731 221.169 15.1945C221.169 15.6318 221.214 16.0211 221.305 16.3625C221.401 16.7038 221.537 16.9918 221.713 17.2265C221.889 17.4558 222.102 17.6318 222.353 17.7545C222.603 17.8718 222.886 17.9305 223.201 17.9305C223.515 17.9305 223.769 17.8931 223.961 17.8185C224.158 17.7385 224.323 17.6531 224.457 17.5625C224.59 17.4665 224.705 17.3811 224.801 17.3065C224.902 17.2265 225.014 17.1865 225.137 17.1865C225.297 17.1865 225.417 17.2478 225.497 17.3705L226.065 18.0905C225.846 18.3465 225.609 18.5625 225.353 18.7385C225.097 18.9091 224.83 19.0478 224.553 19.1545C224.281 19.2558 223.998 19.3278 223.705 19.3705C223.411 19.4131 223.121 19.4345 222.833 19.4345C222.326 19.4345 221.849 19.3411 221.401 19.1545C220.953 18.9625 220.561 18.6851 220.225 18.3225C219.894 17.9598 219.63 17.5171 219.433 16.9945C219.241 16.4665 219.145 15.8665 219.145 15.1945C219.145 14.5918 219.23 14.0345 219.401 13.5225C219.577 13.0051 219.833 12.5598 220.169 12.1865C220.505 11.8078 220.921 11.5118 221.417 11.2985C221.913 11.0851 222.483 10.9785 223.129 10.9785C223.742 10.9785 224.278 11.0771 224.737 11.2745C225.201 11.4718 225.617 11.7545 225.985 12.1225L225.465 12.8425ZM230.826 10.9785C231.439 10.9785 231.994 11.0771 232.49 11.2745C232.991 11.4718 233.418 11.7518 233.77 12.1145C234.122 12.4771 234.394 12.9198 234.586 13.4425C234.778 13.9651 234.874 14.5491 234.874 15.1945C234.874 15.8451 234.778 16.4318 234.586 16.9545C234.394 17.4771 234.122 17.9225 233.77 18.2905C233.418 18.6585 232.991 18.9411 232.49 19.1385C231.994 19.3358 231.439 19.4345 230.826 19.4345C230.212 19.4345 229.655 19.3358 229.154 19.1385C228.652 18.9411 228.223 18.6585 227.866 18.2905C227.514 17.9225 227.239 17.4771 227.042 16.9545C226.85 16.4318 226.754 15.8451 226.754 15.1945C226.754 14.5491 226.85 13.9651 227.042 13.4425C227.239 12.9198 227.514 12.4771 227.866 12.1145C228.223 11.7518 228.652 11.4718 229.154 11.2745C229.655 11.0771 230.212 10.9785 230.826 10.9785ZM230.826 17.9145C231.508 17.9145 232.012 17.6851 232.338 17.2265C232.668 16.7678 232.834 16.0958 232.834 15.2105C232.834 14.3251 232.668 13.6505 232.338 13.1865C232.012 12.7225 231.508 12.4905 230.826 12.4905C230.132 12.4905 229.62 12.7251 229.29 13.1945C228.959 13.6585 228.794 14.3305 228.794 15.2105C228.794 16.0905 228.959 16.7625 229.29 17.2265C229.62 17.6851 230.132 17.9145 230.826 17.9145ZM236.415 19.3145V11.1065H237.623C237.879 11.1065 238.047 11.2265 238.127 11.4665L238.263 12.1145C238.429 11.9438 238.602 11.7891 238.783 11.6505C238.97 11.5118 239.165 11.3918 239.367 11.2905C239.575 11.1891 239.797 11.1118 240.031 11.0585C240.266 11.0051 240.522 10.9785 240.799 10.9785C241.247 10.9785 241.645 11.0558 241.991 11.2105C242.338 11.3598 242.626 11.5731 242.855 11.8505C243.09 12.1225 243.266 12.4505 243.383 12.8345C243.506 13.2131 243.567 13.6318 243.567 14.0905V19.3145H241.591V14.0905C241.591 13.5891 241.474 13.2025 241.239 12.9305C241.01 12.6531 240.663 12.5145 240.199 12.5145C239.858 12.5145 239.538 12.5918 239.239 12.7465C238.941 12.9011 238.658 13.1118 238.391 13.3785V19.3145H236.415ZM250.381 12.7065C250.328 12.7918 250.272 12.8531 250.213 12.8905C250.154 12.9225 250.08 12.9385 249.989 12.9385C249.893 12.9385 249.789 12.9118 249.677 12.8585C249.57 12.8051 249.445 12.7465 249.301 12.6825C249.157 12.6131 248.992 12.5518 248.805 12.4985C248.624 12.4451 248.408 12.4185 248.157 12.4185C247.768 12.4185 247.461 12.5011 247.237 12.6665C247.013 12.8318 246.901 13.0478 246.901 13.3145C246.901 13.4905 246.957 13.6398 247.069 13.7625C247.186 13.8798 247.338 13.9838 247.525 14.0745C247.717 14.1651 247.933 14.2478 248.173 14.3225C248.413 14.3918 248.658 14.4691 248.909 14.5545C249.16 14.6398 249.405 14.7385 249.645 14.8505C249.885 14.9571 250.098 15.0958 250.285 15.2665C250.477 15.4318 250.629 15.6318 250.741 15.8665C250.858 16.1011 250.917 16.3838 250.917 16.7145C250.917 17.1091 250.845 17.4745 250.701 17.8105C250.557 18.1411 250.346 18.4291 250.069 18.6745C249.792 18.9145 249.448 19.1038 249.037 19.2425C248.632 19.3758 248.165 19.4425 247.637 19.4425C247.354 19.4425 247.077 19.4158 246.805 19.3625C246.538 19.3145 246.28 19.2451 246.029 19.1545C245.784 19.0638 245.554 18.9571 245.341 18.8345C245.133 18.7118 244.949 18.5785 244.789 18.4345L245.245 17.6825C245.304 17.5918 245.373 17.5225 245.453 17.4745C245.533 17.4265 245.634 17.4025 245.757 17.4025C245.88 17.4025 245.994 17.4371 246.101 17.5065C246.213 17.5758 246.341 17.6505 246.485 17.7305C246.629 17.8105 246.797 17.8851 246.989 17.9545C247.186 18.0238 247.434 18.0585 247.733 18.0585C247.968 18.0585 248.168 18.0318 248.333 17.9785C248.504 17.9198 248.642 17.8451 248.749 17.7545C248.861 17.6638 248.941 17.5598 248.989 17.4425C249.042 17.3198 249.069 17.1945 249.069 17.0665C249.069 16.8745 249.01 16.7171 248.893 16.5945C248.781 16.4718 248.629 16.3651 248.437 16.2745C248.25 16.1838 248.034 16.1038 247.789 16.0345C247.549 15.9598 247.301 15.8798 247.045 15.7945C246.794 15.7091 246.546 15.6105 246.301 15.4985C246.061 15.3811 245.845 15.2345 245.653 15.0585C245.466 14.8825 245.314 14.6665 245.197 14.4105C245.085 14.1545 245.029 13.8451 245.029 13.4825C245.029 13.1465 245.096 12.8265 245.229 12.5225C245.362 12.2185 245.557 11.9545 245.813 11.7305C246.074 11.5011 246.397 11.3198 246.781 11.1865C247.17 11.0478 247.618 10.9785 248.125 10.9785C248.69 10.9785 249.205 11.0718 249.669 11.2585C250.133 11.4451 250.52 11.6905 250.829 11.9945L250.381 12.7065ZM254.302 11.1065V16.3225C254.302 16.8238 254.416 17.2131 254.646 17.4905C254.88 17.7625 255.23 17.8985 255.694 17.8985C256.035 17.8985 256.355 17.8238 256.654 17.6745C256.952 17.5198 257.235 17.3091 257.502 17.0425V11.1065H259.477V19.3145H258.27C258.014 19.3145 257.846 19.1945 257.766 18.9545L257.63 18.2985C257.459 18.4691 257.283 18.6265 257.102 18.7705C256.92 18.9091 256.726 19.0291 256.518 19.1305C256.315 19.2265 256.094 19.3011 255.854 19.3545C255.619 19.4131 255.366 19.4425 255.094 19.4425C254.646 19.4425 254.248 19.3678 253.902 19.2185C253.56 19.0638 253.272 18.8478 253.038 18.5705C252.803 18.2931 252.624 17.9651 252.502 17.5865C252.384 17.2025 252.326 16.7811 252.326 16.3225V11.1065H254.302ZM263.691 7.42645V19.3145H261.715V7.42645H263.691ZM268.627 19.4425C267.918 19.4425 267.371 19.2425 266.987 18.8425C266.603 18.4371 266.411 17.8798 266.411 17.1705V12.5865H265.579C265.472 12.5865 265.379 12.5518 265.299 12.4825C265.224 12.4131 265.187 12.3091 265.187 12.1705V11.3865L266.507 11.1705L266.923 8.93045C266.944 8.82379 266.992 8.74112 267.067 8.68245C267.147 8.62379 267.246 8.59445 267.363 8.59445H268.387V11.1785H270.547V12.5865H268.387V17.0345C268.387 17.2905 268.451 17.4905 268.579 17.6345C268.707 17.7785 268.878 17.8505 269.091 17.8505C269.214 17.8505 269.315 17.8371 269.395 17.8105C269.48 17.7785 269.552 17.7465 269.611 17.7145C269.675 17.6825 269.731 17.6531 269.779 17.6265C269.827 17.5945 269.875 17.5785 269.923 17.5785C269.982 17.5785 270.03 17.5945 270.067 17.6265C270.104 17.6531 270.144 17.6958 270.187 17.7545L270.779 18.7145C270.491 18.9545 270.16 19.1358 269.787 19.2585C269.414 19.3811 269.027 19.4425 268.627 19.4425ZM278.551 19.3145H277.663C277.476 19.3145 277.329 19.2878 277.223 19.2345C277.116 19.1758 277.036 19.0611 276.983 18.8905L276.807 18.3065C276.599 18.4931 276.393 18.6585 276.191 18.8025C275.993 18.9411 275.788 19.0585 275.575 19.1545C275.361 19.2505 275.135 19.3225 274.895 19.3705C274.655 19.4185 274.388 19.4425 274.095 19.4425C273.748 19.4425 273.428 19.3971 273.135 19.3065C272.841 19.2105 272.588 19.0691 272.375 18.8825C272.167 18.6958 272.004 18.4638 271.887 18.1865C271.769 17.9091 271.711 17.5865 271.711 17.2185C271.711 16.9091 271.791 16.6051 271.951 16.3065C272.116 16.0025 272.388 15.7305 272.767 15.4905C273.145 15.2451 273.649 15.0425 274.279 14.8825C274.908 14.7225 275.689 14.6318 276.623 14.6105V14.1305C276.623 13.5811 276.505 13.1758 276.271 12.9145C276.041 12.6478 275.705 12.5145 275.263 12.5145C274.943 12.5145 274.676 12.5518 274.463 12.6265C274.249 12.7011 274.063 12.7865 273.903 12.8825C273.748 12.9731 273.604 13.0558 273.471 13.1305C273.337 13.2051 273.191 13.2425 273.031 13.2425C272.897 13.2425 272.783 13.2078 272.687 13.1385C272.591 13.0691 272.513 12.9838 272.455 12.8825L272.095 12.2505C273.039 11.3865 274.177 10.9545 275.511 10.9545C275.991 10.9545 276.417 11.0345 276.791 11.1945C277.169 11.3491 277.489 11.5678 277.751 11.8505C278.012 12.1278 278.209 12.4611 278.343 12.8505C278.481 13.2398 278.551 13.6665 278.551 14.1305V19.3145ZM274.711 18.0825C274.913 18.0825 275.1 18.0638 275.271 18.0265C275.441 17.9891 275.601 17.9331 275.751 17.8585C275.905 17.7838 276.052 17.6931 276.191 17.5865C276.335 17.4745 276.479 17.3438 276.623 17.1945V15.8105C276.047 15.8371 275.564 15.8878 275.174 15.9625C274.791 16.0318 274.481 16.1225 274.247 16.2345C274.012 16.3465 273.844 16.4771 273.743 16.6265C273.647 16.7758 273.599 16.9385 273.599 17.1145C273.599 17.4611 273.7 17.7091 273.903 17.8585C274.111 18.0078 274.38 18.0825 274.711 18.0825ZM280.493 19.3145V11.1065H281.702C281.958 11.1065 282.126 11.2265 282.206 11.4665L282.342 12.1145C282.507 11.9438 282.68 11.7891 282.862 11.6505C283.048 11.5118 283.243 11.3918 283.446 11.2905C283.654 11.1891 283.875 11.1118 284.11 11.0585C284.344 11.0051 284.6 10.9785 284.878 10.9785C285.326 10.9785 285.723 11.0558 286.07 11.2105C286.416 11.3598 286.704 11.5731 286.934 11.8505C287.168 12.1225 287.344 12.4505 287.462 12.8345C287.584 13.2131 287.646 13.6318 287.646 14.0905V19.3145H285.67V14.0905C285.67 13.5891 285.552 13.2025 285.318 12.9305C285.088 12.6531 284.742 12.5145 284.278 12.5145C283.936 12.5145 283.616 12.5918 283.318 12.7465C283.019 12.9011 282.736 13.1118 282.47 13.3785V19.3145H280.493ZM292.283 19.4425C291.574 19.4425 291.027 19.2425 290.643 18.8425C290.259 18.4371 290.067 17.8798 290.067 17.1705V12.5865H289.235C289.129 12.5865 289.035 12.5518 288.955 12.4825C288.881 12.4131 288.843 12.3091 288.843 12.1705V11.3865L290.163 11.1705L290.579 8.93045C290.601 8.82379 290.649 8.74112 290.723 8.68245C290.803 8.62379 290.902 8.59445 291.019 8.59445H292.043V11.1785H294.203V12.5865H292.043V17.0345C292.043 17.2905 292.107 17.4905 292.235 17.6345C292.363 17.7785 292.534 17.8505 292.747 17.8505C292.87 17.8505 292.971 17.8371 293.051 17.8105C293.137 17.7785 293.209 17.7465 293.267 17.7145C293.331 17.6825 293.387 17.6531 293.435 17.6265C293.483 17.5945 293.531 17.5785 293.579 17.5785C293.638 17.5785 293.686 17.5945 293.723 17.6265C293.761 17.6531 293.801 17.6958 293.843 17.7545L294.435 18.7145C294.147 18.9545 293.817 19.1358 293.443 19.2585C293.07 19.3811 292.683 19.4425 292.283 19.4425ZM300.647 12.7065C300.593 12.7918 300.537 12.8531 300.479 12.8905C300.42 12.9225 300.345 12.9385 300.255 12.9385C300.159 12.9385 300.055 12.9118 299.943 12.8585C299.836 12.8051 299.711 12.7465 299.567 12.6825C299.423 12.6131 299.257 12.5518 299.071 12.4985C298.889 12.4451 298.673 12.4185 298.423 12.4185C298.033 12.4185 297.727 12.5011 297.503 12.6665C297.279 12.8318 297.167 13.0478 297.167 13.3145C297.167 13.4905 297.223 13.6398 297.335 13.7625C297.452 13.8798 297.604 13.9838 297.791 14.0745C297.983 14.1651 298.199 14.2478 298.439 14.3225C298.679 14.3918 298.924 14.4691 299.175 14.5545C299.425 14.6398 299.671 14.7385 299.911 14.8505C300.151 14.9571 300.364 15.0958 300.551 15.2665C300.743 15.4318 300.895 15.6318 301.007 15.8665C301.124 16.1011 301.183 16.3838 301.183 16.7145C301.183 17.1091 301.111 17.4745 300.967 17.8105C300.823 18.1411 300.612 18.4291 300.335 18.6745C300.057 18.9145 299.713 19.1038 299.303 19.2425C298.897 19.3758 298.431 19.4425 297.903 19.4425C297.62 19.4425 297.343 19.4158 297.071 19.3625C296.804 19.3145 296.545 19.2451 296.295 19.1545C296.049 19.0638 295.82 18.9571 295.607 18.8345C295.399 18.7118 295.215 18.5785 295.055 18.4345L295.511 17.6825C295.569 17.5918 295.639 17.5225 295.719 17.4745C295.799 17.4265 295.9 17.4025 296.023 17.4025C296.145 17.4025 296.26 17.4371 296.367 17.5065C296.479 17.5758 296.607 17.6505 296.751 17.7305C296.895 17.8105 297.063 17.8851 297.255 17.9545C297.452 18.0238 297.7 18.0585 297.999 18.0585C298.233 18.0585 298.433 18.0318 298.599 17.9785C298.769 17.9198 298.908 17.8451 299.015 17.7545C299.127 17.6638 299.207 17.5598 299.255 17.4425C299.308 17.3198 299.335 17.1945 299.335 17.0665C299.335 16.8745 299.276 16.7171 299.159 16.5945C299.047 16.4718 298.895 16.3651 298.703 16.2745C298.516 16.1838 298.3 16.1038 298.055 16.0345C297.815 15.9598 297.567 15.8798 297.311 15.7945C297.06 15.7091 296.812 15.6105 296.567 15.4985C296.327 15.3811 296.111 15.2345 295.919 15.0585C295.732 14.8825 295.58 14.6665 295.463 14.4105C295.351 14.1545 295.295 13.8451 295.295 13.4825C295.295 13.1465 295.361 12.8265 295.495 12.5225C295.628 12.2185 295.823 11.9545 296.079 11.7305C296.34 11.5011 296.663 11.3198 297.047 11.1865C297.436 11.0478 297.884 10.9785 298.391 10.9785C298.956 10.9785 299.471 11.0718 299.935 11.2585C300.399 11.4451 300.785 11.6905 301.095 11.9945L300.647 12.7065ZM49.0411 43.4425C48.3317 43.4425 47.7851 43.2425 47.4011 42.8425C47.0171 42.4371 46.8251 41.8798 46.8251 41.1705V36.5865H45.9931C45.8864 36.5865 45.7931 36.5518 45.7131 36.4825C45.6384 36.4131 45.6011 36.3091 45.6011 36.1705V35.3865L46.9211 35.1705L47.3371 32.9305C47.3584 32.8238 47.4064 32.7411 47.4811 32.6825C47.5611 32.6238 47.6597 32.5945 47.7771 32.5945H48.8011V35.1785H50.9611V36.5865H48.8011V41.0345C48.8011 41.2905 48.8651 41.4905 48.9931 41.6345C49.1211 41.7785 49.2917 41.8505 49.5051 41.8505C49.6277 41.8505 49.7291 41.8371 49.8091 41.8105C49.8944 41.7785 49.9664 41.7465 50.0251 41.7145C50.0891 41.6825 50.1451 41.6531 50.1931 41.6265C50.2411 41.5945 50.2891 41.5785 50.3371 41.5785C50.3957 41.5785 50.4437 41.5945 50.4811 41.6265C50.5184 41.6531 50.5584 41.6958 50.6011 41.7545L51.1931 42.7145C50.9051 42.9545 50.5744 43.1358 50.2011 43.2585C49.8277 43.3811 49.4411 43.4425 49.0411 43.4425ZM56.0366 34.9785C56.6499 34.9785 57.2046 35.0771 57.7006 35.2745C58.2019 35.4718 58.6286 35.7518 58.9806 36.1145C59.3326 36.4771 59.6046 36.9198 59.7966 37.4425C59.9886 37.9651 60.0846 38.5491 60.0846 39.1945C60.0846 39.8451 59.9886 40.4318 59.7966 40.9545C59.6046 41.4771 59.3326 41.9225 58.9806 42.2905C58.6286 42.6585 58.2019 42.9411 57.7006 43.1385C57.2046 43.3358 56.6499 43.4345 56.0366 43.4345C55.4232 43.4345 54.8659 43.3358 54.3646 43.1385C53.8632 42.9411 53.4339 42.6585 53.0766 42.2905C52.7246 41.9225 52.4499 41.4771 52.2526 40.9545C52.0606 40.4318 51.9646 39.8451 51.9646 39.1945C51.9646 38.5491 52.0606 37.9651 52.2526 37.4425C52.4499 36.9198 52.7246 36.4771 53.0766 36.1145C53.4339 35.7518 53.8632 35.4718 54.3646 35.2745C54.8659 35.0771 55.4232 34.9785 56.0366 34.9785ZM56.0366 41.9145C56.7192 41.9145 57.2232 41.6851 57.5486 41.2265C57.8792 40.7678 58.0446 40.0958 58.0446 39.2105C58.0446 38.3251 57.8792 37.6505 57.5486 37.1865C57.2232 36.7225 56.7192 36.4905 56.0366 36.4905C55.3432 36.4905 54.8312 36.7251 54.5006 37.1945C54.1699 37.6585 54.0046 38.3305 54.0046 39.2105C54.0046 40.0905 54.1699 40.7625 54.5006 41.2265C54.8312 41.6851 55.3432 41.9145 56.0366 41.9145ZM64.7201 45.9945V35.1065H65.9281C66.0561 35.1065 66.1654 35.1358 66.2561 35.1945C66.3467 35.2531 66.4054 35.3438 66.4321 35.4665L66.5921 36.2265C66.9227 35.8478 67.3014 35.5411 67.7281 35.3065C68.1601 35.0718 68.6641 34.9545 69.2401 34.9545C69.6881 34.9545 70.0961 35.0478 70.4641 35.2345C70.8374 35.4211 71.1574 35.6931 71.4241 36.0505C71.6961 36.4025 71.9041 36.8398 72.0481 37.3625C72.1974 37.8798 72.2721 38.4745 72.2721 39.1465C72.2721 39.7598 72.1894 40.3278 72.0241 40.8505C71.8587 41.3731 71.6214 41.8265 71.3121 42.2105C71.0081 42.5945 70.6374 42.8958 70.2001 43.1145C69.7681 43.3278 69.2827 43.4345 68.7441 43.4345C68.2801 43.4345 67.8854 43.3651 67.5601 43.2265C67.2401 43.0825 66.9521 42.8851 66.6961 42.6345V45.9945H64.7201ZM68.5601 36.5145C68.1494 36.5145 67.7974 36.6025 67.5041 36.7785C67.2161 36.9491 66.9467 37.1918 66.6961 37.5065V41.1865C66.9201 41.4638 67.1627 41.6585 67.4241 41.7705C67.6907 41.8771 67.9761 41.9305 68.2801 41.9305C68.5787 41.9305 68.8481 41.8745 69.0881 41.7625C69.3334 41.6505 69.5387 41.4798 69.7041 41.2505C69.8747 41.0211 70.0054 40.7331 70.0961 40.3865C70.1867 40.0345 70.2321 39.6211 70.2321 39.1465C70.2321 38.6665 70.1921 38.2611 70.1121 37.9305C70.0374 37.5945 69.9281 37.3225 69.7841 37.1145C69.6401 36.9065 69.4641 36.7545 69.2561 36.6585C69.0534 36.5625 68.8214 36.5145 68.5601 36.5145ZM73.7669 43.3145V35.1065H74.9269C75.1296 35.1065 75.2709 35.1438 75.3509 35.2185C75.4309 35.2931 75.4843 35.4211 75.5109 35.6025L75.6309 36.5945C75.9243 36.0878 76.2683 35.6878 76.6629 35.3945C77.0576 35.1011 77.5003 34.9545 77.9909 34.9545C78.3963 34.9545 78.7323 35.0478 78.9989 35.2345L78.7429 36.7145C78.7269 36.8105 78.6923 36.8798 78.6389 36.9225C78.5856 36.9598 78.5136 36.9785 78.4229 36.9785C78.3429 36.9785 78.2336 36.9598 78.0949 36.9225C77.9563 36.8851 77.7723 36.8665 77.5429 36.8665C77.1323 36.8665 76.7803 36.9811 76.4869 37.2105C76.1936 37.4345 75.9456 37.7651 75.7429 38.2025V43.3145H73.7669ZM83.6902 34.9785C84.2075 34.9785 84.6822 35.0611 85.1142 35.2265C85.5515 35.3918 85.9275 35.6345 86.2422 35.9545C86.5569 36.2691 86.8022 36.6585 86.9782 37.1225C87.1542 37.5811 87.2422 38.1065 87.2422 38.6985C87.2422 38.8478 87.2342 38.9731 87.2182 39.0745C87.2075 39.1705 87.1835 39.2478 87.1462 39.3065C87.1142 39.3598 87.0689 39.3998 87.0102 39.4265C86.9515 39.4478 86.8769 39.4585 86.7862 39.4585H81.7142C81.7729 40.3011 81.9995 40.9198 82.3942 41.3145C82.7889 41.7091 83.3115 41.9065 83.9622 41.9065C84.2822 41.9065 84.5569 41.8691 84.7862 41.7945C85.0209 41.7198 85.2235 41.6371 85.3942 41.5465C85.5702 41.4558 85.7222 41.3731 85.8502 41.2985C85.9835 41.2238 86.1115 41.1865 86.2342 41.1865C86.3142 41.1865 86.3835 41.2025 86.4422 41.2345C86.5009 41.2665 86.5515 41.3118 86.5942 41.3705L87.1702 42.0905C86.9515 42.3465 86.7062 42.5625 86.4342 42.7385C86.1622 42.9091 85.8769 43.0478 85.5782 43.1545C85.2849 43.2558 84.9835 43.3278 84.6742 43.3705C84.3702 43.4131 84.0742 43.4345 83.7862 43.4345C83.2155 43.4345 82.6849 43.3411 82.1942 43.1545C81.7035 42.9625 81.2769 42.6825 80.9142 42.3145C80.5515 41.9411 80.2662 41.4825 80.0582 40.9385C79.8502 40.3891 79.7462 39.7545 79.7462 39.0345C79.7462 38.4745 79.8369 37.9491 80.0182 37.4585C80.1995 36.9625 80.4582 36.5331 80.7942 36.1705C81.1355 35.8025 81.5489 35.5118 82.0342 35.2985C82.5249 35.0851 83.0769 34.9785 83.6902 34.9785ZM83.7302 36.3945C83.1542 36.3945 82.7035 36.5571 82.3782 36.8825C82.0529 37.2078 81.8449 37.6691 81.7542 38.2665H85.4662C85.4662 38.0105 85.4315 37.7705 85.3622 37.5465C85.2929 37.3171 85.1862 37.1171 85.0422 36.9465C84.8982 36.7758 84.7169 36.6425 84.4982 36.5465C84.2795 36.4451 84.0235 36.3945 83.7302 36.3945ZM88.8451 45.9945V35.1065H90.0531C90.1811 35.1065 90.2904 35.1358 90.3811 35.1945C90.4717 35.2531 90.5304 35.3438 90.5571 35.4665L90.7171 36.2265C91.0477 35.8478 91.4264 35.5411 91.8531 35.3065C92.2851 35.0718 92.7891 34.9545 93.3651 34.9545C93.8131 34.9545 94.2211 35.0478 94.5891 35.2345C94.9624 35.4211 95.2824 35.6931 95.5491 36.0505C95.8211 36.4025 96.0291 36.8398 96.1731 37.3625C96.3224 37.8798 96.3971 38.4745 96.3971 39.1465C96.3971 39.7598 96.3144 40.3278 96.1491 40.8505C95.9837 41.3731 95.7464 41.8265 95.4371 42.2105C95.1331 42.5945 94.7624 42.8958 94.3251 43.1145C93.8931 43.3278 93.4077 43.4345 92.8691 43.4345C92.4051 43.4345 92.0104 43.3651 91.6851 43.2265C91.3651 43.0825 91.0771 42.8851 90.8211 42.6345V45.9945H88.8451ZM92.6851 36.5145C92.2744 36.5145 91.9224 36.6025 91.6291 36.7785C91.3411 36.9491 91.0717 37.1918 90.8211 37.5065V41.1865C91.0451 41.4638 91.2877 41.6585 91.5491 41.7705C91.8157 41.8771 92.1011 41.9305 92.4051 41.9305C92.7037 41.9305 92.9731 41.8745 93.2131 41.7625C93.4584 41.6505 93.6637 41.4798 93.8291 41.2505C93.9997 41.0211 94.1304 40.7331 94.2211 40.3865C94.3117 40.0345 94.3571 39.6211 94.3571 39.1465C94.3571 38.6665 94.3171 38.2611 94.2371 37.9305C94.1624 37.5945 94.0531 37.3225 93.9091 37.1145C93.7651 36.9065 93.5891 36.7545 93.3811 36.6585C93.1784 36.5625 92.9464 36.5145 92.6851 36.5145ZM104.324 43.3145H103.436C103.249 43.3145 103.103 43.2878 102.996 43.2345C102.889 43.1758 102.809 43.0611 102.756 42.8905L102.58 42.3065C102.372 42.4931 102.167 42.6585 101.964 42.8025C101.767 42.9411 101.561 43.0585 101.348 43.1545C101.135 43.2505 100.908 43.3225 100.668 43.3705C100.428 43.4185 100.161 43.4425 99.8679 43.4425C99.5213 43.4425 99.2013 43.3971 98.9079 43.3065C98.6146 43.2105 98.3613 43.0691 98.1479 42.8825C97.9399 42.6958 97.7773 42.4638 97.6599 42.1865C97.5426 41.9091 97.4839 41.5865 97.4839 41.2185C97.4839 40.9091 97.5639 40.6051 97.7239 40.3065C97.8893 40.0025 98.1613 39.7305 98.5399 39.4905C98.9186 39.2451 99.4226 39.0425 100.052 38.8825C100.681 38.7225 101.463 38.6318 102.396 38.6105V38.1305C102.396 37.5811 102.279 37.1758 102.044 36.9145C101.815 36.6478 101.479 36.5145 101.036 36.5145C100.716 36.5145 100.449 36.5518 100.236 36.6265C100.023 36.7011 99.8359 36.7865 99.6759 36.8825C99.5213 36.9731 99.3773 37.0558 99.2439 37.1305C99.1106 37.2051 98.9639 37.2425 98.8039 37.2425C98.6706 37.2425 98.5559 37.2078 98.4599 37.1385C98.3639 37.0691 98.2866 36.9838 98.2279 36.8825L97.8679 36.2505C98.8119 35.3865 99.9506 34.9545 101.284 34.9545C101.764 34.9545 102.191 35.0345 102.564 35.1945C102.943 35.3491 103.263 35.5678 103.524 35.8505C103.785 36.1278 103.983 36.4611 104.116 36.8505C104.255 37.2398 104.324 37.6665 104.324 38.1305V43.3145ZM100.484 42.0825C100.687 42.0825 100.873 42.0638 101.044 42.0265C101.215 41.9891 101.375 41.9331 101.524 41.8585C101.679 41.7838 101.825 41.6931 101.964 41.5865C102.108 41.4745 102.252 41.3438 102.396 41.1945V39.8105C101.82 39.8371 101.337 39.8878 100.948 39.9625C100.564 40.0318 100.255 40.1225 100.02 40.2345C99.7853 40.3465 99.6173 40.4771 99.5159 40.6265C99.4199 40.7758 99.3719 40.9385 99.3719 41.1145C99.3719 41.4611 99.4733 41.7091 99.6759 41.8585C99.8839 42.0078 100.153 42.0825 100.484 42.0825ZM106.267 43.3145V35.1065H107.427C107.63 35.1065 107.771 35.1438 107.851 35.2185C107.931 35.2931 107.984 35.4211 108.011 35.6025L108.131 36.5945C108.424 36.0878 108.768 35.6878 109.163 35.3945C109.558 35.1011 110 34.9545 110.491 34.9545C110.896 34.9545 111.232 35.0478 111.499 35.2345L111.243 36.7145C111.227 36.8105 111.192 36.8798 111.139 36.9225C111.086 36.9598 111.014 36.9785 110.923 36.9785C110.843 36.9785 110.734 36.9598 110.595 36.9225C110.456 36.8851 110.272 36.8665 110.043 36.8665C109.632 36.8665 109.28 36.9811 108.987 37.2105C108.694 37.4345 108.446 37.7651 108.243 38.2025V43.3145H106.267ZM116.19 34.9785C116.708 34.9785 117.182 35.0611 117.614 35.2265C118.052 35.3918 118.428 35.6345 118.742 35.9545C119.057 36.2691 119.302 36.6585 119.478 37.1225C119.654 37.5811 119.742 38.1065 119.742 38.6985C119.742 38.8478 119.734 38.9731 119.718 39.0745C119.708 39.1705 119.684 39.2478 119.646 39.3065C119.614 39.3598 119.569 39.3998 119.51 39.4265C119.452 39.4478 119.377 39.4585 119.286 39.4585H114.214C114.273 40.3011 114.5 40.9198 114.894 41.3145C115.289 41.7091 115.812 41.9065 116.462 41.9065C116.782 41.9065 117.057 41.8691 117.286 41.7945C117.521 41.7198 117.724 41.6371 117.894 41.5465C118.07 41.4558 118.222 41.3731 118.35 41.2985C118.484 41.2238 118.612 41.1865 118.734 41.1865C118.814 41.1865 118.884 41.2025 118.942 41.2345C119.001 41.2665 119.052 41.3118 119.094 41.3705L119.67 42.0905C119.452 42.3465 119.206 42.5625 118.934 42.7385C118.662 42.9091 118.377 43.0478 118.078 43.1545C117.785 43.2558 117.484 43.3278 117.174 43.3705C116.87 43.4131 116.574 43.4345 116.286 43.4345C115.716 43.4345 115.185 43.3411 114.694 43.1545C114.204 42.9625 113.777 42.6825 113.414 42.3145C113.052 41.9411 112.766 41.4825 112.558 40.9385C112.35 40.3891 112.246 39.7545 112.246 39.0345C112.246 38.4745 112.337 37.9491 112.518 37.4585C112.7 36.9625 112.958 36.5331 113.294 36.1705C113.636 35.8025 114.049 35.5118 114.534 35.2985C115.025 35.0851 115.577 34.9785 116.19 34.9785ZM116.23 36.3945C115.654 36.3945 115.204 36.5571 114.878 36.8825C114.553 37.2078 114.345 37.6691 114.254 38.2665H117.966C117.966 38.0105 117.932 37.7705 117.862 37.5465C117.793 37.3171 117.686 37.1171 117.542 36.9465C117.398 36.7758 117.217 36.6425 116.998 36.5465C116.78 36.4451 116.524 36.3945 116.23 36.3945ZM130.871 43.3145H129.983C129.796 43.3145 129.649 43.2878 129.543 43.2345C129.436 43.1758 129.356 43.0611 129.303 42.8905L129.127 42.3065C128.919 42.4931 128.713 42.6585 128.511 42.8025C128.313 42.9411 128.108 43.0585 127.895 43.1545C127.681 43.2505 127.455 43.3225 127.215 43.3705C126.975 43.4185 126.708 43.4425 126.415 43.4425C126.068 43.4425 125.748 43.3971 125.455 43.3065C125.161 43.2105 124.908 43.0691 124.695 42.8825C124.487 42.6958 124.324 42.4638 124.207 42.1865C124.089 41.9091 124.031 41.5865 124.031 41.2185C124.031 40.9091 124.111 40.6051 124.271 40.3065C124.436 40.0025 124.708 39.7305 125.087 39.4905C125.465 39.2451 125.969 39.0425 126.599 38.8825C127.228 38.7225 128.009 38.6318 128.943 38.6105V38.1305C128.943 37.5811 128.825 37.1758 128.591 36.9145C128.361 36.6478 128.025 36.5145 127.583 36.5145C127.263 36.5145 126.996 36.5518 126.783 36.6265C126.569 36.7011 126.383 36.7865 126.223 36.8825C126.068 36.9731 125.924 37.0558 125.791 37.1305C125.657 37.2051 125.511 37.2425 125.351 37.2425C125.217 37.2425 125.103 37.2078 125.007 37.1385C124.911 37.0691 124.833 36.9838 124.775 36.8825L124.415 36.2505C125.359 35.3865 126.497 34.9545 127.831 34.9545C128.311 34.9545 128.737 35.0345 129.111 35.1945C129.489 35.3491 129.809 35.5678 130.071 35.8505C130.332 36.1278 130.529 36.4611 130.663 36.8505C130.801 37.2398 130.871 37.6665 130.871 38.1305V43.3145ZM127.031 42.0825C127.233 42.0825 127.42 42.0638 127.591 42.0265C127.761 41.9891 127.921 41.9331 128.071 41.8585C128.225 41.7838 128.372 41.6931 128.511 41.5865C128.655 41.4745 128.799 41.3438 128.943 41.1945V39.8105C128.367 39.8371 127.884 39.8878 127.495 39.9625C127.111 40.0318 126.801 40.1225 126.567 40.2345C126.332 40.3465 126.164 40.4771 126.063 40.6265C125.967 40.7758 125.919 40.9385 125.919 41.1145C125.919 41.4611 126.02 41.7091 126.223 41.8585C126.431 42.0078 126.7 42.0825 127.031 42.0825ZM132.814 43.3145V35.1065H134.022C134.278 35.1065 134.446 35.2265 134.526 35.4665L134.662 36.1145C134.827 35.9438 135 35.7891 135.182 35.6505C135.368 35.5118 135.563 35.3918 135.766 35.2905C135.974 35.1891 136.195 35.1118 136.43 35.0585C136.664 35.0051 136.92 34.9785 137.198 34.9785C137.646 34.9785 138.043 35.0558 138.39 35.2105C138.736 35.3598 139.024 35.5731 139.254 35.8505C139.488 36.1225 139.664 36.4505 139.782 36.8345C139.904 37.2131 139.966 37.6318 139.966 38.0905V43.3145H137.99V38.0905C137.99 37.5891 137.872 37.2025 137.638 36.9305C137.408 36.6531 137.062 36.5145 136.598 36.5145C136.256 36.5145 135.936 36.5918 135.638 36.7465C135.339 36.9011 135.056 37.1118 134.79 37.3785V43.3145H132.814ZM147.684 43.3145C147.428 43.3145 147.26 43.1945 147.18 42.9545L147.02 42.1625C146.849 42.3545 146.67 42.5278 146.484 42.6825C146.297 42.8371 146.094 42.9705 145.876 43.0825C145.662 43.1945 145.43 43.2798 145.18 43.3385C144.934 43.4025 144.668 43.4345 144.38 43.4345C143.932 43.4345 143.521 43.3411 143.148 43.1545C142.774 42.9678 142.452 42.6985 142.18 42.3465C141.913 41.9891 141.705 41.5491 141.556 41.0265C141.412 40.5038 141.34 39.9065 141.34 39.2345C141.34 38.6265 141.422 38.0611 141.588 37.5385C141.753 37.0158 141.99 36.5625 142.3 36.1785C142.609 35.7945 142.98 35.4958 143.412 35.2825C143.844 35.0638 144.329 34.9545 144.868 34.9545C145.326 34.9545 145.718 35.0291 146.044 35.1785C146.369 35.3225 146.66 35.5171 146.916 35.7625V31.4265H148.892V43.3145H147.684ZM145.052 41.8665C145.462 41.8665 145.812 41.7811 146.1 41.6105C146.388 41.4398 146.66 41.1971 146.916 40.8825V37.2025C146.692 36.9305 146.446 36.7385 146.18 36.6265C145.918 36.5145 145.636 36.4585 145.332 36.4585C145.033 36.4585 144.761 36.5145 144.516 36.6265C144.276 36.7385 144.07 36.9091 143.9 37.1385C143.734 37.3625 143.606 37.6505 143.516 38.0025C143.425 38.3491 143.38 38.7598 143.38 39.2345C143.38 39.7145 143.417 40.1225 143.492 40.4585C143.572 40.7891 143.684 41.0611 143.828 41.2745C143.972 41.4825 144.148 41.6345 144.356 41.7305C144.564 41.8211 144.796 41.8665 145.052 41.8665ZM160.558 43.3145H159.67C159.484 43.3145 159.337 43.2878 159.23 43.2345C159.124 43.1758 159.044 43.0611 158.99 42.8905L158.814 42.3065C158.606 42.4931 158.401 42.6585 158.198 42.8025C158.001 42.9411 157.796 43.0585 157.582 43.1545C157.369 43.2505 157.142 43.3225 156.902 43.3705C156.662 43.4185 156.396 43.4425 156.102 43.4425C155.756 43.4425 155.436 43.3971 155.142 43.3065C154.849 43.2105 154.596 43.0691 154.382 42.8825C154.174 42.6958 154.012 42.4638 153.894 42.1865C153.777 41.9091 153.718 41.5865 153.718 41.2185C153.718 40.9091 153.798 40.6051 153.958 40.3065C154.124 40.0025 154.396 39.7305 154.774 39.4905C155.153 39.2451 155.657 39.0425 156.286 38.8825C156.916 38.7225 157.697 38.6318 158.63 38.6105V38.1305C158.63 37.5811 158.513 37.1758 158.278 36.9145C158.049 36.6478 157.713 36.5145 157.27 36.5145C156.95 36.5145 156.684 36.5518 156.47 36.6265C156.257 36.7011 156.07 36.7865 155.91 36.8825C155.756 36.9731 155.612 37.0558 155.478 37.1305C155.345 37.2051 155.198 37.2425 155.038 37.2425C154.905 37.2425 154.79 37.2078 154.694 37.1385C154.598 37.0691 154.521 36.9838 154.462 36.8825L154.102 36.2505C155.046 35.3865 156.185 34.9545 157.518 34.9545C157.998 34.9545 158.425 35.0345 158.798 35.1945C159.177 35.3491 159.497 35.5678 159.758 35.8505C160.02 36.1278 160.217 36.4611 160.35 36.8505C160.489 37.2398 160.558 37.6665 160.558 38.1305V43.3145ZM156.718 42.0825C156.921 42.0825 157.108 42.0638 157.278 42.0265C157.449 41.9891 157.609 41.9331 157.758 41.8585C157.913 41.7838 158.06 41.6931 158.198 41.5865C158.342 41.4745 158.486 41.3438 158.63 41.1945V39.8105C158.054 39.8371 157.572 39.8878 157.182 39.9625C156.798 40.0318 156.489 40.1225 156.254 40.2345C156.02 40.3465 155.852 40.4771 155.75 40.6265C155.654 40.7758 155.606 40.9385 155.606 41.1145C155.606 41.4611 155.708 41.7091 155.91 41.8585C156.118 42.0078 156.388 42.0825 156.718 42.0825ZM162.501 43.3145V35.1065H163.709C163.965 35.1065 164.133 35.2265 164.213 35.4665L164.349 36.1145C164.515 35.9438 164.688 35.7891 164.869 35.6505C165.056 35.5118 165.251 35.3918 165.453 35.2905C165.661 35.1891 165.883 35.1118 166.117 35.0585C166.352 35.0051 166.608 34.9785 166.885 34.9785C167.333 34.9785 167.731 35.0558 168.077 35.2105C168.424 35.3598 168.712 35.5731 168.941 35.8505C169.176 36.1225 169.352 36.4505 169.469 36.8345C169.592 37.2131 169.653 37.6318 169.653 38.0905V43.3145H167.677V38.0905C167.677 37.5891 167.56 37.2025 167.325 36.9305C167.096 36.6531 166.749 36.5145 166.285 36.5145C165.944 36.5145 165.624 36.5918 165.325 36.7465C165.027 36.9011 164.744 37.1118 164.477 37.3785V43.3145H162.501ZM176.467 36.7065C176.414 36.7918 176.358 36.8531 176.299 36.8905C176.24 36.9225 176.166 36.9385 176.075 36.9385C175.979 36.9385 175.875 36.9118 175.763 36.8585C175.656 36.8051 175.531 36.7465 175.387 36.6825C175.243 36.6131 175.078 36.5518 174.891 36.4985C174.71 36.4451 174.494 36.4185 174.243 36.4185C173.854 36.4185 173.547 36.5011 173.323 36.6665C173.099 36.8318 172.987 37.0478 172.987 37.3145C172.987 37.4905 173.043 37.6398 173.155 37.7625C173.272 37.8798 173.424 37.9838 173.611 38.0745C173.803 38.1651 174.019 38.2478 174.259 38.3225C174.499 38.3918 174.744 38.4691 174.995 38.5545C175.246 38.6398 175.491 38.7385 175.731 38.8505C175.971 38.9571 176.184 39.0958 176.371 39.2665C176.563 39.4318 176.715 39.6318 176.827 39.8665C176.944 40.1011 177.003 40.3838 177.003 40.7145C177.003 41.1091 176.931 41.4745 176.787 41.8105C176.643 42.1411 176.432 42.4291 176.155 42.6745C175.878 42.9145 175.534 43.1038 175.123 43.2425C174.718 43.3758 174.251 43.4425 173.723 43.4425C173.44 43.4425 173.163 43.4158 172.891 43.3625C172.624 43.3145 172.366 43.2451 172.115 43.1545C171.87 43.0638 171.64 42.9571 171.427 42.8345C171.219 42.7118 171.035 42.5785 170.875 42.4345L171.331 41.6825C171.39 41.5918 171.459 41.5225 171.539 41.4745C171.619 41.4265 171.72 41.4025 171.843 41.4025C171.966 41.4025 172.08 41.4371 172.187 41.5065C172.299 41.5758 172.427 41.6505 172.571 41.7305C172.715 41.8105 172.883 41.8851 173.075 41.9545C173.272 42.0238 173.52 42.0585 173.819 42.0585C174.054 42.0585 174.254 42.0318 174.419 41.9785C174.59 41.9198 174.728 41.8451 174.835 41.7545C174.947 41.6638 175.027 41.5598 175.075 41.4425C175.128 41.3198 175.155 41.1945 175.155 41.0665C175.155 40.8745 175.096 40.7171 174.979 40.5945C174.867 40.4718 174.715 40.3651 174.523 40.2745C174.336 40.1838 174.12 40.1038 173.875 40.0345C173.635 39.9598 173.387 39.8798 173.131 39.7945C172.88 39.7091 172.632 39.6105 172.387 39.4985C172.147 39.3811 171.931 39.2345 171.739 39.0585C171.552 38.8825 171.4 38.6665 171.283 38.4105C171.171 38.1545 171.115 37.8451 171.115 37.4825C171.115 37.1465 171.182 36.8265 171.315 36.5225C171.448 36.2185 171.643 35.9545 171.899 35.7305C172.16 35.5011 172.483 35.3198 172.867 35.1865C173.256 35.0478 173.704 34.9785 174.211 34.9785C174.776 34.9785 175.291 35.0718 175.755 35.2585C176.219 35.4451 176.606 35.6905 176.915 35.9945L176.467 36.7065ZM177.579 35.1065H179.147C179.297 35.1065 179.422 35.1411 179.523 35.2105C179.625 35.2798 179.689 35.3678 179.715 35.4745L180.891 39.8585C180.955 40.0985 181.006 40.3331 181.043 40.5625C181.086 40.7918 181.126 41.0211 181.163 41.2505C181.222 41.0211 181.283 40.7918 181.347 40.5625C181.417 40.3331 181.489 40.0985 181.563 39.8585L182.923 35.4585C182.955 35.3518 183.019 35.2638 183.115 35.1945C183.211 35.1251 183.323 35.0905 183.451 35.0905H184.323C184.467 35.0905 184.587 35.1251 184.683 35.1945C184.779 35.2638 184.843 35.3518 184.875 35.4585L186.219 39.9385C186.289 40.1678 186.35 40.3918 186.403 40.6105C186.462 40.8238 186.518 41.0398 186.571 41.2585C186.609 41.0291 186.649 40.7998 186.691 40.5705C186.739 40.3411 186.798 40.1038 186.867 39.8585L188.083 35.4745C188.11 35.3678 188.174 35.2798 188.275 35.2105C188.377 35.1411 188.494 35.1065 188.627 35.1065H190.123L187.523 43.3145H185.931C185.761 43.3145 185.638 43.1971 185.563 42.9625L184.083 38.2185C184.035 38.0638 183.99 37.9091 183.947 37.7545C183.91 37.5945 183.878 37.4371 183.851 37.2825C183.819 37.4425 183.785 37.6025 183.747 37.7625C183.71 37.9171 183.667 38.0745 183.619 38.2345L182.123 42.9625C182.049 43.1971 181.905 43.3145 181.691 43.3145H180.179L177.579 35.1065ZM194.628 34.9785C195.145 34.9785 195.62 35.0611 196.052 35.2265C196.489 35.3918 196.865 35.6345 197.18 35.9545C197.494 36.2691 197.74 36.6585 197.916 37.1225C198.092 37.5811 198.18 38.1065 198.18 38.6985C198.18 38.8478 198.172 38.9731 198.156 39.0745C198.145 39.1705 198.121 39.2478 198.084 39.3065C198.052 39.3598 198.006 39.3998 197.948 39.4265C197.889 39.4478 197.814 39.4585 197.724 39.4585H192.652C192.71 40.3011 192.937 40.9198 193.332 41.3145C193.726 41.7091 194.249 41.9065 194.9 41.9065C195.22 41.9065 195.494 41.8691 195.724 41.7945C195.958 41.7198 196.161 41.6371 196.332 41.5465C196.508 41.4558 196.66 41.3731 196.788 41.2985C196.921 41.2238 197.049 41.1865 197.172 41.1865C197.252 41.1865 197.321 41.2025 197.38 41.2345C197.438 41.2665 197.489 41.3118 197.532 41.3705L198.108 42.0905C197.889 42.3465 197.644 42.5625 197.372 42.7385C197.1 42.9091 196.814 43.0478 196.516 43.1545C196.222 43.2558 195.921 43.3278 195.612 43.3705C195.308 43.4131 195.012 43.4345 194.724 43.4345C194.153 43.4345 193.622 43.3411 193.132 43.1545C192.641 42.9625 192.214 42.6825 191.852 42.3145C191.489 41.9411 191.204 41.4825 190.996 40.9385C190.788 40.3891 190.684 39.7545 190.684 39.0345C190.684 38.4745 190.774 37.9491 190.956 37.4585C191.137 36.9625 191.396 36.5331 191.732 36.1705C192.073 35.8025 192.486 35.5118 192.972 35.2985C193.462 35.0851 194.014 34.9785 194.628 34.9785ZM194.668 36.3945C194.092 36.3945 193.641 36.5571 193.316 36.8825C192.99 37.2078 192.782 37.6691 192.692 38.2665H196.404C196.404 38.0105 196.369 37.7705 196.3 37.5465C196.23 37.3171 196.124 37.1171 195.98 36.9465C195.836 36.7758 195.654 36.6425 195.436 36.5465C195.217 36.4451 194.961 36.3945 194.668 36.3945ZM199.783 43.3145V35.1065H200.943C201.145 35.1065 201.287 35.1438 201.367 35.2185C201.447 35.2931 201.5 35.4211 201.527 35.6025L201.647 36.5945C201.94 36.0878 202.284 35.6878 202.679 35.3945C203.073 35.1011 203.516 34.9545 204.007 34.9545C204.412 34.9545 204.748 35.0478 205.015 35.2345L204.759 36.7145C204.743 36.8105 204.708 36.8798 204.655 36.9225C204.601 36.9598 204.529 36.9785 204.439 36.9785C204.359 36.9785 204.249 36.9598 204.111 36.9225C203.972 36.8851 203.788 36.8665 203.559 36.8665C203.148 36.8665 202.796 36.9811 202.503 37.2105C202.209 37.4345 201.961 37.7651 201.759 38.2025V43.3145H199.783ZM212.32 45.5705C212.261 45.7091 212.184 45.8131 212.088 45.8825C211.997 45.9571 211.856 45.9945 211.664 45.9945H210.192L211.728 42.7065L208.408 35.1065H210.136C210.296 35.1065 210.418 35.1438 210.504 35.2185C210.589 35.2931 210.653 35.3785 210.696 35.4745L212.448 39.7305C212.506 39.8691 212.557 40.0131 212.6 40.1625C212.642 40.3118 212.68 40.4611 212.712 40.6105C212.754 40.4558 212.8 40.3065 212.848 40.1625C212.901 40.0185 212.957 39.8718 213.016 39.7225L214.664 35.4745C214.706 35.3678 214.776 35.2798 214.872 35.2105C214.973 35.1411 215.085 35.1065 215.208 35.1065H216.792L212.32 45.5705ZM221.177 34.9785C221.791 34.9785 222.345 35.0771 222.841 35.2745C223.343 35.4718 223.769 35.7518 224.121 36.1145C224.473 36.4771 224.745 36.9198 224.937 37.4425C225.129 37.9651 225.225 38.5491 225.225 39.1945C225.225 39.8451 225.129 40.4318 224.937 40.9545C224.745 41.4771 224.473 41.9225 224.121 42.2905C223.769 42.6585 223.343 42.9411 222.841 43.1385C222.345 43.3358 221.791 43.4345 221.177 43.4345C220.564 43.4345 220.007 43.3358 219.505 43.1385C219.004 42.9411 218.575 42.6585 218.217 42.2905C217.865 41.9225 217.591 41.4771 217.393 40.9545C217.201 40.4318 217.105 39.8451 217.105 39.1945C217.105 38.5491 217.201 37.9651 217.393 37.4425C217.591 36.9198 217.865 36.4771 218.217 36.1145C218.575 35.7518 219.004 35.4718 219.505 35.2745C220.007 35.0771 220.564 34.9785 221.177 34.9785ZM221.177 41.9145C221.86 41.9145 222.364 41.6851 222.689 41.2265C223.02 40.7678 223.185 40.0958 223.185 39.2105C223.185 38.3251 223.02 37.6505 222.689 37.1865C222.364 36.7225 221.86 36.4905 221.177 36.4905C220.484 36.4905 219.972 36.7251 219.641 37.1945C219.311 37.6585 219.145 38.3305 219.145 39.2105C219.145 40.0905 219.311 40.7625 219.641 41.2265C219.972 41.6851 220.484 41.9145 221.177 41.9145ZM228.575 35.1065V40.3225C228.575 40.8238 228.69 41.2131 228.919 41.4905C229.154 41.7625 229.503 41.8985 229.967 41.8985C230.308 41.8985 230.628 41.8238 230.927 41.6745C231.226 41.5198 231.508 41.3091 231.775 41.0425V35.1065H233.751V43.3145H232.543C232.287 43.3145 232.119 43.1945 232.039 42.9545L231.903 42.2985C231.732 42.4691 231.556 42.6265 231.375 42.7705C231.194 42.9091 230.999 43.0291 230.791 43.1305C230.588 43.2265 230.367 43.3011 230.127 43.3545C229.892 43.4131 229.639 43.4425 229.367 43.4425C228.919 43.4425 228.522 43.3678 228.175 43.2185C227.834 43.0638 227.546 42.8478 227.311 42.5705C227.076 42.2931 226.898 41.9651 226.775 41.5865C226.658 41.2025 226.599 40.7811 226.599 40.3225V35.1065H228.575ZM235.861 43.3145V35.1065H237.021C237.223 35.1065 237.365 35.1438 237.445 35.2185C237.525 35.2931 237.578 35.4211 237.605 35.6025L237.725 36.5945C238.018 36.0878 238.362 35.6878 238.757 35.3945C239.151 35.1011 239.594 34.9545 240.085 34.9545C240.49 34.9545 240.826 35.0478 241.093 35.2345L240.837 36.7145C240.821 36.8105 240.786 36.8798 240.733 36.9225C240.679 36.9598 240.607 36.9785 240.517 36.9785C240.437 36.9785 240.327 36.9598 240.189 36.9225C240.05 36.8851 239.866 36.8665 239.637 36.8665C239.226 36.8665 238.874 36.9811 238.581 37.2105C238.287 37.4345 238.039 37.7651 237.837 38.2025V43.3145H235.861ZM251.254 36.8425C251.195 36.9171 251.136 36.9758 251.078 37.0185C251.024 37.0611 250.944 37.0825 250.838 37.0825C250.736 37.0825 250.638 37.0531 250.542 36.9945C250.446 36.9305 250.331 36.8611 250.198 36.7865C250.064 36.7065 249.904 36.6371 249.718 36.5785C249.536 36.5145 249.31 36.4825 249.038 36.4825C248.691 36.4825 248.387 36.5465 248.126 36.6745C247.864 36.7971 247.646 36.9758 247.47 37.2105C247.299 37.4451 247.171 37.7305 247.086 38.0665C247 38.3971 246.958 38.7731 246.958 39.1945C246.958 39.6318 247.003 40.0211 247.094 40.3625C247.19 40.7038 247.326 40.9918 247.502 41.2265C247.678 41.4558 247.891 41.6318 248.142 41.7545C248.392 41.8718 248.675 41.9305 248.99 41.9305C249.304 41.9305 249.558 41.8931 249.75 41.8185C249.947 41.7385 250.112 41.6531 250.246 41.5625C250.379 41.4665 250.494 41.3811 250.59 41.3065C250.691 41.2265 250.803 41.1865 250.926 41.1865C251.086 41.1865 251.206 41.2478 251.286 41.3705L251.854 42.0905C251.635 42.3465 251.398 42.5625 251.142 42.7385C250.886 42.9091 250.619 43.0478 250.342 43.1545C250.07 43.2558 249.787 43.3278 249.494 43.3705C249.2 43.4131 248.91 43.4345 248.622 43.4345C248.115 43.4345 247.638 43.3411 247.19 43.1545C246.742 42.9625 246.35 42.6851 246.014 42.3225C245.683 41.9598 245.419 41.5171 245.222 40.9945C245.03 40.4665 244.934 39.8665 244.934 39.1945C244.934 38.5918 245.019 38.0345 245.19 37.5225C245.366 37.0051 245.622 36.5598 245.958 36.1865C246.294 35.8078 246.71 35.5118 247.206 35.2985C247.702 35.0851 248.272 34.9785 248.918 34.9785C249.531 34.9785 250.067 35.0771 250.526 35.2745C250.99 35.4718 251.406 35.7545 251.774 36.1225L251.254 36.8425ZM259.543 43.3145H258.655C258.468 43.3145 258.321 43.2878 258.215 43.2345C258.108 43.1758 258.028 43.0611 257.975 42.8905L257.799 42.3065C257.591 42.4931 257.385 42.6585 257.183 42.8025C256.985 42.9411 256.78 43.0585 256.567 43.1545C256.353 43.2505 256.127 43.3225 255.887 43.3705C255.647 43.4185 255.38 43.4425 255.087 43.4425C254.74 43.4425 254.42 43.3971 254.127 43.3065C253.833 43.2105 253.58 43.0691 253.367 42.8825C253.159 42.6958 252.996 42.4638 252.879 42.1865C252.761 41.9091 252.703 41.5865 252.703 41.2185C252.703 40.9091 252.783 40.6051 252.943 40.3065C253.108 40.0025 253.38 39.7305 253.759 39.4905C254.137 39.2451 254.641 39.0425 255.271 38.8825C255.9 38.7225 256.681 38.6318 257.615 38.6105V38.1305C257.615 37.5811 257.497 37.1758 257.263 36.9145C257.033 36.6478 256.697 36.5145 256.255 36.5145C255.935 36.5145 255.668 36.5518 255.455 36.6265C255.241 36.7011 255.055 36.7865 254.895 36.8825C254.74 36.9731 254.596 37.0558 254.463 37.1305C254.329 37.2051 254.183 37.2425 254.023 37.2425C253.889 37.2425 253.775 37.2078 253.679 37.1385C253.583 37.0691 253.505 36.9838 253.447 36.8825L253.087 36.2505C254.031 35.3865 255.169 34.9545 256.503 34.9545C256.983 34.9545 257.409 35.0345 257.783 35.1945C258.161 35.3491 258.481 35.5678 258.743 35.8505C259.004 36.1278 259.201 36.4611 259.335 36.8505C259.473 37.2398 259.543 37.6665 259.543 38.1305V43.3145ZM255.703 42.0825C255.905 42.0825 256.092 42.0638 256.263 42.0265C256.433 41.9891 256.593 41.9331 256.743 41.8585C256.897 41.7838 257.044 41.6931 257.183 41.5865C257.327 41.4745 257.471 41.3438 257.615 41.1945V39.8105C257.039 39.8371 256.556 39.8878 256.167 39.9625C255.783 40.0318 255.473 40.1225 255.239 40.2345C255.004 40.3465 254.836 40.4771 254.735 40.6265C254.639 40.7758 254.591 40.9385 254.591 41.1145C254.591 41.4611 254.692 41.7091 254.895 41.8585C255.103 42.0078 255.372 42.0825 255.703 42.0825ZM263.59 31.4265V43.3145H261.614V31.4265H263.59ZM267.933 31.4265V43.3145H265.957V31.4265H267.933ZM269.701 42.2265C269.701 42.0611 269.731 41.9038 269.789 41.7545C269.853 41.6051 269.939 41.4771 270.045 41.3705C270.157 41.2638 270.288 41.1785 270.437 41.1145C270.587 41.0505 270.747 41.0185 270.917 41.0185C271.083 41.0185 271.24 41.0505 271.389 41.1145C271.539 41.1785 271.667 41.2638 271.773 41.3705C271.88 41.4771 271.965 41.6051 272.029 41.7545C272.093 41.9038 272.125 42.0611 272.125 42.2265C272.125 42.3971 272.093 42.5571 272.029 42.7065C271.965 42.8505 271.88 42.9758 271.773 43.0825C271.667 43.1891 271.539 43.2718 271.389 43.3305C271.24 43.3945 271.083 43.4265 270.917 43.4265C270.747 43.4265 270.587 43.3945 270.437 43.3305C270.288 43.2718 270.157 43.1891 270.045 43.0825C269.939 42.9758 269.853 42.8505 269.789 42.7065C269.731 42.5571 269.701 42.3971 269.701 42.2265Z" fill="white"/>
</g>
<defs>
<filter id="filter0_d" x="0.443359" y="0.426514" width="314.74" height="66.568" filterUnits="userSpaceOnUse" color-interpolation-filters="sRGB">
<feFlood flood-opacity="0" result="BackgroundImageFix"/>
<feColorMatrix in="SourceAlpha" type="matrix" values="0 0 0 0 0 0 0 0 0 0 0 0 0 0 0 0 0 0 127 0"/>
<feOffset dy="7"/>
<feGaussianBlur stdDeviation="7"/>
<feColorMatrix type="matrix" values="0 0 0 0 0 0 0 0 0 0 0 0 0 0 0 0 0 0 0.1 0"/>
<feBlend mode="normal" in2="BackgroundImageFix" result="effect1_dropShadow"/>
<feBlend mode="normal" in="SourceGraphic" in2="effect1_dropShadow" result="shape"/>
</filter>
</defs>
</svg>
