<svg width="336" height="97" viewBox="0 0 336 97" fill="none" xmlns="http://www.w3.org/2000/svg">
<g filter="url(#filter0_d)">
<path d="M0 12C0 5.37258 5.37258 0 12 0H324C330.627 0 336 5.37258 336 12V76H0V12Z" fill="#F3F4F9"/>
<rect x="280.5" y="20.5" width="35" height="35" rx="7.5" fill="white" stroke="#F3F4F9"/>
<path d="M301.445 35.4336L302.5 36.4883L298 40.9883L293.5 36.4883L294.555 35.4336L298 38.8789L301.445 35.4336Z" fill="#828282"/>
<rect x="87" y="16" width="43" height="43" rx="7.5" fill="white" stroke="#F3F4F9"/>
<path d="M112.473 36.7617H113.738C113.738 38.0273 113.293 39.1406 112.402 40.1016C111.535 41.0391 110.48 41.6016 109.238 41.7891V44.25H107.762V41.7891C106.52 41.6016 105.453 41.0391 104.562 40.1016C103.695 39.1406 103.262 38.0273 103.262 36.7617H104.527C104.527 37.8633 104.914 38.7773 105.688 39.5039C106.484 40.207 107.422 40.5586 108.5 40.5586C109.578 40.5586 110.504 40.207 111.277 39.5039C112.074 38.7773 112.473 37.8633 112.473 36.7617ZM110.082 38.3438C109.637 38.7891 109.109 39.0117 108.5 39.0117C107.891 39.0117 107.363 38.7891 106.918 38.3438C106.473 37.8984 106.25 37.3711 106.25 36.7617V32.2617C106.25 31.6523 106.473 31.125 106.918 30.6797C107.363 30.2344 107.891 30.0117 108.5 30.0117C109.109 30.0117 109.637 30.2344 110.082 30.6797C110.527 31.125 110.75 31.6523 110.75 32.2617V36.7617C110.75 37.3711 110.527 37.8984 110.082 38.3438Z" fill="#0F80E9"/>
<rect x="146.5" y="15.5" width="44" height="44" rx="8" fill="#EF6954"/>
<path d="M168.5 35.25C167.281 35.25 166.133 35.4258 165.055 35.7773V38.0977C165.055 38.4492 164.914 38.6836 164.633 38.8008C163.883 39.1523 163.215 39.6094 162.629 40.1719C162.488 40.3125 162.312 40.3828 162.102 40.3828C161.891 40.3828 161.715 40.3125 161.574 40.1719L159.711 38.3086C159.57 38.168 159.5 37.9922 159.5 37.7812C159.5 37.5703 159.57 37.3945 159.711 37.2539C162.172 34.9102 165.102 33.7383 168.5 33.7383C171.898 33.7383 174.828 34.9102 177.289 37.2539C177.43 37.3945 177.5 37.5703 177.5 37.7812C177.5 37.9922 177.43 38.168 177.289 38.3086L175.426 40.1719C175.285 40.3125 175.109 40.3828 174.898 40.3828C174.688 40.3828 174.512 40.3125 174.371 40.1719C173.785 39.6094 173.117 39.1523 172.367 38.8008C172.086 38.6836 171.945 38.4609 171.945 38.1328V35.8125C170.773 35.4375 169.625 35.25 168.5 35.25Z" fill="white"/>
<rect x="207" y="16" width="43" height="43" rx="7.5" fill="white" stroke="#F3F4F9"/>
<path d="M232.262 36.375L235.25 33.3867V41.6133L232.262 38.625V41.2617C232.262 41.4727 232.18 41.6484 232.016 41.7891C231.875 41.9297 231.699 42 231.488 42H222.488C222.277 42 222.102 41.9297 221.961 41.7891C221.82 41.6484 221.75 41.4727 221.75 41.2617V33.7383C221.75 33.5273 221.82 33.3516 221.961 33.2109C222.102 33.0703 222.277 33 222.488 33H231.488C231.699 33 231.875 33.0703 232.016 33.2109C232.18 33.3516 232.262 33.5273 232.262 33.7383V36.375Z" fill="#0F80E9"/>
</g>
<defs>
<filter id="filter0_d" x="-14" y="-7" width="364" height="104" filterUnits="userSpaceOnUse" color-interpolation-filters="sRGB">
<feFlood flood-opacity="0" result="BackgroundImageFix"/>
<feColorMatrix in="SourceAlpha" type="matrix" values="0 0 0 0 0 0 0 0 0 0 0 0 0 0 0 0 0 0 127 0"/>
<feOffset dy="7"/>
<feGaussianBlur stdDeviation="7"/>
<feColorMatrix type="matrix" values="0 0 0 0 0 0 0 0 0 0 0 0 0 0 0 0 0 0 0.1 0"/>
<feBlend mode="normal" in2="BackgroundImageFix" result="effect1_dropShadow"/>
<feBlend mode="normal" in="SourceGraphic" in2="effect1_dropShadow" result="shape"/>
</filter>
</defs>
</svg>
