<svg width="173" height="44" viewBox="0 0 173 44" fill="none" xmlns="http://www.w3.org/2000/svg">
<path d="M0 8C0 3.58172 3.58172 0 8 0H165C169.418 0 173 3.58172 173 8V36C173 40.4183 169.418 44 165 44H8C3.58172 44 0 40.4183 0 36V8Z" fill="url(#paint0_linear)"/>
<path d="M29.5 23.5117V17.5L26.5117 19.8906V17.5H20.5V23.5117H26.5117V21.0859L29.5 23.5117ZM31.0117 14.5117C31.4102 14.5117 31.75 14.6641 32.0312 14.9688C32.3359 15.25 32.4883 15.5898 32.4883 15.9883V24.9883C32.4883 25.3867 32.3359 25.7383 32.0312 26.043C31.75 26.3477 31.4102 26.5 31.0117 26.5H20.5L17.5117 29.4883V15.9883C17.5117 15.5898 17.6523 15.25 17.9336 14.9688C18.2383 14.6641 18.5898 14.5117 18.9883 14.5117H31.0117Z" fill="white"/>
<path d="M49.368 18.536C49.3093 18.6533 49.24 18.736 49.16 18.784C49.0853 18.832 48.9947 18.856 48.888 18.856C48.7813 18.856 48.6613 18.816 48.528 18.736C48.3947 18.6507 48.2373 18.5573 48.056 18.456C47.8747 18.3547 47.6613 18.264 47.416 18.184C47.176 18.0987 46.8907 18.056 46.56 18.056C46.2613 18.056 46 18.0933 45.776 18.168C45.5573 18.2373 45.3707 18.336 45.216 18.464C45.0667 18.592 44.9547 18.7467 44.88 18.928C44.8053 19.104 44.768 19.2987 44.768 19.512C44.768 19.784 44.8427 20.0107 44.992 20.192C45.1467 20.3733 45.3493 20.528 45.6 20.656C45.8507 20.784 46.136 20.8987 46.456 21C46.776 21.1013 47.1013 21.2107 47.432 21.328C47.768 21.44 48.096 21.5733 48.416 21.728C48.736 21.8773 49.0213 22.0693 49.272 22.304C49.5227 22.5333 49.7227 22.816 49.872 23.152C50.0267 23.488 50.104 23.896 50.104 24.376C50.104 24.8987 50.0133 25.3893 49.832 25.848C49.656 26.3013 49.3947 26.6987 49.048 27.04C48.7067 27.376 48.288 27.6427 47.792 27.84C47.296 28.032 46.728 28.128 46.088 28.128C45.72 28.128 45.3573 28.0907 45 28.016C44.6427 27.9467 44.2987 27.8453 43.968 27.712C43.6427 27.5787 43.336 27.4187 43.048 27.232C42.7653 27.0453 42.512 26.8373 42.288 26.608L42.912 25.576C42.9707 25.5013 43.04 25.44 43.12 25.392C43.2053 25.3387 43.2987 25.312 43.4 25.312C43.5333 25.312 43.6773 25.368 43.832 25.48C43.9867 25.5867 44.168 25.7067 44.376 25.84C44.5893 25.9733 44.8373 26.096 45.12 26.208C45.408 26.3147 45.752 26.368 46.152 26.368C46.7653 26.368 47.24 26.224 47.576 25.936C47.912 25.6427 48.08 25.224 48.08 24.68C48.08 24.376 48.0027 24.128 47.848 23.936C47.6987 23.744 47.4987 23.584 47.248 23.456C46.9973 23.3227 46.712 23.2107 46.392 23.12C46.072 23.0293 45.7467 22.9307 45.416 22.824C45.0853 22.7173 44.76 22.5893 44.44 22.44C44.12 22.2907 43.8347 22.096 43.584 21.856C43.3333 21.616 43.1307 21.3173 42.976 20.96C42.8267 20.5973 42.752 20.152 42.752 19.624C42.752 19.2027 42.8347 18.792 43 18.392C43.1707 17.992 43.416 17.6373 43.736 17.328C44.0613 17.0187 44.4587 16.7707 44.928 16.584C45.3973 16.3973 45.9333 16.304 46.536 16.304C47.2187 16.304 47.848 16.4107 48.424 16.624C49 16.8373 49.4907 17.136 49.896 17.52L49.368 18.536ZM54.3301 28.128C53.6208 28.128 53.0741 27.928 52.6901 27.528C52.3061 27.1227 52.1141 26.5653 52.1141 25.856V21.272H51.2821C51.1755 21.272 51.0821 21.2373 51.0021 21.168C50.9275 21.0987 50.8901 20.9947 50.8901 20.856V20.072L52.2101 19.856L52.6261 17.616C52.6475 17.5093 52.6955 17.4267 52.7701 17.368C52.8501 17.3093 52.9488 17.28 53.0661 17.28H54.0901V19.864H56.2501V21.272H54.0901V25.72C54.0901 25.976 54.1541 26.176 54.2821 26.32C54.4101 26.464 54.5808 26.536 54.7941 26.536C54.9168 26.536 55.0181 26.5227 55.0981 26.496C55.1835 26.464 55.2555 26.432 55.3141 26.4C55.3781 26.368 55.4341 26.3387 55.4821 26.312C55.5301 26.28 55.5781 26.264 55.6261 26.264C55.6848 26.264 55.7328 26.28 55.7701 26.312C55.8075 26.3387 55.8475 26.3813 55.8901 26.44L56.4821 27.4C56.1941 27.64 55.8635 27.8213 55.4901 27.944C55.1168 28.0667 54.7301 28.128 54.3301 28.128ZM64.2536 28H63.3656C63.179 28 63.0323 27.9733 62.9256 27.92C62.819 27.8613 62.739 27.7467 62.6856 27.576L62.5096 26.992C62.3016 27.1787 62.0963 27.344 61.8936 27.488C61.6963 27.6267 61.491 27.744 61.2776 27.84C61.0643 27.936 60.8376 28.008 60.5976 28.056C60.3576 28.104 60.091 28.128 59.7976 28.128C59.451 28.128 59.131 28.0827 58.8376 27.992C58.5443 27.896 58.291 27.7547 58.0776 27.568C57.8696 27.3813 57.707 27.1493 57.5896 26.872C57.4723 26.5947 57.4136 26.272 57.4136 25.904C57.4136 25.5947 57.4936 25.2907 57.6536 24.992C57.819 24.688 58.091 24.416 58.4696 24.176C58.8483 23.9307 59.3523 23.728 59.9816 23.568C60.611 23.408 61.3923 23.3173 62.3256 23.296V22.816C62.3256 22.2667 62.2083 21.8613 61.9736 21.6C61.7443 21.3333 61.4083 21.2 60.9656 21.2C60.6456 21.2 60.379 21.2373 60.1656 21.312C59.9523 21.3867 59.7656 21.472 59.6056 21.568C59.451 21.6587 59.307 21.7413 59.1736 21.816C59.0403 21.8907 58.8936 21.928 58.7336 21.928C58.6003 21.928 58.4856 21.8933 58.3896 21.824C58.2936 21.7547 58.2163 21.6693 58.1576 21.568L57.7976 20.936C58.7416 20.072 59.8803 19.64 61.2136 19.64C61.6936 19.64 62.1203 19.72 62.4936 19.88C62.8723 20.0347 63.1923 20.2533 63.4536 20.536C63.715 20.8133 63.9123 21.1467 64.0456 21.536C64.1843 21.9253 64.2536 22.352 64.2536 22.816V28ZM60.4136 26.768C60.6163 26.768 60.803 26.7493 60.9736 26.712C61.1443 26.6747 61.3043 26.6187 61.4536 26.544C61.6083 26.4693 61.755 26.3787 61.8936 26.272C62.0376 26.16 62.1816 26.0293 62.3256 25.88V24.496C61.7496 24.5227 61.267 24.5733 60.8776 24.648C60.4936 24.7173 60.1843 24.808 59.9496 24.92C59.715 25.032 59.547 25.1627 59.4456 25.312C59.3496 25.4613 59.3016 25.624 59.3016 25.8C59.3016 26.1467 59.403 26.3947 59.6056 26.544C59.8136 26.6933 60.083 26.768 60.4136 26.768ZM66.1966 28V19.792H67.3566C67.5593 19.792 67.7006 19.8293 67.7806 19.904C67.8606 19.9787 67.914 20.1067 67.9406 20.288L68.0606 21.28C68.354 20.7733 68.698 20.3733 69.0926 20.08C69.4873 19.7867 69.93 19.64 70.4206 19.64C70.826 19.64 71.162 19.7333 71.4286 19.92L71.1726 21.4C71.1566 21.496 71.122 21.5653 71.0686 21.608C71.0153 21.6453 70.9433 21.664 70.8526 21.664C70.7726 21.664 70.6633 21.6453 70.5246 21.608C70.386 21.5707 70.202 21.552 69.9726 21.552C69.562 21.552 69.21 21.6667 68.9166 21.896C68.6233 22.12 68.3753 22.4507 68.1726 22.888V28H66.1966ZM75.4239 28.128C74.7145 28.128 74.1679 27.928 73.7839 27.528C73.3999 27.1227 73.2079 26.5653 73.2079 25.856V21.272H72.3759C72.2692 21.272 72.1759 21.2373 72.0959 21.168C72.0212 21.0987 71.9839 20.9947 71.9839 20.856V20.072L73.3039 19.856L73.7199 17.616C73.7412 17.5093 73.7892 17.4267 73.8639 17.368C73.9439 17.3093 74.0425 17.28 74.1599 17.28H75.1839V19.864H77.3439V21.272H75.1839V25.72C75.1839 25.976 75.2479 26.176 75.3759 26.32C75.5039 26.464 75.6745 26.536 75.8879 26.536C76.0105 26.536 76.1119 26.5227 76.1919 26.496C76.2772 26.464 76.3492 26.432 76.4079 26.4C76.4719 26.368 76.5279 26.3387 76.5759 26.312C76.6239 26.28 76.6719 26.264 76.7199 26.264C76.7785 26.264 76.8265 26.28 76.8639 26.312C76.9012 26.3387 76.9412 26.3813 76.9839 26.44L77.5759 27.4C77.2879 27.64 76.9572 27.8213 76.5839 27.944C76.2105 28.0667 75.8239 28.128 75.4239 28.128ZM86.1211 28H84.3291L81.0651 19.792H82.7051C82.8491 19.792 82.9691 19.8267 83.0651 19.896C83.1665 19.9653 83.2358 20.0533 83.2731 20.16L84.8571 24.544C84.9478 24.8 85.0225 25.0507 85.0811 25.296C85.1451 25.5413 85.2011 25.7867 85.2491 26.032C85.2971 25.7867 85.3505 25.5413 85.4091 25.296C85.4731 25.0507 85.5531 24.8 85.6491 24.544L87.2731 20.16C87.3105 20.0533 87.3771 19.9653 87.4731 19.896C87.5691 19.8267 87.6838 19.792 87.8171 19.792H89.3771L86.1211 28ZM92.6444 19.792V28H90.6684V19.792H92.6444ZM92.9404 17.4C92.9404 17.5707 92.9057 17.7307 92.8364 17.88C92.767 18.0293 92.6737 18.16 92.5564 18.272C92.4444 18.384 92.311 18.4747 92.1564 18.544C92.0017 18.608 91.8364 18.64 91.6604 18.64C91.4897 18.64 91.327 18.608 91.1724 18.544C91.023 18.4747 90.8924 18.384 90.7804 18.272C90.6684 18.16 90.5777 18.0293 90.5084 17.88C90.4444 17.7307 90.4124 17.5707 90.4124 17.4C90.4124 17.224 90.4444 17.0587 90.5084 16.904C90.5777 16.7493 90.6684 16.616 90.7804 16.504C90.8924 16.392 91.023 16.304 91.1724 16.24C91.327 16.1707 91.4897 16.136 91.6604 16.136C91.8364 16.136 92.0017 16.1707 92.1564 16.24C92.311 16.304 92.4444 16.392 92.5564 16.504C92.6737 16.616 92.767 16.7493 92.8364 16.904C92.9057 17.0587 92.9404 17.224 92.9404 17.4ZM100.66 28C100.404 28 100.236 27.88 100.156 27.64L99.9961 26.848C99.8255 27.04 99.6468 27.2133 99.4601 27.368C99.2735 27.5227 99.0708 27.656 98.8521 27.768C98.6388 27.88 98.4068 27.9653 98.1561 28.024C97.9108 28.088 97.6441 28.12 97.3561 28.12C96.9081 28.12 96.4975 28.0267 96.1241 27.84C95.7508 27.6533 95.4281 27.384 95.1561 27.032C94.8895 26.6747 94.6815 26.2347 94.5321 25.712C94.3881 25.1893 94.3161 24.592 94.3161 23.92C94.3161 23.312 94.3988 22.7467 94.5641 22.224C94.7295 21.7013 94.9668 21.248 95.2761 20.864C95.5855 20.48 95.9561 20.1813 96.3881 19.968C96.8201 19.7493 97.3055 19.64 97.8441 19.64C98.3028 19.64 98.6948 19.7147 99.0201 19.864C99.3455 20.008 99.6361 20.2027 99.8921 20.448V16.112H101.868V28H100.66ZM98.0281 26.552C98.4388 26.552 98.7881 26.4667 99.0761 26.296C99.3641 26.1253 99.6361 25.8827 99.8921 25.568V21.888C99.6681 21.616 99.4228 21.424 99.1561 21.312C98.8948 21.2 98.6121 21.144 98.3081 21.144C98.0095 21.144 97.7375 21.2 97.4921 21.312C97.2521 21.424 97.0468 21.5947 96.8761 21.824C96.7108 22.048 96.5828 22.336 96.4921 22.688C96.4015 23.0347 96.3561 23.4453 96.3561 23.92C96.3561 24.4 96.3935 24.808 96.4681 25.144C96.5481 25.4747 96.6601 25.7467 96.8041 25.96C96.9481 26.168 97.1241 26.32 97.3321 26.416C97.5401 26.5067 97.7721 26.552 98.0281 26.552ZM107.401 19.664C107.918 19.664 108.393 19.7467 108.825 19.912C109.262 20.0773 109.638 20.32 109.953 20.64C110.268 20.9547 110.513 21.344 110.689 21.808C110.865 22.2667 110.953 22.792 110.953 23.384C110.953 23.5333 110.945 23.6587 110.929 23.76C110.918 23.856 110.894 23.9333 110.857 23.992C110.825 24.0453 110.78 24.0853 110.721 24.112C110.662 24.1333 110.588 24.144 110.497 24.144H105.425C105.484 24.9867 105.71 25.6053 106.105 26C106.5 26.3947 107.022 26.592 107.673 26.592C107.993 26.592 108.268 26.5547 108.497 26.48C108.732 26.4053 108.934 26.3227 109.105 26.232C109.281 26.1413 109.433 26.0587 109.561 25.984C109.694 25.9093 109.822 25.872 109.945 25.872C110.025 25.872 110.094 25.888 110.153 25.92C110.212 25.952 110.262 25.9973 110.305 26.056L110.881 26.776C110.662 27.032 110.417 27.248 110.145 27.424C109.873 27.5947 109.588 27.7333 109.289 27.84C108.996 27.9413 108.694 28.0133 108.385 28.056C108.081 28.0987 107.785 28.12 107.497 28.12C106.926 28.12 106.396 28.0267 105.905 27.84C105.414 27.648 104.988 27.368 104.625 27C104.262 26.6267 103.977 26.168 103.769 25.624C103.561 25.0747 103.457 24.44 103.457 23.72C103.457 23.16 103.548 22.6347 103.729 22.144C103.91 21.648 104.169 21.2187 104.505 20.856C104.846 20.488 105.26 20.1973 105.745 19.984C106.236 19.7707 106.788 19.664 107.401 19.664ZM107.441 21.08C106.865 21.08 106.414 21.2427 106.089 21.568C105.764 21.8933 105.556 22.3547 105.465 22.952H109.177C109.177 22.696 109.142 22.456 109.073 22.232C109.004 22.0027 108.897 21.8027 108.753 21.632C108.609 21.4613 108.428 21.328 108.209 21.232C107.99 21.1307 107.734 21.08 107.441 21.08ZM116.06 19.664C116.673 19.664 117.228 19.7627 117.724 19.96C118.225 20.1573 118.652 20.4373 119.004 20.8C119.356 21.1627 119.628 21.6053 119.82 22.128C120.012 22.6507 120.108 23.2347 120.108 23.88C120.108 24.5307 120.012 25.1173 119.82 25.64C119.628 26.1627 119.356 26.608 119.004 26.976C118.652 27.344 118.225 27.6267 117.724 27.824C117.228 28.0213 116.673 28.12 116.06 28.12C115.447 28.12 114.889 28.0213 114.388 27.824C113.887 27.6267 113.457 27.344 113.1 26.976C112.748 26.608 112.473 26.1627 112.276 25.64C112.084 25.1173 111.988 24.5307 111.988 23.88C111.988 23.2347 112.084 22.6507 112.276 22.128C112.473 21.6053 112.748 21.1627 113.1 20.8C113.457 20.4373 113.887 20.1573 114.388 19.96C114.889 19.7627 115.447 19.664 116.06 19.664ZM116.06 26.6C116.743 26.6 117.247 26.3707 117.572 25.912C117.903 25.4533 118.068 24.7813 118.068 23.896C118.068 23.0107 117.903 22.336 117.572 21.872C117.247 21.408 116.743 21.176 116.06 21.176C115.367 21.176 114.855 21.4107 114.524 21.88C114.193 22.344 114.028 23.016 114.028 23.896C114.028 24.776 114.193 25.448 114.524 25.912C114.855 26.3707 115.367 26.6 116.06 26.6ZM130.512 21.528C130.453 21.6027 130.394 21.6613 130.336 21.704C130.282 21.7467 130.202 21.768 130.096 21.768C129.994 21.768 129.896 21.7387 129.8 21.68C129.704 21.616 129.589 21.5467 129.456 21.472C129.322 21.392 129.162 21.3227 128.976 21.264C128.794 21.2 128.568 21.168 128.296 21.168C127.949 21.168 127.645 21.232 127.384 21.36C127.122 21.4827 126.904 21.6613 126.728 21.896C126.557 22.1307 126.429 22.416 126.344 22.752C126.258 23.0827 126.216 23.4587 126.216 23.88C126.216 24.3173 126.261 24.7067 126.352 25.048C126.448 25.3893 126.584 25.6773 126.76 25.912C126.936 26.1413 127.149 26.3173 127.4 26.44C127.65 26.5573 127.933 26.616 128.248 26.616C128.562 26.616 128.816 26.5787 129.008 26.504C129.205 26.424 129.37 26.3387 129.504 26.248C129.637 26.152 129.752 26.0667 129.848 25.992C129.949 25.912 130.061 25.872 130.184 25.872C130.344 25.872 130.464 25.9333 130.544 26.056L131.112 26.776C130.893 27.032 130.656 27.248 130.4 27.424C130.144 27.5947 129.877 27.7333 129.6 27.84C129.328 27.9413 129.045 28.0133 128.752 28.056C128.458 28.0987 128.168 28.12 127.88 28.12C127.373 28.12 126.896 28.0267 126.448 27.84C126 27.648 125.608 27.3707 125.272 27.008C124.941 26.6453 124.677 26.2027 124.48 25.68C124.288 25.152 124.192 24.552 124.192 23.88C124.192 23.2773 124.277 22.72 124.448 22.208C124.624 21.6907 124.88 21.2453 125.216 20.872C125.552 20.4933 125.968 20.1973 126.464 19.984C126.96 19.7707 127.53 19.664 128.176 19.664C128.789 19.664 129.325 19.7627 129.784 19.96C130.248 20.1573 130.664 20.44 131.032 20.808L130.512 21.528ZM138.801 28H137.913C137.726 28 137.579 27.9733 137.473 27.92C137.366 27.8613 137.286 27.7467 137.233 27.576L137.057 26.992C136.849 27.1787 136.643 27.344 136.441 27.488C136.243 27.6267 136.038 27.744 135.825 27.84C135.611 27.936 135.385 28.008 135.145 28.056C134.905 28.104 134.638 28.128 134.345 28.128C133.998 28.128 133.678 28.0827 133.385 27.992C133.091 27.896 132.838 27.7547 132.625 27.568C132.417 27.3813 132.254 27.1493 132.137 26.872C132.019 26.5947 131.961 26.272 131.961 25.904C131.961 25.5947 132.041 25.2907 132.201 24.992C132.366 24.688 132.638 24.416 133.017 24.176C133.395 23.9307 133.899 23.728 134.529 23.568C135.158 23.408 135.939 23.3173 136.873 23.296V22.816C136.873 22.2667 136.755 21.8613 136.521 21.6C136.291 21.3333 135.955 21.2 135.513 21.2C135.193 21.2 134.926 21.2373 134.713 21.312C134.499 21.3867 134.313 21.472 134.153 21.568C133.998 21.6587 133.854 21.7413 133.721 21.816C133.587 21.8907 133.441 21.928 133.281 21.928C133.147 21.928 133.033 21.8933 132.937 21.824C132.841 21.7547 132.763 21.6693 132.705 21.568L132.345 20.936C133.289 20.072 134.427 19.64 135.761 19.64C136.241 19.64 136.667 19.72 137.041 19.88C137.419 20.0347 137.739 20.2533 138.001 20.536C138.262 20.8133 138.459 21.1467 138.593 21.536C138.731 21.9253 138.801 22.352 138.801 22.816V28ZM134.961 26.768C135.163 26.768 135.35 26.7493 135.521 26.712C135.691 26.6747 135.851 26.6187 136.001 26.544C136.155 26.4693 136.302 26.3787 136.441 26.272C136.585 26.16 136.729 26.0293 136.873 25.88V24.496C136.297 24.5227 135.814 24.5733 135.424 24.648C135.041 24.7173 134.731 24.808 134.497 24.92C134.262 25.032 134.094 25.1627 133.993 25.312C133.897 25.4613 133.849 25.624 133.849 25.8C133.849 26.1467 133.95 26.3947 134.153 26.544C134.361 26.6933 134.63 26.768 134.961 26.768ZM142.848 16.112V28H140.872V16.112H142.848ZM147.191 16.112V28H145.215V16.112H147.191Z" fill="white"/>
<defs>
<linearGradient id="paint0_linear" x1="151.552" y1="4.79968" x2="134.805" y2="73.6842" gradientUnits="userSpaceOnUse">
<stop stop-color="#29D965"/>
<stop offset="1" stop-color="#0F80E9"/>
</linearGradient>
</defs>
</svg>
