<svg width="364" height="159" viewBox="0 0 364 159" fill="none" xmlns="http://www.w3.org/2000/svg">
<g filter="url(#filter0_d)">
<rect x="14" y="7" width="336" height="131" rx="12" fill="url(#paint0_linear)"/>
<g filter="url(#filter1_d)">
<path d="M133.268 40.0347C133.386 40.0347 133.487 40.08 133.572 40.1707L134.42 41.0907C133.951 41.672 133.372 42.1174 132.684 42.4267C132.002 42.736 131.18 42.8907 130.22 42.8907C129.362 42.8907 128.588 42.744 127.9 42.4507C127.218 42.1574 126.634 41.7494 126.148 41.2267C125.663 40.704 125.29 40.08 125.028 39.3547C124.772 38.6294 124.644 37.8374 124.644 36.9787C124.644 36.1094 124.788 35.3147 125.076 34.5947C125.364 33.8694 125.77 33.2454 126.292 32.7227C126.815 32.2 127.439 31.7947 128.164 31.5067C128.895 31.2134 129.7 31.0667 130.58 31.0667C131.439 31.0667 132.188 31.2054 132.828 31.4827C133.474 31.7547 134.026 32.1174 134.484 32.5707L133.764 33.5707C133.722 33.6347 133.666 33.6907 133.596 33.7387C133.532 33.7867 133.442 33.8107 133.324 33.8107C133.202 33.8107 133.076 33.7627 132.948 33.6667C132.82 33.5707 132.658 33.4667 132.46 33.3547C132.263 33.2427 132.012 33.1387 131.708 33.0427C131.41 32.9467 131.028 32.8987 130.564 32.8987C130.02 32.8987 129.519 32.9947 129.06 33.1867C128.607 33.3734 128.215 33.6427 127.884 33.9947C127.559 34.3467 127.303 34.776 127.116 35.2827C126.935 35.784 126.844 36.3494 126.844 36.9787C126.844 37.6294 126.935 38.208 127.116 38.7147C127.303 39.2214 127.554 39.648 127.868 39.9947C128.183 40.3414 128.554 40.608 128.98 40.7947C129.407 40.976 129.866 41.0667 130.356 41.0667C130.65 41.0667 130.914 41.0507 131.148 41.0187C131.388 40.9867 131.607 40.936 131.804 40.8667C132.007 40.7974 132.196 40.7094 132.372 40.6027C132.554 40.4907 132.732 40.3547 132.908 40.1947C132.962 40.1467 133.018 40.1094 133.076 40.0827C133.135 40.0507 133.199 40.0347 133.268 40.0347ZM142.371 42.7627H141.483C141.296 42.7627 141.149 42.736 141.043 42.6827C140.936 42.624 140.856 42.5094 140.803 42.3387L140.627 41.7547C140.419 41.9414 140.213 42.1067 140.011 42.2507C139.813 42.3894 139.608 42.5067 139.395 42.6027C139.181 42.6987 138.955 42.7707 138.715 42.8187C138.475 42.8667 138.208 42.8907 137.915 42.8907C137.568 42.8907 137.248 42.8454 136.955 42.7547C136.661 42.6587 136.408 42.5174 136.195 42.3307C135.987 42.144 135.824 41.912 135.707 41.6347C135.589 41.3574 135.531 41.0347 135.531 40.6667C135.531 40.3574 135.611 40.0534 135.771 39.7547C135.936 39.4507 136.208 39.1787 136.587 38.9387C136.965 38.6934 137.469 38.4907 138.099 38.3307C138.728 38.1707 139.509 38.08 140.443 38.0587V37.5787C140.443 37.0294 140.325 36.624 140.091 36.3627C139.861 36.096 139.525 35.9627 139.083 35.9627C138.763 35.9627 138.496 36 138.283 36.0747C138.069 36.1494 137.883 36.2347 137.723 36.3307C137.568 36.4214 137.424 36.504 137.291 36.5787C137.157 36.6534 137.011 36.6907 136.851 36.6907C136.717 36.6907 136.603 36.656 136.507 36.5867C136.411 36.5174 136.333 36.432 136.275 36.3307L135.915 35.6987C136.859 34.8347 137.997 34.4027 139.331 34.4027C139.811 34.4027 140.237 34.4827 140.611 34.6427C140.989 34.7974 141.309 35.016 141.571 35.2987C141.832 35.576 142.029 35.9094 142.163 36.2987C142.301 36.688 142.371 37.1147 142.371 37.5787V42.7627ZM138.531 41.5307C138.733 41.5307 138.92 41.512 139.091 41.4747C139.261 41.4374 139.421 41.3814 139.571 41.3067C139.725 41.232 139.872 41.1414 140.011 41.0347C140.155 40.9227 140.299 40.792 140.443 40.6427V39.2587C139.867 39.2854 139.384 39.336 138.995 39.4107C138.611 39.48 138.301 39.5707 138.067 39.6827C137.832 39.7947 137.664 39.9254 137.563 40.0747C137.467 40.224 137.419 40.3867 137.419 40.5627C137.419 40.9094 137.52 41.1574 137.723 41.3067C137.931 41.456 138.2 41.5307 138.531 41.5307ZM146.418 30.8747V42.7627H144.442V30.8747H146.418ZM150.762 30.8747V42.7627H148.786V30.8747H150.762ZM155.095 34.5547H156.663C156.812 34.5547 156.938 34.5894 157.039 34.6587C157.14 34.728 157.204 34.816 157.231 34.9227L158.407 39.3067C158.471 39.5467 158.522 39.7814 158.559 40.0107C158.602 40.24 158.642 40.4694 158.679 40.6987C158.738 40.4694 158.799 40.24 158.863 40.0107C158.932 39.7814 159.004 39.5467 159.079 39.3067L160.439 34.9067C160.471 34.8 160.535 34.712 160.631 34.6427C160.727 34.5734 160.839 34.5387 160.967 34.5387H161.839C161.983 34.5387 162.103 34.5734 162.199 34.6427C162.295 34.712 162.359 34.8 162.391 34.9067L163.735 39.3867C163.804 39.616 163.866 39.84 163.919 40.0587C163.978 40.272 164.034 40.488 164.087 40.7067C164.124 40.4774 164.164 40.248 164.207 40.0187C164.255 39.7894 164.314 39.552 164.383 39.3067L165.599 34.9227C165.626 34.816 165.69 34.728 165.791 34.6587C165.892 34.5894 166.01 34.5547 166.143 34.5547H167.639L165.039 42.7627H163.447C163.276 42.7627 163.154 42.6454 163.079 42.4107L161.599 37.6667C161.551 37.512 161.506 37.3574 161.463 37.2027C161.426 37.0427 161.394 36.8854 161.367 36.7307C161.335 36.8907 161.3 37.0507 161.263 37.2107C161.226 37.3654 161.183 37.5227 161.135 37.6827L159.639 42.4107C159.564 42.6454 159.42 42.7627 159.207 42.7627H157.695L155.095 34.5547ZM170.855 34.5547V42.7627H168.879V34.5547H170.855ZM171.151 32.1627C171.151 32.3334 171.117 32.4934 171.047 32.6427C170.978 32.792 170.885 32.9227 170.767 33.0347C170.655 33.1467 170.522 33.2374 170.367 33.3067C170.213 33.3707 170.047 33.4027 169.871 33.4027C169.701 33.4027 169.538 33.3707 169.383 33.3067C169.234 33.2374 169.103 33.1467 168.991 33.0347C168.879 32.9227 168.789 32.792 168.719 32.6427C168.655 32.4934 168.623 32.3334 168.623 32.1627C168.623 31.9867 168.655 31.8214 168.719 31.6667C168.789 31.512 168.879 31.3787 168.991 31.2667C169.103 31.1547 169.234 31.0667 169.383 31.0027C169.538 30.9334 169.701 30.8987 169.871 30.8987C170.047 30.8987 170.213 30.9334 170.367 31.0027C170.522 31.0667 170.655 31.1547 170.767 31.2667C170.885 31.3787 170.978 31.512 171.047 31.6667C171.117 31.8214 171.151 31.9867 171.151 32.1627ZM175.199 30.8747V42.7627H173.223V30.8747H175.199ZM179.543 30.8747V42.7627H177.567V30.8747H179.543ZM189.748 36.1547C189.695 36.24 189.639 36.3014 189.58 36.3387C189.522 36.3707 189.447 36.3867 189.356 36.3867C189.26 36.3867 189.156 36.36 189.044 36.3067C188.938 36.2534 188.812 36.1947 188.668 36.1307C188.524 36.0614 188.359 36 188.172 35.9467C187.991 35.8934 187.775 35.8667 187.524 35.8667C187.135 35.8667 186.828 35.9494 186.604 36.1147C186.38 36.28 186.268 36.496 186.268 36.7627C186.268 36.9387 186.324 37.088 186.436 37.2107C186.554 37.328 186.706 37.432 186.892 37.5227C187.084 37.6134 187.3 37.696 187.54 37.7707C187.78 37.84 188.026 37.9174 188.276 38.0027C188.527 38.088 188.772 38.1867 189.012 38.2987C189.252 38.4054 189.466 38.544 189.652 38.7147C189.844 38.88 189.996 39.08 190.108 39.3147C190.226 39.5494 190.284 39.832 190.284 40.1627C190.284 40.5574 190.212 40.9227 190.068 41.2587C189.924 41.5894 189.714 41.8774 189.436 42.1227C189.159 42.3627 188.815 42.552 188.404 42.6907C187.999 42.824 187.532 42.8907 187.004 42.8907C186.722 42.8907 186.444 42.864 186.172 42.8107C185.906 42.7627 185.647 42.6934 185.396 42.6027C185.151 42.512 184.922 42.4054 184.708 42.2827C184.5 42.16 184.316 42.0267 184.156 41.8827L184.612 41.1307C184.671 41.04 184.74 40.9707 184.82 40.9227C184.9 40.8747 185.002 40.8507 185.124 40.8507C185.247 40.8507 185.362 40.8854 185.468 40.9547C185.58 41.024 185.708 41.0987 185.852 41.1787C185.996 41.2587 186.164 41.3334 186.356 41.4027C186.554 41.472 186.802 41.5067 187.1 41.5067C187.335 41.5067 187.535 41.48 187.7 41.4267C187.871 41.368 188.01 41.2934 188.116 41.2027C188.228 41.112 188.308 41.008 188.356 40.8907C188.41 40.768 188.436 40.6427 188.436 40.5147C188.436 40.3227 188.378 40.1654 188.26 40.0427C188.148 39.92 187.996 39.8134 187.804 39.7227C187.618 39.632 187.402 39.552 187.156 39.4827C186.916 39.408 186.668 39.328 186.412 39.2427C186.162 39.1574 185.914 39.0587 185.668 38.9467C185.428 38.8294 185.212 38.6827 185.02 38.5067C184.834 38.3307 184.682 38.1147 184.564 37.8587C184.452 37.6027 184.396 37.2934 184.396 36.9307C184.396 36.5947 184.463 36.2747 184.596 35.9707C184.73 35.6667 184.924 35.4027 185.18 35.1787C185.442 34.9494 185.764 34.768 186.148 34.6347C186.538 34.496 186.986 34.4267 187.492 34.4267C188.058 34.4267 188.572 34.52 189.036 34.7067C189.5 34.8934 189.887 35.1387 190.196 35.4427L189.748 36.1547ZM194.557 42.8907C193.847 42.8907 193.301 42.6907 192.917 42.2907C192.533 41.8854 192.341 41.328 192.341 40.6187V36.0347H191.509C191.402 36.0347 191.309 36 191.229 35.9307C191.154 35.8614 191.117 35.7574 191.117 35.6187V34.8347L192.437 34.6187L192.853 32.3787C192.874 32.272 192.922 32.1894 192.997 32.1307C193.077 32.072 193.175 32.0427 193.293 32.0427H194.317V34.6267H196.477V36.0347H194.317V40.4827C194.317 40.7387 194.381 40.9387 194.509 41.0827C194.637 41.2267 194.807 41.2987 195.021 41.2987C195.143 41.2987 195.245 41.2854 195.325 41.2587C195.41 41.2267 195.482 41.1947 195.541 41.1627C195.605 41.1307 195.661 41.1014 195.709 41.0747C195.757 41.0427 195.805 41.0267 195.853 41.0267C195.911 41.0267 195.959 41.0427 195.997 41.0747C196.034 41.1014 196.074 41.144 196.117 41.2027L196.709 42.1627C196.421 42.4027 196.09 42.584 195.717 42.7067C195.343 42.8294 194.957 42.8907 194.557 42.8907ZM204.48 42.7627H203.592C203.406 42.7627 203.259 42.736 203.152 42.6827C203.046 42.624 202.966 42.5094 202.912 42.3387L202.736 41.7547C202.528 41.9414 202.323 42.1067 202.12 42.2507C201.923 42.3894 201.718 42.5067 201.504 42.6027C201.291 42.6987 201.064 42.7707 200.824 42.8187C200.584 42.8667 200.318 42.8907 200.024 42.8907C199.678 42.8907 199.358 42.8454 199.064 42.7547C198.771 42.6587 198.518 42.5174 198.304 42.3307C198.096 42.144 197.934 41.912 197.816 41.6347C197.699 41.3574 197.64 41.0347 197.64 40.6667C197.64 40.3574 197.72 40.0534 197.88 39.7547C198.046 39.4507 198.318 39.1787 198.696 38.9387C199.075 38.6934 199.579 38.4907 200.208 38.3307C200.838 38.1707 201.619 38.08 202.552 38.0587V37.5787C202.552 37.0294 202.435 36.624 202.2 36.3627C201.971 36.096 201.635 35.9627 201.192 35.9627C200.872 35.9627 200.606 36 200.392 36.0747C200.179 36.1494 199.992 36.2347 199.832 36.3307C199.678 36.4214 199.534 36.504 199.4 36.5787C199.267 36.6534 199.12 36.6907 198.96 36.6907C198.827 36.6907 198.712 36.656 198.616 36.5867C198.52 36.5174 198.443 36.432 198.384 36.3307L198.024 35.6987C198.968 34.8347 200.107 34.4027 201.44 34.4027C201.92 34.4027 202.347 34.4827 202.72 34.6427C203.099 34.7974 203.419 35.016 203.68 35.2987C203.942 35.576 204.139 35.9094 204.272 36.2987C204.411 36.688 204.48 37.1147 204.48 37.5787V42.7627ZM200.64 41.5307C200.843 41.5307 201.03 41.512 201.2 41.4747C201.371 41.4374 201.531 41.3814 201.68 41.3067C201.835 41.232 201.982 41.1414 202.12 41.0347C202.264 40.9227 202.408 40.792 202.552 40.6427V39.2587C201.976 39.2854 201.494 39.336 201.104 39.4107C200.72 39.48 200.411 39.5707 200.176 39.6827C199.942 39.7947 199.774 39.9254 199.672 40.0747C199.576 40.224 199.528 40.3867 199.528 40.5627C199.528 40.9094 199.63 41.1574 199.832 41.3067C200.04 41.456 200.31 41.5307 200.64 41.5307ZM206.423 42.7627V34.5547H207.583C207.786 34.5547 207.927 34.592 208.007 34.6667C208.087 34.7414 208.141 34.8694 208.167 35.0507L208.287 36.0427C208.581 35.536 208.925 35.136 209.319 34.8427C209.714 34.5494 210.157 34.4027 210.647 34.4027C211.053 34.4027 211.389 34.496 211.655 34.6827L211.399 36.1627C211.383 36.2587 211.349 36.328 211.295 36.3707C211.242 36.408 211.17 36.4267 211.079 36.4267C210.999 36.4267 210.89 36.408 210.751 36.3707C210.613 36.3334 210.429 36.3147 210.199 36.3147C209.789 36.3147 209.437 36.4294 209.143 36.6587C208.85 36.8827 208.602 37.2134 208.399 37.6507V42.7627H206.423ZM215.65 42.8907C214.941 42.8907 214.394 42.6907 214.01 42.2907C213.626 41.8854 213.434 41.328 213.434 40.6187V36.0347H212.602C212.496 36.0347 212.402 36 212.322 35.9307C212.248 35.8614 212.21 35.7574 212.21 35.6187V34.8347L213.53 34.6187L213.946 32.3787C213.968 32.272 214.016 32.1894 214.09 32.1307C214.17 32.072 214.269 32.0427 214.386 32.0427H215.41V34.6267H217.57V36.0347H215.41V40.4827C215.41 40.7387 215.474 40.9387 215.602 41.0827C215.73 41.2267 215.901 41.2987 216.114 41.2987C216.237 41.2987 216.338 41.2854 216.418 41.2587C216.504 41.2267 216.576 41.1947 216.634 41.1627C216.698 41.1307 216.754 41.1014 216.802 41.0747C216.85 41.0427 216.898 41.0267 216.946 41.0267C217.005 41.0267 217.053 41.0427 217.09 41.0747C217.128 41.1014 217.168 41.144 217.21 41.2027L217.802 42.1627C217.514 42.4027 217.184 42.584 216.81 42.7067C216.437 42.8294 216.05 42.8907 215.65 42.8907ZM224.34 34.5547V42.7627H222.364V34.5547H224.34ZM224.636 32.1627C224.636 32.3334 224.601 32.4934 224.532 32.6427C224.462 32.792 224.369 32.9227 224.252 33.0347C224.14 33.1467 224.006 33.2374 223.852 33.3067C223.697 33.3707 223.532 33.4027 223.356 33.4027C223.185 33.4027 223.022 33.3707 222.868 33.3067C222.718 33.2374 222.588 33.1467 222.476 33.0347C222.364 32.9227 222.273 32.792 222.204 32.6427C222.14 32.4934 222.108 32.3334 222.108 32.1627C222.108 31.9867 222.14 31.8214 222.204 31.6667C222.273 31.512 222.364 31.3787 222.476 31.2667C222.588 31.1547 222.718 31.0667 222.868 31.0027C223.022 30.9334 223.185 30.8987 223.356 30.8987C223.532 30.8987 223.697 30.9334 223.852 31.0027C224.006 31.0667 224.14 31.1547 224.252 31.2667C224.369 31.3787 224.462 31.512 224.532 31.6667C224.601 31.8214 224.636 31.9867 224.636 32.1627ZM226.579 42.7627V34.5547H227.787C228.043 34.5547 228.211 34.6747 228.291 34.9147L228.427 35.5627C228.593 35.392 228.766 35.2374 228.947 35.0987C229.134 34.96 229.329 34.84 229.531 34.7387C229.739 34.6374 229.961 34.56 230.195 34.5067C230.43 34.4534 230.686 34.4267 230.963 34.4267C231.411 34.4267 231.809 34.504 232.155 34.6587C232.502 34.808 232.79 35.0214 233.019 35.2987C233.254 35.5707 233.43 35.8987 233.547 36.2827C233.67 36.6614 233.731 37.08 233.731 37.5387V42.7627H231.755V37.5387C231.755 37.0374 231.638 36.6507 231.403 36.3787C231.174 36.1014 230.827 35.9627 230.363 35.9627C230.022 35.9627 229.702 36.04 229.403 36.1947C229.105 36.3494 228.822 36.56 228.555 36.8267V42.7627H226.579ZM235.521 41.6747C235.521 41.5094 235.551 41.352 235.609 41.2027C235.673 41.0534 235.759 40.9254 235.865 40.8187C235.977 40.712 236.108 40.6267 236.257 40.5627C236.407 40.4987 236.567 40.4667 236.737 40.4667C236.903 40.4667 237.06 40.4987 237.209 40.5627C237.359 40.6267 237.487 40.712 237.593 40.8187C237.7 40.9254 237.785 41.0534 237.849 41.2027C237.913 41.352 237.945 41.5094 237.945 41.6747C237.945 41.8454 237.913 42.0054 237.849 42.1547C237.785 42.2987 237.7 42.424 237.593 42.5307C237.487 42.6374 237.359 42.72 237.209 42.7787C237.06 42.8427 236.903 42.8747 236.737 42.8747C236.567 42.8747 236.407 42.8427 236.257 42.7787C236.108 42.72 235.977 42.6374 235.865 42.5307C235.759 42.424 235.673 42.2987 235.609 42.1547C235.551 42.0054 235.521 41.8454 235.521 41.6747ZM235.521 35.9707C235.521 35.8054 235.551 35.648 235.609 35.4987C235.673 35.3494 235.759 35.2214 235.865 35.1147C235.977 35.008 236.108 34.9227 236.257 34.8587C236.407 34.7947 236.567 34.7627 236.737 34.7627C236.903 34.7627 237.06 34.7947 237.209 34.8587C237.359 34.9227 237.487 35.008 237.593 35.1147C237.7 35.2214 237.785 35.3494 237.849 35.4987C237.913 35.648 237.945 35.8054 237.945 35.9707C237.945 36.1414 237.913 36.3014 237.849 36.4507C237.785 36.5947 237.7 36.72 237.593 36.8267C237.487 36.9334 237.359 37.0187 237.209 37.0827C237.06 37.1414 236.903 37.1707 236.737 37.1707C236.567 37.1707 236.407 37.1414 236.257 37.0827C236.108 37.0187 235.977 36.9334 235.865 36.8267C235.759 36.72 235.673 36.5947 235.609 36.4507C235.551 36.3014 235.521 36.1414 235.521 35.9707Z" fill="white"/>
</g>
<rect x="16.5" y="9.5" width="331" height="126" rx="9.5" stroke="white" stroke-width="5"/>
</g>
<defs>
<filter id="filter0_d" x="0" y="0" width="364" height="159" filterUnits="userSpaceOnUse" color-interpolation-filters="sRGB">
<feFlood flood-opacity="0" result="BackgroundImageFix"/>
<feColorMatrix in="SourceAlpha" type="matrix" values="0 0 0 0 0 0 0 0 0 0 0 0 0 0 0 0 0 0 127 0"/>
<feOffset dy="7"/>
<feGaussianBlur stdDeviation="7"/>
<feColorMatrix type="matrix" values="0 0 0 0 0 0 0 0 0 0 0 0 0 0 0 0 0 0 0.1 0"/>
<feBlend mode="normal" in2="BackgroundImageFix" result="effect1_dropShadow"/>
<feBlend mode="normal" in="SourceGraphic" in2="effect1_dropShadow" result="shape"/>
</filter>
<filter id="filter1_d" x="110.645" y="23.8747" width="141.301" height="40.016" filterUnits="userSpaceOnUse" color-interpolation-filters="sRGB">
<feFlood flood-opacity="0" result="BackgroundImageFix"/>
<feColorMatrix in="SourceAlpha" type="matrix" values="0 0 0 0 0 0 0 0 0 0 0 0 0 0 0 0 0 0 127 0"/>
<feOffset dy="7"/>
<feGaussianBlur stdDeviation="7"/>
<feColorMatrix type="matrix" values="0 0 0 0 0 0 0 0 0 0 0 0 0 0 0 0 0 0 0.1 0"/>
<feBlend mode="normal" in2="BackgroundImageFix" result="effect1_dropShadow"/>
<feBlend mode="normal" in="SourceGraphic" in2="effect1_dropShadow" result="shape"/>
</filter>
<linearGradient id="paint0_linear" x1="308.344" y1="21.29" x2="237.264" y2="212.01" gradientUnits="userSpaceOnUse">
<stop stop-color="#29D965"/>
<stop offset="1" stop-color="#0F80E9"/>
</linearGradient>
</defs>
</svg>
