<svg width="336" height="84" viewBox="0 0 336 84" fill="none" xmlns="http://www.w3.org/2000/svg">
<rect x="16" y="16" width="304" height="52" rx="12" fill="#F3F4F9"/>
<path d="M44.05 37.969V39.11H40.809V48H39.451V39.11H36.196V37.969H44.05ZM46.101 50.093C46.059 50.1863 46.0053 50.261 45.94 50.317C45.8793 50.373 45.7837 50.401 45.653 50.401H44.729L46.024 47.587L43.098 40.909H44.176C44.2833 40.909 44.3673 40.937 44.428 40.993C44.4887 41.0443 44.533 41.1027 44.561 41.168L46.458 45.634C46.5 45.7367 46.535 45.8393 46.563 45.942C46.5957 46.0447 46.6237 46.1497 46.647 46.257C46.6797 46.1497 46.7123 46.0447 46.745 45.942C46.7777 45.8393 46.815 45.7343 46.857 45.627L48.698 41.168C48.726 41.0933 48.7727 41.0327 48.838 40.986C48.908 40.9347 48.9827 40.909 49.062 40.909H50.056L46.101 50.093ZM51.1861 50.401V40.909H51.9281C52.1054 40.909 52.2174 40.9953 52.2641 41.168L52.3691 42.008C52.6724 41.6393 53.0177 41.343 53.4051 41.119C53.7971 40.895 54.2474 40.783 54.7561 40.783C55.1621 40.783 55.5307 40.8623 55.8621 41.021C56.1934 41.175 56.4757 41.406 56.7091 41.714C56.9424 42.0173 57.1221 42.3953 57.2481 42.848C57.3741 43.3007 57.4371 43.821 57.4371 44.409C57.4371 44.9317 57.3671 45.4193 57.2271 45.872C57.0871 46.32 56.8864 46.7097 56.6251 47.041C56.3637 47.3677 56.0417 47.6267 55.6591 47.818C55.2811 48.0047 54.8541 48.098 54.3781 48.098C53.9394 48.098 53.5637 48.0257 53.2511 47.881C52.9431 47.7363 52.6701 47.531 52.4321 47.265V50.401H51.1861ZM54.3431 41.791C53.9371 41.791 53.5801 41.8843 53.2721 42.071C52.9687 42.2577 52.6887 42.5213 52.4321 42.862V46.292C52.6607 46.6 52.9104 46.817 53.1811 46.943C53.4564 47.069 53.7621 47.132 54.0981 47.132C54.7561 47.132 55.2624 46.8963 55.6171 46.425C55.9717 45.9537 56.1491 45.2817 56.1491 44.409C56.1491 43.947 56.1071 43.5503 56.0231 43.219C55.9437 42.8877 55.8271 42.617 55.6731 42.407C55.5191 42.1923 55.3301 42.036 55.1061 41.938C54.8821 41.84 54.6277 41.791 54.3431 41.791ZM61.7177 40.797C62.1423 40.797 62.5343 40.8693 62.8937 41.014C63.253 41.154 63.5633 41.3593 63.8247 41.63C64.086 41.896 64.289 42.2273 64.4337 42.624C64.583 43.016 64.6577 43.464 64.6577 43.968C64.6577 44.164 64.6367 44.2947 64.5947 44.36C64.5527 44.4253 64.4733 44.458 64.3567 44.458H59.6387C59.648 44.906 59.7087 45.2957 59.8207 45.627C59.9327 45.9583 60.0867 46.236 60.2827 46.46C60.4787 46.6793 60.712 46.845 60.9827 46.957C61.2533 47.0643 61.5567 47.118 61.8927 47.118C62.2053 47.118 62.4737 47.083 62.6977 47.013C62.9263 46.9383 63.1223 46.859 63.2857 46.775C63.449 46.691 63.5843 46.614 63.6917 46.544C63.8037 46.4693 63.8993 46.432 63.9787 46.432C64.0813 46.432 64.1607 46.4717 64.2167 46.551L64.5667 47.006C64.4127 47.1927 64.2283 47.356 64.0137 47.496C63.799 47.6313 63.568 47.7433 63.3207 47.832C63.078 47.9207 62.826 47.986 62.5647 48.028C62.3033 48.0747 62.0443 48.098 61.7877 48.098C61.2977 48.098 60.845 48.0163 60.4297 47.853C60.019 47.685 59.662 47.4423 59.3587 47.125C59.06 46.803 58.8267 46.4063 58.6587 45.935C58.4907 45.4637 58.4067 44.9223 58.4067 44.311C58.4067 43.8163 58.4813 43.3543 58.6307 42.925C58.7847 42.4957 59.004 42.1247 59.2887 41.812C59.5733 41.4947 59.921 41.2473 60.3317 41.07C60.7423 40.888 61.2043 40.797 61.7177 40.797ZM61.7457 41.714C61.1437 41.714 60.67 41.889 60.3247 42.239C59.9793 42.5843 59.7647 43.065 59.6807 43.681H63.5377C63.5377 43.3917 63.498 43.128 63.4187 42.89C63.3393 42.6473 63.2227 42.4397 63.0687 42.267C62.9147 42.0897 62.7257 41.9543 62.5017 41.861C62.2823 41.763 62.0303 41.714 61.7457 41.714ZM71.0385 50.093C70.9965 50.1863 70.9428 50.261 70.8775 50.317C70.8168 50.373 70.7212 50.401 70.5905 50.401H69.6665L70.9615 47.587L68.0355 40.909H69.1135C69.2208 40.909 69.3048 40.937 69.3655 40.993C69.4262 41.0443 69.4705 41.1027 69.4985 41.168L71.3955 45.634C71.4375 45.7367 71.4725 45.8393 71.5005 45.942C71.5332 46.0447 71.5612 46.1497 71.5845 46.257C71.6172 46.1497 71.6498 46.0447 71.6825 45.942C71.7152 45.8393 71.7525 45.7343 71.7945 45.627L73.6355 41.168C73.6635 41.0933 73.7102 41.0327 73.7755 40.986C73.8455 40.9347 73.9202 40.909 73.9995 40.909H74.9935L71.0385 50.093ZM78.8158 40.797C79.3338 40.797 79.8005 40.8833 80.2158 41.056C80.6358 41.2287 80.9905 41.4737 81.2798 41.791C81.5738 42.1083 81.7978 42.4933 81.9518 42.946C82.1105 43.394 82.1898 43.8957 82.1898 44.451C82.1898 45.011 82.1105 45.515 81.9518 45.963C81.7978 46.411 81.5738 46.7937 81.2798 47.111C80.9905 47.4283 80.6358 47.6733 80.2158 47.846C79.8005 48.014 79.3338 48.098 78.8158 48.098C78.2978 48.098 77.8288 48.014 77.4088 47.846C76.9935 47.6733 76.6388 47.4283 76.3448 47.111C76.0508 46.7937 75.8245 46.411 75.6658 45.963C75.5072 45.515 75.4278 45.011 75.4278 44.451C75.4278 43.8957 75.5072 43.394 75.6658 42.946C75.8245 42.4933 76.0508 42.1083 76.3448 41.791C76.6388 41.4737 76.9935 41.2287 77.4088 41.056C77.8288 40.8833 78.2978 40.797 78.8158 40.797ZM78.8158 47.125C79.5158 47.125 80.0385 46.8917 80.3838 46.425C80.7292 45.9537 80.9018 45.298 80.9018 44.458C80.9018 43.6133 80.7292 42.9553 80.3838 42.484C80.0385 42.0127 79.5158 41.777 78.8158 41.777C78.4612 41.777 78.1532 41.8377 77.8918 41.959C77.6305 42.0803 77.4112 42.2553 77.2338 42.484C77.0612 42.7127 76.9305 42.995 76.8418 43.331C76.7578 43.6623 76.7158 44.038 76.7158 44.458C76.7158 44.878 76.7578 45.2537 76.8418 45.585C76.9305 45.9163 77.0612 46.1963 77.2338 46.425C77.4112 46.649 77.6305 46.8217 77.8918 46.943C78.1532 47.0643 78.4612 47.125 78.8158 47.125ZM84.8031 40.909V45.431C84.8031 45.9677 84.9268 46.383 85.1741 46.677C85.4215 46.971 85.7948 47.118 86.2941 47.118C86.6581 47.118 87.0011 47.0317 87.3231 46.859C87.6451 46.6863 87.9415 46.446 88.2121 46.138V40.909H89.4581V48H88.7161C88.5388 48 88.4268 47.9137 88.3801 47.741L88.2821 46.978C87.9741 47.3187 87.6288 47.594 87.2461 47.804C86.8635 48.0093 86.4248 48.112 85.9301 48.112C85.5428 48.112 85.1998 48.049 84.9011 47.923C84.6071 47.7923 84.3598 47.6103 84.1591 47.377C83.9585 47.1437 83.8068 46.8613 83.7041 46.53C83.6061 46.1987 83.5571 45.8323 83.5571 45.431V40.909H84.8031ZM91.5044 48V40.909H92.2184C92.3538 40.909 92.4471 40.9347 92.4984 40.986C92.5498 41.0373 92.5848 41.126 92.6034 41.252L92.6874 42.358C92.9301 41.8633 93.2288 41.4783 93.5834 41.203C93.9428 40.923 94.3628 40.783 94.8434 40.783C95.0394 40.783 95.2168 40.8063 95.3754 40.853C95.5341 40.895 95.6811 40.9557 95.8164 41.035L95.6554 41.966C95.6228 42.0827 95.5504 42.141 95.4384 42.141C95.3731 42.141 95.2728 42.12 95.1374 42.078C95.0021 42.0313 94.8131 42.008 94.5704 42.008C94.1364 42.008 93.7724 42.134 93.4784 42.386C93.1891 42.638 92.9464 43.0043 92.7504 43.485V48H91.5044ZM99.8579 48V40.909H100.6C100.777 40.909 100.889 40.9953 100.936 41.168L101.027 41.896C101.288 41.574 101.58 41.3103 101.902 41.105C102.229 40.8997 102.607 40.797 103.036 40.797C103.517 40.797 103.904 40.93 104.198 41.196C104.497 41.462 104.711 41.8213 104.842 42.274C104.94 42.0173 105.068 41.7957 105.227 41.609C105.39 41.4223 105.572 41.2683 105.773 41.147C105.974 41.0257 106.186 40.937 106.41 40.881C106.639 40.825 106.87 40.797 107.103 40.797C107.476 40.797 107.808 40.8577 108.097 40.979C108.391 41.0957 108.638 41.2683 108.839 41.497C109.044 41.7257 109.201 42.008 109.308 42.344C109.415 42.6753 109.469 43.0557 109.469 43.485V48H108.223V43.485C108.223 42.9297 108.102 42.5097 107.859 42.225C107.616 41.9357 107.264 41.791 106.802 41.791C106.597 41.791 106.401 41.8283 106.214 41.903C106.032 41.973 105.871 42.078 105.731 42.218C105.591 42.358 105.479 42.5353 105.395 42.75C105.316 42.96 105.276 43.205 105.276 43.485V48H104.03V43.485C104.03 42.9157 103.916 42.491 103.687 42.211C103.458 41.931 103.125 41.791 102.686 41.791C102.378 41.791 102.091 41.875 101.825 42.043C101.564 42.2063 101.323 42.4303 101.104 42.715V48H99.8579ZM114.163 40.797C114.588 40.797 114.98 40.8693 115.339 41.014C115.698 41.154 116.009 41.3593 116.27 41.63C116.531 41.896 116.734 42.2273 116.879 42.624C117.028 43.016 117.103 43.464 117.103 43.968C117.103 44.164 117.082 44.2947 117.04 44.36C116.998 44.4253 116.919 44.458 116.802 44.458H112.084C112.093 44.906 112.154 45.2957 112.266 45.627C112.378 45.9583 112.532 46.236 112.728 46.46C112.924 46.6793 113.157 46.845 113.428 46.957C113.699 47.0643 114.002 47.118 114.338 47.118C114.651 47.118 114.919 47.083 115.143 47.013C115.372 46.9383 115.568 46.859 115.731 46.775C115.894 46.691 116.03 46.614 116.137 46.544C116.249 46.4693 116.345 46.432 116.424 46.432C116.527 46.432 116.606 46.4717 116.662 46.551L117.012 47.006C116.858 47.1927 116.674 47.356 116.459 47.496C116.244 47.6313 116.013 47.7433 115.766 47.832C115.523 47.9207 115.271 47.986 115.01 48.028C114.749 48.0747 114.49 48.098 114.233 48.098C113.743 48.098 113.29 48.0163 112.875 47.853C112.464 47.685 112.107 47.4423 111.804 47.125C111.505 46.803 111.272 46.4063 111.104 45.935C110.936 45.4637 110.852 44.9223 110.852 44.311C110.852 43.8163 110.927 43.3543 111.076 42.925C111.23 42.4957 111.449 42.1247 111.734 41.812C112.019 41.4947 112.366 41.2473 112.777 41.07C113.188 40.888 113.65 40.797 114.163 40.797ZM114.191 41.714C113.589 41.714 113.115 41.889 112.77 42.239C112.425 42.5843 112.21 43.065 112.126 43.681H115.983C115.983 43.3917 115.943 43.128 115.864 42.89C115.785 42.6473 115.668 42.4397 115.514 42.267C115.36 42.0897 115.171 41.9543 114.947 41.861C114.728 41.763 114.476 41.714 114.191 41.714ZM122.758 42.078C122.702 42.1807 122.615 42.232 122.499 42.232C122.429 42.232 122.349 42.2063 122.261 42.155C122.172 42.1037 122.062 42.0477 121.932 41.987C121.806 41.9217 121.654 41.8633 121.477 41.812C121.299 41.756 121.089 41.728 120.847 41.728C120.637 41.728 120.448 41.756 120.28 41.812C120.112 41.8633 119.967 41.9357 119.846 42.029C119.729 42.1223 119.638 42.232 119.573 42.358C119.512 42.4793 119.482 42.6123 119.482 42.757C119.482 42.939 119.533 43.0907 119.636 43.212C119.743 43.3333 119.883 43.4383 120.056 43.527C120.228 43.6157 120.424 43.695 120.644 43.765C120.863 43.8303 121.087 43.9027 121.316 43.982C121.549 44.0567 121.775 44.1407 121.995 44.234C122.214 44.3273 122.41 44.444 122.583 44.584C122.755 44.724 122.893 44.8967 122.996 45.102C123.103 45.3027 123.157 45.5453 123.157 45.83C123.157 46.1567 123.098 46.46 122.982 46.74C122.865 47.0153 122.692 47.2557 122.464 47.461C122.235 47.6617 121.955 47.8203 121.624 47.937C121.292 48.0537 120.91 48.112 120.476 48.112C119.981 48.112 119.533 48.0327 119.132 47.874C118.73 47.7107 118.39 47.503 118.11 47.251L118.404 46.775C118.441 46.7143 118.485 46.6677 118.537 46.635C118.588 46.6023 118.656 46.586 118.74 46.586C118.824 46.586 118.912 46.6187 119.006 46.684C119.099 46.7493 119.211 46.8217 119.342 46.901C119.477 46.9803 119.638 47.0527 119.825 47.118C120.016 47.1833 120.254 47.216 120.539 47.216C120.781 47.216 120.994 47.1857 121.176 47.125C121.358 47.0597 121.509 46.9733 121.631 46.866C121.752 46.7587 121.841 46.635 121.897 46.495C121.957 46.355 121.988 46.2057 121.988 46.047C121.988 45.851 121.934 45.69 121.827 45.564C121.724 45.4333 121.586 45.3237 121.414 45.235C121.241 45.1417 121.043 45.0623 120.819 44.997C120.599 44.927 120.373 44.8547 120.14 44.78C119.911 44.7053 119.685 44.6213 119.461 44.528C119.241 44.43 119.045 44.3087 118.873 44.164C118.7 44.0193 118.56 43.842 118.453 43.632C118.35 43.4173 118.299 43.1583 118.299 42.855C118.299 42.5843 118.355 42.3253 118.467 42.078C118.579 41.826 118.742 41.6067 118.957 41.42C119.171 41.2287 119.435 41.077 119.748 40.965C120.06 40.853 120.417 40.797 120.819 40.797C121.285 40.797 121.703 40.8717 122.072 41.021C122.445 41.1657 122.767 41.3663 123.038 41.623L122.758 42.078ZM128.828 42.078C128.772 42.1807 128.686 42.232 128.569 42.232C128.499 42.232 128.42 42.2063 128.331 42.155C128.242 42.1037 128.133 42.0477 128.002 41.987C127.876 41.9217 127.724 41.8633 127.547 41.812C127.37 41.756 127.16 41.728 126.917 41.728C126.707 41.728 126.518 41.756 126.35 41.812C126.182 41.8633 126.037 41.9357 125.916 42.029C125.799 42.1223 125.708 42.232 125.643 42.358C125.582 42.4793 125.552 42.6123 125.552 42.757C125.552 42.939 125.603 43.0907 125.706 43.212C125.813 43.3333 125.953 43.4383 126.126 43.527C126.299 43.6157 126.495 43.695 126.714 43.765C126.933 43.8303 127.157 43.9027 127.386 43.982C127.619 44.0567 127.846 44.1407 128.065 44.234C128.284 44.3273 128.48 44.444 128.653 44.584C128.826 44.724 128.963 44.8967 129.066 45.102C129.173 45.3027 129.227 45.5453 129.227 45.83C129.227 46.1567 129.169 46.46 129.052 46.74C128.935 47.0153 128.763 47.2557 128.534 47.461C128.305 47.6617 128.025 47.8203 127.694 47.937C127.363 48.0537 126.98 48.112 126.546 48.112C126.051 48.112 125.603 48.0327 125.202 47.874C124.801 47.7107 124.46 47.503 124.18 47.251L124.474 46.775C124.511 46.7143 124.556 46.6677 124.607 46.635C124.658 46.6023 124.726 46.586 124.81 46.586C124.894 46.586 124.983 46.6187 125.076 46.684C125.169 46.7493 125.281 46.8217 125.412 46.901C125.547 46.9803 125.708 47.0527 125.895 47.118C126.086 47.1833 126.324 47.216 126.609 47.216C126.852 47.216 127.064 47.1857 127.246 47.125C127.428 47.0597 127.58 46.9733 127.701 46.866C127.822 46.7587 127.911 46.635 127.967 46.495C128.028 46.355 128.058 46.2057 128.058 46.047C128.058 45.851 128.004 45.69 127.897 45.564C127.794 45.4333 127.657 45.3237 127.484 45.235C127.311 45.1417 127.113 45.0623 126.889 44.997C126.67 44.927 126.443 44.8547 126.21 44.78C125.981 44.7053 125.755 44.6213 125.531 44.528C125.312 44.43 125.116 44.3087 124.943 44.164C124.77 44.0193 124.63 43.842 124.523 43.632C124.42 43.4173 124.369 43.1583 124.369 42.855C124.369 42.5843 124.425 42.3253 124.537 42.078C124.649 41.826 124.812 41.6067 125.027 41.42C125.242 41.2287 125.505 41.077 125.818 40.965C126.131 40.853 126.488 40.797 126.889 40.797C127.356 40.797 127.773 40.8717 128.142 41.021C128.515 41.1657 128.837 41.3663 129.108 41.623L128.828 42.078ZM136.046 48H135.493C135.372 48 135.274 47.9813 135.199 47.944C135.125 47.9067 135.076 47.8273 135.052 47.706L134.912 47.048C134.726 47.216 134.544 47.3677 134.366 47.503C134.189 47.6337 134.002 47.7457 133.806 47.839C133.61 47.9277 133.4 47.9953 133.176 48.042C132.957 48.0887 132.712 48.112 132.441 48.112C132.166 48.112 131.907 48.0747 131.664 48C131.426 47.9207 131.219 47.804 131.041 47.65C130.864 47.496 130.722 47.3023 130.614 47.069C130.512 46.831 130.46 46.551 130.46 46.229C130.46 45.949 130.537 45.6807 130.691 45.424C130.845 45.1627 131.093 44.9317 131.433 44.731C131.779 44.5303 132.229 44.367 132.784 44.241C133.34 44.1103 134.019 44.0357 134.821 44.017V43.464C134.821 42.9133 134.702 42.498 134.464 42.218C134.231 41.9333 133.883 41.791 133.421 41.791C133.118 41.791 132.861 41.8307 132.651 41.91C132.446 41.9847 132.266 42.071 132.112 42.169C131.963 42.2623 131.832 42.3487 131.72 42.428C131.613 42.5027 131.506 42.54 131.398 42.54C131.314 42.54 131.24 42.519 131.174 42.477C131.114 42.4303 131.065 42.3743 131.027 42.309L130.803 41.91C131.195 41.532 131.618 41.2497 132.07 41.063C132.523 40.8763 133.025 40.783 133.575 40.783C133.972 40.783 134.324 40.8483 134.632 40.979C134.94 41.1097 135.199 41.2917 135.409 41.525C135.619 41.7583 135.778 42.0407 135.885 42.372C135.993 42.7033 136.046 43.0673 136.046 43.464V48ZM132.812 47.237C133.032 47.237 133.232 47.216 133.414 47.174C133.596 47.1273 133.767 47.0643 133.925 46.985C134.089 46.901 134.243 46.8007 134.387 46.684C134.537 46.5673 134.681 46.4343 134.821 46.285V44.808C134.247 44.8267 133.76 44.8733 133.358 44.948C132.957 45.018 132.63 45.1113 132.378 45.228C132.126 45.3447 131.942 45.4823 131.825 45.641C131.713 45.7997 131.657 45.977 131.657 46.173C131.657 46.3597 131.688 46.5207 131.748 46.656C131.809 46.7913 131.891 46.9033 131.993 46.992C132.096 47.076 132.217 47.139 132.357 47.181C132.497 47.2183 132.649 47.237 132.812 47.237ZM140.321 40.79C140.629 40.79 140.916 40.825 141.182 40.895C141.453 40.9603 141.698 41.0583 141.917 41.189H143.842V41.651C143.842 41.805 143.744 41.903 143.548 41.945L142.743 42.057C142.902 42.3603 142.981 42.6987 142.981 43.072C142.981 43.4173 142.913 43.7323 142.778 44.017C142.647 44.297 142.463 44.5373 142.225 44.738C141.992 44.9387 141.712 45.0927 141.385 45.2C141.063 45.3073 140.708 45.361 140.321 45.361C139.99 45.361 139.677 45.3213 139.383 45.242C139.234 45.3353 139.119 45.4357 139.04 45.543C138.965 45.6503 138.928 45.7553 138.928 45.858C138.928 46.026 138.996 46.1543 139.131 46.243C139.266 46.327 139.446 46.3877 139.67 46.425C139.894 46.4623 140.148 46.4857 140.433 46.495C140.718 46.5043 141.007 46.5207 141.301 46.544C141.6 46.5627 141.891 46.5977 142.176 46.649C142.461 46.7003 142.715 46.7843 142.939 46.901C143.163 47.0177 143.343 47.1787 143.478 47.384C143.613 47.5893 143.681 47.8553 143.681 48.182C143.681 48.4853 143.604 48.7793 143.45 49.064C143.301 49.3487 143.084 49.6007 142.799 49.82C142.514 50.044 142.167 50.2213 141.756 50.352C141.345 50.4873 140.881 50.555 140.363 50.555C139.845 50.555 139.39 50.5037 138.998 50.401C138.611 50.2983 138.289 50.1607 138.032 49.988C137.775 49.8153 137.582 49.6147 137.451 49.386C137.325 49.162 137.262 48.9263 137.262 48.679C137.262 48.329 137.372 48.0327 137.591 47.79C137.815 47.5427 138.121 47.3467 138.508 47.202C138.307 47.1087 138.146 46.985 138.025 46.831C137.908 46.6723 137.85 46.4623 137.85 46.201C137.85 46.0983 137.869 45.9933 137.906 45.886C137.943 45.774 137.999 45.6643 138.074 45.557C138.153 45.4497 138.249 45.347 138.361 45.249C138.473 45.151 138.604 45.0647 138.753 44.99C138.403 44.794 138.128 44.535 137.927 44.213C137.731 43.8863 137.633 43.506 137.633 43.072C137.633 42.7267 137.698 42.414 137.829 42.134C137.964 41.8493 138.151 41.609 138.389 41.413C138.627 41.2123 138.909 41.0583 139.236 40.951C139.567 40.8437 139.929 40.79 140.321 40.79ZM142.533 48.385C142.533 48.2077 142.484 48.0653 142.386 47.958C142.288 47.8507 142.155 47.769 141.987 47.713C141.819 47.6523 141.625 47.608 141.406 47.58C141.187 47.552 140.956 47.5333 140.713 47.524C140.47 47.51 140.223 47.496 139.971 47.482C139.719 47.468 139.479 47.4423 139.25 47.405C138.984 47.531 138.767 47.685 138.599 47.867C138.436 48.049 138.354 48.266 138.354 48.518C138.354 48.6767 138.394 48.8237 138.473 48.959C138.557 49.099 138.683 49.218 138.851 49.316C139.019 49.4187 139.229 49.498 139.481 49.554C139.738 49.6147 140.039 49.645 140.384 49.645C140.72 49.645 141.021 49.6147 141.287 49.554C141.553 49.4933 141.777 49.407 141.959 49.295C142.146 49.183 142.288 49.05 142.386 48.896C142.484 48.742 142.533 48.5717 142.533 48.385ZM140.321 44.535C140.573 44.535 140.795 44.5 140.986 44.43C141.182 44.36 141.345 44.262 141.476 44.136C141.607 44.01 141.705 43.8607 141.77 43.688C141.835 43.5107 141.868 43.317 141.868 43.107C141.868 42.673 141.735 42.3277 141.469 42.071C141.208 41.8143 140.825 41.686 140.321 41.686C139.822 41.686 139.439 41.8143 139.173 42.071C138.912 42.3277 138.781 42.673 138.781 43.107C138.781 43.317 138.814 43.5107 138.879 43.688C138.949 43.8607 139.049 44.01 139.18 44.136C139.311 44.262 139.472 44.36 139.663 44.43C139.854 44.5 140.074 44.535 140.321 44.535ZM147.892 40.797C148.316 40.797 148.708 40.8693 149.068 41.014C149.427 41.154 149.737 41.3593 149.999 41.63C150.26 41.896 150.463 42.2273 150.608 42.624C150.757 43.016 150.832 43.464 150.832 43.968C150.832 44.164 150.811 44.2947 150.769 44.36C150.727 44.4253 150.647 44.458 150.531 44.458H145.812C145.822 44.906 145.883 45.2957 145.995 45.627C146.107 45.9583 146.261 46.236 146.457 46.46C146.653 46.6793 146.886 46.845 147.157 46.957C147.427 47.0643 147.731 47.118 148.067 47.118C148.379 47.118 148.648 47.083 148.872 47.013C149.1 46.9383 149.296 46.859 149.46 46.775C149.623 46.691 149.758 46.614 149.866 46.544C149.978 46.4693 150.073 46.432 150.153 46.432C150.255 46.432 150.335 46.4717 150.391 46.551L150.741 47.006C150.587 47.1927 150.402 47.356 150.188 47.496C149.973 47.6313 149.742 47.7433 149.495 47.832C149.252 47.9207 149 47.986 148.739 48.028C148.477 48.0747 148.218 48.098 147.962 48.098C147.472 48.098 147.019 48.0163 146.604 47.853C146.193 47.685 145.836 47.4423 145.533 47.125C145.234 46.803 145.001 46.4063 144.833 45.935C144.665 45.4637 144.581 44.9223 144.581 44.311C144.581 43.8163 144.655 43.3543 144.805 42.925C144.959 42.4957 145.178 42.1247 145.463 41.812C145.747 41.4947 146.095 41.2473 146.506 41.07C146.916 40.888 147.378 40.797 147.892 40.797ZM147.919 41.714C147.318 41.714 146.844 41.889 146.499 42.239C146.153 42.5843 145.939 43.065 145.855 43.681H149.712C149.712 43.3917 149.672 43.128 149.593 42.89C149.513 42.6473 149.397 42.4397 149.243 42.267C149.089 42.0897 148.9 41.9543 148.676 41.861C148.456 41.763 148.204 41.714 147.919 41.714Z" fill="#828282"/>
<rect x="278" y="26" width="32" height="32" rx="8" fill="#0F80E9"/>
<path d="M286.512 48.75V43.5117L297.762 42L286.512 40.4883V35.25L302.262 42L286.512 48.75Z" fill="white"/>
</svg>
