<svg width="252" height="76" viewBox="0 0 252 76" fill="none" xmlns="http://www.w3.org/2000/svg">
<rect x="20.5" y="16.5" width="43" height="43" rx="7.5" fill="white" stroke="#F3F4F9"/>
<path d="M46.5 35.0117V33.5H37.5V35.0117H46.5ZM46.5 37.2617V35.75H37.5V37.2617H46.5ZM46.5 39.5117V38H37.5V39.5117H46.5ZM48.0117 30.5117C48.4102 30.5117 48.75 30.6641 49.0312 30.9688C49.3359 31.25 49.4883 31.5898 49.4883 31.9883V40.9883C49.4883 41.3867 49.3359 41.7383 49.0312 42.043C48.75 42.3477 48.4102 42.5 48.0117 42.5H37.5L34.5117 45.4883V31.9883C34.5117 31.5898 34.6523 31.25 34.9336 30.9688C35.2383 30.6641 35.5898 30.5117 35.9883 30.5117H48.0117Z" fill="#AAB0B7"/>
<rect x="76.5" y="16.5" width="43" height="43" rx="7.5" fill="white" stroke="#F3F4F9"/>
<path d="M101.973 37.2617H103.238C103.238 38.5273 102.793 39.6406 101.902 40.6016C101.035 41.5391 99.9805 42.1016 98.7383 42.2891V44.75H97.2617V42.2891C96.0195 42.1016 94.9531 41.5391 94.0625 40.6016C93.1953 39.6406 92.7617 38.5273 92.7617 37.2617H94.0273C94.0273 38.3633 94.4141 39.2773 95.1875 40.0039C95.9844 40.707 96.9219 41.0586 98 41.0586C99.0781 41.0586 100.004 40.707 100.777 40.0039C101.574 39.2773 101.973 38.3633 101.973 37.2617ZM99.582 38.8438C99.1367 39.2891 98.6094 39.5117 98 39.5117C97.3906 39.5117 96.8633 39.2891 96.418 38.8438C95.9727 38.3984 95.75 37.8711 95.75 37.2617V32.7617C95.75 32.1523 95.9727 31.625 96.418 31.1797C96.8633 30.7344 97.3906 30.5117 98 30.5117C98.6094 30.5117 99.1367 30.7344 99.582 31.1797C100.027 31.625 100.25 32.1523 100.25 32.7617V37.2617C100.25 37.8711 100.027 38.3984 99.582 38.8438Z" fill="#2F80ED"/>
<rect x="132" y="16" width="44" height="44" rx="8" fill="#EF6954"/>
<path d="M154 35.75C152.781 35.75 151.633 35.9258 150.555 36.2773V38.5977C150.555 38.9492 150.414 39.1836 150.133 39.3008C149.383 39.6523 148.715 40.1094 148.129 40.6719C147.988 40.8125 147.812 40.8828 147.602 40.8828C147.391 40.8828 147.215 40.8125 147.074 40.6719L145.211 38.8086C145.07 38.668 145 38.4922 145 38.2812C145 38.0703 145.07 37.8945 145.211 37.7539C147.672 35.4102 150.602 34.2383 154 34.2383C157.398 34.2383 160.328 35.4102 162.789 37.7539C162.93 37.8945 163 38.0703 163 38.2812C163 38.4922 162.93 38.668 162.789 38.8086L160.926 40.6719C160.785 40.8125 160.609 40.8828 160.398 40.8828C160.188 40.8828 160.012 40.8125 159.871 40.6719C159.285 40.1094 158.617 39.6523 157.867 39.3008C157.586 39.1836 157.445 38.9609 157.445 38.6328V36.3125C156.273 35.9375 155.125 35.75 154 35.75Z" fill="white"/>
<rect x="188.5" y="16.5" width="43" height="43" rx="7.5" fill="white" stroke="#F3F4F9"/>
<path d="M213.762 36.875L216.75 33.8867V42.1133L213.762 39.125V41.7617C213.762 41.9727 213.68 42.1484 213.516 42.2891C213.375 42.4297 213.199 42.5 212.988 42.5H203.988C203.777 42.5 203.602 42.4297 203.461 42.2891C203.32 42.1484 203.25 41.9727 203.25 41.7617V34.2383C203.25 34.0273 203.32 33.8516 203.461 33.7109C203.602 33.5703 203.777 33.5 203.988 33.5H212.988C213.199 33.5 213.375 33.5703 213.516 33.7109C213.68 33.8516 213.762 34.0273 213.762 34.2383V36.875Z" fill="#AAB0B7"/>
</svg>
