<svg width="252" height="72" viewBox="0 0 252 72" fill="none" xmlns="http://www.w3.org/2000/svg">
<rect x="20.5" y="14.3286" width="43" height="43" rx="7.5" fill="white" stroke="#F3F4F9"/>
<path d="M46.5 32.8403V31.3286H37.5V32.8403H46.5ZM46.5 35.0903V33.5786H37.5V35.0903H46.5ZM46.5 37.3403V35.8286H37.5V37.3403H46.5ZM48.0117 28.3403C48.4102 28.3403 48.75 28.4927 49.0312 28.7974C49.3359 29.0786 49.4883 29.4185 49.4883 29.8169V38.8169C49.4883 39.2153 49.3359 39.5669 49.0312 39.8716C48.75 40.1763 48.4102 40.3286 48.0117 40.3286H37.5L34.5117 43.3169V29.8169C34.5117 29.4185 34.6523 29.0786 34.9336 28.7974C35.2383 28.4927 35.5898 28.3403 35.9883 28.3403H48.0117Z" fill="#AAB0B7"/>
<rect x="76.5" y="14.3286" width="43" height="43" rx="7.5" fill="white" stroke="#F3F4F9"/>
<path d="M101.973 35.0903H103.238C103.238 36.356 102.793 37.4692 101.902 38.4302C101.035 39.3677 99.9805 39.9302 98.7383 40.1177V42.5786H97.2617V40.1177C96.0195 39.9302 94.9531 39.3677 94.0625 38.4302C93.1953 37.4692 92.7617 36.356 92.7617 35.0903H94.0273C94.0273 36.1919 94.4141 37.106 95.1875 37.8325C95.9844 38.5356 96.9219 38.8872 98 38.8872C99.0781 38.8872 100.004 38.5356 100.777 37.8325C101.574 37.106 101.973 36.1919 101.973 35.0903ZM99.582 36.6724C99.1367 37.1177 98.6094 37.3403 98 37.3403C97.3906 37.3403 96.8633 37.1177 96.418 36.6724C95.9727 36.2271 95.75 35.6997 95.75 35.0903V30.5903C95.75 29.981 95.9727 29.4536 96.418 29.0083C96.8633 28.563 97.3906 28.3403 98 28.3403C98.6094 28.3403 99.1367 28.563 99.582 29.0083C100.027 29.4536 100.25 29.981 100.25 30.5903V35.0903C100.25 35.6997 100.027 36.2271 99.582 36.6724Z" fill="#0F80E9"/>
<rect x="132" y="13.8286" width="44" height="44" rx="8" fill="#EF6954"/>
<path d="M154 33.5786C152.781 33.5786 151.633 33.7544 150.555 34.106V36.4263C150.555 36.7778 150.414 37.0122 150.133 37.1294C149.383 37.481 148.715 37.938 148.129 38.5005C147.988 38.6411 147.812 38.7114 147.602 38.7114C147.391 38.7114 147.215 38.6411 147.074 38.5005L145.211 36.6372C145.07 36.4966 145 36.3208 145 36.1099C145 35.8989 145.07 35.7231 145.211 35.5825C147.672 33.2388 150.602 32.0669 154 32.0669C157.398 32.0669 160.328 33.2388 162.789 35.5825C162.93 35.7231 163 35.8989 163 36.1099C163 36.3208 162.93 36.4966 162.789 36.6372L160.926 38.5005C160.785 38.6411 160.609 38.7114 160.398 38.7114C160.188 38.7114 160.012 38.6411 159.871 38.5005C159.285 37.938 158.617 37.481 157.867 37.1294C157.586 37.0122 157.445 36.7896 157.445 36.4614V34.1411C156.273 33.7661 155.125 33.5786 154 33.5786Z" fill="white"/>
<rect x="188.5" y="14.3286" width="43" height="43" rx="7.5" fill="white" stroke="#F3F4F9"/>
<path d="M213.762 34.7036L216.75 31.7153V39.9419L213.762 36.9536V39.5903C213.762 39.8013 213.68 39.9771 213.516 40.1177C213.375 40.2583 213.199 40.3286 212.988 40.3286H203.988C203.777 40.3286 203.602 40.2583 203.461 40.1177C203.32 39.9771 203.25 39.8013 203.25 39.5903V32.0669C203.25 31.856 203.32 31.6802 203.461 31.5396C203.602 31.3989 203.777 31.3286 203.988 31.3286H212.988C213.199 31.3286 213.375 31.3989 213.516 31.5396C213.68 31.6802 213.762 31.856 213.762 32.0669V34.7036Z" fill="#0F80E9"/>
</svg>
